<svg xmlns="http://www.w3.org/2000/svg" enable-background="new 0 0 2168 235" viewBox="0 0 2168 235"><path fill="#00006F" d="M2128.52 11H2122.09V6.51001H2141.25V11H2134.86V26H2128.52V11Z"/><path fill="#00006F" d="M2161.66 19.45C2161.66 16.36 2161.72 12.62 2161.86 10.33H2161.8C2160.86 14.1 2159.62 19.13 2157.67 26.02H2152.47C2150.93 19.61 2149.67 14.23 2148.71 10.29C2148.83 12.56 2149.05 16.29 2149.05 19.67V26H2143.39V6.53003H2152.46C2153.67 10.6306 2154.67 14.7891 2155.46 18.99V18.99C2156.21 15.55 2157.46 10.99 2158.76 6.53003H2167.76V26H2161.58L2161.66 19.45Z"/><path fill="#00006F" d="M369.26 62.73H428V94.73H429.75C435.89 71.07 449.91 60.55 467.88 60.55C473.076 60.5861 478.241 61.3605 483.22 62.85V114.45C477.22 112.37 467.11 111.39 460.87 111.39C443.01 111.39 429.75 124.09 429.75 143.39V231H369.26V62.73Z"/><path fill="#00006F" d="M607.42 62.73H667.9V231H610.49V199H608.73C601.39 220.48 582.11 233.19 557.02 233.19C521.64 233.19 498.41 206.89 498.3 170.08V62.73H558.78V157.39C558.89 174.04 567.65 184.12 582.88 184.12C597.88 184.12 607.53 174.04 607.42 157.39V62.73Z"/><path fill="#00006F" d="M688.7 146.87C688.7 85.96 721.13 60.54 754.43 60.54C779.43 60.54 795.19 75 801.76 92.09H802.64V6.64001H863.12V231H803.12V203.4H801.8C794.8 220.49 778.58 233.2 754.91 233.2C718.94 233.21 688.7 205.16 688.7 146.87ZM803.95 146.87C803.95 121.87 793.87 106.99 777.22 106.99C760.57 106.99 750.93 121.89 750.93 146.87C750.93 171.85 760.57 186.75 777.22 186.75C793.87 186.75 804 171.41 804 146.87H803.95Z"/><path fill="#00006F" d="M883 146.87C883 85.96 915.43 60.54 948.73 60.54C973.73 60.54 989.49 75 996.06 92.09H996.94V6.64001H1057.41V231H997.41V203.4H996.09C989.09 220.49 972.87 233.2 949.2 233.2C913.28 233.21 883 205.16 883 146.87ZM998.25 146.87C998.25 121.87 988.17 106.99 971.52 106.99C954.87 106.99 945.23 121.89 945.23 146.87C945.23 171.85 954.87 186.75 971.52 186.75C988.17 186.75 998.29 171.41 998.29 146.87H998.25Z"/><path fill="#00006F" d="M1076.5 147.31C1076.5 95.16 1109.81 60.54 1161.96 60.54C1212.79 60.54 1245.66 93.3 1245.66 146.87V160.87H1136.1V163.5C1136.1 179.71 1146.62 191.5 1164.59 191.5C1176.97 191.5 1186.94 186.13 1190.44 176.6H1245.66C1239.96 211.66 1209.94 234.01 1163.27 234.01C1109.37 234.08 1076.5 201.76 1076.5 147.31ZM1190 127.59C1189.67 113.13 1178.28 103.05 1163.27 103.05C1148.48 103.05 1136.43 113.05 1136.1 127.59H1190Z"/><path fill="#00006F" d="M1265.58 62.73H1324.31V94.73H1326.06C1332.19 71.07 1346.22 60.55 1364.19 60.55C1369.38 60.5868 1374.54 61.3612 1379.52 62.85V114.45C1373.52 112.37 1363.42 111.39 1357.17 111.39C1339.32 111.39 1326.06 124.09 1326.06 143.39V231H1265.58V62.73Z"/><path fill="#00006F" d="M1497.72 109.08C1493.88 97.79 1484.46 86.51 1464.08 86.51C1445.46 86.51 1431.44 95.71 1431.54 108.64C1431.44 120.03 1439.43 126.28 1457.95 130.64L1484.68 136.77C1515.58 143.89 1530.68 158.58 1530.68 182.35C1530.68 212.81 1502.52 234.35 1461.87 234.35C1424.08 234.35 1399.31 217.59 1393.87 187.79L1425.53 182.97C1429.47 199.51 1442.07 207.97 1461.68 207.97C1483.16 207.97 1497.07 197.78 1497.07 184.74C1497.07 174.22 1489.51 166.99 1473.3 163.38L1444.81 157.13C1413.26 150.13 1398.81 134.23 1398.81 110.35C1398.81 80.55 1425.81 60.5 1463.81 60.5C1500.18 60.5 1520.67 77.59 1527.46 103.78L1497.72 109.08Z"/><path fill="#00006F" d="M1640.56 89H1606.05V181.6C1606.05 200.6 1615.58 204.06 1626.21 204.06C1630.08 204.007 1633.94 203.531 1637.71 202.64L1643.63 229.7C1636.8 232.085 1629.61 233.272 1622.38 233.21C1596.52 233.75 1573.18 218.96 1573.29 188.4V89H1548.64V62.7H1573.29V22.41H1606.05V62.73H1640.56V89Z"/><path fill="#00006F" d="M1664.2 183.47C1664.2 145.23 1696.85 136.9 1728.73 133.18C1758.97 129.67 1771.24 129.89 1771.24 117.95V117.18C1771.24 98.12 1760.4 87.05 1739.24 87.05C1717.24 87.05 1704.95 98.56 1700.13 110.5L1669.34 103.5C1680.34 72.82 1708.34 60.5 1738.8 60.5C1765.54 60.5 1804.1 70.25 1804.1 119.22V231H1772.1V208H1770.78C1764.54 220.6 1748.87 234.73 1721.04 234.73C1689.07 234.74 1664.2 216.55 1664.2 183.47ZM1771.35 170.32V148.63C1766.64 153.34 1741.44 156.19 1730.82 157.63C1711.82 160.15 1696.3 166.39 1696.3 183.92C1696.3 200.14 1709.67 208.46 1728.19 208.46C1755.47 208.44 1771.35 190.26 1771.35 170.32Z"/><path fill="#00006F" d="M1835.54 147.64C1835.54 96.26 1866.21 60.54 1913.65 60.54C1951.89 60.54 1979.6 83.11 1983.11 117.07H1951.23C1947.72 101.3 1935.01 88.15 1914.23 88.15C1886.84 88.15 1868.65 110.83 1868.65 146.87C1868.65 183.58 1886.51 206.69 1914.23 206.69C1932.96 206.69 1947.1 195.96 1951.23 177.77H1983.11C1979.49 210.53 1953.75 234.41 1913.98 234.41C1865.12 234.41 1835.54 198.37 1835.54 147.64Z"/><path fill="#00006F" d="M2013.66 6.64001H2046.42V134H2049.27L2116.32 62.78H2155.54L2087.39 134.98L2160.14 231.06H2119.93L2062.74 155.06L2046.42 171.38V231H2013.66V6.64001Z"/><path fill="#00006F" d="M179.61 119.86V60.19H119.94C119.939 68.0263 121.481 75.7862 124.479 83.0262C127.478 90.2663 131.873 96.8449 137.414 102.386C142.955 107.927 149.534 112.322 156.774 115.321C164.014 118.319 171.774 119.861 179.61 119.86Z"/><path fill="#00006F" d="M0.599976 231H88.89C112.951 230.997 136.026 221.437 153.039 204.422C170.052 187.407 179.61 164.331 179.61 140.27H0.609955L0.599976 231Z"/><path fill="#00006F" d="M119.94 0.52002C119.939 8.35637 121.481 16.1162 124.479 23.3563C127.478 30.5964 131.873 37.1749 137.414 42.716C142.955 48.2571 149.534 52.6523 156.774 55.6506C164.014 58.6488 171.774 60.1913 179.61 60.19V0.52002H119.94Z"/><path fill="#00006F" d="M60.27 0.52002C60.27 16.3455 66.5567 31.5228 77.747 42.7131C88.9373 53.9034 104.115 60.19 119.94 60.19H60.27C60.27 76.0155 66.5567 91.1928 77.747 102.383C88.9373 113.573 104.115 119.86 119.94 119.86V119.86V0.52002H60.27Z"/><path fill="#00006F" d="M60.27 119.86V60.19H0.599976C0.599976 76.0155 6.88661 91.1928 18.0769 102.383C29.2672 113.573 44.4445 119.86 60.27 119.86V119.86Z"/></svg>