<svg xmlns="http://www.w3.org/2000/svg" width="512" height="512" enable-background="new 0 0 480 480" viewBox="0 0 480 480"><g fill="#63f"><path d="m470.68 322.771c-5.904-4.984-13.704-7.072-21.304-5.752l-153.376 26.68v-54.752c11.824-.72 33.592-4.136 48.608-19.144 21.04-21.024 19.392-55.552 19.304-57.008-.216-4.08-3.472-7.328-7.544-7.544-1.448-.128-35.992-1.728-57.008 19.296-1.2 1.2-2.304 2.456-3.36 3.728v-27.272c11.824-.72 33.592-4.136 48.608-19.144 21.04-21.024 19.392-55.552 19.304-57.008-.216-4.08-3.472-7.328-7.544-7.544-1.448-.112-35.992-1.728-57.008 19.304-1.2 1.2-2.304 2.456-3.36 3.728v-23.76l44.896-43.968c7.16-7.008 11.104-16.352 11.104-26.288 0-9.944-3.944-19.288-11.104-26.296 0-.008-.008-.008-.008-.008-14.56-14.256-38.184-14.36-52.888-.328-14.712-14.04-38.328-13.928-52.896.336-7.16 7.008-11.104 16.352-11.104 26.296 0 9.936 3.944 19.28 11.112 26.296l44.888 43.952v23.76c-1.056-1.28-2.16-2.528-3.36-3.728-21.016-21.04-55.56-19.416-57.008-19.304-4.08.216-7.328 3.472-7.544 7.544-.088 1.456-1.736 35.984 19.304 57.008 15.016 15.024 36.784 18.432 48.608 19.144v27.272c-1.056-1.28-2.16-2.536-3.36-3.728-21.024-21.024-55.544-19.416-57.008-19.296-4.08.216-7.328 3.472-7.544 7.544-.088 1.456-1.736 35.984 19.304 57.008 15.016 15.024 36.784 18.432 48.608 19.144v44.952l-34.344-34.344c-1.496-1.496-3.528-2.336-5.656-2.336h-80c0-4.424-3.576-8-8-8h-32-120v16h112v112h-112v16h120 32c4.424 0 8-3.576 8-8h22.112l85.528 42.768c3.696 1.848 7.704 2.776 11.696 2.776 4.552 0 9.096-1.192 13.168-3.568l174.528-101.816c8-4.664 12.968-13.312 12.968-22.576 0-7.744-3.4-15.04-9.32-20.024zm-160.008-86.92c10.784-10.784 27.392-13.68 37.08-14.424-.728 9.664-3.608 26.208-14.456 37.056-10.784 10.784-27.392 13.68-37.072 14.424.728-9.664 3.608-26.208 14.448-37.056zm0-87.936c10.784-10.792 27.392-13.688 37.08-14.432-.728 9.664-3.608 26.208-14.456 37.056-10.776 10.776-27.36 13.672-37.048 14.424.752-9.688 3.648-26.272 14.424-37.048zm-67.968 22.624c-10.792-10.784-13.688-27.392-14.432-37.08 9.664.728 26.208 3.608 37.056 14.456 10.776 10.776 13.672 27.36 14.424 37.048-9.688-.752-26.272-3.648-37.048-14.424zm0 87.944c-10.792-10.784-13.688-27.4-14.432-37.08 9.664.728 26.208 3.6 37.056 14.448 10.776 10.784 13.672 27.368 14.424 37.056-9.688-.752-26.272-3.648-37.048-14.424zm-98.704 158.728h-16v-112h16zm102.304-356.024c-4.064-3.984-6.304-9.264-6.304-14.864 0-5.608 2.24-10.888 6.296-14.864 4.256-4.168 9.84-6.248 15.432-6.248 5.576 0 11.168 2.088 15.424 6.248l5.256 5.152c3.112 3.048 8.08 3.048 11.184 0l5.256-5.152c8.504-8.32 22.336-8.32 30.84-.008 4.072 3.976 6.312 9.264 6.312 14.872 0 5.6-2.24 10.88-6.296 14.856l-41.704 40.84zm212.664 290.36-174.52 101.816c-2.96 1.736-6.568 1.84-9.648.304l-87.216-43.608c-1.112-.56-2.344-.848-3.584-.848h-24v-96h76.688l63.032 63.032c2.72 2.72 4.28 6.488 4.28 10.344 0 8.064-6.56 14.624-14.624 14.624-3.848 0-7.624-1.56-10.344-4.28l-41.376-41.376-11.312 11.312 41.376 41.376c5.784 5.784 13.472 8.968 21.656 8.968 16.88 0 30.624-13.744 30.624-30.624 0-8.176-3.184-15.872-8.968-21.656l-6.48-6.48 147.552-25.664c2.976-.536 5.976.296 8.272 2.232 2.304 1.936 3.624 4.768 3.624 7.768 0 3.592-1.928 6.952-5.032 8.76z"/><path d="m168 33.211h-16c0 13.232-10.768 24-24 24v16c13.232 0 24 10.768 24 24h16c0-13.232 10.768-24 24-24v-16c-13.232 0-24-10.768-24-24zm-8 40.248c-2.336-3.144-5.104-5.912-8.248-8.248 3.144-2.336 5.912-5.104 8.248-8.248 2.336 3.144 5.104 5.912 8.248 8.248-3.144 2.336-5.912 5.104-8.248 8.248z"/><path d="m120 105.211h-16c0 13.232-10.768 24-24 24v16c13.232 0 24 10.768 24 24h16c0-13.232 10.768-24 24-24v-16c-13.232 0-24-10.768-24-24zm-8 40.248c-2.336-3.144-5.104-5.912-8.248-8.248 3.144-2.336 5.912-5.104 8.248-8.248 2.336 3.144 5.104 5.912 8.248 8.248-3.144 2.336-5.912 5.104-8.248 8.248z"/><path d="m424 65.211h-16c0 13.232-10.768 24-24 24v16c13.232 0 24 10.768 24 24h16c0-13.232 10.768-24 24-24v-16c-13.232 0-24-10.768-24-24zm-8 40.248c-2.336-3.144-5.104-5.912-8.248-8.248 3.144-2.336 5.912-5.104 8.248-8.248 2.336 3.144 5.104 5.912 8.248 8.248-3.144 2.336-5.912 5.104-8.248 8.248z"/><path d="m144 257.211h16v16h-16z"/><path d="m112 257.211h16v16h-16z"/><path d="m80 257.211h16v16h-16z"/></g></svg>