<svg xmlns="http://www.w3.org/2000/svg" width="2090" height="440" fill="none" viewBox="0 0 2090 440"><path fill="#63F" d="M445.644 275.443C445.644 282.779 448.724 288.423 454.888 292.383C461.052 296.343 469.561 298.323 480.422 298.323C487.753 298.323 494.872 297.374 501.773 295.463C508.664 293.557 515.201 290.697 521.362 286.882V257.843C514.904 256.379 508.376 255.203 501.773 254.322C495.17 253.443 488.633 253.003 482.184 253.003C470.441 253.003 461.416 254.914 455.108 258.723C448.793 262.538 445.644 268.114 445.644 275.443ZM458.411 345.403C435.518 345.403 416.732 339.023 402.062 326.263C387.381 313.503 380.047 297.003 380.047 276.762C380.047 255.939 387.822 239.735 403.381 228.143C418.935 216.56 440.649 210.764 468.536 210.764C476.747 210.764 485.111 211.574 493.628 213.183C502.137 214.8 511.381 217.514 521.362 221.324V202.843C521.362 191.995 517.621 183.78 510.137 178.204C502.654 172.636 491.425 169.844 476.461 169.844C467.944 169.844 458.48 171.094 448.066 173.583C437.643 176.08 425.832 180.115 412.626 185.684L387.973 135.965C406.462 127.755 424.293 121.595 441.46 117.485C458.63 113.379 475.581 111.325 492.306 111.325C523.71 111.325 548.141 118.804 565.605 133.763C583.064 148.724 591.797 169.699 591.797 196.683V341.883H521.362V322.082C511.381 330.297 501.4 336.239 491.425 339.903C481.447 343.565 470.441 345.403 458.411 345.403"/><path fill="#63F" d="M697.526 227.484C697.526 243.322 702.734 256.598 713.154 267.304C723.567 278.013 736.41 283.362 751.674 283.362C760.183 283.362 767.964 281.823 775.005 278.744C782.05 275.663 788.358 271.195 793.933 265.323V189.644C788.358 184.076 781.975 179.743 774.786 176.663C767.591 173.583 759.888 172.044 751.674 172.044C736.115 172.044 723.204 177.324 712.934 187.884C702.656 198.443 697.526 211.644 697.526 227.484ZM727.901 341.442C714.103 341.442 701.048 338.438 688.72 332.421C676.394 326.413 665.752 318.276 656.802 308.003C647.849 297.737 640.735 285.639 635.452 271.703C630.171 257.775 627.529 242.882 627.529 227.044C627.529 211.204 630.24 196.396 635.674 182.604C641.099 168.819 648.585 156.796 658.124 146.524C667.658 136.26 678.886 128.197 691.803 122.325C704.715 116.461 718.506 113.524 733.185 113.524C745.213 113.524 756.585 116.023 767.302 121.006C778.011 125.995 787.18 133.036 794.817 142.124V114.845H864.813V344.962C864.813 375.466 854.466 398.932 833.776 415.363C813.084 431.788 783.514 440 745.071 440C728.046 440 711.462 438.242 695.323 434.722C679.18 431.202 664.358 426.209 650.86 419.761L672.872 368.28C685.489 374.147 697.526 378.545 708.97 381.483C720.418 384.412 731.568 385.88 742.43 385.88C759.158 385.88 771.925 382.363 780.728 375.322C789.533 368.28 793.933 357.866 793.933 344.082V311.523C786.594 320.619 777.055 327.876 765.319 333.301C753.58 338.735 741.107 341.442 727.901 341.442"/><path fill="#63F" d="M897.863 318.564L929.12 271.042C945.256 279.555 958.762 285.494 969.621 288.863C980.476 292.239 991.338 293.922 1002.2 293.922C1012.17 293.922 1020.1 292.239 1025.97 288.863C1031.84 285.494 1034.78 281.019 1034.78 275.443C1034.78 271.042 1033.08 267.523 1029.71 264.883C1026.34 262.243 1020.98 260.34 1013.64 259.163L970.062 251.242C948.051 247.139 931.392 239.514 920.097 228.364C908.794 217.22 903.147 202.843 903.147 185.244C903.147 162.075 911.58 143.884 928.461 130.684C945.334 117.485 968.59 110.883 998.235 110.883C1014.09 110.883 1029.78 113.085 1045.34 117.485C1060.89 121.883 1076.01 128.341 1090.69 136.845L1058.11 182.164C1046.66 175.715 1035.58 170.876 1024.87 167.644C1014.15 164.419 1003.52 162.804 992.955 162.804C984.437 162.804 977.765 164.2 972.924 166.983C968.082 169.775 965.66 173.659 965.66 178.644C965.66 183.338 967.346 186.859 970.724 189.204C974.093 191.555 980.185 193.459 988.994 194.923L1031.69 202.843C1053.99 206.954 1071.02 214.655 1082.76 225.944C1094.5 237.238 1100.22 251.394 1099.93 268.403C1099.93 279.555 1097.51 289.893 1092.67 299.423C1087.82 308.958 1081 317.174 1072.2 324.062C1063.39 330.957 1052.97 336.383 1040.94 340.342C1028.9 344.305 1015.99 346.284 1002.2 346.284C981.651 346.284 962.426 343.932 944.528 339.243C926.625 334.554 911.069 327.66 897.863 318.564"/><path fill="#63F" d="M1614.55 114.845V341.883H1543.23V114.845H1614.55ZM1578.89 79.6464C1567.74 79.6464 1558.27 75.7624 1550.5 67.9855C1542.72 60.2146 1538.83 50.8998 1538.83 40.047C1538.83 29.1972 1542.79 19.8042 1550.72 11.8861C1558.64 3.96506 1568.03 0.0060061 1578.89 0.0060061C1589.74 0.0060061 1599.21 3.96506 1607.29 11.8861C1615.35 19.8042 1619.39 29.1972 1619.39 40.047C1619.39 50.8998 1615.5 60.2146 1607.73 67.9855C1599.95 75.7624 1590.34 79.6464 1578.89 79.6464"/><path fill="#63F" d="M1699.95 271.923V169.843H1655.93V114.845H1699.95V60.9383L1774.34 46.2346L1771.27 114.845H1832.02V169.843H1771.27V257.842C1771.27 267.818 1773.54 274.859 1778.09 278.962C1782.64 283.073 1790.34 285.122 1801.21 285.122C1805.31 285.122 1809.42 284.833 1813.53 284.242C1817.64 283.659 1823.22 282.339 1830.26 280.282V337.924C1823.8 339.978 1815.88 341.661 1806.49 342.982C1797.09 344.304 1788.73 344.961 1781.39 344.961C1754.69 344.961 1734.43 338.801 1720.64 326.482C1706.84 314.161 1699.95 295.977 1699.95 271.923Z"/><path fill="#63F" d="M1871.64 341.883V24.2829L1942.96 7.27528V151.804C1951.76 138.602 1962.25 128.561 1974.43 121.664C1986.61 114.776 2000.03 111.325 2014.71 111.325C2036.72 111.325 2054.77 118.585 2068.86 133.105C2082.95 147.625 2089.99 166.179 2089.99 188.764V341.883H2018.68V209.444C2018.68 196.836 2015.22 186.639 2008.33 178.863C2001.43 171.094 1992.26 167.204 1980.82 167.204C1973.18 167.204 1963.53 169.291 1957.69 173.182C1945.91 181.03 1941.99 188.877 1942.96 201.819V341.883H1871.64Z"/><path fill="#63F" d="M1136.42 343.421H1211.76C1213.4 286.477 1216.04 195.454 1218.42 186.002C1222.58 169.432 1234.52 162.729 1250.86 164.154C1265.53 165.433 1274.18 173.999 1276.75 190.853C1277.97 198.862 1278.21 207.05 1278.46 215.17C1278.63 220.894 1277.06 290.304 1275.87 343.421H1349.8C1350.78 288.237 1352.11 224.05 1352.81 215.284C1353.72 203.93 1355.69 192.104 1360.11 181.731C1365.69 168.613 1379.07 163.522 1393.19 165.957C1405.23 168.032 1412.19 175.123 1414.66 190.077C1416.29 199.958 1416.67 210.125 1416.77 220.17C1416.91 234.041 1415.92 288.952 1414.92 343.421H1487.96C1489.16 270.978 1490.32 193.389 1489.48 165.457C1488.78 142.296 1475.46 124.83 1453.41 115.269C1414.75 98.4986 1371.96 109.306 1345.98 142.369C1345.35 143.172 1344.17 143.538 1342.92 144.305C1329.18 121.223 1308.28 110.397 1282.31 108.444C1256.34 106.489 1234.16 115.632 1214.7 134.436C1214.25 125.668 1213.92 119.219 1213.55 111.887C1190.86 111.887 1169.19 112.049 1147.53 111.797C1139.84 111.709 1139.98 116.446 1139.99 121.772C1140.03 144.635 1138.28 288.435 1136.42 343.421"/><path fill="#63F" d="M273.013 131.099V343.355H344.331V53.462C333.981 82.4609 316.663 118.666 273.013 131.099Z"/><path fill="#63F" d="M7.81051 151.451C-7.81651 99.3303 -0.0106296 49.4759 66.3506 30.6089C83.1798 25.8238 108.833 22.3664 126.247 22.096C189.813 21.1078 321.445 21.8888 324.453 22.1261C326.106 22.2582 319.744 47.2861 308.597 63.8372C290.364 90.9076 264.39 103.611 231.574 105.263C191.166 107.299 150.644 107.678 110.171 107.696C70.1002 107.717 35.7188 119.696 9.30736 150.939C9.0162 151.286 8.3212 151.294 7.81051 151.451Z"/><path fill="#63F" d="M207.696 139.206L100.5 139.011C44.9133 139.495 0 184.671 0 240.342C0 296.012 44.9133 341.19 100.5 341.673V210.914H207.696V139.206Z"/></svg>