<svg height="32" viewBox="0 0 32 32" width="32" xmlns="http://www.w3.org/2000/svg"><g fill="$bt-brand-secondary"><path d="m15.529 31.059c-8.563 0-15.529-6.967-15.529-15.53s6.966-15.529 15.529-15.529 15.529 6.966 15.529 15.529c.001 8.563-6.966 15.53-15.529 15.53zm0-29.285c-7.585 0-13.755 6.171-13.755 13.755s6.17 13.754 13.755 13.754c7.584 0 13.754-6.17 13.754-13.754s-6.17-13.755-13.754-13.755z"/><path d="m21.652 16.416h-12.246c-.49 0-.888-.396-.888-.887 0-.49.397-.888.888-.888h12.246c.49 0 .887.398.887.888 0 .491-.396.887-.887.887z"/><path d="m15.529 22.539c-.49 0-.888-.397-.888-.887v-12.246c0-.49.398-.888.888-.888s.887.398.887.888v12.246c0 .491-.396.887-.887.887z"/></g></svg>
