<svg xmlns="http://www.w3.org/2000/svg" width="512" height="512" enable-background="new 0 0 512.002 512.002" viewBox="0 0 512.002 512.002"><g fill="#63f"><path d="m500.563 119.845-235.313-117.656c-5.823-2.911-12.677-2.911-18.499 0l-235.314 117.656c-7.007 3.504-11.433 10.665-11.433 18.499s4.426 14.996 11.433 18.499l235.314 117.657c2.912 1.455 6.08 2.183 9.25 2.183 3.168 0 6.339-.728 9.249-2.183l235.314-117.657c7.007-3.504 11.433-10.664 11.433-18.499-.001-7.834-4.428-14.996-11.434-18.499zm-244.562 113.033-189.068-94.534 189.067-94.534 189.067 94.534z"/><path d="m509.814 364.409c-5.108-10.216-17.533-14.355-27.749-9.25l-226.064 113.031-226.065-113.032c-10.216-5.107-22.64-.965-27.748 9.25-5.109 10.217-.967 22.64 9.249 27.749l235.314 117.657c2.912 1.455 6.08 2.183 9.25 2.183 3.168 0 6.339-.728 9.25-2.182l235.314-117.657c10.216-5.11 14.357-17.533 9.249-27.749z"/><path d="m509.814 246.751c-5.108-10.216-17.533-14.357-27.749-9.249l-226.064 113.032-226.065-113.032c-10.216-5.108-22.64-.967-27.748 9.249-5.109 10.217-.967 22.64 9.249 27.749l235.314 117.657c2.912 1.455 6.08 2.183 9.25 2.183 3.168 0 6.339-.728 9.25-2.183l235.313-117.657c10.217-5.109 14.358-17.533 9.25-27.749z"/></g></svg>