<svg enable-background="new 0 0 511.999 511.999" height="512" viewBox="0 0 511.999 511.999" width="512" xmlns="http://www.w3.org/2000/svg"><g fill="#6633ff"><circle cx="10.06" cy="500.446" r="10.06"/><circle cx="267.005" cy="245.308" r="10.04"/><path d="m398.479 118.032c-8.071-8.072-18.802-12.516-30.216-12.516s-22.146 4.446-30.216 12.516c-16.661 16.662-16.661 43.772 0 60.433 8.332 8.331 19.272 12.495 30.216 12.495 10.941 0 21.886-4.166 30.216-12.495 16.661-16.662 16.661-43.772 0-60.433zm-14.197 46.234c-8.833 8.832-23.206 8.832-32.037 0-8.833-8.832-8.833-23.204 0-32.037 4.279-4.279 9.967-6.635 16.018-6.635s11.739 2.356 16.018 6.635c8.833 8.833 8.833 23.205.001 32.037z"/><path d="m125.409 411.45c-4.964-2.472-10.99-.451-13.462 4.512l-11.958 24.015c-5.2 10.441-15.658 17.423-27.296 18.219l-13.908.952c-2.351.157-3.897-1.014-4.612-1.729s-1.889-2.264-1.729-4.613l.952-13.907c.797-11.637 7.779-22.096 18.219-27.296l24.014-11.958c4.964-2.472 6.984-8.499 4.512-13.462-2.471-4.963-8.498-6.984-13.462-4.512l-24.014 11.958c-16.792 8.362-28.02 25.182-29.302 43.898l-.952 13.907c-.514 7.507 2.242 14.863 7.562 20.183 4.898 4.898 11.523 7.624 18.403 7.624.591 0 1.186-.02 1.78-.061l13.908-.952c18.716-1.281 35.536-12.508 43.898-29.302l11.958-24.014c2.472-4.964.452-10.99-4.511-13.462z"/><path d="m505.07 8.18c-4.711-4.641-11.201-7.068-17.793-6.639l-9.348.596c-83.819 5.351-162.262 45.81-215.215 111.004l-22.004 27.089-57.583-1.691c-.098-.003-.197-.004-.294-.004-45.668 0-88.603 17.784-120.896 50.076l-58.978 58.979c-2.805 2.805-3.696 7-2.272 10.702 1.424 3.703 4.894 6.221 8.856 6.423l124.844 6.414-5.09 6.267c-2.565 3.159-2.971 7.553-1.026 11.127 1.956 3.596 4.006 7.135 6.144 10.617l-29.606 35.147c-2.531 3.005-3.076 7.211-1.397 10.763 6.467 13.665 15.05 25.943 25.514 36.493 10.718 10.808 23.251 19.646 37.249 26.271 1.368.648 2.835.965 4.293.965 2.261 0 4.503-.764 6.327-2.243 6.378-5.174 13.731-11.311 20.843-17.245 5.069-4.23 10.255-8.557 15.102-12.547 2.893 1.741 5.822 3.429 8.795 5.046 1.504.818 3.153 1.221 4.796 1.221 2.186 0 4.358-.712 6.156-2.108l6.843-5.31 6.442 125.37c.204 3.962 2.721 7.432 6.423 8.856 1.172.45 2.39.67 3.6.67 2.615 0 5.183-1.023 7.101-2.942l58.979-58.979c32.293-32.293 50.076-75.227 50.076-120.896v-54.995l23.267-18.055c69.729-54.11 112.196-135.704 116.512-223.862l.239-4.886c.326-6.604-2.19-13.052-6.899-17.694zm-471.947 237.642 43.012-43.012c28.465-28.465 66.303-44.157 106.553-44.196l42.085 1.236-74.71 91.98zm151.651 128.052c-5.241 4.372-10.614 8.856-15.6 12.957-9.644-5.223-18.368-11.74-25.992-19.428-7.384-7.445-13.669-15.922-18.737-25.26l21.676-25.733c6.554 8.793 13.728 17.122 21.478 24.925.006.006.012.011.018.017.002.002.004.005.006.007.003.003.006.005.009.008 8.593 8.648 17.836 16.584 27.641 23.761-3.462 2.874-7.009 5.834-10.499 8.746zm167.101-46.202c0 40.305-15.695 78.197-44.196 106.698l-43.012 43.012-6.002-116.792 93.209-72.33v39.412zm139.803-297.893c-4.029 82.297-43.673 158.467-108.767 208.98l-157.46 122.189c-13.058-7.63-25.229-16.639-36.368-26.846l53.086-53.086c3.92-3.92 3.92-10.278 0-14.199-3.921-3.921-10.278-3.921-14.199 0l-53.036 53.036c-9.751-10.795-18.387-22.541-25.74-35.104l129.106-158.949c49.432-60.859 122.66-98.629 200.907-103.623l9.348-.596c1.225-.076 2.045.532 2.423.904.377.371 1 1.178.94 2.409z"/></g></svg>
