<?xml version="1.0" encoding="UTF-8"?><svg xmlns="http://www.w3.org/2000/svg" viewBox="0 0 22 22"><path d="m483.24 0h-150.29c-27.556 0-66.04 15.94-85.52 35.424l-232.81 232.81c-19.483 19.483-19.483 51.37 0 70.85l179.64 179.64c19.483 19.484 51.37 19.484 70.849 0l232.81-232.81c19.483-19.484 35.424-57.969 35.424-85.52v-150.29c-.0001-27.554-22.544-50.1-50.1-50.1m-66.57 166.67c-27.614 0-50-22.385-50-50 0-27.614 22.386-50 50-50 27.614 0 50 22.386 50 50 0 27.614-22.386 50-50 50z" fill="#4d4d4d" transform="matrix(.03 0 0 .03 2.994 2.992)"/></svg>