<svg xmlns="http://www.w3.org/2000/svg" xmlns:xlink="http://www.w3.org/1999/xlink" width="648" height="495" version="1.1" viewBox="0 0 648 495"><title>train-track-feature-flags</title><desc>Created with Sketch.</desc><defs><radialGradient id="radialGradient-1" cx="50%" cy="53.845%" r="63.769%" fx="50%" fy="53.845%" gradientTransform="translate(0.500000,0.538450),scale(0.763758,1.000000),rotate(180.000000),translate(-0.500000,-0.538450)"><stop offset="0%" stop-color="#476581"/><stop offset="100%" stop-color="#22354A"/></radialGradient><linearGradient id="linearGradient-2" x1="50%" x2="50%" y1="0%" y2="100%"><stop offset="0%" stop-color="#FD87AB"/><stop offset="50.649%" stop-color="#FC789D" stop-opacity=".9"/><stop offset="100%" stop-color="#F94F73" stop-opacity="0"/></linearGradient><linearGradient id="linearGradient-3" x1="100%" x2="0%" y1="50%" y2="50%"><stop offset="0%" stop-color="#56F3ED"/><stop offset="65.971%" stop-color="#41EBE2" stop-opacity=".7"/><stop offset="100%" stop-color="#63f" stop-opacity="0"/></linearGradient></defs><g id="train-track-feature-flags" fill="none" fill-rule="evenodd" stroke="none" stroke-width="1"><g><rect id="background-gradient" width="648.15" height="495.03" x="0" y="0" fill="url(#radialGradient-1)"/><g id="background-tracks" stroke="#314C6A" stroke-linecap="square" stroke-linejoin="round" stroke-width="7.047" transform="translate(66.506062, 0.000000)"><polygon id="track-3" points="125.525 493.29 125.525 413.13 259.418 413.13 259.418 266.905 539.536 266.905 539.536 38.758 96.456 38.758 .44 134.774 .44 394.632 .44 431.629 62.102 493.29"/><polyline id="Path-2" points="299.057 493.29 354.112 438.235 354.112 166.926 463.34 166.926 463.34 269.988 539.096 345.743 539.096 493.29"/><polyline id="Path-3" points="75.755 493.29 75.755 364.682 225.504 214.934 255.454 214.934 317.115 153.713 579.616 153.713"/><polyline id="Path-4" points="579.616 431.629 499.456 431.629 299.057 231.23 299.057 66.947 225.504 66.947 149.749 142.702 75.755 142.702 0 66.947 0 0"/></g><polyline id="track-1" stroke="#22354A" stroke-linecap="square" stroke-linejoin="round" stroke-width="7.928" points="626.4 78.3 336.69 78.3 247.95 167.04 247.966 230.789 332.53 315.353 397.275 315.353 446.604 364.682 446.604 493.29"/><polyline id="track-2" stroke="#22354A" stroke-linecap="square" stroke-linejoin="round" stroke-width="7.928" points="0 285.404 79.719 205.684 184.103 205.684 209.208 230.789 247.966 230.789 351.029 128.167 460.698 128.167 475.232 114.073 572.569 114.073 686.642 0"/><path id="red-bullet" fill="url(#linearGradient-2)" d="M446.603625,427.224375 C448.5496,427.224375 450.127125,428.8019 450.127125,430.747875 L450.127125,468.6255 L443.080125,468.6255 L443.080125,430.747875 C443.080125,428.8019 444.65765,427.224375 446.603625,427.224375 Z"/><path id="green-bullet" fill="url(#linearGradient-3)" d="M135.65475,201.720375 L173.091938,201.720375 C175.28116,201.720375 177.055875,203.49509 177.055875,205.684313 C177.055875,207.873535 175.28116,209.64825 173.091938,209.64825 L135.65475,209.64825 L135.65475,201.720375 Z"/></g></g></svg>