<svg xmlns="http://www.w3.org/2000/svg" xmlns:xlink="http://www.w3.org/1999/xlink" width="648" height="495" version="1.1" viewBox="0 0 648 495"><title>train-track-feature-flags-sideview</title><desc>Created with Sketch.</desc><defs><radialGradient id="radialGradient-1" cx="50%" cy="53.845%" r="63.769%" fx="50%" fy="53.845%" gradientTransform="translate(0.500000,0.538450),scale(0.763758,1.000000),rotate(180.000000),translate(-0.500000,-0.538450)"><stop offset="0%" stop-color="#476581"/><stop offset="100%" stop-color="#22354A"/></radialGradient><rect id="path-2" width="98.213" height="41" x="0" y="0"/><filter id="filter-3" width="184.5%" height="302.4%" x="-42.3%" y="-89%" filterUnits="objectBoundingBox"><feOffset dx="0" dy="5" in="SourceAlpha" result="shadowOffsetOuter1"/><feGaussianBlur in="shadowOffsetOuter1" result="shadowBlurOuter1" stdDeviation="13"/><feColorMatrix in="shadowBlurOuter1" type="matrix" values="0 0 0 0 0.133333333 0 0 0 0 0.207843137 0 0 0 0 0.290196078 0 0 0 1 0"/></filter><linearGradient id="linearGradient-4" x1="50%" x2="95.626%" y1="60.184%" y2="60.184%"><stop offset="0%" stop-color="#DF6D8F"/><stop offset="100%" stop-color="#BB3B56"/></linearGradient><circle id="path-5" cx="121.456" cy="22.506" r="8"/><filter id="filter-6" width="631.2%" height="631.2%" x="-265.6%" y="-234.4%" filterUnits="objectBoundingBox"><feMorphology in="SourceAlpha" operator="dilate" radius="1" result="shadowSpreadOuter1"/><feOffset dx="0" dy="5" in="shadowSpreadOuter1" result="shadowOffsetOuter1"/><feGaussianBlur in="shadowOffsetOuter1" result="shadowBlurOuter1" stdDeviation="13"/><feComposite in="shadowBlurOuter1" in2="SourceAlpha" operator="out" result="shadowBlurOuter1"/><feColorMatrix in="shadowBlurOuter1" type="matrix" values="0 0 0 0 0.976470588 0 0 0 0 0.309803922 0 0 0 0 0.450980392 0 0 0 1 0"/></filter><rect id="path-7" width="98.213" height="41" x="0" y="0"/><filter id="filter-8" width="184.5%" height="302.4%" x="-42.3%" y="-89%" filterUnits="objectBoundingBox"><feOffset dx="0" dy="5" in="SourceAlpha" result="shadowOffsetOuter1"/><feGaussianBlur in="shadowOffsetOuter1" result="shadowBlurOuter1" stdDeviation="13"/><feColorMatrix in="shadowBlurOuter1" type="matrix" values="0 0 0 0 0.133333333 0 0 0 0 0.207843137 0 0 0 0 0.290196078 0 0 0 1 0"/></filter><linearGradient id="linearGradient-9" x1="50%" x2="95.626%" y1="60.184%" y2="60.184%"><stop offset="0%" stop-color="#63f"/><stop offset="100%" stop-color="#1F7E77"/></linearGradient><circle id="path-10" cx="138.456" cy="22.506" r="8"/><filter id="filter-11" width="631.2%" height="631.2%" x="-265.6%" y="-234.4%" filterUnits="objectBoundingBox"><feMorphology in="SourceAlpha" operator="dilate" radius="1" result="shadowSpreadOuter1"/><feOffset dx="0" dy="5" in="shadowSpreadOuter1" result="shadowOffsetOuter1"/><feGaussianBlur in="shadowOffsetOuter1" result="shadowBlurOuter1" stdDeviation="13"/><feComposite in="shadowBlurOuter1" in2="SourceAlpha" operator="out" result="shadowBlurOuter1"/><feColorMatrix in="shadowBlurOuter1" type="matrix" values="0 0 0 0 0.168627451 0 0 0 0 0.890196078 0 0 0 0 0.839215686 0 0 0 1 0"/></filter></defs><g id="train-track-feature-flags-sideview" fill="none" fill-rule="evenodd" stroke="none" stroke-width="1"><g id="train-track-feature-flags" transform="translate(-19.000000, 0.000000)"><rect id="background-gradient" width="648.15" height="495.03" x="19" y="0" fill="url(#radialGradient-1)"/><g id="background-tracks" stroke="#314C6A" stroke-linecap="square" stroke-linejoin="round" stroke-width="7.047" transform="translate(85.506063, 0.000000)"><polygon id="track-3" points="125.525 493.29 125.525 413.13 259.418 413.13 259.418 266.905 539.536 266.905 539.536 38.758 96.456 38.758 .44 134.774 .44 394.632 .44 431.629 62.102 493.29"/><polyline id="Path-2" points="299.057 493.29 354.112 438.235 354.112 166.926 463.34 166.926 463.34 269.988 539.096 345.743 539.096 493.29"/><polyline id="Path-3" points="75.755 493.29 75.755 364.682 225.504 214.934 255.454 214.934 317.115 153.713 579.616 153.713"/><polyline id="Path-4" points="579.616 431.629 499.456 431.629 299.057 231.23 299.057 66.947 225.504 66.947 149.749 142.702 75.755 142.702 0 66.947 0 0"/></g><path id="track-2" stroke="#22354A" stroke-linecap="square" stroke-linejoin="round" stroke-width="7.928" d="M1.36424205e-12,390.4035 L72.396857,318.006643 C77.0852665,313.318234 83.4441143,310.684312 90.0745266,310.684312 L173.747536,310.684312 C180.377948,310.684312 186.736796,313.318234 191.425205,318.006643 L201.885482,328.46692 C206.573891,333.155329 212.932739,335.78925 219.563152,335.78925 L237.642319,335.78925 C244.254182,335.78925 250.5968,333.170004 255.282094,328.504733 L343.712906,240.45183 C348.3982,235.786558 354.740818,233.167312 361.352681,233.167312 L450.574746,233.167312 C457.066934,233.167312 463.304099,230.639822 467.964844,226.120312 C472.625588,221.600803 478.862753,219.073312 485.354941,219.073312 L562.213411,219.073312 C568.843823,219.073312 575.202671,216.439391 579.89108,211.750982 L686.642063,105" transform="translate(343.321031, 247.701750) scale(-1, 1) translate(-343.321031, -247.701750)"/><g id="feature-toggle-2" transform="translate(468.000000, 226.000000)"><g id="Rectangle"><use fill="#000" fill-opacity="1" filter="url(#filter-3)" xlink:href="#path-2"/><use fill="#22354A" fill-rule="evenodd" xlink:href="#path-2"/></g><text id="Feature" fill="#E9E9E9" font-family="Raleway-Regular, Raleway" font-size="16.2" font-weight="normal"><tspan x="4.056" y="17">Feature</tspan></text><text id="Label" fill="#A1AEB7" font-family="Raleway-Regular, Raleway" font-size="11.175" font-weight="normal" line-spacing="21.262"><tspan x="4.556" y="32.237">Disabled</tspan></text><rect id="Rectangle" width="33" height="17" x="113" y="14" fill="#22354A" stroke="url(#linearGradient-4)" stroke-width="2" rx="8.5"/><g id="Oval"><use fill="#000" fill-opacity="1" filter="url(#filter-6)" xlink:href="#path-5"/><use fill="#22354A" fill-rule="evenodd" stroke="#F94F73" stroke-width="2" xlink:href="#path-5"/></g></g><g id="feature-toggle-1" transform="translate(128.000000, 137.000000)"><g id="Rectangle"><use fill="#000" fill-opacity="1" filter="url(#filter-8)" xlink:href="#path-7"/><use fill="#22354A" fill-rule="evenodd" xlink:href="#path-7"/></g><text id="Feature" fill="#E9E9E9" font-family="Raleway-Regular, Raleway" font-size="16.2" font-weight="normal"><tspan x="4.056" y="17">Feature</tspan></text><text id="Label" fill="#A1AEB7" font-family="Raleway-Regular, Raleway" font-size="11.175" font-weight="normal" line-spacing="21.262"><tspan x="4.556" y="32.237">Enabled</tspan></text><rect id="Rectangle" width="33" height="17" x="113" y="14" fill="#22354A" stroke="url(#linearGradient-9)" stroke-width="2" rx="8.5"/><g id="Oval"><use fill="#000" fill-opacity="1" filter="url(#filter-11)" xlink:href="#path-10"/><use fill="#22354A" fill-rule="evenodd" stroke="#63f" stroke-width="2" xlink:href="#path-10"/></g></g></g></g></svg>