<svg height="914" viewBox="0 0 1495 914" width="1495" xmlns="http://www.w3.org/2000/svg" xmlns:xlink="http://www.w3.org/1999/xlink"><linearGradient id="a" x1="50%" x2="50%" y1="100%" y2="0%"><stop offset="0" stop-color="#e6e9f0"/><stop offset="1" stop-color="#eef1f5"/></linearGradient><linearGradient id="b" x1="100%" x2="0%" y1="50%" y2="50%"><stop offset="0" stop-color="#6633ff"/><stop offset="1" stop-color="#6633ff"/></linearGradient><g fill="none" fill-rule="evenodd" transform="translate(0 -27)"><path d="m689.987717 52.6184432c146.442852-98.0314834 692.758453 163.5165478 677.840513 261.4061618-14.91795 97.889615-75.43887 504.164112-222.96636 519.352441s-495.431281-115.609939-602.643601-247.105818c-107.21232-131.495878 1.326596-435.621301 147.769448-533.6527848z" fill="#fff"/><path d="m1410 77 85 49-1411 815-84-49z" fill="#545e75"/><g transform="translate(598 173)"><path d="m415.591436 52.5206252 46.202831 26.7401575c3.34601 1.9365229 4.488625 6.2188618 2.552102 9.5648719-.617147 1.0663341-1.504802 1.9508944-2.573286 2.5643131l-291.569161 167.3905123-68.709432-39.501419 290.112936-166.7929138c7.427714-4.2703717 16.568604-4.2572313 23.98401.034478z" fill="url(#a)"/><g fill="url(#b)"><path d="m202.236786 107.68992 297.57468 169.490844-63.22446 36.502659c-2.141321 1.236292-4.776016 1.251197-6.931188.039211l-296.128464-166.531296z" transform="matrix(.5 -.8660254 .8660254 .5 -24.531394 379.821545)"/><path d="m102.542604 219.403029 68.709432 39.501419c-15.285996 57.344414-25.924278 91.204605-31.914845 101.580572-4.380455 7.58717-11.898684 12.356634-22.554688 14.308394v.000001c-7.38587 1.352801-14.835576-2.021328-18.6901808-8.465176l-64.2591507-107.423791z" transform="matrix(.5 .8660254 -.8660254 .5 309.004965 59.998099)"/></g></g><path d="m421.022581 500.593925 60.143479 34.303374c1.251108.713581 1.68686 2.306276.973279 3.557384-.230176.403565-.563983.738314-.966897.969628l-68.775756 39.484294c-1.970611 1.131331-4.392915 1.134746-6.366708.008975l-60.143479-34.303373c-1.251108-.713581-1.68686-2.306276-.97328-3.557385.230177-.403564.563984-.738313.966898-.969627l68.775756-39.484294c1.970611-1.131331 4.392915-1.134747 6.366708-.008976z" fill="url(#a)" transform="matrix(.5 .8660254 -.8660254 .5 1313.205333 -88.246386)"/><path d="m86.6373175 225.593925 60.1434795 34.303374c1.251108.713581 1.68686 2.306276.973279 3.557384-.230177.403565-.563983.738314-.966897.969628l-68.7757564 39.484294c-1.9706112 1.131331-4.3929146 1.134746-6.3667078.008975l-60.1434792-34.303373c-1.2511082-.713581-1.68686028-2.306276-.9732794-3.557385.2301767-.403564.5639831-.738313.9668971-.969627l68.7757564-39.484294c1.9706112-1.131331 4.3929146-1.134747 6.3667078-.008976z" fill="url(#a)" transform="matrix(.5 .8660254 -.8660254 .5 907.855716 63.839746)"/><g fill="url(#b)"><path d="m313.875556 553.054423 40.276825 23.17331c.832279.478852 1.118787 1.541733.639935 2.374011-.152247.264616-.371487.484478-.63567.637474l-46.053102 26.670578c-1.320829.764927-2.949376.767233-4.272366.00605l-40.276825-23.17331c-.832279-.478852-1.118787-1.541733-.639935-2.374011.152247-.264616.371487-.484478.63567-.637473l46.053102-26.670579c1.320829-.764927 2.949377-.767233 4.272366-.00605z" transform="matrix(.5 .8660254 -.8660254 .5 1295.275532 22.267706)"/><path d="m73.5407839 261.176312 21.0488344 12.183262c2.036239 1.178594 2.7314975 3.784731 1.5529033 5.82097-.3702785.639725-.9006385 1.172097-1.5389562 1.544796l-57.29408 33.452649c-1.7240709 1.006644-3.8557325 1.01068-5.5836031.010572l-27.08602719-15.677645c-2.03623897-1.178595-2.73149748-3.784732-1.55290333-5.820971.37027858-.639724.90063849-1.172097 1.53895626-1.544795l51.27016366-29.935428c5.4482265-3.181089 12.1844781-3.193845 17.6447122-.03341z" transform="matrix(.5 .8660254 -.8660254 .5 911.434555 100)"/><path d="m293.426162 47.5205689 60.178178 34.667299c1.641448.9456011 2.205543 3.0428184 1.259941 4.6842658-.300142.5210103-.731971.9539671-1.252197 1.2554669l-89.96022 52.1369484c-2.607577 1.511236-5.823576 1.515429-8.435084.010998l-60.178179-34.6673c-1.641447-.945601-2.205542-3.042818-1.259941-4.684265.300142-.521011.731972-.9539673 1.252198-1.2554672l89.96022-52.1369488c2.607576-1.5112356 5.823575-1.5154284 8.435084-.0109971z" transform="matrix(.5 .8660254 -.8660254 .5 857.478839 -190.620334)"/></g><path d="m222.476319 69.2796511 41.146902-23.9140041c1.295356-.7528427 2.951603-.3058673 3.699332.9983475.239603.4179238.364758.892383.362686 1.3749319l-.491818 114.5220576c-.013225 3.079401-1.650334 5.919874-4.299212 7.459365l-41.146902 23.914004c-1.295356.752843-2.951603.305867-3.699332-.998347-.239603-.417924-.364758-.892384-.362686-1.374932l.491818-114.5220583c.013225-3.0794006 1.650334-5.919874 4.299212-7.4593646z" fill="url(#a)" transform="matrix(-1 0 0 1 1124.370528 0)"/></g></svg>
