<svg enable-background="new 0 0 470 470" height="512" viewBox="0 0 470 470" width="512" xmlns="http://www.w3.org/2000/svg"><g fill="#6633ff"><path d="m211.683 151.084c-2.086-3.58-6.679-4.788-10.256-2.705l-51.978 30.281c-3.579 2.085-4.79 6.677-2.705 10.256 1.394 2.392 3.906 3.726 6.487 3.726 1.282 0 2.581-.329 3.769-1.021l51.978-30.281c3.579-2.085 4.79-6.677 2.705-10.256z"/><path d="m261.021 161.34 51.978 30.28c1.188.691 2.486 1.021 3.769 1.021 2.581 0 5.094-1.334 6.487-3.726 2.085-3.579.874-8.171-2.705-10.256l-51.978-30.28c-3.579-2.084-8.17-.875-10.256 2.705-2.085 3.579-.874 8.171 2.705 10.256z"/><path d="m149.551 356.399 51.877 30.223c1.188.692 2.486 1.021 3.769 1.021 2.581 0 5.094-1.334 6.487-3.726 2.085-3.579.874-8.171-2.705-10.256l-51.877-30.223c-3.579-2.088-8.17-.874-10.256 2.705-2.085 3.58-.874 8.171 2.705 10.256z"/><path d="m465.642 267.424c-.006-.597-.084-1.196-.235-1.787-.019-.072-.04-.142-.061-.213-.063-.218-.137-.434-.221-.649-.029-.076-.057-.151-.089-.226-.102-.238-.217-.472-.346-.703-.018-.032-.032-.067-.051-.099-.16-.277-.323-.515-.494-.745-.04-.054-.084-.104-.126-.156-.148-.187-.303-.366-.466-.536-.053-.055-.106-.109-.161-.163-.185-.181-.376-.352-.577-.511-.034-.027-.065-.056-.099-.082-.243-.186-.495-.356-.756-.51-.039-.026-107.888-62.857-107.888-62.857v-125.687c0-.026-.005-.05-.005-.076-.006-.597-.084-1.196-.235-1.787-.019-.072-.04-.142-.061-.213-.063-.218-.137-.434-.221-.649-.029-.076-.057-.151-.089-.226-.102-.238-.217-.472-.346-.703-.018-.032-.032-.067-.051-.099-.16-.278-.323-.516-.495-.746-.039-.052-.082-.101-.122-.152-.15-.19-.307-.371-.471-.542-.051-.053-.102-.105-.155-.156-.188-.185-.384-.36-.589-.522-.029-.023-.056-.049-.086-.071-.245-.189-.5-.36-.764-.516-.033-.022-111.607-65.022-111.607-65.022-2.334-1.359-5.217-1.359-7.551 0l-111.573 65c-.297.178-.554.351-.801.54-.027.021-.052.044-.079.066-.207.164-.405.34-.595.527-.052.051-.102.102-.153.155-.165.172-.322.354-.472.544-.04.051-.083.099-.122.151-.172.23-.335.468-.483.722-.031.056-.045.09-.063.123-.129.231-.244.465-.346.703-.032.074-.06.15-.089.226-.084.214-.158.43-.221.649-.021.071-.042.141-.06.213-.152.591-.23 1.19-.235 1.787 0 .025-.005.05-.005.076v125.689l-107.849 62.829c-.3.18-.553.35-.796.537-.033.026-.064.054-.097.08-.201.16-.393.331-.578.512-.054.053-.108.107-.16.162-.163.17-.318.349-.466.536-.042.053-.086.103-.126.157-.171.229-.334.467-.482.72-.031.056-.045.09-.063.123-.129.231-.244.465-.346.703-.032.074-.06.15-.089.226-.084.214-.158.43-.221.649-.021.071-.042.141-.06.213-.152.591-.23 1.19-.235 1.787 0 .025-.005.05-.005.076v130c0 2.669 1.419 5.137 3.725 6.48l111.573 65c.021.012.044.02.065.032.268.153.545.293.833.413.28.116.562.208.85.289.071.02.143.037.215.055.225.056.454.101.687.136.077.012.152.026.229.035.295.035.593.059.897.059s.603-.023.897-.059c.077-.009.152-.023.229-.035.233-.035.462-.08.687-.136.072-.018.144-.035.215-.055.288-.081.57-.173.843-.286.294-.122.571-.262.839-.416.021-.012.044-.02.065-.032l107.797-62.801 107.798 62.801c.021.012.044.02.065.032.268.153.544.293.832.413.281.116.562.208.849.289.072.02.144.038.216.056.225.056.453.101.686.136.077.012.153.026.23.035.295.035.593.059.897.059s.602-.023.897-.059c.077-.009.153-.023.23-.035.232-.035.461-.08.686-.136.072-.018.144-.035.216-.056.287-.081.569-.173.841-.286.296-.123.572-.263.84-.416.021-.012.044-.02.065-.032l111.573-65c2.306-1.344 3.725-3.812 3.725-6.48v-130c0-.027-.004-.051-.004-.077zm-22.395.076-96.674 56.32-96.674-56.32 96.674-56.32zm-312.32-181.951 96.573 56.261v112.64l-96.573-56.261zm208.146 112.64-96.573 56.262v-112.64l96.573-56.261zm-111.573 195-96.573 56.262v-112.64l96.573-56.261zm15-112.64 96.573 56.261v112.64l-96.573-56.261zm-7.5-264.369 96.674 56.32-96.674 56.32-96.674-56.32zm-111.573 195 96.674 56.32-96.674 56.32-96.674-56.32zm-104.073 69.369 96.573 56.261v112.64l-96.573-56.262zm334.719 168.902v-112.64l96.573-56.261v112.64z"/><path d="m323.156 346.142c-2.086-3.58-6.678-4.788-10.256-2.705l-51.877 30.223c-3.579 2.085-4.79 6.677-2.705 10.256 1.394 2.392 3.906 3.726 6.487 3.726 1.282 0 2.581-.329 3.769-1.021l51.877-30.223c3.579-2.085 4.79-6.677 2.705-10.256z"/><path d="m100.109 346.084c-2.086-3.58-6.679-4.788-10.256-2.705l-51.877 30.223c-3.579 2.085-4.79 6.677-2.705 10.256 1.394 2.392 3.906 3.726 6.487 3.726 1.282 0 2.581-.329 3.769-1.021l51.877-30.223c3.579-2.085 4.79-6.677 2.705-10.256z"/><path d="m432.024 373.603-51.676-30.105c-3.579-2.087-8.171-.875-10.256 2.705-2.085 3.579-.874 8.171 2.705 10.256l51.676 30.105c1.188.692 2.486 1.021 3.769 1.021 2.581 0 5.094-1.334 6.487-3.726 2.085-3.58.875-8.171-2.705-10.256z"/></g></svg>
