<svg height="315" viewBox="0 0 315 315" width="315" xmlns="http://www.w3.org/2000/svg"><path d="m293.002 78.53c-43.356-75.095-139.384-100.826-214.473-57.462-75.095 43.35-100.827 139.374-57.463 214.466 43.35 75.095 139.375 100.83 214.465 57.47 75.096-43.365 100.84-139.384 57.471-214.474zm-73.168 187.271c-60.067 34.692-136.894 14.106-171.576-45.973-34.69-60.067-14.097-136.893 45.972-171.568 60.071-34.69 136.894-14.106 171.578 45.971 34.685 60.076 14.098 136.886-45.974 171.57zm-6.279-115.149-82.214-47.949c-7.492-4.374-13.535-.877-13.493 7.789l.421 95.174c.038 8.664 6.155 12.191 13.669 7.851l81.585-47.103c7.506-4.332 7.522-11.388.032-15.762z" fill="#f27157"/></svg>
