<svg data-v-1084b650="" xmlns="http://www.w3.org/2000/svg" viewBox="0 0 300 300"><!----> <!----> <rect data-v-1084b650="" fill="#22354a" x="0" y="0" width="300px" height="300px" class="logo-background-square"></rect> <!----> <g data-v-1084b650="" id="fd58f597-1129-92dc-2a3c-75eeffe88ee9" fill="#FFFFFF" transform="matrix(3.0999999046325684,0,0,3.0999999046325684,31.75050163269043,153.3216552734375)"><path d="M1.20 14.96L1.20 14.96L1.20 9.28L1.20 9.28Q1.20 8.80 1.19 8.38L1.19 8.38L1.19 8.38Q1.18 7.97 1.16 7.64L1.16 7.64L1.16 7.64Q1.13 7.31 1.09 7.11L1.09 7.11L1.09 7.11Q1.32 7.10 1.65 7.08L1.65 7.08L1.65 7.08Q1.99 7.07 2.39 7.06L2.39 7.06L2.39 7.06Q2.79 7.05 3.23 7.04L3.23 7.04L3.23 7.04Q3.67 7.04 4.10 7.04L4.10 7.04L4.10 7.04Q4.86 7.04 5.46 7.16L5.46 7.16L5.46 7.16Q6.05 7.29 6.45 7.57L6.45 7.57L6.45 7.57Q6.86 7.85 7.07 8.31L7.07 8.31L7.07 8.31Q7.28 8.76 7.28 9.43L7.28 9.43L7.28 9.43Q7.28 9.86 7.15 10.21L7.15 10.21L7.15 10.21Q7.02 10.55 6.79 10.82L6.79 10.82L6.79 10.82Q6.56 11.09 6.26 11.29L6.26 11.29L6.26 11.29Q5.95 11.49 5.61 11.62L5.61 11.62L5.61 11.62Q6.00 11.72 6.39 11.90L6.39 11.90L6.39 11.90Q6.78 12.09 7.09 12.39L7.09 12.39L7.09 12.39Q7.40 12.69 7.60 13.14L7.60 13.14L7.60 13.14Q7.79 13.58 7.79 14.22L7.79 14.22L7.79 14.22Q7.79 14.84 7.59 15.38L7.59 15.38L7.59 15.38Q7.39 15.91 6.95 16.31L6.95 16.31L6.95 16.31Q6.51 16.71 5.81 16.93L5.81 16.93L5.81 16.93Q5.12 17.16 4.14 17.16L4.14 17.16L4.14 17.16Q3.62 17.16 3.13 17.15L3.13 17.15L3.13 17.15Q2.64 17.14 2.23 17.13L2.23 17.13L2.23 17.13Q1.83 17.12 1.53 17.11L1.53 17.11L1.53 17.11Q1.23 17.10 1.09 17.09L1.09 17.09L1.09 17.09Q1.13 16.88 1.16 16.56L1.16 16.56L1.16 16.56Q1.18 16.24 1.19 15.84L1.19 15.84L1.19 15.84Q1.20 15.44 1.20 14.96ZM2.50 12.30L2.50 16.03L2.50 16.03Q2.59 16.04 2.75 16.04L2.75 16.04L2.75 16.04Q2.92 16.05 3.14 16.05L3.14 16.05L3.14 16.05Q3.36 16.06 3.62 16.06L3.62 16.06L3.62 16.06Q3.88 16.06 4.17 16.06L4.17 16.06L4.17 16.06Q4.61 16.06 5.02 15.98L5.02 15.98L5.02 15.98Q5.43 15.89 5.75 15.67L5.75 15.67L5.75 15.67Q6.07 15.46 6.27 15.11L6.27 15.11L6.27 15.11Q6.46 14.75 6.46 14.22L6.46 14.22L6.46 14.22Q6.46 13.27 5.88 12.79L5.88 12.79L5.88 12.79Q5.30 12.30 4.10 12.30L4.10 12.30L2.50 12.30ZM2.50 8.13L2.50 11.25L3.83 11.25L3.83 11.25Q4.38 11.25 4.77 11.13L4.77 11.13L4.77 11.13Q5.17 11.01 5.43 10.80L5.43 10.80L5.43 10.80Q5.69 10.59 5.82 10.29L5.82 10.29L5.82 10.29Q5.95 9.99 5.95 9.64L5.95 9.64L5.95 9.64Q5.95 9.26 5.84 8.97L5.84 8.97L5.84 8.97Q5.74 8.68 5.51 8.49L5.51 8.49L5.51 8.49Q5.28 8.29 4.91 8.20L4.91 8.20L4.91 8.20Q4.55 8.10 4.03 8.10L4.03 8.10L4.03 8.10Q3.83 8.10 3.61 8.10L3.61 8.10L3.61 8.10Q3.38 8.11 3.17 8.11L3.17 8.11L3.17 8.11Q2.96 8.12 2.78 8.12L2.78 8.12L2.78 8.12Q2.60 8.13 2.50 8.13L2.50 8.13ZM16.24 17.09L15.07 17.09L15.07 17.09Q15.03 16.97 14.97 16.82L14.97 16.82L14.97 16.82Q14.92 16.66 14.86 16.48L14.86 16.48L14.86 16.48Q14.81 16.30 14.77 16.11L14.77 16.11L14.77 16.11Q14.72 15.91 14.70 15.72L14.70 15.72L14.70 15.72Q14.08 16.48 13.42 16.87L13.42 16.87L13.42 16.87Q12.76 17.26 12.03 17.26L12.03 17.26L12.03 17.26Q9.84 17.26 9.84 14.32L9.84 14.32L9.84 12.30L9.84 12.30Q9.84 11.98 9.84 11.71L9.84 11.71L9.84 11.71Q9.84 11.44 9.82 11.19L9.82 11.19L9.82 11.19Q9.81 10.94 9.78 10.68L9.78 10.68L9.78 10.68Q9.75 10.42 9.71 10.12L9.71 10.12L11.11 10.12L11.11 13.91L11.11 13.91Q11.11 14.49 11.17 14.91L11.17 14.91L11.17 14.91Q11.22 15.33 11.36 15.60L11.36 15.60L11.36 15.60Q11.50 15.87 11.72 16.00L11.72 16.00L11.72 16.00Q11.94 16.13 12.27 16.13L12.27 16.13L12.27 16.13Q12.57 16.13 12.91 15.95L12.91 15.95L12.91 15.95Q13.25 15.77 13.57 15.49L13.57 15.49L13.57 15.49Q13.88 15.21 14.13 14.87L14.13 14.87L14.13 14.87Q14.39 14.53 14.53 14.22L14.53 14.22L14.53 12.30L14.53 12.30Q14.53 11.97 14.52 11.70L14.52 11.70L14.52 11.70Q14.52 11.43 14.51 11.18L14.51 11.18L14.51 11.18Q14.49 10.94 14.46 10.68L14.46 10.68L14.46 10.68Q14.44 10.43 14.39 10.12L14.39 10.12L15.79 10.12L15.79 14.01L15.79 14.01Q15.79 15.01 15.90 15.76L15.90 15.76L15.90 15.76Q16.02 16.51 16.24 17.09L16.24 17.09ZM19.45 6.15L19.45 13.84L19.45 13.84Q19.45 14.17 19.46 14.62L19.46 14.62L19.46 14.62Q19.47 15.06 19.49 15.52L19.49 15.52L19.49 15.52Q19.50 15.98 19.53 16.39L19.53 16.39L19.53 16.39Q19.55 16.81 19.58 17.09L19.58 17.09L18.18 17.09L18.18 9.37L18.18 9.37Q18.18 8.37 18.15 7.56L18.15 7.56L18.15 7.56Q18.12 6.75 18.05 6.15L18.05 6.15L19.45 6.15ZM23.31 6.15L23.31 13.84L23.31 13.84Q23.31 14.17 23.32 14.62L23.32 14.62L23.32 14.62Q23.33 15.06 23.35 15.52L23.35 15.52L23.35 15.52Q23.37 15.98 23.39 16.39L23.39 16.39L23.39 16.39Q23.41 16.81 23.45 17.09L23.45 17.09L22.05 17.09L22.05 9.37L22.05 9.37Q22.05 8.37 22.01 7.56L22.01 7.56L22.01 7.56Q21.98 6.75 21.91 6.15L21.91 6.15L23.31 6.15ZM31.37 13.77L26.52 13.77L26.52 13.77Q26.54 14.38 26.71 14.82L26.71 14.82L26.71 14.82Q26.88 15.26 27.17 15.56L27.17 15.56L27.17 15.56Q27.46 15.85 27.85 15.99L27.85 15.99L27.85 15.99Q28.25 16.13 28.71 16.13L28.71 16.13L28.71 16.13Q29.37 16.13 30.01 15.98L30.01 15.98L30.01 15.98Q30.65 15.83 31.27 15.45L31.27 15.45L31.41 16.58L31.41 16.58Q31.05 16.76 30.70 16.89L30.70 16.89L30.70 16.89Q30.35 17.02 30.00 17.10L30.00 17.10L30.00 17.10Q29.65 17.19 29.30 17.22L29.30 17.22L29.30 17.22Q28.94 17.26 28.54 17.26L28.54 17.26L28.54 17.26Q27.88 17.26 27.29 17.03L27.29 17.03L27.29 17.03Q26.69 16.80 26.24 16.35L26.24 16.35L26.24 16.35Q25.79 15.91 25.53 15.24L25.53 15.24L25.53 15.24Q25.26 14.58 25.26 13.71L25.26 13.71L25.26 13.71Q25.26 12.86 25.49 12.17L25.49 12.17L25.49 12.17Q25.72 11.48 26.14 11.00L26.14 11.00L26.14 11.00Q26.56 10.51 27.17 10.24L27.17 10.24L27.17 10.24Q27.78 9.98 28.54 9.98L28.54 9.98L28.54 9.98Q29.10 9.98 29.53 10.11L29.53 10.11L29.53 10.11Q29.96 10.25 30.28 10.48L30.28 10.48L30.28 10.48Q30.59 10.72 30.80 11.03L30.80 11.03L30.80 11.03Q31.01 11.35 31.14 11.71L31.14 11.71L31.14 11.71Q31.27 12.07 31.32 12.47L31.32 12.47L31.32 12.47Q31.38 12.86 31.38 13.24L31.38 13.24L31.38 13.51L31.38 13.51Q31.38 13.68 31.37 13.77L31.37 13.77ZM28.44 11.01L28.44 11.01L28.44 11.01Q27.69 11.01 27.21 11.45L27.21 11.45L27.21 11.45Q26.73 11.89 26.58 12.82L26.58 12.82L30.15 12.82L30.15 12.82Q30.15 12.38 30.02 12.04L30.02 12.04L30.02 12.04Q29.89 11.70 29.66 11.47L29.66 11.47L29.66 11.47Q29.44 11.24 29.12 11.12L29.12 11.12L29.12 11.12Q28.81 11.01 28.44 11.01ZM32.30 11.28L32.30 10.29L33.67 10.29L33.67 8.07L34.93 8.07L34.93 10.29L37.15 10.29L37.15 11.28L34.93 11.28L34.93 14.42L34.93 14.42Q34.93 14.95 34.98 15.29L34.98 15.29L34.98 15.29Q35.03 15.62 35.14 15.81L35.14 15.81L35.14 15.81Q35.25 16.00 35.41 16.06L35.41 16.06L35.41 16.06Q35.57 16.13 35.81 16.13L35.81 16.13L35.81 16.13Q36.10 16.13 36.47 16.00L36.47 16.00L36.47 16.00Q36.84 15.87 37.29 15.62L37.29 15.62L37.29 16.71L37.29 16.71Q36.82 17.02 36.39 17.14L36.39 17.14L36.39 17.14Q35.96 17.26 35.59 17.26L35.59 17.26L35.59 17.26Q35.19 17.26 34.84 17.17L34.84 17.17L34.84 17.17Q34.49 17.08 34.23 16.84L34.23 16.84L34.23 16.84Q33.97 16.61 33.82 16.23L33.82 16.23L33.82 16.23Q33.67 15.84 33.67 15.24L33.67 15.24L33.67 11.28L32.30 11.28ZM41.87 7.11L49.77 7.11L49.77 8.37L49.77 8.37Q49.36 8.29 48.96 8.26L48.96 8.26L48.96 8.26Q48.56 8.24 48.09 8.24L48.09 8.24L46.45 8.24L46.45 14.12L46.45 14.12Q46.45 15.13 46.47 15.90L46.47 15.90L46.47 15.90Q46.50 16.68 46.59 17.09L46.59 17.09L45.01 17.09L45.01 17.09Q45.10 16.68 45.13 15.90L45.13 15.90L45.13 15.90Q45.15 15.13 45.15 14.12L45.15 14.12L45.15 8.24L43.54 8.24L43.54 8.24Q43.09 8.24 42.68 8.26L42.68 8.26L42.68 8.26Q42.28 8.29 41.87 8.37L41.87 8.37L41.87 7.11ZM52.53 17.09L51.27 17.09L51.27 12.89L51.27 12.89Q51.27 11.87 51.16 11.17L51.16 11.17L51.16 11.17Q51.04 10.47 50.93 10.12L50.93 10.12L52.16 10.12L52.16 10.12Q52.20 10.23 52.24 10.40L52.24 10.40L52.24 10.40Q52.28 10.58 52.32 10.77L52.32 10.77L52.32 10.77Q52.35 10.96 52.38 11.14L52.38 11.14L52.43 11.45L52.43 11.45Q52.68 11.09 52.97 10.82L52.97 10.82L52.97 10.82Q53.26 10.55 53.56 10.36L53.56 10.36L53.56 10.36Q53.85 10.17 54.14 10.08L54.14 10.08L54.14 10.08Q54.42 9.98 54.65 9.98L54.65 9.98L54.65 9.98Q55.08 9.98 55.38 10.17L55.38 10.17L55.38 10.17Q55.68 10.36 55.87 10.67L55.87 10.67L55.87 10.67Q56.05 10.99 56.14 11.41L56.14 11.41L56.14 11.41Q56.23 11.82 56.23 12.27L56.23 12.27L55.13 12.51L55.13 12.51Q55.13 12.26 55.08 12.02L55.08 12.02L55.08 12.02Q55.04 11.79 54.94 11.60L54.94 11.60L54.94 11.60Q54.84 11.42 54.70 11.32L54.70 11.32L54.70 11.32Q54.55 11.21 54.35 11.21L54.35 11.21L54.35 11.21Q54.13 11.21 53.86 11.38L53.86 11.38L53.86 11.38Q53.59 11.55 53.34 11.82L53.34 11.82L53.34 11.82Q53.08 12.09 52.86 12.43L52.86 12.43L52.86 12.43Q52.64 12.78 52.53 13.13L52.53 13.13L52.53 17.09ZM61.80 12.07L61.80 11.20L61.80 11.20Q61.71 11.18 61.61 11.16L61.61 11.16L61.61 11.16Q61.51 11.14 61.37 11.12L61.37 11.12L61.37 11.12Q61.23 11.09 61.04 11.08L61.04 11.08L61.04 11.08Q60.85 11.07 60.60 11.07L60.60 11.07L60.60 11.07Q59.93 11.07 59.48 11.34L59.48 11.34L59.48 11.34Q59.04 11.61 58.77 12.06L58.77 12.06L58.77 12.06Q58.50 12.51 58.39 13.09L58.39 13.09L58.39 13.09Q58.28 13.67 58.28 14.29L58.28 14.29L58.28 14.29Q58.28 14.68 58.35 15.02L58.35 15.02L58.35 15.02Q58.43 15.35 58.57 15.59L58.57 15.59L58.57 15.59Q58.71 15.83 58.88 15.97L58.88 15.97L58.88 15.97Q59.06 16.10 59.27 16.10L59.27 16.10L59.27 16.10Q59.57 16.10 59.87 15.87L59.87 15.87L59.87 15.87Q60.18 15.63 60.46 15.27L60.46 15.27L60.46 15.27Q60.74 14.90 60.98 14.45L60.98 14.45L60.98 14.45Q61.23 13.99 61.41 13.55L61.41 13.55L61.41 13.55Q61.59 13.10 61.69 12.70L61.69 12.70L61.69 12.70Q61.80 12.30 61.80 12.07L61.80 12.07ZM63.51 17.09L62.31 17.09L62.31 17.09Q62.23 16.93 62.18 16.64L62.18 16.64L62.18 16.64Q62.12 16.35 62.08 16.03L62.08 16.03L62.08 16.03Q62.04 15.70 62.02 15.38L62.02 15.38L62.02 15.38Q62.00 15.06 62.00 14.83L62.00 14.83L62.00 14.29L62.00 14.29Q61.80 14.82 61.51 15.35L61.51 15.35L61.51 15.35Q61.23 15.88 60.86 16.30L60.86 16.30L60.86 16.30Q60.50 16.73 60.05 16.99L60.05 16.99L60.05 16.99Q59.60 17.26 59.06 17.26L59.06 17.26L59.06 17.26Q58.63 17.26 58.26 17.07L58.26 17.07L58.26 17.07Q57.88 16.88 57.60 16.50L57.60 16.50L57.60 16.50Q57.33 16.13 57.17 15.57L57.17 15.57L57.17 15.57Q57.01 15.01 57.01 14.29L57.01 14.29L57.01 14.29Q57.01 13.47 57.23 12.70L57.23 12.70L57.23 12.70Q57.45 11.92 57.90 11.32L57.90 11.32L57.90 11.32Q58.35 10.71 59.05 10.35L59.05 10.35L59.05 10.35Q59.75 9.98 60.70 9.98L60.70 9.98L60.70 9.98Q61.37 9.98 61.95 10.07L61.95 10.07L61.95 10.07Q62.54 10.15 63.06 10.29L63.06 10.29L63.06 13.47L63.06 13.47Q63.06 14.76 63.18 15.64L63.18 15.64L63.18 15.64Q63.31 16.52 63.51 17.09L63.51 17.09ZM65.21 7.90L65.21 7.90L65.21 7.90Q65.21 7.70 65.28 7.54L65.28 7.54L65.28 7.54Q65.34 7.37 65.45 7.24L65.45 7.24L65.45 7.24Q65.56 7.12 65.72 7.04L65.72 7.04L65.72 7.04Q65.88 6.97 66.07 6.97L66.07 6.97L66.07 6.97Q66.26 6.97 66.42 7.04L66.42 7.04L66.42 7.04Q66.59 7.12 66.71 7.24L66.71 7.24L66.71 7.24Q66.82 7.37 66.89 7.54L66.89 7.54L66.89 7.54Q66.96 7.70 66.96 7.90L66.96 7.90L66.96 7.90Q66.96 8.09 66.89 8.25L66.89 8.25L66.89 8.25Q66.82 8.42 66.71 8.55L66.71 8.55L66.71 8.55Q66.59 8.67 66.42 8.75L66.42 8.75L66.42 8.75Q66.26 8.82 66.07 8.82L66.07 8.82L66.07 8.82Q65.88 8.82 65.72 8.75L65.72 8.75L65.72 8.75Q65.56 8.67 65.45 8.55L65.45 8.55L65.45 8.55Q65.34 8.42 65.28 8.25L65.28 8.25L65.28 8.25Q65.21 8.09 65.21 7.90ZM66.72 10.12L66.72 13.84L66.72 13.84Q66.72 14.17 66.73 14.62L66.73 14.62L66.73 14.62Q66.74 15.07 66.76 15.52L66.76 15.52L66.76 15.52Q66.77 15.98 66.80 16.40L66.80 16.40L66.80 16.40Q66.82 16.82 66.86 17.09L66.86 17.09L65.45 17.09L65.45 13.47L65.45 13.47Q65.45 12.97 65.45 12.48L65.45 12.48L65.45 12.48Q65.45 12.00 65.44 11.56L65.44 11.56L65.44 11.56Q65.43 11.13 65.41 10.76L65.41 10.76L65.41 10.76Q65.39 10.38 65.35 10.12L65.35 10.12L66.72 10.12ZM75.20 17.09L73.93 17.09L73.93 13.33L73.93 13.33Q73.93 12.69 73.85 12.27L73.85 12.27L73.85 12.27Q73.76 11.85 73.59 11.61L73.59 11.61L73.59 11.61Q73.42 11.37 73.17 11.27L73.17 11.27L73.17 11.27Q72.91 11.18 72.56 11.18L72.56 11.18L72.56 11.18Q72.19 11.18 71.84 11.35L71.84 11.35L71.84 11.35Q71.49 11.53 71.20 11.80L71.20 11.80L71.20 11.80Q70.90 12.08 70.68 12.43L70.68 12.43L70.68 12.43Q70.45 12.78 70.34 13.13L70.34 13.13L70.34 17.09L69.08 17.09L69.08 12.89L69.08 12.89Q69.08 11.87 68.96 11.17L68.96 11.17L68.96 11.17Q68.85 10.47 68.74 10.12L68.74 10.12L69.97 10.12L69.97 10.12Q70.01 10.23 70.05 10.40L70.05 10.40L70.05 10.40Q70.09 10.58 70.12 10.77L70.12 10.77L70.12 10.77Q70.16 10.96 70.18 11.14L70.18 11.14L70.24 11.45L70.24 11.45Q70.89 10.67 71.55 10.33L71.55 10.33L71.55 10.33Q72.21 9.98 72.94 9.98L72.94 9.98L72.94 9.98Q74.03 9.98 74.61 10.69L74.61 10.69L74.61 10.69Q75.20 11.41 75.20 12.82L75.20 12.82L75.20 17.09Z"></path></g> <linearGradient data-v-1084b650="" gradientTransform="rotate(25)" id="6124db79-4abc-f0eb-df39-d04559b0c0b9" x1="0%" y1="0%" x2="100%" y2="0%"><stop data-v-1084b650="" offset="0%" style="stop-color: rgb(43, 230, 217); stop-opacity: 1;"></stop> <stop data-v-1084b650="" offset="100%" style="stop-color: rgb(44, 164, 156); stop-opacity: 1;"></stop></linearGradient> <g data-v-1084b650="" id="dd659ba7-b037-24c5-032f-abc8eeca7e85" stroke="none" fill="url(#6124db79-4abc-f0eb-df39-d04559b0c0b9)" transform="matrix(0.2721587121486664,0,0,0.2721587121486664,108.58338165283203,88.57674407958984)"><svg xmlns="http://www.w3.org/2000/svg" viewBox="0 0 100 100"><path d="M13.572 36.355a3.616 3.616 0 0 0-3.615 3.616v21.694a3.614 3.614 0 0 0 3.615 3.615 3.615 3.615 0 0 0 3.616-3.615V39.971a3.617 3.617 0 0 0-3.616-3.616zm12.053-15.667a3.615 3.615 0 0 0-3.615 3.616v53.029a3.614 3.614 0 0 0 3.615 3.615 3.615 3.615 0 0 0 3.616-3.615V24.304a3.617 3.617 0 0 0-3.616-3.616zM37.677 8.636a3.616 3.616 0 0 0-3.616 3.616v77.133a3.615 3.615 0 0 0 7.232 0V12.252a3.617 3.617 0 0 0-3.616-3.616zm12.052 21.092a3.616 3.616 0 0 0-3.616 3.615v34.951a3.615 3.615 0 0 0 7.231 0V33.343a3.616 3.616 0 0 0-3.615-3.615zM61.78 8.636a3.616 3.616 0 0 0-3.615 3.616v77.133a3.615 3.615 0 0 0 7.23 0V12.252a3.615 3.615 0 0 0-3.615-3.616zm12.053 18.078a3.616 3.616 0 0 0-3.615 3.616v40.976a3.616 3.616 0 1 0 7.23 0V30.33a3.617 3.617 0 0 0-3.615-3.616zm12.052 10.244a3.617 3.617 0 0 0-3.616 3.616v20.489a3.616 3.616 0 0 0 7.231-.001V40.574a3.617 3.617 0 0 0-3.615-3.616z"></path></svg></g></svg>