<svg xmlns="http://www.w3.org/2000/svg" xmlns:xlink="http://www.w3.org/1999/xlink" viewBox="0 0 111 28" fill="#fff" fill-rule="evenodd" stroke="#000" stroke-linecap="round" stroke-linejoin="round"><use xlink:href="#A" x=".5" y=".5"/><symbol id="A" overflow="visible"><path d="M109.58 10.913c-.5-.8-1.363-1-2.226-1-1.07 0-2.312.483-2.312 1.726 0 1.277 1.122 1.588 2.312 1.743.846.104 1.536.328 1.536.984 0 .76-.794.984-1.52.984-.7 0-1.432-.26-1.864-.984l-.725.483c.552 1 1.432 1.363 2.57 1.363 1.242 0 2.468-.5 2.485-1.846 0-1.346-1.173-1.7-2.4-1.864-.794-.104-1.45-.276-1.45-.863 0-.57.587-.915 1.38-.915.62 0 1.2.26 1.484.673zm-20.76 5.15h.38c.3 0 .57-.26.57-.57v-5.418h-1.104l-1.967 2.813-1.967-2.813h-1.104v5.988h.38c.3 0 .57-.26.57-.57v-4.02l2.002 2.83h.207l2.036-2.83zm-9.8-2.14h-2.537l1.26-2.847zm.932 2.123h1.018l-2.692-5.988h-1.035l-2.692 5.988h1.018l.57-1.26h3.244zm-12.4-5.988h-.732v5.988h.397c.3 0 .57-.26.57-.57v-3.658l3.4 4.228h.733v-5.988h-.38c-.3 0-.57.26-.57.57v3.693zm-7.886 0h-1.14v.035l2.312 3.486v2.468h.38c.3 0 .57-.26.57-.57v-1.88l2.38-3.486v-.035h-1.156l-1.708 2.64zm-7.334.915h1.3c1.415 0 2.02 1 2.053 2.02.017 1.053-.587 2.123-2.053 2.123h-1.3zm-.95-.915v5.988h2.278c2.088 0 3.037-1.536 3.003-3.037-.017-1.484-.95-2.934-3.003-2.934h-2.278zm-4.85 4.16c2.865-.017 2.847-4.16 0-4.16h-2.778v5.988h.38c.3 0 .57-.26.57-.57v-1.26zm-1.812-3.28h1.812c1.57 0 1.588 2.4 0 2.4H44.72zm-5.833 3.28c2.865-.017 2.847-4.16 0-4.16H36.12v5.988h.38c.3 0 .57-.26.57-.57v-1.26zm-1.812-3.28h1.812c1.57 0 1.588 2.4 0 2.4h-1.812zm-5.54 2.985H29.02l1.26-2.847zm.915 2.123h1.018l-2.692-5.988H29.74l-2.675 5.988h1.018l.57-1.26h3.267zm60.65-5.418v5.418h.38c.3 0 .57-.26.57-.57v-5.418h-.38c-.3 0-.57.26-.57.57m7.007 4.625c-1.208 0-2.192-.984-2.192-2.192s.984-2.192 2.192-2.192a2.19 2.19 0 0 1 1.553.638l.656-.656c-.57-.57-1.346-.915-2.192-.915-1.726 0-3.106 1.398-3.106 3.106 0 1.726 1.398 3.106 3.106 3.106.863 0 1.64-.345 2.192-.915l-.656-.656c-.397.414-.95.673-1.553.673m-89.47 8.215l-7.63-15.9C1.166 9.266 0 11.663 0 14.379c0 5.075 4.135 9.2 9.2 9.2.5 0 .94-.038 1.428-.113M7.508 5.31c.564-.113 1.128-.15 1.692-.15 5.075 0 9.2 4.135 9.2 9.2a9.15 9.15 0 0 1-3.233 6.992l2.255 4.736c3.684-2.594 6.1-6.88 6.1-11.728C23.56 6.43 17.122 0 9.202 0 7.849 0 6.496.188 5.255.564z" stroke="none" fill="#232736" fill-rule="nonzero"/></symbol></svg>