<svg viewBox="0 0 720 90" width="1050" height="131" xmlns="http://www.w3.org/2000/svg">
  <defs>
    <filter id="cardShadow" x="-5%" y="-5%" width="110%" height="130%">
      <feDropShadow dx="0" dy="1" stdDeviation="2" flood-color="#000" flood-opacity="0.08"/>
    </filter>
  </defs>
  
  <!-- Step 1 -->
  <g filter="url(#cardShadow)">
    <rect x="10" y="15" width="145" height="56" rx="10" fill="white"/>
    <rect x="10" y="15" width="145" height="4" rx="2" fill="#6633FF"/>
  </g>
  <text x="82" y="38" font-family="system-ui, -apple-system, sans-serif" font-size="10" font-weight="600" fill="#6633FF" text-anchor="middle">STEP 1</text>
  <text x="82" y="55" font-family="system-ui, -apple-system, sans-serif" font-size="13" font-weight="500" fill="#1E293B" text-anchor="middle">Create Flag</text>
  
  <!-- Arrow 1 -->
  <path d="M160 43 L180 43" stroke="#6633FF" stroke-width="2" stroke-linecap="round" opacity="0.4"/>
  <path d="M175 39 L182 43 L175 47" fill="none" stroke="#6633FF" stroke-width="2" stroke-linecap="round" stroke-linejoin="round" opacity="0.4"/>
  
  <!-- Step 2 -->
  <g filter="url(#cardShadow)">
    <rect x="190" y="15" width="145" height="56" rx="10" fill="white"/>
    <rect x="190" y="15" width="145" height="4" rx="2" fill="#6633FF"/>
  </g>
  <text x="262" y="38" font-family="system-ui, -apple-system, sans-serif" font-size="10" font-weight="600" fill="#6633FF" text-anchor="middle">STEP 2</text>
  <text x="262" y="55" font-family="system-ui, -apple-system, sans-serif" font-size="13" font-weight="500" fill="#1E293B" text-anchor="middle">Install SDK</text>
  
  <!-- Arrow 2 -->
  <path d="M340 43 L360 43" stroke="#6633FF" stroke-width="2" stroke-linecap="round" opacity="0.4"/>
  <path d="M355 39 L362 43 L355 47" fill="none" stroke="#6633FF" stroke-width="2" stroke-linecap="round" stroke-linejoin="round" opacity="0.4"/>
  
  <!-- Step 3 -->
  <g filter="url(#cardShadow)">
    <rect x="370" y="15" width="145" height="56" rx="10" fill="white"/>
    <rect x="370" y="15" width="145" height="4" rx="2" fill="#6633FF"/>
  </g>
  <text x="442" y="38" font-family="system-ui, -apple-system, sans-serif" font-size="10" font-weight="600" fill="#6633FF" text-anchor="middle">STEP 3</text>
  <text x="442" y="55" font-family="system-ui, -apple-system, sans-serif" font-size="13" font-weight="500" fill="#1E293B" text-anchor="middle">Connect API</text>
  
  <!-- Arrow 3 -->
  <path d="M520 43 L540 43" stroke="#6633FF" stroke-width="2" stroke-linecap="round" opacity="0.4"/>
  <path d="M535 39 L542 43 L535 47" fill="none" stroke="#6633FF" stroke-width="2" stroke-linecap="round" stroke-linejoin="round" opacity="0.4"/>
  
  <!-- Step 4 -->
  <g filter="url(#cardShadow)">
    <rect x="550" y="15" width="145" height="56" rx="10" fill="white"/>
    <rect x="550" y="15" width="145" height="4" rx="2" fill="#6633FF"/>
  </g>
  <text x="622" y="38" font-family="system-ui, -apple-system, sans-serif" font-size="10" font-weight="600" fill="#6633FF" text-anchor="middle">STEP 4</text>
  <text x="622" y="55" font-family="system-ui, -apple-system, sans-serif" font-size="13" font-weight="500" fill="#1E293B" text-anchor="middle">Use Flag</text>
</svg>