<svg xmlns="http://www.w3.org/2000/svg" width="1050" height="131" viewBox="0 0 720 90"><defs><filter id="cardShadow" width="110%" height="130%" x="-5%" y="-5%"><feDropShadow dx="0" dy="1" flood-color="#000" flood-opacity=".08" stdDeviation="2"/></filter></defs><g filter="url(#cardShadow)"><rect width="145" height="56" x="10" y="15" fill="#fff" rx="10"/><rect width="145" height="4" x="10" y="15" fill="#63F" rx="2"/></g><text x="82" y="38" fill="#63F" font-family="system-ui, -apple-system, sans-serif" font-size="10" font-weight="600" text-anchor="middle">STEP 1</text><text x="82" y="55" fill="#1E293B" font-family="system-ui, -apple-system, sans-serif" font-size="13" font-weight="500" text-anchor="middle">Create Flag</text><path stroke="#63F" stroke-linecap="round" stroke-width="2" d="M160 43 L180 43" opacity=".4"/><path fill="none" stroke="#63F" stroke-linecap="round" stroke-linejoin="round" stroke-width="2" d="M175 39 L182 43 L175 47" opacity=".4"/><g filter="url(#cardShadow)"><rect width="145" height="56" x="190" y="15" fill="#fff" rx="10"/><rect width="145" height="4" x="190" y="15" fill="#63F" rx="2"/></g><text x="262" y="38" fill="#63F" font-family="system-ui, -apple-system, sans-serif" font-size="10" font-weight="600" text-anchor="middle">STEP 2</text><text x="262" y="55" fill="#1E293B" font-family="system-ui, -apple-system, sans-serif" font-size="13" font-weight="500" text-anchor="middle">Install SDK</text><path stroke="#63F" stroke-linecap="round" stroke-width="2" d="M340 43 L360 43" opacity=".4"/><path fill="none" stroke="#63F" stroke-linecap="round" stroke-linejoin="round" stroke-width="2" d="M355 39 L362 43 L355 47" opacity=".4"/><g filter="url(#cardShadow)"><rect width="145" height="56" x="370" y="15" fill="#fff" rx="10"/><rect width="145" height="4" x="370" y="15" fill="#63F" rx="2"/></g><text x="442" y="38" fill="#63F" font-family="system-ui, -apple-system, sans-serif" font-size="10" font-weight="600" text-anchor="middle">STEP 3</text><text x="442" y="55" fill="#1E293B" font-family="system-ui, -apple-system, sans-serif" font-size="13" font-weight="500" text-anchor="middle">Connect API</text><path stroke="#63F" stroke-linecap="round" stroke-width="2" d="M520 43 L540 43" opacity=".4"/><path fill="none" stroke="#63F" stroke-linecap="round" stroke-linejoin="round" stroke-width="2" d="M535 39 L542 43 L535 47" opacity=".4"/><g filter="url(#cardShadow)"><rect width="145" height="56" x="550" y="15" fill="#fff" rx="10"/><rect width="145" height="4" x="550" y="15" fill="#63F" rx="2"/></g><text x="622" y="38" fill="#63F" font-family="system-ui, -apple-system, sans-serif" font-size="10" font-weight="600" text-anchor="middle">STEP 4</text><text x="622" y="55" fill="#1E293B" font-family="system-ui, -apple-system, sans-serif" font-size="13" font-weight="500" text-anchor="middle">Use Flag</text></svg>