<?xml version="1.0" encoding="UTF-8"?>
<svg width="26px" height="23px" viewBox="0 0 26 23" version="1.1" xmlns="http://www.w3.org/2000/svg" xmlns:xlink="http://www.w3.org/1999/xlink">
    <title>Shape</title>
    <g id="Symbols" stroke="none" stroke-width="1" fill="none" fill-rule="evenodd">
        <g id="Atoms-/-icons-/illustrated/-list" transform="translate(-3.000000, -1.000000)" fill="#FFFFFF">
            <g id="Group" transform="translate(3.000000, 1.000000)">
                <path d="M23.2,22.4 L2.4,22.4 C1.0745,22.4 0,21.3255 0,20 L0,2.4 C0,1.0745 1.0745,0 2.4,0 L23.2,0 C24.5255,0 25.6,1.0745 25.6,2.4 L25.6,20 C25.6,21.3255 24.5255,22.4 23.2,22.4 Z M6.4,4.4 C5.29545,4.4 4.4,5.29545 4.4,6.4 C4.4,7.50455 5.29545,8.4 6.4,8.4 C7.50455,8.4 8.4,7.50455 8.4,6.4 C8.4,5.29545 7.50455,4.4 6.4,4.4 Z M6.4,9.2 C5.29545,9.2 4.4,10.09545 4.4,11.2 C4.4,12.30455 5.29545,13.2 6.4,13.2 C7.50455,13.2 8.4,12.30455 8.4,11.2 C8.4,10.09545 7.50455,9.2 6.4,9.2 Z M6.4,14 C5.29545,14 4.4,14.89545 4.4,16 C4.4,17.10455 5.29545,18 6.4,18 C7.50455,18 8.4,17.10455 8.4,16 C8.4,14.89545 7.50455,14 6.4,14 Z M20.8,7.2 L20.8,5.6 C20.8,5.26865 20.53135,5 20.2,5 L10.2,5 C9.86865,5 9.6,5.26865 9.6,5.6 L9.6,7.2 C9.6,7.53135 9.86865,7.8 10.2,7.8 L20.2,7.8 C20.53135,7.8 20.8,7.53135 20.8,7.2 Z M20.8,12 L20.8,10.4 C20.8,10.06865 20.53135,9.8 20.2,9.8 L10.2,9.8 C9.86865,9.8 9.6,10.06865 9.6,10.4 L9.6,12 C9.6,12.33135 9.86865,12.6 10.2,12.6 L20.2,12.6 C20.53135,12.6 20.8,12.33135 20.8,12 Z M20.8,16.8 L20.8,15.2 C20.8,14.86865 20.53135,14.6 20.2,14.6 L10.2,14.6 C9.86865,14.6 9.6,14.86865 9.6,15.2 L9.6,16.8 C9.6,17.13135 9.86865,17.4 10.2,17.4 L20.2,17.4 C20.53135,17.4 20.8,17.13135 20.8,16.8 Z" id="Shape"></path>
            </g>
        </g>
    </g>
</svg>