<?xml version="1.0" encoding="UTF-8"?>
<svg width="16px" height="21px" viewBox="0 0 16 21" version="1.1" xmlns="http://www.w3.org/2000/svg" xmlns:xlink="http://www.w3.org/1999/xlink">
    <title>Shape</title>
    <g id="Symbols" stroke="none" stroke-width="1" fill="none" fill-rule="evenodd">
        <g id="Atoms-/-icons-/illustrated/-document" transform="translate(-8.000000, -2.000000)" fill="#fff">
            <g id="Group" transform="translate(8.000000, 2.000000)">
                <path d="M8.96,5.44 L8.96,0 L0.96,0 C0.428,0 0,0.428 0,0.96 L0,19.52 C0,20.052 0.428,20.48 0.96,20.48 L14.4,20.48 C14.932,20.48 15.36,20.052 15.36,19.52 L15.36,6.4 L9.92,6.4 C9.392,6.4 8.96,5.968 8.96,5.44 Z M11.52,14.88 C11.52,15.144 11.304,15.36 11.04,15.36 L4.32,15.36 C4.056,15.36 3.84,15.144 3.84,14.88 L3.84,14.56 C3.84,14.296 4.056,14.08 4.32,14.08 L11.04,14.08 C11.304,14.08 11.52,14.296 11.52,14.56 L11.52,14.88 Z M11.52,12.32 C11.52,12.584 11.304,12.8 11.04,12.8 L4.32,12.8 C4.056,12.8 3.84,12.584 3.84,12.32 L3.84,12 C3.84,11.736 4.056,11.52 4.32,11.52 L11.04,11.52 C11.304,11.52 11.52,11.736 11.52,12 L11.52,12.32 Z M11.52,9.44 L11.52,9.76 C11.52,10.024 11.304,10.24 11.04,10.24 L4.32,10.24 C4.056,10.24 3.84,10.024 3.84,9.76 L3.84,9.44 C3.84,9.176 4.056,8.96 4.32,8.96 L11.04,8.96 C11.304,8.96 11.52,9.176 11.52,9.44 Z M15.36,4.876 L15.36,5.12 L10.24,5.12 L10.24,0 L10.484,0 C10.74,0 10.984,0.1 11.164,0.28 L15.08,4.2 C15.26,4.38 15.36,4.624 15.36,4.876 Z" id="Shape"></path>
            </g>
        </g>
    </g>
</svg>
