<?xml version="1.0" encoding="UTF-8"?>
<svg width="21px" height="21px" viewBox="0 0 21 21" version="1.1" xmlns="http://www.w3.org/2000/svg" xmlns:xlink="http://www.w3.org/1999/xlink">
    <title>Group</title>
    <g id="Symbols" stroke="none" stroke-width="1" fill="none" fill-rule="evenodd">
        <g id="Atoms-/-icons-/illustrated/-Rocket" transform="translate(-6.000000, -2.000000)" fill="#FFFFFF">
            <g id="Group" transform="translate(6.000000, 2.000000)">
                <path d="M20.206562,0.7718752 C20.159522,0.5533592 19.9270676,0.32125 19.7085196,0.2745312 C18.4246588,0 17.4185732,0 16.4167848,0 C12.288052,0 9.812062,2.2081248 7.9636648,5.12 L3.7955512,5.12 C3.143658,5.12 2.3715912,5.5969532 2.079986,6.179922 L0.1031324,10.1318752 C0.0420145435,10.2666641 0.0078271597,10.412098 0.0024924,10.56 C0.0024924,11.0901753 0.432458274,11.5199013 0.9626336,11.52 L5.1207464,11.52 C6.13925354,11.5199223 7.11607583,11.9244496 7.83632217,12.6445899 C8.55656851,13.3647302 8.96123965,14.3414929 8.961312,15.36 L8.961312,19.52 C8.96148866,20.0501753 9.39127787,20.48 9.9214532,20.48 C10.0693549,20.4745243 10.2147816,20.4403488 10.3496412,20.3793752 L14.2995212,18.4031248 C14.8819508,18.1117188 15.3585052,17.3405468 15.3585052,16.6893752 L15.3585052,12.5118752 C18.262058,10.6593752 20.4792596,8.1756248 20.4792596,4.0681248 C20.4830088,3.0621092 20.4830088,2.0560936 20.206562,0.7718752 Z M15.3622548,6.72 C14.4786299,6.71986989 13.7624037,6.00346788 13.7624904,5.11984296 C13.7625771,4.23621803 14.478944,3.51995665 15.3625689,3.52000002 C16.2461938,3.52004338 16.9624904,4.23637507 16.9624904,5.12 C16.9620489,6.00356465 16.2458195,6.71968859 15.3622548,6.72 L15.3622548,6.72 Z M1.4273896,14.0826564 C0.3930968,15.1167968 -0.117994,17.70375 0.0230424,20.4564064 C2.7876684,20.59875 5.3675012,20.0823436 6.3976532,19.0521876 C8.0092184,17.4410156 8.1127492,15.2927344 6.650112,13.8302344 C5.1874748,12.3678908 3.0388,12.4714064 1.4273896,14.0826564 Z M4.6927144,17.4439064 C4.3493044,17.7872664 3.489412,17.9593752 2.5679484,17.9118752 C2.5209884,16.9944532 2.691326,16.1321876 3.036064,15.7875 C3.5731744,15.2504688 4.2892956,15.2159376 4.7767892,15.7033592 C5.2642828,16.1908592 5.2298248,16.9068752 4.6927144,17.4439064 Z" id="Shape"></path>
            </g>
        </g>
    </g>
</svg>