<?xml version="1.0" encoding="UTF-8"?>
<svg width="18px" height="14px" viewBox="0 0 18 14" version="1.1" xmlns="http://www.w3.org/2000/svg" xmlns:xlink="http://www.w3.org/1999/xlink">
    <title>Shape</title>
    <g id="UI-Design-" stroke="none" stroke-width="1" fill="none" fill-rule="evenodd">
        <g id="Desktop-HD-2.3-dropdown" transform="translate(-97.000000, -798.000000)" fill="#22354A" fill-rule="nonzero">
            <g id="Group" transform="translate(97.000000, 798.000000)">
                <path d="M6.29999989,13.4399998 L3.35999994,13.4399998 C1.50499997,13.4399998 0,11.9349998 0,10.0799998 L0,3.35999994 C0,1.50499997 1.50499997,0 3.35999994,0 L6.29999989,0 C6.53099989,0 6.71999989,0.188999997 6.71999989,0.419999993 L6.71999989,1.81999997 C6.71999989,2.05099997 6.53099989,2.23999996 6.29999989,2.23999996 L3.35999994,2.23999996 C2.74049995,2.23999996 2.23999996,2.74049995 2.23999996,3.35999994 L2.23999996,10.0799998 C2.23999996,10.6994998 2.74049995,11.1999998 3.35999994,11.1999998 L6.29999989,11.1999998 C6.53099989,11.1999998 6.71999989,11.3889998 6.71999989,11.6199998 L6.71999989,13.0199998 C6.71999989,13.2509998 6.53099989,13.4399998 6.29999989,13.4399998 Z M10.4264998,2.83149995 L13.1424998,5.31999991 L6.43999989,5.31999991 C5.9744999,5.31999991 5.5999999,5.6944999 5.5999999,6.1599999 L5.5999999,7.27999988 C5.5999999,7.74549987 5.9744999,8.11999986 6.43999989,8.11999986 L13.1424998,8.11999986 L10.4264998,10.6084998 C10.0729998,10.9304998 10.0624998,11.4834998 10.3984998,11.8229998 L11.1649998,12.5894998 C11.4904998,12.9149998 12.0224998,12.9184998 12.3514998,12.5929998 L17.6714997,7.31499988 C18.0039997,6.98599988 18.0039997,6.45049989 17.6714997,6.1214999 L12.3549998,0.850499986 C12.0259998,0.524999991 11.4974998,0.524999991 11.1684998,0.853999985 L10.4019998,1.62049997 C10.0624998,1.95649997 10.0764998,2.50949996 10.4264998,2.83149995 Z" id="Shape"></path>
            </g>
        </g>
    </g>
</svg>