<?xml version="1.0" encoding="UTF-8"?>
<svg width="26px" height="18px" viewBox="0 0 26 18" version="1.1" xmlns="http://www.w3.org/2000/svg" xmlns:xlink="http://www.w3.org/1999/xlink">
    <title>Shape</title>
    <g id="Symbols" stroke="none" stroke-width="1" fill="none" fill-rule="evenodd">
        <g id="Atoms-/-icons-/illustrated/-list-Copy" transform="translate(-3.000000, -3.000000)" fill="#FFFFFF">
            <g id="Group" transform="translate(3.000000, 3.000000)">
                <path d="M24.42,12.372 C24.524,11.808 24.524,11.232 24.42,10.668 L25.452,10.072 C25.572,10.004 25.624,9.864 25.584,9.732 C25.316,8.868 24.856,8.084 24.256,7.436 C24.164,7.336 24.016,7.312 23.896,7.38 L22.864,7.976 C22.428,7.604 21.928,7.316 21.388,7.124 L21.388,5.932 C21.388,5.796 21.292,5.676 21.16,5.648 C20.268,5.448 19.36,5.456 18.512,5.648 C18.38,5.676 18.284,5.796 18.284,5.932 L18.284,7.124 C17.744,7.316 17.244,7.604 16.808,7.976 L15.776,7.38 C15.66,7.312 15.508,7.336 15.416,7.436 C14.816,8.084 14.356,8.868 14.088,9.732 C14.048,9.864 14.104,10.004 14.22,10.072 L15.252,10.668 C15.148,11.232 15.148,11.808 15.252,12.372 L14.22,12.968 C14.1,13.036 14.048,13.176 14.088,13.308 C14.356,14.172 14.816,14.952 15.416,15.604 C15.508,15.704 15.656,15.728 15.776,15.66 L16.808,15.064 C17.244,15.436 17.744,15.724 18.284,15.916 L18.284,17.108 C18.284,17.244 18.38,17.364 18.512,17.392 C19.404,17.592 20.312,17.584 21.16,17.392 C21.292,17.364 21.388,17.244 21.388,17.108 L21.388,15.916 C21.928,15.724 22.428,15.436 22.864,15.064 L23.896,15.66 C24.012,15.728 24.164,15.704 24.256,15.604 C24.856,14.956 25.316,14.172 25.584,13.308 C25.624,13.176 25.568,13.036 25.452,12.968 L24.42,12.372 Z M19.84,13.46 C18.768,13.46 17.9,12.588 17.9,11.52 C17.9,10.452 18.772,9.58 19.84,9.58 C20.908,9.58 21.78,10.452 21.78,11.52 C21.78,12.588 20.912,13.46 19.84,13.46 Z M3.84,7.68 C5.252,7.68 6.4,6.532 6.4,5.12 C6.4,3.708 5.252,2.56 3.84,2.56 C2.428,2.56 1.28,3.708 1.28,5.12 C1.28,6.532 2.428,7.68 3.84,7.68 Z M12.8,8.96 C12.876,8.96 12.948,8.94 13.024,8.936 C13.356,8.068 13.844,7.252 14.476,6.568 C14.772,6.248 15.192,6.064 15.632,6.064 C15.908,6.064 16.18,6.136 16.416,6.276 L16.732,6.46 C16.764,6.44 16.796,6.424 16.828,6.404 C17.108,5.82 17.276,5.172 17.276,4.484 C17.276,2.008 15.272,0.004 12.796,0.004 C10.32,0.004 8.32,2.004 8.32,4.48 C8.32,6.956 10.324,8.96 12.8,8.96 Z M17.008,16.74 C16.916,16.692 16.824,16.636 16.736,16.584 C16.408,16.776 16.124,16.976 15.636,16.976 C15.2,16.976 14.78,16.792 14.48,16.472 C13.748,15.68 13.188,14.716 12.872,13.688 C12.444,12.308 13.868,11.7 13.904,11.676 C13.9,11.572 13.9,11.468 13.904,11.364 L13.588,11.18 C13.436,11.092 13.308,10.98 13.196,10.856 C13.064,10.864 12.936,10.88 12.804,10.88 C11.82,10.88 10.9,10.64 10.064,10.24 L9.732,10.24 C7.184,10.24 5.12,12.304 5.12,14.848 L5.12,16 C5.12,17.06 5.98,17.92 7.04,17.92 L17.256,17.92 C17.108,17.68 17.008,17.408 17.008,17.108 L17.008,16.74 Z M6.924,9.704 C6.46,9.244 5.824,8.96 5.12,8.96 L2.56,8.96 C1.148,8.96 0,10.108 0,11.52 L0,12.8 C0,13.508 0.572,14.08 1.28,14.08 L3.916,14.08 C4.168,12.184 5.312,10.588 6.924,9.704 Z" id="Shape"></path>
            </g>
        </g>
    </g>
</svg>