<svg xmlns="http://www.w3.org/2000/svg" xmlns:xlink="http://www.w3.org/1999/xlink" width="23" height="23" version="1.1" viewBox="0 0 23 23"><title>Shape</title><g id="Symbols" fill="none" fill-rule="evenodd" stroke="none" stroke-width="1"><g id="Atoms-/-icons-/illustrated/-sliders" fill="#FFF" transform="translate(-5.000000, -1.000000)"><g id="Group" transform="translate(5.000000, 1.000000)"><path id="Shape" d="M20,0 L2.4,0 C1.075,0 0,1.075 0,2.4 L0,20 C0,21.325 1.075,22.4 2.4,22.4 L20,22.4 C21.325,22.4 22.4,21.325 22.4,20 L22.4,2.4 C22.4,1.075 21.325,0 20,0 Z M19.2,16.2 C19.2,16.53 18.93,16.8 18.6,16.8 L16,16.8 L16,18 C16,18.665 15.465,19.2 14.8,19.2 L14,19.2 C13.335,19.2 12.8,18.665 12.8,18 L12.8,16.8 L3.8,16.8 C3.47,16.8 3.2,16.53 3.2,16.2 L3.2,14.2 C3.2,13.87 3.47,13.6 3.8,13.6 L12.8,13.6 L12.8,12.4 C12.8,11.735 13.335,11.2 14,11.2 L14.8,11.2 C15.465,11.2 16,11.735 16,12.4 L16,13.6 L18.6,13.6 C18.93,13.6 19.2,13.87 19.2,14.2 L19.2,16.2 Z M19.2,8.2 C19.2,8.53 18.93,8.8 18.6,8.8 L9.6,8.8 L9.6,10 C9.6,10.665 9.065,11.2 8.4,11.2 L7.6,11.2 C6.935,11.2 6.4,10.665 6.4,10 L6.4,8.8 L3.8,8.8 C3.47,8.8 3.2,8.53 3.2,8.2 L3.2,6.2 C3.2,5.87 3.47,5.6 3.8,5.6 L6.4,5.6 L6.4,4.4 C6.4,3.735 6.935,3.2 7.6,3.2 L8.4,3.2 C9.065,3.2 9.6,3.735 9.6,4.4 L9.6,5.6 L18.6,5.6 C18.93,5.6 19.2,5.87 19.2,6.2 L19.2,8.2 Z"/></g></g></g></svg>