<svg xmlns="http://www.w3.org/2000/svg" xmlns:xlink="http://www.w3.org/1999/xlink" width="26" height="18" version="1.1" viewBox="0 0 26 18"><title>Shape</title><g id="Symbols" fill="none" fill-rule="evenodd" stroke="none" stroke-width="1"><g id="Atoms-/-icons-/illustrated/-Users" fill="#FFF" fill-rule="nonzero" transform="translate(-3.000000, -3.000000)"><g id="Group" transform="translate(3.000000, 3.000000)"><path id="Shape" d="M7.68,8.96 C10.156,8.96 12.16,6.956 12.16,4.48 C12.16,2.004 10.156,0 7.68,0 C5.204,0 3.2,2.004 3.2,4.48 C3.2,6.956 5.204,8.96 7.68,8.96 Z M10.752,10.24 L10.42,10.24 C9.588,10.64 8.664,10.88 7.68,10.88 C6.696,10.88 5.776,10.64 4.94,10.24 L4.608,10.24 C2.064,10.24 0,12.304 0,14.848 L0,16 C0,17.06 0.86,17.92 1.92,17.92 L13.44,17.92 C14.5,17.92 15.36,17.06 15.36,16 L15.36,14.848 C15.36,12.304 13.296,10.24 10.752,10.24 Z M19.2,8.96 C21.32,8.96 23.04,7.24 23.04,5.12 C23.04,3 21.32,1.28 19.2,1.28 C17.08,1.28 15.36,3 15.36,5.12 C15.36,7.24 17.08,8.96 19.2,8.96 Z M21.12,10.24 L20.968,10.24 C20.412,10.432 19.824,10.56 19.2,10.56 C18.576,10.56 17.988,10.432 17.432,10.24 L17.28,10.24 C16.464,10.24 15.712,10.476 15.052,10.856 C16.028,11.908 16.64,13.304 16.64,14.848 L16.64,16.384 C16.64,16.472 16.62,16.556 16.616,16.64 L23.68,16.64 C24.74,16.64 25.6,15.78 25.6,14.72 C25.6,12.244 23.596,10.24 21.12,10.24 L21.12,10.24 Z"/></g></g></g></svg>