<svg xmlns="http://www.w3.org/2000/svg" width="844" height="203" fill="none" viewBox="0 0 844 203"><g clip-path="url(#clip0_306_8)"><path fill="#000" d="M261.134 26.5267V15.6258H251.006V26.5267H246.077V0.371239H251.174V11.3397H261.302V0.371239H266.4V26.5267H261.134ZM284.766 26.5267H280.714L280.343 25.2442C278.628 26.3462 276.642 26.9535 274.604 26.9992C271.025 26.9992 269.472 24.6367 269.472 21.3968C269.472 17.5495 271.194 16.0983 275.212 16.0983H279.938V14.0058C279.938 11.9134 279.33 11.1709 276.191 11.1709C274.365 11.188 272.544 11.3801 270.755 11.7446L270.08 8.16725C272.284 7.58722 274.553 7.29232 276.832 7.28978C283.01 7.28978 284.833 9.38221 284.833 14.0396L284.766 26.5267ZM279.938 19.4057H276.292C274.671 19.4057 274.233 19.8444 274.233 21.2618C274.233 22.6793 274.671 23.1518 276.224 23.1518C277.523 23.1318 278.798 22.7959 279.938 22.1731V19.4057ZM295.164 26.9992C292.873 26.9627 290.599 26.599 288.412 25.9192L289.087 22.3081C290.991 22.829 292.954 23.1013 294.927 23.118C297.122 23.118 297.426 22.6456 297.426 21.2281C297.426 19.8106 297.189 19.4731 294.05 18.7644C289.256 17.6507 288.682 16.4695 288.682 12.8246C288.682 9.17972 290.336 7.25603 295.974 7.25603C297.962 7.26295 299.943 7.48931 301.882 7.93101L301.409 11.6771C299.625 11.3615 297.819 11.1809 296.008 11.1372C293.881 11.1372 293.509 11.6096 293.509 12.7571C293.509 13.9046 293.509 14.3771 296.278 15.052C301.781 16.4357 302.287 17.1445 302.287 21.0256C302.287 24.9067 301.105 26.9992 295.164 26.9992ZM317.715 26.6279V13.4996C317.715 12.4871 317.276 11.9809 316.129 11.9809C314.336 12.152 312.594 12.6676 310.997 13.4996V26.5267H306.068V0L310.997 0.742477V9.07847C313.241 7.97642 315.69 7.35565 318.188 7.25603C321.564 7.25603 322.644 9.44971 322.644 12.8246V26.5267L317.715 26.6279ZM326.763 5.09609V0.371239H331.692V4.99485L326.763 5.09609ZM326.763 26.6279V7.66101H331.692V26.5267L326.763 26.6279ZM335.608 7.93101C335.608 3.20615 338.478 0.438736 345.162 0.438736C347.617 0.436123 350.065 0.71927 352.454 1.28246L351.881 5.50108C349.708 5.10008 347.506 4.87436 345.297 4.8261C341.921 4.8261 340.672 5.97357 340.672 8.74098V18.5619C340.672 21.2956 341.786 22.4768 345.297 22.4768C347.506 22.4286 349.708 22.2028 351.881 21.8018L352.454 26.0204C350.065 26.5836 347.617 26.8668 345.162 26.8642C338.41 26.8642 335.608 24.1305 335.608 19.3719V7.93101ZM363.359 26.9992C356.607 26.9992 354.818 23.4218 354.818 19.5744V14.7145C354.818 10.8334 356.641 7.28978 363.359 7.28978C370.077 7.28978 371.9 10.8672 371.9 14.7145V19.4732C371.934 23.3543 370.111 26.9992 363.359 26.9992ZM363.359 11.3734C360.726 11.3734 359.713 12.4871 359.713 14.7483V19.8106C359.713 21.9368 360.726 23.1855 363.359 23.1855C365.992 23.1855 367.005 22.0718 367.005 19.8106V14.5458C367.005 12.4196 365.992 11.3059 363.359 11.3059V11.3734ZM385.776 11.6771C383.976 12.4566 382.238 13.3704 380.577 14.4108V26.5604H375.648V7.66101H379.8L380.138 9.75345C381.747 8.71466 383.483 7.88666 385.303 7.28978L385.776 11.6771ZM405.458 20.2494C405.606 21.1456 405.544 22.0642 405.275 22.9321C405.006 23.8 404.539 24.5932 403.909 25.2486C403.28 25.904 402.506 26.4035 401.65 26.7074C400.793 27.0113 399.878 27.1112 398.976 26.9992C397.218 26.9824 395.467 26.8016 393.743 26.4592V34.0865L388.814 34.8289V7.82976H392.73L393.203 9.41596C395.014 8.11807 397.186 7.42156 399.415 7.42477C403.364 7.42477 405.458 9.68595 405.458 13.9721V20.2494ZM393.709 22.3756C395.141 22.6845 396.6 22.854 398.064 22.8818C399.853 22.8818 400.529 22.0718 400.529 20.3506V13.6008C400.529 12.0484 399.921 11.2047 398.098 11.2047C396.482 11.2638 394.934 11.8708 393.709 12.9259V22.3756ZM276.089 65.9455H246.077V48.0248H326.459V65.9455H296.413V155.481H276.157L276.089 65.9455Z"/><path fill="#000" d="M344.993 140.969C353.145 140.928 361.246 139.677 369.031 137.257L372.103 152.107C362.835 155.445 353.055 157.135 343.204 157.101C318.526 157.101 309.951 145.66 309.951 126.727V105.972C309.951 89.3672 317.378 75.3277 342.563 75.3277C367.748 75.3277 373.386 90.0085 373.386 106.95V123.825H329.498V127.875C329.666 137.257 333.042 140.969 344.993 140.969ZM329.666 107.997H354.683V104.014C354.683 96.5895 352.421 91.4259 342.732 91.4259C333.042 91.4259 329.666 96.5895 329.666 104.014V107.997ZM426.017 93.3834C418.767 96.6522 411.78 100.477 405.12 104.824V155.448H385.438V76.9139H402.048L403.331 85.6211C409.734 81.2869 416.681 77.8147 423.992 75.2939L426.017 93.3834ZM474.092 93.3834C466.864 96.6553 459.9 100.48 453.262 104.824V155.448H433.58V76.9139H450.19L451.472 85.6211C457.876 81.2869 464.823 77.8147 472.134 75.2939L474.092 93.3834ZM539.957 155.481H523.82L522.368 150.149C515.406 154.678 507.28 157.093 498.973 157.101C484.625 157.101 478.48 147.247 478.48 133.713C478.48 117.75 485.435 111.608 501.404 111.608H520.275V103.373C520.275 94.6658 517.845 91.5947 505.252 91.5947C497.931 91.677 490.636 92.491 483.477 94.0246L481.046 79.0063C489.844 76.5729 498.926 75.3244 508.054 75.2939C532.733 75.2939 540.025 84.0011 540.025 103.677L539.957 155.481ZM520.275 125.782H505.759C499.31 125.782 497.521 127.571 497.521 133.511C497.521 139.451 499.31 141.408 505.421 141.408C510.634 141.329 515.744 139.936 520.275 137.358V125.782ZM600.455 58.9932C596.737 58.1945 592.949 57.7649 589.146 57.7107C581.415 57.7107 580.267 61.0856 580.267 67.0592V76.9139H600.287L599.172 92.5734H580.301V155.481H560.619V92.5734H548.026V76.9139H560.619V65.9454C560.619 49.6447 568.215 41.5787 585.635 41.5787C591.338 41.5571 597.018 42.3179 602.515 43.8399L600.455 58.9932ZM638.874 157.101C611.866 157.101 604.675 142.252 604.675 126.12V106.275C604.675 90.1434 611.934 75.2939 638.874 75.2939C665.815 75.2939 673.073 90.1434 673.073 106.275V126.12C673.107 142.252 665.815 157.101 638.874 157.101ZM638.874 92.0671C628.375 92.0671 624.357 96.7582 624.357 105.567V126.694C624.357 135.57 628.409 140.193 638.874 140.193C649.34 140.193 653.391 135.502 653.391 126.694V105.634C653.391 96.7582 649.374 92.0671 638.874 92.0671V92.0671ZM723.747 93.3834C716.519 96.6553 709.555 100.48 702.917 104.824V155.448H683.235V76.9139H699.845L701.128 85.6211C707.531 81.2866 714.478 77.8143 721.789 75.2939L723.747 93.3834ZM777.83 155.481V100.639C777.83 96.4545 776.041 94.3621 771.551 94.3621C764.337 95.2187 757.369 97.5139 751.059 101.112V155.481H731.377V76.9139H746.4L748.324 83.6637C758.135 78.7034 768.876 75.8523 779.856 75.2939C782.894 75.008 785.948 75.6603 788.604 77.1629C791.26 78.6655 793.391 80.9462 794.71 83.6974C804.531 78.6645 815.319 75.7987 826.344 75.2939C839.409 75.2939 844.101 84.4736 844.101 98.5132V155.481H824.419V100.639C824.419 96.4545 822.63 94.3621 818.14 94.3621C810.913 95.1577 803.932 97.4569 797.648 101.112V155.481H777.83Z"/><path fill="#4040B2" d="M122.886 68.1728V132.06L178.253 100.133V36.1788L122.886 68.1728Z"/><path fill="#5C4EE5" d="M61.4432 36.1788L116.81 68.1728V132.06L61.4432 100.099V36.1788V36.1788Z"/><path fill="#5C4EE5" d="M0 0.506226V64.4268L55.3664 96.387V32.4665L0 0.506226ZM61.4432 171.04L116.81 203V139.079L61.4432 107.119V171.04V171.04Z"/></g><defs><clipPath id="clip0_306_8"><rect width="844" height="203" fill="#fff"/></clipPath></defs></svg>