<?xml version="1.0" standalone="no"?>
<!DOCTYPE svg PUBLIC "-//W3C//DTD SVG 20010904//EN"
 "http://www.w3.org/TR/2001/REC-SVG-20010904/DTD/svg10.dtd">
<svg version="1.0" xmlns="http://www.w3.org/2000/svg"
 width="865.000000pt" height="337.000000pt" viewBox="0 0 865.000000 337.000000"
 preserveAspectRatio="xMidYMid meet">

<g transform="translate(0.000000,337.000000) scale(0.100000,-0.100000)"
fill="#000000" stroke="none">
<path d="M765 2875 c-418 -68 -653 -323 -742 -805 -26 -138 -26 -587 0 -714
81 -399 267 -628 592 -729 133 -41 217 -52 415 -52 157 0 201 4 290 23 110 25
255 77 328 119 l42 25 0 567 c0 428 -3 570 -12 579 -19 19 -751 17 -767 -2 -8
-9 -11 -73 -9 -207 l3 -194 155 -5 155 -5 3 -216 c2 -199 1 -217 -15 -224 -10
-4 -79 -9 -153 -12 -155 -6 -221 4 -309 48 -169 84 -261 316 -261 654 0 344
96 568 283 660 92 45 183 58 362 52 129 -4 180 -10 263 -32 57 -15 109 -24
117 -22 12 5 95 325 95 368 0 39 -110 83 -285 114 -128 23 -435 29 -550 10z"/>
<path d="M3828 2799 c-17 -9 -18 -72 -18 -1089 0 -1057 0 -1080 19 -1090 12
-6 102 -10 225 -10 173 0 207 2 220 16 14 14 16 71 16 475 l0 459 318 -2 317
-3 0 -463 c0 -400 2 -464 15 -472 21 -13 416 -13 441 0 19 10 19 33 19 1090 0
1057 0 1080 -19 1090 -21 11 -408 15 -435 4 -14 -5 -16 -51 -16 -410 l0 -404
-320 0 -320 0 0 394 c0 345 -2 397 -16 410 -13 14 -47 16 -222 16 -122 0 -214
-5 -224 -11z"/>
<path d="M7218 2799 c-17 -9 -18 -72 -18 -1089 0 -1057 0 -1080 19 -1090 25
-13 286 -13 311 0 12 6 21 26 26 55 3 25 8 45 11 45 2 0 34 -18 71 -40 204
-123 530 -143 714 -43 56 31 133 109 170 173 73 124 108 317 108 590 0 143 -4
204 -20 283 -50 247 -177 400 -375 452 -136 35 -355 13 -493 -50 -30 -14 -56
-25 -58 -25 -2 0 -4 162 -4 359 0 314 -2 362 -16 375 -13 14 -47 16 -222 16
-122 0 -214 -5 -224 -11z m779 -1044 c63 -19 113 -71 139 -146 16 -46 19 -84
19 -254 0 -211 -7 -255 -47 -315 -40 -58 -69 -73 -156 -78 -87 -5 -158 7 -233
39 l-49 22 2 341 3 341 59 23 c107 43 184 51 263 27z"/>
<path d="M2082 2742 c-149 -53 -218 -224 -148 -366 95 -194 372 -192 471 3 26
51 31 139 11 197 -45 138 -199 214 -334 166z"/>
<path d="M2813 2532 c-9 -6 -13 -66 -15 -222 l-3 -214 -114 -28 c-63 -15 -118
-33 -123 -40 -10 -17 -10 -279 0 -295 5 -8 46 -13 122 -15 l115 -3 6 -380 c4
-242 10 -396 18 -424 61 -225 223 -331 511 -332 127 -1 257 22 278 49 14 18
17 298 3 320 -6 10 -38 14 -117 15 -127 2 -175 20 -206 78 -17 31 -18 59 -16
354 l3 320 165 5 165 5 3 179 c2 123 -1 183 -9 192 -9 11 -47 14 -170 14
l-159 0 0 209 c0 181 -2 210 -16 215 -23 9 -427 7 -441 -2z"/>
<path d="M1937 2104 c-4 -4 -7 -337 -7 -741 l0 -733 26 -10 c33 -13 385 -13
418 0 l26 10 -2 737 -3 738 -226 3 c-124 1 -228 -1 -232 -4z"/>
<path d="M5616 2097 c-16 -12 -17 -48 -13 -577 3 -503 5 -572 21 -625 49 -165
144 -256 316 -302 48 -13 103 -17 210 -17 171 1 248 18 397 89 53 25 97 45 98
45 2 0 6 -17 10 -37 4 -21 11 -44 17 -50 13 -16 270 -18 299 -3 19 10 19 29
19 740 0 711 0 730 -19 740 -21 11 -408 15 -435 4 -14 -5 -16 -62 -16 -538 l0
-532 -37 -21 c-60 -33 -141 -53 -217 -53 -86 0 -132 20 -161 70 -19 34 -20 53
-23 544 -2 346 -6 514 -14 523 -15 19 -426 19 -452 0z"/>
</g>
</svg>
