<svg xmlns="http://www.w3.org/2000/svg" id="Assets" viewBox="0 0 2092.18 457.59"><defs><style>.cls-1{fill:#121212}.cls-2{fill:#7df3e1}</style></defs><path d="M580,128.08q7.93,0,17.09.17t18.12,1A139.61,139.61,0,0,1,632,131.85,42.38,42.38,0,0,1,645.26,137a64.07,64.07,0,0,1,20.54,19.89q8.46,12.69,8.46,31.2,0,19.54-9.49,33.78T637.67,243v.68q22.79,4.81,34.87,20.58t12.08,38.4a72.62,72.62,0,0,1-4.83,26.06,65.29,65.29,0,0,1-14.33,22.46A71.51,71.51,0,0,1,642,366.91q-14,6-32.27,6H490.61V128.08Zm9,105.27q28,0,40.22-9.78t12.26-29.31q0-13-4.15-20.58A29.45,29.45,0,0,0,625.93,162a45,45,0,0,0-16.74-5.31,161.37,161.37,0,0,0-20.2-1.2H523.4v77.84Zm16.57,112.12q21.75,0,34-11.65t12.25-32.24q0-12-4.48-19.89a34.84,34.84,0,0,0-11.92-12.51,50.09,50.09,0,0,0-17.08-6.52,105,105,0,0,0-20-1.88H523.4v84.69Zm274.8,26.75q-7.61,4.45-21.06,4.46-11.4,0-18.13-6.35t-6.73-20.74a70.11,70.11,0,0,1-28.13,20.74,97.65,97.65,0,0,1-57.65,3.6,53.32,53.32,0,0,1-18.82-8.57,41.09,41.09,0,0,1-12.6-15.26q-4.66-9.42-4.66-22.8,0-15.09,5.18-24.69A44.91,44.91,0,0,1,731.39,287a62.8,62.8,0,0,1,19.34-9.09q10.88-3.07,22.26-5.14,12.09-2.4,23-3.6a128,128,0,0,0,19.16-3.43q8.28-2.22,13.12-6.52t4.83-12.51q0-9.6-3.62-15.43a24.87,24.87,0,0,0-9.32-8.92,38.15,38.15,0,0,0-12.78-4.11,96.54,96.54,0,0,0-14-1q-18.65,0-31.07,7t-13.46,26.57H719.48q.69-16.46,6.91-27.77A52.21,52.21,0,0,1,743,204.71a69.83,69.83,0,0,1,23.65-10.11,125.45,125.45,0,0,1,28.48-3.09,168.63,168.63,0,0,1,24,1.72,63,63,0,0,1,21.58,7,41.35,41.35,0,0,1,15.53,14.88q5.87,9.58,5.87,25v91q0,10.26,1.21,15.05t8.11,4.79a35.63,35.63,0,0,0,9-1.37Zm-47.64-90.87q-5.54,4.09-14.5,6T799.4,290.4q-9.84,1.19-19.85,2.73a73.58,73.58,0,0,0-17.95,4.94,32.55,32.55,0,0,0-12.94,9.73q-5,6.31-5,17.23a23.41,23.41,0,0,0,2.93,12.11,24.23,24.23,0,0,0,7.6,8,32,32,0,0,0,10.87,4.44A61.1,61.1,0,0,0,778.17,351Q792.68,351,803,347a52.49,52.49,0,0,0,16.91-9.9,39.1,39.1,0,0,0,9.67-13A32.53,32.53,0,0,0,832.72,311Zm181.58-54.86q-11.06-9.26-29.69-9.26-15.89,0-26.58,5.83a47.21,47.21,0,0,0-17.09,15.43,64.57,64.57,0,0,0-9.15,22.12A119.21,119.21,0,0,0,929,286.5a97.8,97.8,0,0,0,2.93,24,64,64,0,0,0,9.15,20.74,46.2,46.2,0,0,0,16.23,14.58q10,5.49,23.82,5.48,21.74,0,34-11.31t15-31.89h30q-4.85,32.91-24.68,50.75t-54,17.83q-20.37,0-36.07-6.52a69.86,69.86,0,0,1-26.24-18.51A79.82,79.82,0,0,1,903.31,323,118.53,118.53,0,0,1,898,286.5a129.06,129.06,0,0,1,5.18-37.21,85.78,85.78,0,0,1,15.7-30.17,73.63,73.63,0,0,1,26.41-20.24q15.88-7.37,36.94-7.37a108.54,108.54,0,0,1,28.48,3.6,69.59,69.59,0,0,1,23.48,11.15,61.16,61.16,0,0,1,16.74,19q6.55,11.49,8.28,27.26H1028.8Q1025.34,235.75,1014.3,226.49Zm109.77-98.41v145l81.47-77.49h39.36l-70.77,64.46,75.95,112.82h-37.29l-61.1-92.59-27.62,25.38v67.21h-29.34V128.08ZM1294.61,333.3a31,31,0,0,0,10.87,10.63,49,49,0,0,0,15.19,5.66,87,87,0,0,0,17.43,1.71,107.36,107.36,0,0,0,14.5-1,53,53,0,0,0,14-3.77,26.11,26.11,0,0,0,10.52-8.06q4.16-5.31,4.15-13.54,0-11.31-8.63-17.14a73.69,73.69,0,0,0-21.58-9.43q-12.94-3.6-28.13-6.52a146,146,0,0,1-28.14-8.23,58.1,58.1,0,0,1-21.58-14.92q-8.62-9.59-8.63-26.74,0-13.38,6-23a49.36,49.36,0,0,1,15.54-15.6,71.76,71.76,0,0,1,21.4-8.91,99.35,99.35,0,0,1,23.65-2.92,142.1,142.1,0,0,1,28,2.57,65,65,0,0,1,22.61,8.92,46.24,46.24,0,0,1,15.71,17.14q5.87,10.81,6.91,26.92H1375q-.69-8.56-4.48-14.23a29.49,29.49,0,0,0-9.67-9.09,44.38,44.38,0,0,0-13-5,67,67,0,0,0-14.32-1.54,87.19,87.19,0,0,0-13.29,1,44.58,44.58,0,0,0-12.26,3.6,24.49,24.49,0,0,0-9,6.86q-3.46,4.29-3.46,11.14a16.35,16.35,0,0,0,5.35,12.52,42.91,42.91,0,0,0,13.64,8.23,119.67,119.67,0,0,0,18.64,5.48q10.37,2.24,20.71,4.63a222.88,222.88,0,0,1,21.58,5.83,70.74,70.74,0,0,1,18.64,9.09,44.55,44.55,0,0,1,13.12,14.23q5,8.58,5,21.26,0,16.13-6.74,26.74A52.31,52.31,0,0,1,1388,365a74.11,74.11,0,0,1-24.51,9.09,146.46,146.46,0,0,1-27.1,2.57,126.24,126.24,0,0,1-28.31-3.09,70,70,0,0,1-23.82-10.11A51.74,51.74,0,0,1,1267.68,345q-6.21-11.49-6.9-27.95h29.34A32.65,32.65,0,0,0,1294.61,333.3Zm226.46-137.67v25.71h-35.56V331.42a31.29,31.29,0,0,0,.87,8.22,8.44,8.44,0,0,0,3.28,4.81,14.49,14.49,0,0,0,6.73,2.22,96.55,96.55,0,0,0,11.22.52h13.46v25.72h-22.44a105.8,105.8,0,0,1-19.5-1.55A28.66,28.66,0,0,1,1466,365.7a24,24,0,0,1-7.42-11.65q-2.43-7.55-2.42-19.89V221.34h-30.38V195.63h30.38V142.48h29.34v53.15Zm190.56,176.59q-7.61,4.45-21.06,4.46-11.4,0-18.13-6.35t-6.73-20.74a70.11,70.11,0,0,1-28.13,20.74,97.65,97.65,0,0,1-57.65,3.6,53.32,53.32,0,0,1-18.82-8.57,41.09,41.09,0,0,1-12.6-15.26q-4.66-9.42-4.66-22.8,0-15.09,5.18-24.69a44.91,44.91,0,0,1,13.63-15.6,62.8,62.8,0,0,1,19.34-9.09q10.88-3.07,22.26-5.14,12.09-2.4,23-3.6a128,128,0,0,0,19.16-3.43q8.28-2.22,13.12-6.52t4.83-12.51q0-9.6-3.62-15.43a24.87,24.87,0,0,0-9.32-8.92,38.15,38.15,0,0,0-12.78-4.11,96.54,96.54,0,0,0-14-1q-18.64,0-31.07,7t-13.46,26.57h-29.35q.69-16.46,6.91-27.77a52.21,52.21,0,0,1,16.57-18.35,69.83,69.83,0,0,1,23.65-10.11,125.45,125.45,0,0,1,28.48-3.09,168.63,168.63,0,0,1,24,1.72,63,63,0,0,1,21.58,7,41.35,41.35,0,0,1,15.53,14.88q5.86,9.58,5.87,25v91q0,10.26,1.21,15.05t8.11,4.79a35.63,35.63,0,0,0,9-1.37ZM1664,281.35q-5.54,4.09-14.5,6t-18.82,3.07q-9.84,1.19-19.85,2.73a73.58,73.58,0,0,0-18,4.94,32.55,32.55,0,0,0-12.94,9.73q-5,6.31-5,17.23a23.41,23.41,0,0,0,2.93,12.11,24.23,24.23,0,0,0,7.6,8,32,32,0,0,0,10.87,4.44,61.1,61.1,0,0,0,13.12,1.36q14.5,0,24.86-3.92a52.49,52.49,0,0,0,16.91-9.9,39.1,39.1,0,0,0,9.67-13A32.53,32.53,0,0,0,1664,311ZM1872.84,423q-20,21.6-62.83,21.6a122,122,0,0,1-25.37-2.74,77.9,77.9,0,0,1-23.48-8.92,54.52,54.52,0,0,1-17.43-16.11q-6.92-10-7.6-24.35h29.35a21.39,21.39,0,0,0,5,13.37,36.63,36.63,0,0,0,11.39,8.92,55.77,55.77,0,0,0,14.67,5,79.62,79.62,0,0,0,15.19,1.54q14.51,0,24.52-5a46,46,0,0,0,16.57-13.71,56.69,56.69,0,0,0,9.49-21.09,117.48,117.48,0,0,0,2.93-27.09V342.73h-.69q-7.59,16.45-23,24.18a71.8,71.8,0,0,1-32.63,7.71q-20,0-34.86-7.2a72.88,72.88,0,0,1-24.86-19.37,82.31,82.31,0,0,1-15-28.46,116.62,116.62,0,0,1-5-34.47,133.92,133.92,0,0,1,4.14-32.4,88,88,0,0,1,13.81-30.18,75.57,75.57,0,0,1,25.55-22.28q15.87-8.74,39-8.75a66.3,66.3,0,0,1,31.07,7.37A52.18,52.18,0,0,1,1864.9,221h.34V195.63h27.62V357.82Q1892.86,401.37,1872.84,423Zm-37.46-79.72a47.94,47.94,0,0,0,16.4-15.78,72,72,0,0,0,9.15-22.12,106.62,106.62,0,0,0,2.93-24.68,96.71,96.71,0,0,0-2.76-23,64,64,0,0,0-8.8-20.4,45.76,45.76,0,0,0-15.71-14.57q-9.67-5.49-23.47-5.49-14.16,0-24.17,5.31a46.9,46.9,0,0,0-16.4,14.24,60,60,0,0,0-9.32,20.57,99.19,99.19,0,0,0-2.93,24.34,121.38,121.38,0,0,0,2.41,24,67.75,67.75,0,0,0,8.29,21.77,46.43,46.43,0,0,0,15.53,15.78q9.66,6,24.17,6T1835.38,343.25Zm228,18.34q-20,15.09-50.4,15.09-21.4,0-37.11-6.86a73.08,73.08,0,0,1-26.41-19.2,81.52,81.52,0,0,1-16-29.49,141.12,141.12,0,0,1-6-37.38,106.1,106.1,0,0,1,6.21-37A88.39,88.39,0,0,1,1951,217.57a79.09,79.09,0,0,1,26.58-19.2,81.66,81.66,0,0,1,33.66-6.86q23.82,0,39.52,9.78A78,78,0,0,1,2076,226.15a98,98,0,0,1,13.11,32.91,140.13,140.13,0,0,1,2.94,33.95h-133.6a70,70,0,0,0,2.76,22.12,49.9,49.9,0,0,0,10,18.51,49.22,49.22,0,0,0,17.61,12.86q10.7,4.81,25.2,4.8,18.65,0,30.55-8.57t15.71-26.06h29Q2083.41,346.51,2063.39,361.59Zm-7.07-113.84a50.19,50.19,0,0,0-10.7-15.95A53.1,53.1,0,0,0,1989,221.17a47.46,47.46,0,0,0-15.71,10.8,51.73,51.73,0,0,0-10.35,15.95,60.18,60.18,0,0,0-4.49,19.37H2061A59.72,59.72,0,0,0,2056.32,247.75Z" class="cls-1"/><path d="M178.53,451A118.73,118.73,0,0,1,117,433.53l-112-68v-163L209.73,6.34,317.59,71.8C347,89.64,355,109.67,356.5,123.34a44.39,44.39,0,0,1,.15,5V287.08c-.65,15.57-8.62,31.21-23,45a89.49,89.49,0,0,1-57,24.47l-4.78.26v19.69c.31,16.38-7.47,33-21.89,46.79C231.28,441.16,205.93,451,178.53,451Z" class="cls-2"/><path d="M152.9,116.07l64.4-61.76,69.37,42.11c25.94,15.73,29.31,37,10.55,55A60.7,60.7,0,0,1,223.54,159Zm-14,131c25.3,15.34,56.38,12.61,75.7-5.9,19-18.25,20.57-41.27-7-58l-76.42-46.39L63.78,201.47Zm222.8,40c-.71,17.06-9.1,33.83-24.61,48.68a94.16,94.16,0,0,1-60.25,25.86v14.9c.33,17.72-8,35.63-23.45,50.45-19.58,18.75-46.17,29.08-74.88,29.08a123.84,123.84,0,0,1-64.11-18.19L-.06,368.38v-168L209,0,320.22,67.48c31.19,18.9,39.68,40.51,41.31,55.31a55.11,55.11,0,0,1,.18,6.16Zm-97.08,89.56v-1.78A87.85,87.85,0,0,1,253.41,388c-19.58,18.75-46.17,29.08-74.88,29.08a123.84,123.84,0,0,1-64.11-18.19L12.17,336.82V361.5l108.6,65.91a111.59,111.59,0,0,0,57.76,16.41c24.92,0,48.8-8.8,66.42-25.68C257.82,405.8,264.94,391,264.63,376.64Zm0-39v-1.79A86.86,86.86,0,0,1,253.41,349c-19.58,18.76-46.17,29.09-74.88,29.09a123.84,123.84,0,0,1-64.11-18.19L12.17,297.84v24.68l108.6,65.91a111.59,111.59,0,0,0,57.76,16.41c24.92,0,48.8-8.8,66.42-25.68C257.82,366.81,264.94,352,264.63,337.66Zm0-39v-1.79A86.86,86.86,0,0,1,253.41,310c-19.58,18.76-46.17,29.09-74.88,29.09a123.76,123.76,0,0,1-64.11-18.2L12.17,258.86v24.68l108.6,65.91a111.59,111.59,0,0,0,57.76,16.41c24.92,0,48.8-8.8,66.42-25.69C257.82,327.83,264.94,313.05,264.63,298.68Zm0-39v-1.82A87.14,87.14,0,0,1,253.41,271c-19.58,18.76-46.17,29.09-74.88,29.09a123.76,123.76,0,0,1-64.11-18.2L12.17,219.88v24.67l108.6,65.91a111.6,111.6,0,0,0,57.76,16.42c24.92,0,48.8-8.81,66.42-25.69C257.82,288.85,264.94,274.06,264.63,259.7Zm6.65-66.08a84.84,84.84,0,0,0,31-5.8A81,81,0,0,0,328.64,171c.8-.76,1.55-1.53,2.3-2.3a81.07,81.07,0,0,0,7.93-9.38,63.61,63.61,0,0,0,6.27-10.76,48.6,48.6,0,0,0,4.36-16.4c1.48-19.39-10-38.68-35.62-54.23L210.72,15.33,90.46,130.55l-78.29,75,108.6,65.91a111.6,111.6,0,0,0,57.76,16.42c24.92,0,48.8-8.81,66.42-25.69,19.16-18.36,25.52-42.13,13.69-61.87a48.81,48.81,0,0,0-6.79-8.87,89.07,89.07,0,0,0,19.28,2.14Zm78.35,88.47a95.61,95.61,0,0,1-12.53,14.69,94.09,94.09,0,0,1-60.19,25.85h0V349.3a81.7,81.7,0,0,0,51.73-22.37c14-13.39,21.15-28.11,21-42.64Zm0-39c-.75,1.08-1.47,2.15-2.28,3.22a98.06,98.06,0,0,1-8.23,9.37c-.68.69-1.3,1.41-2,2.09a94.1,94.1,0,0,1-60.19,25.86h0v26.67h0A81.7,81.7,0,0,0,328.64,288a73.67,73.67,0,0,0,16.48-22.49A48.53,48.53,0,0,0,349.43,249c.1-1.23.21-2.47.2-3.71Zm0-39c-.75,1.07-1.47,2.15-2.28,3.22a98.06,98.06,0,0,1-8.23,9.37c-.68.69-1.3,1.41-2,2.09a92.11,92.11,0,0,1-10.62,8.66,93.53,93.53,0,0,1-11.63,7,95.8,95.8,0,0,1-37.94,10.18h-.05v26.67h0A81.66,81.66,0,0,0,328.64,249c.8-.77,1.51-1.55,2.27-2.33a82,82,0,0,0,7.92-9.38,63.24,63.24,0,0,0,6.29-10.78A48.48,48.48,0,0,0,349.43,210c.1-1.23.21-2.47.2-3.71Zm0-38.84c-.72,1-1.48,2.07-2.26,3.09a96.82,96.82,0,0,1-8.22,9.4c-.67.69-1.34,1.37-2,2.05a91.28,91.28,0,0,1-10.63,8.65,93.33,93.33,0,0,1-11.6,7,94.6,94.6,0,0,1-26.25,8.71,99,99,0,0,1-14.16,1.57,48.85,48.85,0,0,1,1.25,4.9,53.22,53.22,0,0,1,1.14,12v9.65h.05a84.4,84.4,0,0,0,25.34-5.54,80.11,80.11,0,0,0,12.94-6.46A79.24,79.24,0,0,0,328.64,210c.8-.77,1.51-1.56,2.27-2.33a82,82,0,0,0,7.92-9.38,63.24,63.24,0,0,0,6.29-10.78,48.48,48.48,0,0,0,4.31-16.44c.1-1.24.21-2.47.2-3.71Z" class="cls-1"/></svg>