<svg xmlns="http://www.w3.org/2000/svg" width="2484" height="347" fill="none" viewBox="0 0 2484 347"><path fill="#231F20" d="M480.353 58.2334H503.407L573.453 266.6C571.68 266.6 569.907 266.6 568.133 266.6H551.287L533.553 213.4H447.547L430.7 266.6H409.42L480.353 58.2334ZM529.12 195.667L491.88 79.5134L454.64 195.667H529.12ZM704.68 53.8C706.453 53.8 708.227 53.8 710 53.8H723.3V263.94C716.207 266.6 708.227 267.487 701.133 269.26C692.267 271.033 682.513 271.033 673.647 271.033C663.893 271.033 653.253 270.147 643.5 267.487C634.633 264.827 626.653 261.28 619.56 255.073C612.467 247.98 607.147 240 603.6 231.133C599.167 219.607 597.393 208.08 597.393 196.553C597.393 185.027 599.167 173.5 602.713 161.973C606.26 152.22 610.693 143.353 617.787 136.26C623.993 129.167 631.973 123.847 640.84 120.3C650.593 116.753 660.347 114.98 670.987 114.98C677.193 114.98 683.4 115.867 689.607 116.753C694.927 117.64 700.247 118.527 704.68 120.3V53.8ZM704.68 138.92C700.247 137.147 694.927 135.373 689.607 134.487C683.4 133.6 677.193 132.713 670.987 132.713C663.007 132.713 655.027 134.487 647.047 137.147C640.84 139.807 634.633 144.24 630.2 150.447C625.767 156.653 622.22 162.86 620.447 169.953C617.787 177.933 616.9 186.8 616.9 195.667C616.9 216.06 621.333 230.247 631.087 240C642.613 249.753 656.8 255.073 671.873 254.187C678.08 254.187 684.287 254.187 690.493 253.3C694.927 252.413 699.36 252.413 703.793 250.64V138.92H704.68ZM833.247 271.033C823.493 271.033 813.74 269.26 803.987 264.827C796.007 261.28 788.027 255.073 782.707 247.98C777.387 240.887 772.953 232.02 770.293 223.153C764.973 203.647 764.973 182.367 770.293 161.973C772.953 153.107 776.5 144.24 782.707 137.147C788.027 130.053 795.12 124.733 803.1 120.3C811.967 115.867 821.72 114.093 832.36 114.093C842.113 114.093 851.867 115.867 861.62 120.3C869.6 123.847 876.693 130.053 882.013 137.147C887.333 144.24 891.767 153.107 894.427 161.973C899.747 181.48 899.747 202.76 894.427 223.153C891.767 232.02 887.333 240.887 882.013 247.98C876.693 255.073 869.6 260.393 861.62 264.827C852.753 268.373 843 271.033 833.247 271.033ZM833.247 254.187C846.547 255.073 859.847 248.867 867.827 238.227C875.807 224.927 880.24 208.967 879.353 193.893C880.24 177.933 876.693 162.86 867.827 148.673C851.867 129.167 823.493 126.507 803.987 142.467C802.213 144.24 799.553 146.013 797.78 148.673C789.8 161.973 785.367 177.933 786.253 193.007C785.367 208.967 789.8 224.04 797.78 237.34C806.647 247.98 819.947 254.187 833.247 254.187ZM942.307 53.8H955.607C957.38 53.8 959.153 53.8 960.927 53.8V139.807C965.36 132.713 971.567 127.393 978.66 122.96C987.527 117.64 998.167 114.98 1008.81 115.867C1017.67 115.867 1025.65 116.753 1033.63 120.3C1040.73 122.96 1047.82 127.393 1053.14 133.6C1058.46 139.807 1062.89 147.787 1065.55 156.653C1069.1 167.293 1069.99 178.82 1069.99 189.46C1071.76 211.627 1063.78 233.793 1048.71 250.64C1034.52 264.827 1014.13 272.807 987.527 272.807C978.66 272.807 970.68 271.92 961.813 270.147C954.72 269.26 948.513 267.487 941.42 264.827L942.307 53.8ZM961.813 249.753C966.247 251.527 970.68 252.413 976 253.3C981.32 254.187 986.64 254.187 991.96 254.187C999.94 254.187 1007.03 253.3 1014.13 250.64C1021.22 247.98 1027.43 244.433 1032.75 239.113C1038.07 233.793 1042.5 226.7 1045.16 219.607C1048.71 210.74 1050.48 200.1 1049.59 190.347C1050.48 176.16 1046.93 161.973 1039.84 148.673C1032.75 138.033 1020.33 132.713 1007.03 133.6C1001.71 133.6 996.393 134.487 991.96 136.26C986.64 138.033 981.32 140.693 976.887 144.24C971.567 147.787 968.02 153.107 965.36 158.427C961.813 165.52 960.927 173.5 960.927 181.48L961.813 249.753ZM1125.85 195.667C1125.85 215.173 1130.28 230.247 1139.15 239.113C1150.67 248.867 1164.86 254.187 1179.93 253.3C1187.03 253.3 1194.12 252.413 1200.33 251.527C1206.53 250.64 1212.74 248.867 1218.95 246.207C1219.83 248.867 1220.72 251.527 1221.61 254.187C1222.49 256.847 1222.49 260.393 1222.49 263.053C1216.29 265.713 1209.19 267.487 1202.99 269.26C1195.01 271.033 1186.14 271.033 1178.16 271.033C1166.63 271.033 1155.99 269.26 1145.35 265.713C1136.49 262.167 1128.51 256.847 1122.3 249.753C1116.09 242.66 1111.66 234.68 1109 225.813C1106.34 216.06 1104.57 205.42 1104.57 194.78C1104.57 184.14 1105.45 174.387 1108.11 164.633C1110.77 155.767 1114.32 146.9 1119.64 139.807C1124.96 132.713 1132.05 126.507 1140.03 122.96C1149.79 118.527 1159.54 116.753 1170.18 116.753C1179.05 116.753 1187.91 118.527 1195.89 122.073C1202.99 125.62 1210.08 130.053 1214.51 136.26C1219.83 142.467 1223.38 149.56 1226.04 157.54C1228.7 166.407 1230.47 175.273 1229.59 184.14C1229.59 185.913 1229.59 187.687 1229.59 191.233C1229.59 193.893 1229.59 196.553 1229.59 198.327C1232.25 195.667 1125.85 195.667 1125.85 195.667ZM1212.74 179.707C1212.74 173.5 1211.85 168.18 1210.08 161.973C1208.31 156.653 1206.53 151.333 1202.99 146.9C1199.44 142.467 1195.01 138.92 1190.57 136.26C1173.73 128.28 1153.33 131.827 1140.03 145.127C1132.05 154.88 1126.73 167.293 1126.73 179.707H1212.74Z"/><path fill="url(#paint0_radial_418_42)" d="M0.666656 0.600098H346.467V346.4H0.666656V0.600098Z"/><path fill="#E2D8FF" d="M140.76 173.5H127.46V263.94C131.893 265.713 136.327 267.487 140.76 269.26V173.5ZM165.587 167.293V273.693C167.36 273.693 170.02 274.58 172.68 274.58C175.34 274.58 177.113 274.58 179.773 274.58V167.293H165.587ZM244.5 242.66C249.82 237.34 254.253 231.133 257.8 224.927V156.653H244.5V242.66ZM94.6533 178.82L126.573 142.467L156.72 153.993L220.56 107.887L253.367 138.92L269.327 125.62L266.667 119.413L253.367 130.94L221.447 101.68L156.72 147.787L126.573 136.26L92.88 174.387L70.7133 179.707V184.14L94.6533 178.82ZM100.86 200.987H87.56V227.587C91.9933 232.907 96.4266 239.113 100.86 243.547V200.987ZM219.673 139.807H206.373V268.373C210.807 266.6 215.24 264.827 219.673 263.053V139.807Z"/><path fill="#9F7FFF" d="M24.6067 171.727C24.6067 254.187 91.1067 320.687 173.567 320.687C256.027 320.687 322.527 254.187 322.527 171.727C322.527 89.2666 256.027 22.7666 173.567 22.7666C91.9933 22.7666 24.6067 90.1533 24.6067 171.727ZM40.5667 171.727C40.5667 98.1333 99.9733 38.7266 173.567 38.7266C247.16 38.7266 306.567 98.1333 306.567 171.727C306.567 245.32 247.16 304.727 173.567 304.727C99.9733 305.613 40.5667 245.32 40.5667 171.727Z"/><path fill="#000" d="M1437.95 200.1H1353.72L1329.78 266.6H1307.61L1384.75 57.3467H1406.92L1484.06 266.6H1461.89L1437.95 200.1ZM1395.39 79.5133C1395.39 79.5133 1390.96 97.2467 1387.41 106.113L1359.04 182.367H1430.86L1403.37 106.113C1400.71 97.2467 1396.28 80.4 1395.39 79.5133ZM1512.43 117.64H1531.94V139.807C1531.94 146.013 1531.05 151.333 1531.05 151.333H1531.94C1542.58 127.393 1565.63 113.207 1591.35 113.207C1628.59 113.207 1641 134.487 1641 170.84V266.6H1620.61V177.933C1620.61 154.88 1617.06 133.6 1587.8 133.6C1562.09 133.6 1539.92 151.333 1533.71 176.16C1531.94 182.367 1531.05 189.46 1531.05 196.553V268.373H1510.66V117.64H1512.43ZM1833.41 58.2333H1853.8V227.587C1853.8 247.093 1862.67 249.753 1870.65 249.753C1872.42 249.753 1874.19 249.753 1875.97 249.753V267.487C1873.31 267.487 1870.65 268.373 1868.87 268.373C1856.46 268.373 1834.29 264.827 1834.29 232.02L1833.41 58.2333ZM1915.87 344.627L1940.69 286.993L1949.56 265.713L1887.49 117.64H1909.66L1953.99 226.7C1956.65 233.793 1959.31 242.66 1959.31 242.66H1960.2C1961.97 237.34 1962.86 232.02 1965.52 226.7L2008.97 117.64H2031.13L1957.54 298.52L1935.37 345.513L1915.87 344.627ZM2293.59 114.093C2313.98 113.207 2333.49 121.187 2348.56 135.373L2337.92 150.447C2326.39 138.92 2310.43 132.713 2294.47 132.713C2262.55 131.827 2236.84 157.54 2235.95 189.46C2235.95 190.347 2235.95 192.12 2235.95 193.007C2235.07 224.927 2259.89 251.527 2291.81 252.413C2292.7 252.413 2293.59 252.413 2294.47 252.413C2313.09 252.413 2329.94 244.433 2342.35 231.133L2351.22 247.093C2336.15 262.167 2314.87 271.033 2292.7 270.147C2251.03 271.033 2215.56 238.227 2214.67 196.553C2214.67 194.78 2214.67 193.007 2214.67 192.12C2213.79 149.56 2247.48 114.98 2289.15 114.093C2291.81 114.093 2292.7 114.093 2293.59 114.093ZM2387.57 234.68C2399.99 246.207 2415.95 252.413 2431.91 252.413C2447.87 252.413 2462.05 244.433 2462.05 228.473C2462.05 195.667 2381.37 203.647 2381.37 154.88C2381.37 128.28 2405.31 113.207 2432.79 113.207C2449.64 112.32 2466.49 118.527 2478.9 130.053L2470.03 145.127C2459.39 136.26 2446.09 130.94 2432.79 131.827C2417.72 131.827 2402.65 138.033 2402.65 154.88C2402.65 187.687 2483.33 178.82 2483.33 228.473C2483.33 253.3 2462.05 270.147 2431.91 270.147C2411.51 271.033 2391.12 263.053 2376.93 247.98L2387.57 234.68ZM1767.79 167.293C1768.68 156.653 1765.13 146.9 1758.93 138.92C1750.95 132.713 1741.19 129.167 1731.44 130.053C1724.35 130.053 1717.25 130.94 1709.27 131.827C1703.07 132.713 1697.75 134.487 1691.54 136.26C1690.65 133.6 1689.77 130.94 1688.88 128.28C1687.99 124.733 1687.99 122.073 1687.99 118.527C1694.2 116.753 1700.41 114.98 1706.61 114.093C1714.59 113.207 1721.69 112.32 1729.67 112.32C1744.74 111.433 1760.7 115.867 1772.23 124.733C1781.98 135.373 1787.3 149.56 1786.41 164.633V264.827C1779.32 266.6 1771.34 267.487 1760.7 269.26C1750.95 271.033 1742.08 271.033 1732.33 271.033C1717.25 271.92 1702.18 268.373 1688.88 260.393C1677.35 252.413 1672.03 238.227 1672.92 224.927C1672.92 217.833 1674.69 209.853 1677.35 203.647C1680.01 197.44 1684.45 192.12 1689.77 187.687C1695.97 183.253 1702.18 179.707 1709.27 177.933C1717.25 175.273 1726.12 174.387 1734.1 174.387C1741.19 174.387 1747.4 174.387 1752.72 175.273L1765.13 176.16L1767.79 167.293ZM1767.79 193.007L1755.38 192.12C1750.95 192.12 1745.63 192.12 1741.19 192.12C1728.78 191.233 1717.25 194.78 1706.61 200.987C1698.63 206.307 1694.2 215.173 1694.2 224.927C1694.2 230.247 1695.09 235.567 1697.75 240.887C1700.41 244.433 1703.07 247.98 1707.5 249.753C1711.93 251.527 1716.37 253.3 1720.8 254.187C1725.23 255.073 1730.55 255.073 1734.99 255.073C1741.19 255.073 1746.51 255.073 1752.72 254.187C1758.04 253.3 1763.36 252.413 1768.68 251.527L1767.79 193.007ZM2164.13 117.64H2184.53V267.487H2164.13V117.64Z"/><path fill="#000" d="M2173.89 83.0601C2180.74 83.0601 2186.3 77.5024 2186.3 70.6467C2186.3 63.791 2180.74 58.2334 2173.89 58.2334C2167.03 58.2334 2161.47 63.791 2161.47 70.6467C2161.47 77.5024 2167.03 83.0601 2173.89 83.0601Z"/><path fill="#000" d="M2070.15 135.373H2044.43V118.527H2070.15V90.1533H2089.65V118.527H2130.44V135.373H2089.65V233.793C2089.65 238.227 2090.54 241.773 2091.43 245.32C2092.31 247.98 2094.09 250.64 2096.75 252.413C2098.52 254.187 2101.18 255.073 2103.84 255.96C2106.5 256.847 2109.16 256.847 2111.82 256.847C2118.03 256.847 2124.23 255.96 2129.55 254.187C2131.33 259.507 2132.21 264.827 2132.21 271.033C2124.23 273.693 2115.37 274.58 2107.39 274.58C2097.63 275.467 2087.88 271.92 2079.9 265.713C2071.92 257.733 2068.37 246.207 2070.15 235.567V135.373Z"/><defs><radialGradient id="paint0_radial_418_42" cx="0" cy="0" r="1" gradientTransform="translate(140.946 114.662) scale(226.777 230.782)" gradientUnits="userSpaceOnUse"><stop stop-color="#3C3256"/><stop offset=".77" stop-color="#130732"/></radialGradient></defs></svg>