<svg enable-background="new 0 0 2400 506.9" viewBox="0 0 2400 506.9" xmlns="http://www.w3.org/2000/svg"><ellipse cx="255" cy="253.2" fill="#fff" rx="249" ry="249"/><g fill="#10069f"><path d="m225.5 116.2c-1.4-1.8-3-2.8-4.7-2.8-1.3 0-2.5.5-3.6 1.2-13.3 10.4-31.4 54.5-46.3 112.7l13.2.1c26 .3 52.8.6 79.4 1-7-26.6-13.6-49.5-19.7-67.9-8.9-26.8-14.9-38.9-18.3-44.3z"/><path d="m255 4.2c-137.5 0-249 111.4-249 249s111.5 249 249 249 249-111.5 249-249-111.5-249-249-249zm179 253.5c-.3.3-.6.5-.9.7l-.3.2-.6.4c-.2.1-.4.2-.5.3-1.9 1-4 1.5-6.1 1.5h-118c1 3.9 2 8.4 3.1 13.2 6.5 27.9 23.6 102.1 41.9 102.1h.9c14.3 0 21.5-20.6 37.5-65.7l.2-.6c2.6-7.3 5.5-15.4 8.6-24.1l.8-2.2c1-3 4.3-4.5 7.2-3.5s4.5 4.2 3.5 7.1l-.7 2.2c-1.7 5.4-3.4 12.7-5.5 21.2-9.5 39.4-23.9 98.9-60.7 98.9h-.3c-23.8-.2-38-38.2-44.1-54.5-11.4-30.4-20-62.7-28.3-94.1h-108.4l-22.5 72.1-.3-.3c-3.4 5.3-10.5 6.9-15.8 3.5-3.3-2.1-5.3-5.7-5.3-9.6v-.4l1.4-8.1c3.1-18.5 6.8-37.8 11.1-57.2h-45.9l-.2-.2c-8.4-1.3-14.7-8.6-14.7-17.1 0-8.3 5.9-15.5 14.1-17 1.8-.2 3.6-.3 5.4-.2h2.2c14.5.2 30 .5 46.9.7 23.9-97.2 51.7-146.6 82.4-146.7 33 0 57.5 75.1 77 148.6l.1.3c40.3.8 83.2 2 124.9 5l1.8.2c.7 0 1.3.1 2 .2h.6c7.1 1.4 11.8 8.4 10.3 15.5-.7 2.9-2.4 5.7-4.8 7.6z"/><path d="m642.2 315.5-19.7 48.8h-57.3l109.1-254.7h50.6l108.7 254.7h-57l-19.7-48.8zm57-141.6-37.2 92.7h75.2z"/><path d="m1156.8 266.3v97.9h-51.8v-93.5c0-28.3-13.8-43.6-38-43.6-10.8 0-22.7 4.9-33.5 19.7.9 6.4 1.4 12.9 1.5 19.4v97.9h-51.7v-93.5c0-28.3-13.8-43.6-38.3-43.6-10.1 0-21.2 6-31.7 20.1v116.9h-51.8v-178.1h51.8v10.8c11.2-10.4 23.1-16.4 44-16.4 22.7 0 42.8 8.9 57 25.3 19-17.5 36.9-25.3 64.8-25.3 43.5 0 77.7 33.9 77.7 86z"/><path d="m1384.3 275.2c0 51.8-39.5 92.7-88.6 92.7-20.1 0-36.9-5.2-50.7-14.1v96.4h-51.8v-264.3h51.8v10.4c13.8-8.9 30.5-14.1 50.7-14.1 49.2-.1 88.6 40.5 88.6 93zm-51 0c0-26.4-19.4-49.5-46.2-49.5-15.3 0-30.5 5.2-42.1 20.9v57c11.6 15.3 26.8 20.5 42.1 20.5 26.9-.1 46.2-22.8 46.2-48.9z"/><path d="m1465.2 364.2h-51.8v-264.4h51.8z"/><path d="m1511.7 122.9c0-17.5 13.8-30.5 31.3-30.5 17.1 0 30.9 13 30.9 30.5 0 17.1-13.8 29.8-30.9 29.8-17.5 0-31.3-12.6-31.3-29.8zm57.3 63v178.4h-51.8v-178.4z"/><path d="m1757.1 361.6c-21.6 6.7-31.3 8.2-48 8.2-43.2 0-71.5-30.5-71.5-76.7v-63.7h-37.6v-43.6h37.6v-63.7h51.4v63.7h64.4v43.6h-64.4v63.3c0 20.1 12.3 29.4 31.3 29.4 9.7 0 20.1-2.2 30.2-4.8z"/><path d="m1964.9 364.2h-51.8v-12.7c-14.5 11.5-30.9 18.2-51 18.2-46.9 0-78.2-33.9-78.2-85.6v-98.3h51.8v93.5c0 28.3 14.2 43.6 38.4 43.6 13 0 27.2-7.8 39.1-22.3v-114.7h51.8z"/><path d="m2184.6 364.2h-51.8v-10.4c-13.8 8.9-30.5 14.1-50.6 14.1-49.2 0-89-40.6-89-93.1 0-51.8 39.8-92.7 89-92.7 20.1 0 36.9 5.2 50.6 14.1v-96.4h51.8zm-51.8-60.7v-57c-11.5-15.3-26.8-20.5-42.1-20.5-27.2 0-46.2 22.7-46.2 48.8 0 26.4 19 49.5 46.2 49.5 15.3.1 30.6-5.1 42.1-20.8z"/><path d="m2394.6 288.3h-131.4c4.1 20.9 17.9 37.2 46.2 37.2 14.5 0 24.6-4.5 30.2-13.4h54c-9.7 34.3-43.2 57.7-85.3 57.7-57.4 0-96.1-41.3-96.1-94.6 0-55.1 38.4-95 94.6-95 51 0 89 36.1 89 91.2 0 5.7-.3 11.3-1.2 16.9zm-131.1-30.6h80.8c-3-22.3-16.4-34.6-37.2-34.6-24.9 0-38.7 14.5-43.6 34.6z"/></g></svg>