<svg id="Layer_1" data-name="Layer 1" xmlns="http://www.w3.org/2000/svg" viewBox="0 0 2844.06 1714.43"><path d="M2478.52,785h-6.43v-4.49h19.16V785h-6.39v15h-6.34Z" fill="#00006f"/><path d="M2511.66,793.45c0-3.09.06-6.83.2-9.12h-.06c-.94,3.77-2.18,8.8-4.13,15.69h-5.2c-1.54-6.41-2.8-11.79-3.76-15.73h0c.12,2.27.34,6,.34,9.38V800h-5.66V780.53h9.07a127.91,127.91,0,0,1,3,12.46h0c.75-3.44,2-8,3.3-12.46h9V800h-6.18Z" fill="#00006f"/><path d="M719.26,836.73H778v32h1.75c6.14-23.66,20.16-34.18,38.13-34.18a54.85,54.85,0,0,1,15.34,2.3v51.6c-6-2.08-16.11-3.06-22.35-3.06-17.86,0-31.12,12.7-31.12,32V1005H719.26Z" fill="#00006f"/><path d="M957.42,836.73h60.48V1005H960.49V973h-1.76c-7.34,21.48-26.62,34.19-51.71,34.19-35.38,0-58.61-26.3-58.72-63.11V836.73h60.48v94.66c.11,16.65,8.87,26.73,24.1,26.73,15,0,24.65-10.08,24.54-26.73Z" fill="#00006f"/><path d="M1038.7,920.87c0-60.91,32.43-86.33,65.73-86.33,25,0,40.76,14.46,47.33,31.55h.88V780.64h60.48V1005h-60v-27.6h-1.32c-7,17.09-23.22,29.8-46.89,29.8C1068.94,1007.21,1038.7,979.16,1038.7,920.87Zm115.25,0c0-25-10.08-39.88-26.73-39.88s-26.29,14.9-26.29,39.88,9.64,39.88,26.29,39.88S1154,945.41,1154,920.87Z" fill="#00006f"/><path d="M1233,920.87c0-60.91,32.43-86.33,65.73-86.33,25,0,40.76,14.46,47.33,31.55h.88V780.64h60.47V1005h-60v-27.6h-1.32c-7,17.09-23.22,29.8-46.89,29.8C1263.28,1007.21,1233,979.16,1233,920.87Zm115.25,0c0-25-10.08-39.88-26.73-39.88s-26.29,14.9-26.29,39.88,9.64,39.88,26.29,39.88S1348.29,945.41,1348.29,920.87Z" fill="#00006f"/><path d="M1426.5,921.31c0-52.15,33.31-86.77,85.46-86.77,50.83,0,83.7,32.76,83.7,86.33v14H1486.1v2.63c0,16.21,10.52,28,28.49,28,12.38,0,22.35-5.37,25.85-14.9h55.22c-5.7,35.06-35.72,57.41-82.39,57.41C1459.37,1008.08,1426.5,975.76,1426.5,921.31ZM1540,901.59c-.33-14.46-11.72-24.54-26.73-24.54-14.79,0-26.84,10-27.17,24.54Z" fill="#00006f"/><path d="M1615.58,836.73h58.73v32h1.75c6.13-23.66,20.16-34.18,38.13-34.18a54.83,54.83,0,0,1,15.33,2.3v51.6c-6-2.08-16.1-3.06-22.35-3.06-17.85,0-31.11,12.7-31.11,32V1005h-60.48Z" fill="#00006f"/><path d="M1847.72,883.08c-3.84-11.29-13.26-22.57-33.64-22.57-18.62,0-32.64,9.2-32.54,22.13-.1,11.39,7.89,17.64,26.41,22l26.73,6.13c30.9,7.12,46,21.81,46,45.58,0,30.46-28.16,52-68.81,52-37.79,0-62.56-16.76-68-46.56l31.66-4.82c3.94,16.54,16.54,25,36.15,25,21.48,0,35.39-10.19,35.39-23.23,0-10.52-7.56-17.75-23.77-21.36l-28.49-6.25c-31.55-7-46-22.9-46-46.78,0-29.8,27-49.85,65-49.85,36.37,0,56.86,17.09,63.65,43.28Z" fill="#00006f"/><path d="M1990.56,863h-34.51V955.6c0,19,9.53,22.46,20.16,22.46a53.15,53.15,0,0,0,11.5-1.42l5.92,27.06a62.8,62.8,0,0,1-21.25,3.51c-25.86.54-49.2-14.25-49.09-44.81V863h-24.65v-26.3h24.65V796.41h32.76v40.32h34.51Z" fill="#00006f"/><path d="M2014.2,957.47c0-38.24,32.65-46.57,64.53-50.29,30.24-3.51,42.51-3.29,42.51-15.23v-.77c0-19.06-10.84-30.13-32-30.13-22,0-34.29,11.51-39.11,23.45l-30.79-7c11-30.68,39-43,69.46-43,26.74,0,65.3,9.75,65.3,58.72V1005h-32V982h-1.32c-6.24,12.6-21.91,26.73-49.74,26.73C2039.07,1008.74,2014.2,990.55,2014.2,957.47Zm107.15-13.15V922.63c-4.71,4.71-29.91,7.56-40.53,9-19,2.52-34.52,8.76-34.52,26.29,0,16.22,13.37,24.54,31.89,24.54C2105.47,982.44,2121.35,964.26,2121.35,944.32Z" fill="#00006f"/><path d="M2185.54,921.64c0-51.38,30.67-87.1,78.11-87.1,38.24,0,65.95,22.57,69.46,56.53h-31.88c-3.51-15.77-16.22-28.92-37-28.92-27.39,0-45.58,22.68-45.58,58.72,0,36.71,17.86,59.82,45.58,59.82,18.73,0,32.87-10.73,37-28.92h31.88c-3.62,32.76-29.36,56.64-69.13,56.64C2215.12,1008.41,2185.54,972.37,2185.54,921.64Z" fill="#00006f"/><path d="M2363.66,780.64h32.76V908h2.85l67.05-71.22h39.22l-68.15,72.2,72.75,96.08h-40.21l-57.19-76-16.32,16.32V1005h-32.76Z" fill="#00006f"/><path d="M529.61,893.86V834.19H469.94A59.66,59.66,0,0,0,529.61,893.86Z" fill="#00006f"/><path d="M350.6,1005h88.29a90.73,90.73,0,0,0,90.72-90.73h-179Z" fill="#00006f"/><path d="M469.94,774.52a59.66,59.66,0,0,0,59.67,59.67V774.52Z" fill="#00006f"/><path d="M410.27,774.52a59.67,59.67,0,0,0,59.67,59.67H410.27a59.67,59.67,0,0,0,59.67,59.67h0V774.52Z" fill="#00006f"/><path d="M410.27,893.86h0V834.19H350.6A59.67,59.67,0,0,0,410.27,893.86Z" fill="#00006f"/></svg>