<svg width="498" height="127" xmlns="http://www.w3.org/2000/svg"><g fill="none"><path d="M159.5 99.5l6.2-14.4c6.7 5 15.6 7.6 24.4 7.6 6.5 0 10.6-2.5 10.6-6.3-.1-10.6-38.9-2.3-39.2-28.9-.1-13.5 11.9-23.9 28.9-23.9 10.1 0 20.2 2.5 27.4 8.2L212 56.5c-6.6-4.2-14.8-7.2-22.6-7.2-5.3 0-8.8 2.5-8.8 5.7.1 10.4 39.2 4.7 39.6 30.1 0 13.8-11.7 23.5-28.5 23.5-12.3 0-23.6-2.9-32.2-9.1m237.9-19.6c-3.1 5.4-8.9 9.1-15.6 9.1-9.9 0-17.9-8-17.9-17.9 0-9.9 8-17.9 17.9-17.9 6.7 0 12.5 3.7 15.6 9.1l17.1-9.5c-6.4-11.4-18.7-19.2-32.7-19.2-20.7 0-37.5 16.8-37.5 37.5s16.8 37.5 37.5 37.5c14.1 0 26.3-7.7 32.7-19.2l-17.1-9.5zM228.8 2.5h21.4v104.7h-21.4zm194.1 0v104.7h21.4V75.8l25.4 31.4h27.4l-32.3-37.3 29.9-34.8h-26.2L444.3 64V2.5zM313.8 80.1c-3.1 5.1-9.5 8.9-16.7 8.9-9.9 0-17.9-8-17.9-17.9 0-9.9 8-17.9 17.9-17.9 7.2 0 13.6 4 16.7 9.2v17.7zm0-45v8.5c-3.5-5.9-12.2-10-21.3-10-18.8 0-33.6 16.6-33.6 37.4 0 20.8 14.8 37.6 33.6 37.6 9.1 0 17.8-4.1 21.3-10v8.5h21.4v-72h-21.4z" fill="#000"/><path d="M27.2 80c0 7.3-5.9 13.2-13.2 13.2C6.7 93.2.8 87.3.8 80c0-7.3 5.9-13.2 13.2-13.2h13.2V80zm6.6 0c0-7.3 5.9-13.2 13.2-13.2 7.3 0 13.2 5.9 13.2 13.2v33c0 7.3-5.9 13.2-13.2 13.2-7.3 0-13.2-5.9-13.2-13.2V80z" fill="#E01E5A"/><path d="M47 27c-7.3 0-13.2-5.9-13.2-13.2C33.8 6.5 39.7.6 47 .6c7.3 0 13.2 5.9 13.2 13.2V27H47zm0 6.7c7.3 0 13.2 5.9 13.2 13.2 0 7.3-5.9 13.2-13.2 13.2H13.9C6.6 60.1.7 54.2.7 46.9c0-7.3 5.9-13.2 13.2-13.2H47z" fill="#36C5F0"/><path d="M99.9 46.9c0-7.3 5.9-13.2 13.2-13.2 7.3 0 13.2 5.9 13.2 13.2 0 7.3-5.9 13.2-13.2 13.2H99.9V46.9zm-6.6 0c0 7.3-5.9 13.2-13.2 13.2-7.3 0-13.2-5.9-13.2-13.2V13.8C66.9 6.5 72.8.6 80.1.6c7.3 0 13.2 5.9 13.2 13.2v33.1z" fill="#2EB67D"/><path d="M80.1 99.8c7.3 0 13.2 5.9 13.2 13.2 0 7.3-5.9 13.2-13.2 13.2-7.3 0-13.2-5.9-13.2-13.2V99.8h13.2zm0-6.6c-7.3 0-13.2-5.9-13.2-13.2 0-7.3 5.9-13.2 13.2-13.2h33.1c7.3 0 13.2 5.9 13.2 13.2 0 7.3-5.9 13.2-13.2 13.2H80.1z" fill="#ECB22E"/></g></svg>