<svg viewBox="0 0 305 86" fill="none" xmlns="http://www.w3.org/2000/svg">
<path d="M43 36.15C39.22 42.51 35.59 48.67 31.89 54.79C31.3635 55.4672 31.0252 56.2714 30.9093 57.1213C30.7934 57.9712 30.904 58.8366 31.23 59.63C31.7467 60.854 31.988 62.1766 31.9366 63.5041C31.8852 64.8316 31.5426 66.1316 30.9328 67.312C30.3231 68.4923 29.4612 69.5241 28.4083 70.3343C27.3554 71.1444 26.1372 71.7131 24.84 72C19.6 73.37 14.49 69.93 13.45 64.32C12.53 59.32 16.38 54.48 21.86 53.71C22.32 53.64 22.79 53.64 23.56 53.58L31.89 39.58C26.65 34.37 23.53 28.28 24.22 20.73C24.6151 15.5239 26.8982 10.6413 30.64 7.00004C34.1665 3.49352 38.7864 1.29881 43.7324 0.780378C48.6785 0.261946 53.653 1.45099 57.83 4.15004C66.13 9.48004 69.94 19.88 66.7 28.77L59.09 26.7C60.09 21.76 59.36 17.31 56.02 13.51C53.8863 11.1171 50.953 9.58462 47.77 9.20003C44.5973 8.77279 41.3764 9.49466 38.6896 11.2352C36.0027 12.9756 34.0272 15.6199 33.12 18.69C31 25.87 34.22 31.73 43 36.15Z" fill="#C73A63"/>
<path d="M53.84 28.6301L61.9 42.8401C75.46 38.6401 85.68 46.1501 89.35 54.1901C91.5193 58.8581 91.9767 64.1406 90.642 69.1119C89.3073 74.0833 86.2656 78.4264 82.05 81.3801C73.12 87.5301 61.83 86.4801 53.91 78.5801L60.12 73.3801C67.94 78.4401 74.77 78.2001 79.84 72.2101C81.9326 69.7163 83.0613 66.5546 83.0209 63.2993C82.9806 60.044 81.7738 56.9113 79.62 54.4701C74.48 48.6901 67.62 48.4701 59.28 54.0601C55.83 47.9401 52.28 41.8601 48.98 35.7001C48.5473 34.7124 47.8672 33.8529 47.0053 33.2047C46.1435 32.5566 45.129 32.1417 44.06 32.0001C42.0762 31.6309 40.2812 30.5867 38.9798 29.0447C37.6783 27.5026 36.9506 25.5577 36.92 23.5401C36.8151 21.5896 37.3324 19.6562 38.3973 18.0187C39.4622 16.3812 41.0197 15.1242 42.8451 14.429C44.6705 13.7337 46.6695 13.6362 48.5539 14.1504C50.4383 14.6646 52.1107 15.7641 53.33 17.2901C54.3324 18.4526 55.0086 19.8601 55.2897 21.3691C55.5708 22.8781 55.4466 24.4347 54.93 25.8801C54.64 26.7401 54.25 27.5901 53.84 28.6301Z" fill="#4B4B4B"/>
<path d="M60.21 67.0801H43.88C42.32 73.5201 38.94 78.7101 33.11 82.0201C28.6976 84.5687 23.531 85.4888 18.51 84.6201C13.7442 83.7413 9.39731 81.3258 6.1341 77.7429C2.87089 74.1601 0.870919 69.6071 0.439994 64.7801C0.0770046 59.5843 1.56918 54.4283 4.651 50.2295C7.73282 46.0307 12.2044 43.0614 17.27 41.8501L19.36 49.4301C10.13 54.1401 6.93999 60.0701 9.51999 67.4901C11.79 74.0201 18.25 77.6001 25.27 76.2101C32.29 74.8201 36.04 68.8501 35.6 59.2901C42.39 59.2901 49.18 59.2201 55.97 59.2901C58.62 59.2901 60.67 59.0601 62.67 56.7201C65.96 52.8701 72.01 53.2201 75.55 56.8501C76.3898 57.728 77.0485 58.7627 77.4884 59.8951C77.9283 61.0276 78.1409 62.2356 78.1139 63.4502C78.087 64.6647 77.8211 65.8621 77.3314 66.974C76.8418 68.0858 76.1379 69.0903 75.26 69.9301C74.3821 70.7699 73.3474 71.4286 72.215 71.8685C71.0825 72.3084 69.8745 72.521 68.6599 72.4941C67.4453 72.4671 66.2479 72.2012 65.1361 71.7115C64.0243 71.2219 63.0198 70.518 62.18 69.6401C61.4805 68.8206 60.823 67.9661 60.21 67.0801V67.0801Z" fill="#4A4A4A"/>
<path d="M112 34.0601H118.27L121.87 51.0601L125.56 34.0601H132L125.14 57.7101H118.8L115.09 40.4801L111.34 57.7101H104.92L98.28 34.0601H104.92L108.61 51.0601L112 34.0601Z" fill="#4B4B4B"/>
<path d="M149.22 34.54C150.889 35.2937 152.308 36.5079 153.31 38.04C154.3 39.5058 154.943 41.1782 155.19 42.93C155.378 44.4858 155.445 46.0539 155.39 47.62H138.17C138.263 49.9933 139.087 51.66 140.64 52.62C141.668 53.2361 142.852 53.5449 144.05 53.51C145.017 53.5871 145.985 53.3695 146.825 52.8857C147.666 52.4019 148.341 51.6748 148.76 50.8H155.07C154.785 52.4322 153.982 53.9293 152.78 55.07C150.66 57.37 147.693 58.52 143.88 58.52C140.847 58.5602 137.898 57.5298 135.55 55.61C133.143 53.67 131.94 50.5133 131.94 46.14C131.94 42.04 133.027 38.9 135.2 36.72C136.31 35.6233 137.634 34.7663 139.09 34.2021C140.545 33.6379 142.1 33.3785 143.66 33.44C145.57 33.4076 147.466 33.7826 149.22 34.54V34.54ZM140 39.89C139.073 40.9022 138.495 42.185 138.35 43.55H149C148.994 42.8471 148.845 42.1528 148.561 41.5096C148.277 40.8665 147.865 40.2881 147.35 39.81C146.327 38.9443 145.02 38.4883 143.68 38.53C143.006 38.491 142.331 38.5916 141.698 38.8256C141.065 39.0597 140.487 39.422 140 39.89V39.89Z" fill="#4B4B4B"/>
<path d="M178.21 36.91C180.062 39.4142 180.997 42.4785 180.86 45.59C180.987 48.8385 180.068 52.0419 178.24 54.73C176.85 56.4883 174.883 57.6986 172.688 58.1469C170.492 58.5953 168.208 58.2528 166.24 57.18C165.331 56.515 164.548 55.6919 163.93 54.75V57.75H157.83V25.77H164V37.14C164.688 36.1336 165.573 35.2765 166.6 34.62C167.892 33.8533 169.379 33.4781 170.88 33.54C172.282 33.4798 173.677 33.7541 174.952 34.3401C176.226 34.9261 177.343 35.807 178.21 36.91V36.91ZM173 51.31C173.956 49.7937 174.424 48.0206 174.34 46.23C174.383 44.811 174.159 43.3965 173.68 42.06C173.363 41.1084 172.742 40.2873 171.913 39.7235C171.083 39.1596 170.091 38.8843 169.09 38.94C168.087 38.8763 167.09 39.1403 166.249 39.6922C165.409 40.244 164.77 41.054 164.43 42C163.947 43.3493 163.723 44.7777 163.77 46.21C163.709 47.9757 164.183 49.7186 165.13 51.21C165.587 51.8721 166.207 52.4044 166.931 52.755C167.655 53.1055 168.457 53.2623 169.26 53.21C169.994 53.24 170.723 53.081 171.378 52.7483C172.033 52.4157 172.591 51.9204 173 51.31V51.31Z" fill="#4B4B4B"/>
<path d="M201 34.1901C202.17 34.681 203.184 35.4834 203.93 36.5101C204.543 37.3099 204.951 38.2469 205.12 39.2401C205.297 40.7567 205.371 42.2835 205.34 43.8101V57.7101H199V43.3101C199.044 42.2452 198.821 41.1864 198.35 40.2301C198.04 39.6711 197.572 39.2162 197.005 38.9226C196.437 38.6291 195.795 38.5099 195.16 38.5801C194.458 38.5365 193.757 38.6628 193.114 38.9483C192.472 39.2338 191.908 39.6701 191.47 40.2201C190.547 41.5992 190.104 43.244 190.21 44.9001V57.7201H184V25.8401H190.18V37.1201C190.92 35.889 191.996 34.8937 193.28 34.2501C194.442 33.7111 195.709 33.4346 196.99 33.4401C198.364 33.4119 199.729 33.6672 201 34.1901V34.1901Z" fill="#4B4B4B"/>
<path d="M229.44 54.82C227.44 57.2867 224.41 58.52 220.35 58.52C216.29 58.52 213.26 57.2867 211.26 54.82C209.318 52.2653 208.266 49.1444 208.266 45.935C208.266 42.7257 209.318 39.6048 211.26 37.05C213.26 34.55 216.29 33.3 220.35 33.3C224.41 33.3 227.44 34.55 229.44 37.05C231.384 39.6041 232.437 42.7253 232.437 45.935C232.437 49.1448 231.384 52.266 229.44 54.82V54.82ZM224.49 51.4C225.551 49.7773 226.06 47.8552 225.94 45.92C226.063 43.9877 225.554 42.0677 224.49 40.45C223.974 39.8497 223.334 39.3679 222.614 39.0376C221.894 38.7073 221.112 38.5363 220.32 38.5363C219.528 38.5363 218.746 38.7073 218.026 39.0376C217.306 39.3679 216.666 39.8497 216.15 40.45C215.078 42.0646 214.565 43.9861 214.69 45.92C214.567 47.857 215.08 49.7811 216.15 51.4C216.664 52.0034 217.304 52.488 218.024 52.8202C218.744 53.1525 219.527 53.3246 220.32 53.3246C221.113 53.3246 221.896 53.1525 222.616 52.8202C223.336 52.488 223.976 52.0034 224.49 51.4V51.4Z" fill="#4B4B4B"/>
<path d="M255.37 54.82C253.37 57.2867 250.34 58.52 246.28 58.52C242.22 58.52 239.19 57.2867 237.19 54.82C235.246 52.266 234.193 49.1448 234.193 45.935C234.193 42.7253 235.246 39.6041 237.19 37.05C239.19 34.55 242.22 33.3 246.28 33.3C250.34 33.3 253.37 34.55 255.37 37.05C257.314 39.6041 258.367 42.7253 258.367 45.935C258.367 49.1448 257.314 52.266 255.37 54.82V54.82ZM250.42 51.4C251.481 49.7773 251.99 47.8552 251.87 45.92C251.993 43.9877 251.484 42.0677 250.42 40.45C249.904 39.8497 249.264 39.3679 248.544 39.0376C247.824 38.7073 247.042 38.5363 246.25 38.5363C245.458 38.5363 244.676 38.7073 243.956 39.0376C243.236 39.3679 242.596 39.8497 242.08 40.45C241.008 42.0646 240.495 43.9861 240.62 45.92C240.497 47.857 241.009 49.7811 242.08 51.4C242.594 52.0034 243.234 52.488 243.954 52.8202C244.674 53.1525 245.457 53.3246 246.25 53.3246C247.043 53.3246 247.826 53.1525 248.546 52.8202C249.266 52.488 249.906 52.0034 250.42 51.4V51.4Z" fill="#4B4B4B"/>
<path d="M261.43 25.8401H267.51V43.0901L275.31 34.1701H283L274.52 43.0001L283.33 57.7301H275.8L270.07 47.6201L267.51 50.2801V57.7201H261.43V25.8401Z" fill="#4B4B4B"/>
<path d="M289.24 50.1599C289.275 51.0089 289.572 51.8263 290.09 52.4999C290.863 53.3266 292.287 53.7399 294.36 53.7399C295.359 53.785 296.354 53.6003 297.27 53.1999C297.572 53.0646 297.831 52.8495 298.02 52.5778C298.209 52.3062 298.32 51.9882 298.341 51.6581C298.363 51.3281 298.294 50.9983 298.142 50.7044C297.991 50.4105 297.762 50.1635 297.48 49.9899C295.388 49.1627 293.221 48.5366 291.01 48.1199C288.948 47.7408 287.003 46.8846 285.33 45.6199C284.762 45.0743 284.32 44.4113 284.035 43.6772C283.751 42.9432 283.629 42.1557 283.68 41.3699C283.676 40.3005 283.904 39.243 284.35 38.2708C284.796 37.2986 285.447 36.435 286.26 35.7399C287.98 34.1733 290.397 33.3899 293.51 33.3899C296.039 33.2814 298.547 33.8954 300.74 35.1599C302.6 36.3399 303.67 38.3766 303.95 41.2699H297.77C297.727 40.5898 297.495 39.9353 297.1 39.3799C296.652 38.9217 296.107 38.5704 295.504 38.3523C294.902 38.1341 294.258 38.0547 293.62 38.1199C292.619 38.0357 291.615 38.2553 290.74 38.7499C290.486 38.9065 290.274 39.1236 290.124 39.3818C289.974 39.6401 289.89 39.9314 289.88 40.2299C289.862 40.5478 289.939 40.8638 290.101 41.1379C290.263 41.4121 290.503 41.632 290.79 41.7699C292.891 42.5214 295.052 43.0935 297.25 43.4799C299.295 43.8553 301.206 44.7623 302.79 46.1099C303.384 46.6861 303.852 47.3789 304.165 48.1447C304.478 48.9105 304.63 49.7328 304.61 50.5599C304.64 51.6522 304.421 52.7371 303.969 53.7318C303.517 54.7265 302.843 55.6049 302 56.2999C300.253 57.7799 297.553 58.5199 293.9 58.5199C290.247 58.5199 287.497 57.7366 285.65 56.1699C284.789 55.4298 284.104 54.5075 283.644 53.4697C283.184 52.4319 282.96 51.3047 282.99 50.1699H289.26L289.24 50.1599Z" fill="#4B4B4B"/>
</svg>
