<svg xmlns="http://www.w3.org/2000/svg" xmlns:xlink="http://www.w3.org/1999/xlink" width="442.56" height="393.28" viewBox="0 0 331.92 294.96"><defs><path id="b" d="M.703 0v-6.437h2.86q.855 0 1.312.171.45.176.719.61.264.44.265.968a1.6 1.6 0 0 1-.453 1.157q-.44.469-1.36.594.33.175.516.328.375.344.704.859L6.39 0H5.313l-.86-1.344a9 9 0 0 0-.61-.875 1.8 1.8 0 0 0-.437-.437 1.2 1.2 0 0 0-.375-.172 3 3 0 0 0-.484-.031h-.985V0Zm.86-3.594H3.39q.592.002.922-.125a1 1 0 0 0 .5-.39q.17-.264.171-.578a.96.96 0 0 0-.343-.75q-.33-.295-1.047-.297H1.563Zm0 0"/><path id="c" d="M.719 0v-6.437h4.656v.75H1.563v1.984h3.562v.75H1.563v2.187h3.953V0Zm0 0"/><path id="d" d="m.406-2.062.797-.079q.06.487.266.797c.144.211.363.375.656.5q.434.188.984.188c.32 0 .61-.047.86-.14q.375-.141.562-.391a.95.95 0 0 0 .188-.563.78.78 0 0 0-.188-.516q-.174-.233-.578-.39-.251-.106-1.14-.313-.892-.217-1.25-.406a1.7 1.7 0 0 1-.688-.594 1.5 1.5 0 0 1-.219-.812c0-.32.086-.625.266-.907q.28-.419.812-.64.53-.218 1.188-.219.714 0 1.265.234.547.223.829.672.292.455.328 1.016l-.828.063c-.043-.407-.188-.711-.438-.922q-.375-.312-1.125-.313-.768 0-1.125.281-.361.283-.36.688 0 .346.25.562.25.235 1.282.47 1.044.234 1.438.405c.375.168.648.387.828.657q.264.393.265.922-.002.501-.297.968-.299.458-.843.703a3 3 0 0 1-1.235.25Q2.278.107 1.687-.14A2.14 2.14 0 0 1 .75-.906a2.2 2.2 0 0 1-.344-1.156m0 0"/><path id="e" d="M2.328 0v-5.687H.218v-.75h5.095v.75H3.188V0Zm0 0"/><path id="f" d="M-.016 0 2.47-6.437h.906L6.015 0h-.968l-.75-1.953H1.594L.89 0Zm1.86-2.64H4.03L3.36-4.438q-.313-.812-.453-1.329a8 8 0 0 1-.36 1.235Zm0 0"/><path id="g" d="M.688 0v-6.437h2.437q.639.002.984.062c.313.055.57.152.782.297q.327.221.515.625.201.394.203.875c0 .555-.18 1.016-.53 1.39q-.517.563-1.876.563H1.547V0Zm.859-3.375h1.672q.81.002 1.156-.312.359-.31.36-.86-.002-.406-.204-.687a.97.97 0 0 0-.547-.391q-.205-.061-.796-.062H1.547Zm0 0"/><path id="h" d="M.844 0v-6.437h.844V0Zm0 0"/><path id="i" d="M2.11 1.89A8 8 0 0 1 1-.03a6 6 0 0 1-.453-2.297Q.546-3.37.89-4.344q.386-1.107 1.218-2.203h.563q-.534.91-.703 1.297-.27.609-.422 1.266a7.5 7.5 0 0 0-.188 1.656q0 2.109 1.313 4.219Zm0 0"/><path id="j" d="M.688 0v-6.437h2.218q.763 0 1.156.093.545.128.938.453.515.44.766 1.11c.164.437.25.949.25 1.531q-.001.736-.172 1.297a3.4 3.4 0 0 1-.438.937q-.268.376-.593.594a2.4 2.4 0 0 1-.766.313Q3.607 0 3.016 0Zm.859-.766h1.375q.638.001 1-.109a1.5 1.5 0 0 0 .578-.344q.293-.294.469-.812.17-.515.172-1.235 0-1.013-.328-1.546Q4.48-5.36 4-5.547q-.344-.14-1.094-.14h-1.36Zm0 0"/><path id="k" d="M.594-5.531v-.907h.781v.907Zm-1 7.344.14-.672q.236.06.375.062.248 0 .36-.172Q.593.874.594.234v-4.906h.781V.25q0 .856-.219 1.203c-.187.29-.508.438-.953.438a2.5 2.5 0 0 1-.61-.079m0 0"/><path id="l" d="M3.64-.578c-.292.25-.574.43-.843.531a2.5 2.5 0 0 1-.875.156Q1.156.11.734-.266c-.273-.25-.406-.57-.406-.968a1.299 1.299 0 0 1 .563-1.078q.246-.172.562-.266.234-.046.703-.11.966-.106 1.422-.28v-.204c0-.32-.074-.547-.219-.672q-.314-.28-.906-.281-.563.002-.828.203-.27.189-.39.688l-.766-.094q.093-.498.328-.797.246-.31.703-.469a3.1 3.1 0 0 1 1.063-.172q.607 0 .968.141.373.142.547.36.186.204.25.53.047.205.047.72v1.062q0 1.096.047 1.39.046.3.203.563h-.828a1.5 1.5 0 0 1-.156-.578m-.062-1.766q-.44.175-1.297.297-.487.08-.687.172a.63.63 0 0 0-.313.25.7.7 0 0 0-.11.375q0 .315.235.531.235.204.703.203.45.001.813-.203a1.3 1.3 0 0 0 .531-.547q.124-.264.125-.78Zm0 0"/><path id="m" d="M.594 0v-4.672h.719V-4q.499-.764 1.484-.766.42.002.765.157c.239.093.415.226.532.39q.169.237.25.578.047.222.047.766V0h-.797v-2.844q0-.482-.094-.719a.76.76 0 0 0-.328-.374 1 1 0 0 0-.547-.157q-.502 0-.875.328-.361.317-.36 1.22V0Zm0 0"/><path id="n" d="M.453.39 1.22.5q.045.357.265.516c.196.144.47.218.813.218q.544-.001.844-.218.294-.223.406-.61.059-.25.047-1.015C3.25-.203 2.82 0 2.313 0Q1.34.002.813-.687C.469-1.157.297-1.711.297-2.36q0-.67.234-1.235.247-.561.703-.86.451-.31 1.079-.312.825 0 1.359.657v-.563h.734V-.64q0 1.09-.234 1.547-.223.451-.703.719-.469.265-1.172.266-.844 0-1.36-.375Q.436 1.14.454.39m.656-2.812q-.002.924.36 1.344.356.422.906.422.546 0 .922-.422.375-.422.375-1.313c0-.57-.133-1.004-.39-1.296-.25-.29-.555-.438-.907-.438q-.532.002-.906.438-.361.421-.36 1.265m0 0"/><path id="o" d="M.297-2.328q-.001-1.295.719-1.922.608-.516 1.468-.516c.645 0 1.172.211 1.579.625q.609.627.609 1.735 0 .907-.281 1.422c-.18.343-.438.617-.782.812A2.3 2.3 0 0 1 2.484.11Q1.5.11.891-.516C.492-.94.297-1.546.297-2.328m.812 0q0 .892.391 1.344.387.438.984.437.592.001.985-.437.389-.45.39-1.375-.002-.855-.39-1.313-.393-.452-.985-.453-.597 0-.984.453-.392.44-.39 1.344m0 0"/><path id="p" d="m3.781-1.5.828.094q-.205.72-.734 1.125c-.344.261-.79.39-1.328.39-.68 0-1.219-.207-1.625-.625C.523-.94.328-1.536.328-2.296q0-1.171.61-1.813.608-.657 1.578-.657.937.001 1.515.641.593.627.594 1.781v.219H1.141q.044.768.437 1.172.387.408.984.406c.29 0 .536-.07.735-.219q.31-.232.484-.734M1.188-2.781h2.609c-.031-.395-.133-.692-.297-.89a1.22 1.22 0 0 0-.984-.454c-.368 0-.672.125-.922.375-.242.242-.375.563-.407.969m0 0"/><path id="q" d="m.281-1.39.782-.126q.06.471.359.72.31.25.844.25.543.002.812-.22.265-.216.266-.515a.46.46 0 0 0-.235-.422q-.174-.105-.812-.281-.879-.218-1.219-.375a1.12 1.12 0 0 1-.5-.438 1.15 1.15 0 0 1-.172-.625q0-.31.14-.578.141-.265.391-.453.186-.124.5-.219c.22-.062.446-.094.688-.094q.544.002.953.157.42.158.625.422.2.268.281.718l-.78.11a.82.82 0 0 0-.313-.563q-.253-.201-.703-.203-.55 0-.782.188-.234.175-.234.421 0 .16.094.266a.6.6 0 0 0 .312.219q.106.048.688.203c.562.148.953.265 1.172.36.226.093.406.234.53.421q.189.268.188.672 0 .41-.234.75c-.156.23-.383.414-.672.547q-.422.187-.984.187-.91 0-1.391-.375Q.405-.65.281-1.39m0 0"/><path id="r" d="m2.328-.703.11.687q-.347.078-.594.079-.439 0-.672-.141a.84.84 0 0 1-.344-.36Q.734-.655.734-1.358v-2.688H.156v-.625h.578v-1.156l.797-.469v1.625h.797v.625h-.797v2.719c0 .23.008.375.032.437a.4.4 0 0 0 .14.157.46.46 0 0 0 .266.062c.093 0 .21-.008.36-.031m0 0"/><path id="s" d="M.734 0v-6.437h4.344v.75H1.594v2h3.015v.765H1.594V0Zm0 0"/><path id="t" d="M.578 0v-4.672h.719v.719q.265-.497.5-.656a.93.93 0 0 1 .516-.157c.257 0 .53.086.812.25l-.281.735a1.1 1.1 0 0 0-.578-.172.8.8 0 0 0-.47.156.9.9 0 0 0-.296.438 3.2 3.2 0 0 0-.125.922V0Zm0 0"/><path id="u" d="M.594 0v-4.672h.703v.656a1.6 1.6 0 0 1 .578-.546c.25-.133.531-.204.844-.204q.516.001.844.22.327.205.468.593.56-.812 1.438-.813c.468 0 .828.133 1.078.391q.375.375.375 1.172V0h-.797v-2.937q0-.481-.078-.688a.62.62 0 0 0-.266-.328.83.83 0 0 0-.484-.14q-.485 0-.813.327-.328.33-.328 1.047V0H3.36v-3.031q0-.527-.187-.797-.19-.265-.625-.266a1.1 1.1 0 0 0-.625.188.98.98 0 0 0-.406.515c-.086.22-.125.543-.125.97V0Zm0 0"/><path id="v" d="M1.453 0 .031-4.672h.813l.75 2.703.265 1c.008-.05.094-.375.25-.968l.735-2.735h.812l.703 2.719.235.89.265-.906.797-2.703h.766L4.969 0h-.813l-.75-2.797-.187-.797L2.28 0Zm0 0"/><path id="w" d="M.594 0v-6.437h.797v3.671l1.875-1.906H4.28L2.5-2.938 4.469 0h-.985l-1.53-2.39-.563.546V0Zm0 0"/><path id="x" d="m0 .11 1.875-6.657H2.5L.64.11Zm0 0"/><path id="y" d="m.563 1.797-.094-.734q.265.06.453.062a.8.8 0 0 0 .422-.094.8.8 0 0 0 .265-.234c.04-.086.118-.281.235-.594q.03-.064.078-.187L.14-4.672H1l.969 2.703q.187.516.343 1.078.125-.528.313-1.062l1-2.719h.797L2.64.078a11 11 0 0 1-.438 1.063q-.221.386-.484.562a1.12 1.12 0 0 1-.657.188c-.148 0-.312-.032-.5-.094m0 0"/><path id="z" d="M.594 0v-6.437h.797v2.312a1.75 1.75 0 0 1 1.39-.64c.344 0 .64.07.89.202q.389.206.548.563.17.362.172 1.047V0h-.782v-2.953q-.001-.591-.265-.86-.25-.28-.719-.28-.362 0-.672.187a.94.94 0 0 0-.437.484c-.086.211-.125.5-.125.875V0Zm0 0"/><path id="A" d="M1.11 1.89H.546Q1.859-.218 1.859-2.327a7.3 7.3 0 0 0-.187-1.64 8 8 0 0 0-.422-1.266 19 19 0 0 0-.703-1.313h.562q.826 1.096 1.22 2.203a6.07 6.07 0 0 1-.11 4.313 8.2 8.2 0 0 1-1.11 1.922m0 0"/><path id="B" d="M.578 0v-6.437h.781V0Zm0 0"/><path id="C" d="M.594-5.531v-.907h.797v.907ZM.594 0v-4.672h.797V0Zm0 0"/><path id="D" d="M1.328 0H.594v-6.437h.781v2.296c.332-.414.758-.625 1.281-.625q.437.001.813.172.388.175.64.485.248.314.391.765.14.44.14.938-.001 1.205-.593 1.86-.597.655-1.422.655c-.555 0-.984-.226-1.297-.687Zm-.016-2.375q0 .844.235 1.219.374.61 1 .61c.351 0 .656-.15.906-.454q.375-.451.375-1.344 0-.902-.36-1.344-.36-.435-.874-.437-.532 0-.906.453-.375.456-.375 1.297m0 0"/><path id="E" d="M3.625 0v-.594Q3.168.11 2.313.11a1.8 1.8 0 0 1-1.016-.312 2.1 2.1 0 0 1-.734-.86q-.251-.545-.25-1.265 0-.703.234-1.266.232-.575.687-.875c.313-.195.66-.297 1.047-.297q.422.001.75.172.328.176.531.469v-2.312h.797V0Zm-2.5-2.328q0 .892.375 1.344.375.438.89.437c.344 0 .633-.14.876-.422.25-.281.375-.71.375-1.297q0-.948-.375-1.406c-.25-.3-.555-.453-.907-.453q-.533.002-.89.438-.344.439-.344 1.359m0 0"/><path id="F" d="m3.64-1.703.782.094q-.13.814-.656 1.265c-.356.305-.79.453-1.297.453Q1.512.11.938-.516q-.58-.623-.579-1.796c0-.508.082-.954.25-1.329q.246-.562.75-.843a2.3 2.3 0 0 1 1.125-.282c.5 0 .91.133 1.235.391Q4.2-4 4.344-3.297l-.766.125q-.11-.469-.39-.703a1 1 0 0 0-.672-.25q-.61.002-.985.438-.361.422-.36 1.343-.002.954.36 1.375.358.423.938.422.466 0 .781-.281c.207-.188.336-.477.39-.875m0 0"/><path id="G" d="M.688 0v-6.437h.875l3.375 5.046v-5.046h.828V0H4.89L1.5-5.062V0Zm0 0"/><path id="I" d="M5.578-.687q.591.408 1.094.593L6.422.5a4.9 4.9 0 0 1-1.39-.797A3.14 3.14 0 0 1 3.452.11q-.879 0-1.594-.421A2.85 2.85 0 0 1 .766-1.5Q.39-2.263.39-3.219q0-.949.375-1.734.387-.778 1.109-1.188a3.1 3.1 0 0 1 1.594-.421q.89.002 1.61.437c.476.281.843.68 1.093 1.188q.375.751.375 1.718c0 .524-.086.996-.25 1.422a2.9 2.9 0 0 1-.719 1.11M3.703-1.781q.732.205 1.219.61.75-.67.75-2.048-.001-.795-.266-1.375a2.1 2.1 0 0 0-.781-.906 2.1 2.1 0 0 0-1.156-.328q-.956 0-1.578.656-.626.658-.625 1.953-.001 1.254.625 1.922.622.673 1.578.672.466.002.875-.172a3.2 3.2 0 0 0-.844-.36Zm0 0"/><path id="J" d="M.656 0v-6.437h.86v5.671h3.172V0Zm0 0"/><path id="K" d="M.656 0v-6.437h.86v3.187l3.203-3.187h1.14L3.172-3.828 5.984 0H4.86L2.563-3.266 1.516-2.234V0Zm0 0"/><path id="L" d="m5.297-2.266.844.22c-.18.698-.5 1.233-.97 1.608C4.712-.07 4.146.11 3.47.11Q2.437.11 1.78-.312c-.437-.282-.773-.688-1-1.22a4.6 4.6 0 0 1-.328-1.734q0-1.014.375-1.765.389-.75 1.094-1.125c.476-.258 1-.39 1.562-.39q.968 0 1.625.5.67.484.922 1.374l-.843.188c-.149-.47-.36-.805-.641-1.016q-.421-.328-1.078-.328-.737 0-1.235.36a1.88 1.88 0 0 0-.703.968 3.7 3.7 0 0 0-.203 1.219q0 .832.234 1.453.248.61.75.906.498.298 1.094.297.717.002 1.203-.406.5-.422.688-1.235m0 0"/><path id="M" d="M1.89 0 .11-4.672h.843l1 2.797q.154.457.297.938c.07-.239.172-.532.297-.875l1.031-2.86h.813L2.625 0Zm0 0"/><path id="N" d="M.594 1.781v-6.453h.719v.61q.246-.357.562-.532.328-.17.797-.172.59.001 1.047.313c.3.2.531.484.687.86q.235.561.235 1.218-.001.721-.266 1.297a1.96 1.96 0 0 1-.734.89A1.97 1.97 0 0 1 2.609.11q-.392 0-.703-.171a1.6 1.6 0 0 1-.515-.422V1.78Zm.719-4.093c0 .605.117 1.054.359 1.343q.375.423.89.422.516.001.891-.437.389-.452.39-1.391 0-.89-.374-1.328-.361-.452-.875-.453c-.336 0-.633.164-.89.484q-.393.47-.391 1.36m0 0"/><clipPath id="a"><path d="M0 152h331.922v55H0Zm0 0"/></clipPath><clipPath id="H"><path d="M117 221h98v72.031h-98Zm0 0"/></clipPath></defs><path fill="#D5E8D4" d="M7.867 157.008h316.266a6.74 6.74 0 0 1 5.605 2.996q.368.552.625 1.168.253.609.383 1.266.129.65.129 1.312v31.477a6.75 6.75 0 0 1-1.137 3.75 6.6 6.6 0 0 1-.84 1.02 6.8 6.8 0 0 1-1.02.839 6.672 6.672 0 0 1-2.434 1.008 6.7 6.7 0 0 1-1.311.129H7.867a6.74 6.74 0 0 1-5.605-2.996 7 7 0 0 1-.625-1.168 6.745 6.745 0 0 1-.512-2.582V163.75a6.74 6.74 0 0 1 2.996-5.605 6.672 6.672 0 0 1 2.434-1.008 6.7 6.7 0 0 1 1.312-.13m0 0"/><g clip-path="url(#a)"><path fill="none" stroke="#82b366" stroke-width=".749" d="M7.867 157.008h316.266a6.73 6.73 0 0 1 4.766 1.973 6.77 6.77 0 0 1 1.847 3.457q.13.65.13 1.312v31.477a6.74 6.74 0 0 1-1.138 3.75 6.6 6.6 0 0 1-.84 1.02 6.8 6.8 0 0 1-1.019.839 6.672 6.672 0 0 1-2.434 1.008 6.7 6.7 0 0 1-1.312.129H7.867a6.73 6.73 0 0 1-4.765-1.977 6.6 6.6 0 0 1-.84-1.02 7 7 0 0 1-.625-1.167 6.745 6.745 0 0 1-.512-2.582V163.75a6.74 6.74 0 0 1 2.996-5.605 6.672 6.672 0 0 1 2.434-1.008 6.7 6.7 0 0 1 1.312-.13zm0 0"/></g><use x="77.485" y="182.113" xlink:href="#b"/><use x="83.979" y="182.113" xlink:href="#c"/><use x="89.978" y="182.113" xlink:href="#d"/><use x="95.976" y="182.113" xlink:href="#e"/><use x="101.307" y="182.113" xlink:href="#glyph-0-5"/><use x="103.309" y="182.113" xlink:href="#f"/><use x="109.308" y="182.113" xlink:href="#g"/><use x="115.306" y="182.113" xlink:href="#h"/><use x="117.805" y="182.113" xlink:href="#glyph-0-5"/><use x="120.303" y="182.113" xlink:href="#i"/><use x="123.298" y="182.113" xlink:href="#j"/><use x="129.793" y="182.113" xlink:href="#k"/><use x="131.791" y="182.113" xlink:href="#l"/><use x="136.792" y="182.113" xlink:href="#m"/><use x="141.794" y="182.113" xlink:href="#n"/><use x="146.796" y="182.113" xlink:href="#o"/><use x="151.797" y="182.113" xlink:href="#glyph-0-5"/><use x="154.296" y="182.113" xlink:href="#b"/><use x="160.791" y="182.113" xlink:href="#p"/><use x="165.792" y="182.113" xlink:href="#q"/><use x="170.289" y="182.113" xlink:href="#r"/><use x="172.787" y="182.113" xlink:href="#glyph-0-5"/><use x="175.286" y="182.113" xlink:href="#s"/><use x="180.779" y="182.113" xlink:href="#t"/><use x="183.774" y="182.113" xlink:href="#l"/><use x="188.776" y="182.113" xlink:href="#u"/><use x="196.267" y="182.113" xlink:href="#p"/><use x="201.269" y="182.113" xlink:href="#v"/><use x="207.763" y="182.113" xlink:href="#o"/><use x="212.765" y="182.113" xlink:href="#t"/><use x="215.76" y="182.113" xlink:href="#w"/><use x="220.256" y="182.113" xlink:href="#x"/><use x="222.755" y="182.113" xlink:href="#g"/><use x="228.754" y="182.113" xlink:href="#y"/><use x="233.25" y="182.113" xlink:href="#r"/><use x="235.749" y="182.113" xlink:href="#z"/><use x="240.75" y="182.113" xlink:href="#o"/><use x="245.752" y="182.113" xlink:href="#m"/><use x="250.754" y="182.113" xlink:href="#A"/><path fill="none" stroke="#000" stroke-miterlimit="10" stroke-width=".749" d="M61.078 131.805v10.215l-.187 10.168"/><path stroke="#000" stroke-miterlimit="10" stroke-width=".749" d="m61.078 127.867 2.625 5.246-2.625-1.308-2.62 1.308ZM60.824 156.121l-2.527-5.289 2.594 1.356 2.652-1.258Zm0 0"/><path fill="#E1D5E7" stroke="#9673A6" stroke-width=".749" d="M7.867 82.063H114.29q.664 0 1.317.128.65.129 1.265.387a6.7 6.7 0 0 1 2.188 1.461q.469.468.84 1.024.37.549.62 1.164c.172.41.297.832.383 1.265q.134.653.133 1.317v31.476q.001.662-.133 1.317a6.662 6.662 0 0 1-1.844 3.453 6.6 6.6 0 0 1-1.023.84 7 7 0 0 1-1.164.62 6.9 6.9 0 0 1-2.582.516H7.867a6.7 6.7 0 0 1-1.312-.132 6.822 6.822 0 0 1-2.434-1.004 6.8 6.8 0 0 1-1.86-1.864 7 7 0 0 1-.624-1.164 6.804 6.804 0 0 1-.512-2.582V88.81a6.8 6.8 0 0 1 .512-2.582 6.8 6.8 0 0 1 2.484-3.028 6.6 6.6 0 0 1 1.168-.62 6.4 6.4 0 0 1 1.266-.388 6.7 6.7 0 0 1 1.312-.128Zm0 0"/><use x="17.963" y="101.923" xlink:href="#s"/><use x="23.456" y="101.923" xlink:href="#B"/><use x="25.454" y="101.923" xlink:href="#l"/><use x="30.456" y="101.923" xlink:href="#n"/><use x="35.458" y="101.923" xlink:href="#q"/><use x="39.954" y="101.923" xlink:href="#u"/><use x="47.446" y="101.923" xlink:href="#C"/><use x="49.444" y="101.923" xlink:href="#r"/><use x="51.942" y="101.923" xlink:href="#z"/><use x="56.944" y="101.923" xlink:href="#glyph-0-5"/><use x="59.443" y="101.923" xlink:href="#j"/><use x="65.937" y="101.923" xlink:href="#l"/><use x="70.939" y="101.923" xlink:href="#q"/><use x="75.435" y="101.923" xlink:href="#z"/><use x="80.437" y="101.923" xlink:href="#D"/><use x="85.439" y="101.923" xlink:href="#o"/><use x="90.44" y="101.923" xlink:href="#l"/><use x="95.442" y="101.923" xlink:href="#t"/><use x="98.437" y="101.923" xlink:href="#E"/><use x="33.959" y="113.165" xlink:href="#i"/><use x="36.954" y="113.165" xlink:href="#b"/><use x="43.448" y="113.165" xlink:href="#p"/><use x="48.45" y="113.165" xlink:href="#l"/><use x="53.451" y="113.165" xlink:href="#F"/><use x="57.948" y="113.165" xlink:href="#r"/><use x="60.447" y="113.165" xlink:href="#x"/><use x="62.945" y="113.165" xlink:href="#G"/><use x="69.44" y="113.165" xlink:href="#o"/><use x="74.441" y="113.165" xlink:href="#E"/><use x="79.443" y="113.165" xlink:href="#p"/><use x="84.445" y="113.165" xlink:href="#A"/><path fill="none" stroke="#000" stroke-miterlimit="10" stroke-width=".749" d="M166 227.176v-20.43"/><path stroke="#000" stroke-miterlimit="10" stroke-width=".749" d="m166 231.11-2.621-5.247 2.621 1.313 2.621-1.313ZM166 202.813l2.621 5.246-2.62-1.313-2.622 1.313Zm0 0"/><path fill="#DAE8FC" d="M128.527 243.191c0-6.203 16.782-11.242 37.473-11.242 9.938 0 19.469 1.184 26.5 3.293 7.023 2.113 10.973 4.969 10.973 7.95v37.472c0 6.203-16.782 11.242-37.473 11.242s-37.473-5.039-37.473-11.242Zm0 0"/><g clip-path="url(#H)"><path fill="none" stroke="#6c8ebf" stroke-miterlimit="10" stroke-width=".749" d="M128.527 243.192c0-6.204 16.782-11.243 37.473-11.243 9.938 0 19.469 1.184 26.5 3.293 7.024 2.114 10.973 4.97 10.973 7.95v37.472c0 6.203-16.782 11.242-37.473 11.242s-37.473-5.039-37.473-11.242zm0 0"/></g><path fill="none" stroke="#6C8EBF" stroke-miterlimit="10" stroke-width=".749" d="M203.473 243.192c0 6.207-16.781 11.242-37.473 11.242-20.691 0-37.473-5.035-37.473-11.242"/><use x="141.128" y="274.293" xlink:href="#g"/><use x="147.127" y="274.293" xlink:href="#o"/><use x="152.128" y="274.293" xlink:href="#q"/><use x="156.625" y="274.293" xlink:href="#r"/><use x="159.123" y="274.293" xlink:href="#n"/><use x="164.125" y="274.293" xlink:href="#t"/><use x="167.12" y="274.293" xlink:href="#p"/><use x="172.121" y="274.293" xlink:href="#d"/><use x="178.12" y="274.293" xlink:href="#I"/><use x="185.115" y="274.293" xlink:href="#J"/><path fill="none" stroke="#000" stroke-miterlimit="10" stroke-width=".749" d="M289.883 60.496v45.848l-.203 45.98"/><path stroke="#000" stroke-miterlimit="10" stroke-width=".749" d="m289.883 56.559 2.621 5.246-2.621-1.309-2.625 1.309ZM289.656 156.258l-2.593-5.254 2.617 1.32 2.629-1.297Zm0 0"/><path fill="#232F3E" d="M285.656 17.89a.29.29 0 0 1 .297.29.295.295 0 0 1-.59 0 .29.29 0 0 1 .293-.29m0 2.016a1.725 1.725 0 0 0 0-3.45 1.725 1.725 0 0 0 0 3.45m3.25-.789h5.106v-1.902h-5.106Zm8.727 34.7H282.05c-.953 0-1.73-.758-1.73-1.692v-1.344h19.042v1.344c0 .934-.781 1.691-1.73 1.691M280.32 22.354h19.043V48.88H280.32Zm2.524-6.476h13.992c1.394 0 2.527 1.11 2.527 2.476v2.098H280.32v-2.098c0-1.367 1.13-2.476 2.524-2.476m14.008-1.902h-14.008c-2.442 0-4.43 1.964-4.43 4.378v33.77c0 1.984 1.629 3.594 3.637 3.594h15.582c2.008 0 3.633-1.61 3.633-3.594v-33.77c0-2.414-1.977-4.37-4.414-4.378m0 0"/><path fill="#FFF" d="M267.547.75h44.219v10.492h-44.22Zm0 0"/><use x="267.666" y="8.993" xlink:href="#d"/><use x="273.664" y="8.993" xlink:href="#j"/><use x="280.159" y="8.993" xlink:href="#K"/><use x="286.157" y="8.993" xlink:href="#glyph-0-5"/><use x="288.656" y="8.993" xlink:href="#L"/><use x="295.15" y="8.993" xlink:href="#B"/><use x="297.148" y="8.993" xlink:href="#C"/><use x="299.146" y="8.993" xlink:href="#p"/><use x="304.148" y="8.993" xlink:href="#m"/><use x="309.15" y="8.993" xlink:href="#r"/><path fill="none" stroke="#000" stroke-miterlimit="10" stroke-width=".749" d="M61.078 52.363V77.29"/><path stroke="#000" stroke-miterlimit="10" stroke-width=".749" d="m61.078 48.43 2.625 5.246-2.625-1.313-2.62 1.313ZM61.078 81.223l-2.62-5.246 2.62 1.312 2.625-1.312Zm0 0"/><path fill="#505050" d="M64.473 45.984c.422 0 .715-.164.629-.285l-.829-1.21c-.105-.188-.257-.22-.503-.22h-5.383c-.262 0-.395.036-.524.223l-.77 1.2c-.152.187.298.292.622.292Zm12.586-3.933V24.328h-31.98v17.723ZM41.594 47.59c-.848-.008-1.614-.285-1.934-.727-.316-.43-.187-.855.082-1.148l3.094-3.11V24.23c0-.921.84-2.12 2.227-2.12h32.003c1.079 0 2.23.85 2.23 2.238v18.257l3.126 3.141c.262.293.39.68.074 1.102-.41.53-1.191.703-1.918.742Zm0 0"/><use x="40.587" y="17.986" xlink:href="#j"/><use x="47.081" y="17.986" xlink:href="#p"/><use x="52.083" y="17.986" xlink:href="#M"/><use x="56.579" y="17.986" xlink:href="#p"/><use x="61.581" y="17.986" xlink:href="#B"/><use x="63.579" y="17.986" xlink:href="#o"/><use x="68.581" y="17.986" xlink:href="#N"/><use x="73.582" y="17.986" xlink:href="#p"/><use x="78.584" y="17.986" xlink:href="#t"/><path fill="none" stroke="#000" stroke-miterlimit="10" stroke-width=".749" d="M207.219 56.86v47.687l.601 46.965"/><path stroke="#000" stroke-miterlimit="10" stroke-width=".749" d="m207.219 52.926 2.625 5.246-2.625-1.313-2.621 1.313ZM207.871 155.45l-2.691-5.212 2.64 1.274 2.606-1.34Zm0 0"/><path fill="#505050" d="M211.316 49.918c.504 0 .856-.223.758-.387l-1.004-1.64c-.125-.25-.304-.301-.597-.301h-6.508c-.313 0-.469.058-.63.305l-.929 1.62c-.18.262.36.403.75.403ZM226.5 44.59V20.61h-38.586v23.98Zm-42.79 7.496c-1.034-.008-1.956-.39-2.339-.98-.383-.579-.234-1.157.098-1.56l3.73-4.206V20.48c0-1.25 1.012-2.867 2.692-2.867h38.617c1.304 0 2.699 1.16 2.699 3.028V45.34l3.77 4.25c.324.398.472.93.09 1.5-.493.719-1.43.945-2.317.996Zm0 0"/><use x="185.228" y="13.49" xlink:href="#d"/><use x="191.226" y="13.49" xlink:href="#j"/><use x="197.721" y="13.49" xlink:href="#K"/><use x="203.719" y="13.49" xlink:href="#glyph-0-5"/><use x="206.218" y="13.49" xlink:href="#L"/><use x="212.712" y="13.49" xlink:href="#B"/><use x="214.71" y="13.49" xlink:href="#C"/><use x="216.708" y="13.49" xlink:href="#p"/><use x="221.71" y="13.49" xlink:href="#m"/><use x="226.712" y="13.49" xlink:href="#r"/></svg>