<svg xmlns="http://www.w3.org/2000/svg" xmlns:xlink="http://www.w3.org/1999/xlink" width="622.72" height="824" viewBox="0 0 467.04 618"><defs><path id="b" d="M.438-3.14q-.001-1.593.859-2.5.857-.922 2.219-.923c.593 0 1.129.149 1.609.438.477.281.844.68 1.094 1.188q.375.768.375 1.718c0 .656-.133 1.246-.39 1.766A2.7 2.7 0 0 1 5.077-.281q-.72.39-1.562.39-.91.001-1.625-.437A2.8 2.8 0 0 1 .797-1.531a3.7 3.7 0 0 1-.36-1.61m.875.015q-.001 1.173.625 1.844.621.656 1.578.656.95 0 1.578-.672c.414-.445.625-1.086.625-1.922q-.001-.779-.266-1.36a2.1 2.1 0 0 0-.781-.921 2.1 2.1 0 0 0-1.14-.328q-.908.001-1.563.625-.657.627-.657 2.078m0 0"/><path id="c" d="M.578 0v-4.672h.719v.719q.265-.497.5-.656a.93.93 0 0 1 .516-.157c.257 0 .53.086.812.25l-.281.735a1.1 1.1 0 0 0-.578-.172.8.8 0 0 0-.47.156.9.9 0 0 0-.296.438 3.2 3.2 0 0 0-.125.922V0Zm0 0"/><path id="d" d="M.453.39 1.22.5q.045.357.265.516c.196.144.47.218.813.218q.544-.001.844-.218.294-.223.406-.61.059-.25.047-1.015C3.25-.203 2.82 0 2.313 0Q1.34.002.813-.687C.469-1.157.297-1.711.297-2.36q0-.67.234-1.235.247-.561.703-.86.451-.31 1.079-.312.825 0 1.359.657v-.563h.734V-.64q0 1.09-.234 1.547-.223.451-.703.719-.469.265-1.172.266-.844 0-1.36-.375Q.436 1.14.454.39m.656-2.812q-.002.924.36 1.344.356.422.906.422.546 0 .922-.422.375-.422.375-1.313c0-.57-.133-1.004-.39-1.296-.25-.29-.555-.438-.907-.438q-.532.002-.906.438-.361.421-.36 1.265m0 0"/><path id="e" d="M3.64-.578c-.292.25-.574.43-.843.531a2.5 2.5 0 0 1-.875.156Q1.156.11.734-.266c-.273-.25-.406-.57-.406-.968a1.299 1.299 0 0 1 .563-1.078q.246-.172.562-.266.234-.046.703-.11.966-.106 1.422-.28v-.204c0-.32-.074-.547-.219-.672q-.314-.28-.906-.281-.563.002-.828.203-.27.189-.39.688l-.766-.094q.093-.498.328-.797.246-.31.703-.469a3.1 3.1 0 0 1 1.063-.172q.607 0 .968.141.373.142.547.36.186.204.25.53.047.205.047.72v1.062q0 1.096.047 1.39.046.3.203.563h-.828a1.5 1.5 0 0 1-.156-.578m-.062-1.766q-.44.175-1.297.297-.487.08-.687.172a.63.63 0 0 0-.313.25.7.7 0 0 0-.11.375q0 .315.235.531.235.204.703.203.45.001.813-.203a1.3 1.3 0 0 0 .531-.547q.124-.264.125-.78Zm0 0"/><path id="f" d="M.594 0v-4.672h.719V-4q.499-.764 1.484-.766.42.002.765.157c.239.093.415.226.532.39q.169.237.25.578.047.222.047.766V0h-.797v-2.844q0-.482-.094-.719a.76.76 0 0 0-.328-.374 1 1 0 0 0-.547-.157q-.502 0-.875.328-.361.317-.36 1.22V0Zm0 0"/><path id="g" d="M.594-5.531v-.907h.797v.907ZM.594 0v-4.672h.797V0Zm0 0"/><path id="h" d="m.281-1.39.782-.126q.06.471.359.72.31.25.844.25.543.002.812-.22.265-.216.266-.515a.46.46 0 0 0-.235-.422q-.174-.105-.812-.281-.879-.218-1.219-.375a1.12 1.12 0 0 1-.5-.438 1.15 1.15 0 0 1-.172-.625q0-.31.14-.578.141-.265.391-.453.186-.124.5-.219c.22-.062.446-.094.688-.094q.544.002.953.157.42.158.625.422.2.268.281.718l-.78.11a.82.82 0 0 0-.313-.563q-.253-.201-.703-.203-.55 0-.782.188-.234.175-.234.421 0 .16.094.266a.6.6 0 0 0 .312.219q.106.048.688.203c.562.148.953.265 1.172.36.226.093.406.234.53.421q.189.268.188.672 0 .41-.234.75c-.156.23-.383.414-.672.547q-.422.187-.984.187-.91 0-1.391-.375Q.405-.65.281-1.39m0 0"/><path id="i" d="m2.328-.703.11.687q-.347.078-.594.079-.439 0-.672-.141a.84.84 0 0 1-.344-.36Q.734-.655.734-1.358v-2.688H.156v-.625h.578v-1.156l.797-.469v1.625h.797v.625h-.797v2.719c0 .23.008.375.032.437a.4.4 0 0 0 .14.157.46.46 0 0 0 .266.062c.093 0 .21-.008.36-.031m0 0"/><path id="j" d="M.297-2.328q-.001-1.295.719-1.922.608-.516 1.468-.516c.645 0 1.172.211 1.579.625q.609.627.609 1.735 0 .907-.281 1.422c-.18.343-.438.617-.782.812A2.3 2.3 0 0 1 2.484.11Q1.5.11.891-.516C.492-.94.297-1.546.297-2.328m.812 0q0 .892.391 1.344.387.438.984.437.592.001.985-.437.389-.45.39-1.375-.002-.855-.39-1.313-.393-.452-.985-.453-.597 0-.984.453-.392.44-.39 1.344m0 0"/><path id="k" d="M.688 0v-6.437h2.437q.639.002.984.062c.313.055.57.152.782.297q.327.221.515.625.201.394.203.875c0 .555-.18 1.016-.53 1.39q-.517.563-1.876.563H1.547V0Zm.859-3.375h1.672q.81.002 1.156-.312.359-.31.36-.86-.002-.406-.204-.687a.97.97 0 0 0-.547-.391q-.205-.061-.796-.062H1.547Zm0 0"/><path id="l" d="M.594-5.531v-.907h.781v.907Zm-1 7.344.14-.672q.236.06.375.062.248 0 .36-.172Q.593.874.594.234v-4.906h.781V.25q0 .856-.219 1.203c-.187.29-.508.438-.953.438a2.5 2.5 0 0 1-.61-.079m0 0"/><path id="m" d="m3.781-1.5.828.094q-.205.72-.734 1.125c-.344.261-.79.39-1.328.39-.68 0-1.219-.207-1.625-.625C.523-.94.328-1.536.328-2.296q0-1.171.61-1.813.608-.657 1.578-.657.937.001 1.515.641.593.627.594 1.781v.219H1.141q.044.768.437 1.172.387.408.984.406c.29 0 .536-.07.735-.219q.31-.232.484-.734M1.188-2.781h2.609c-.031-.395-.133-.692-.297-.89a1.22 1.22 0 0 0-.984-.454c-.368 0-.672.125-.922.375-.242.242-.375.563-.407.969m0 0"/><path id="n" d="m3.64-1.703.782.094q-.13.814-.656 1.265c-.356.305-.79.453-1.297.453Q1.512.11.938-.516q-.58-.623-.579-1.796c0-.508.082-.954.25-1.329q.246-.562.75-.843a2.3 2.3 0 0 1 1.125-.282c.5 0 .91.133 1.235.391Q4.2-4 4.344-3.297l-.766.125q-.11-.469-.39-.703a1 1 0 0 0-.672-.25q-.61.002-.985.438-.361.422-.36 1.343-.002.954.36 1.375.358.423.938.422.466 0 .781-.281c.207-.188.336-.477.39-.875m0 0"/><path id="o" d="M-.016 0 2.47-6.437h.906L6.015 0h-.968l-.75-1.953H1.594L.89 0Zm1.86-2.64H4.03L3.36-4.438q-.313-.812-.453-1.329a8 8 0 0 1-.36 1.235Zm0 0"/><path id="p" d="M.719 0v-6.437h4.656v.75H1.563v1.984h3.562v.75H1.563v2.187h3.953V0Zm0 0"/><path id="q" d="M1.89 0 .11-4.672h.843l1 2.797q.154.457.297.938c.07-.239.172-.532.297-.875l1.031-2.86h.813L2.625 0Zm0 0"/><path id="r" d="M.594 0v-4.672h.703v.656a1.6 1.6 0 0 1 .578-.546c.25-.133.531-.204.844-.204q.516.001.844.22.327.205.468.593.56-.812 1.438-.813c.468 0 .828.133 1.078.391q.375.375.375 1.172V0h-.797v-2.937q0-.481-.078-.688a.62.62 0 0 0-.266-.328.83.83 0 0 0-.484-.14q-.485 0-.813.327-.328.33-.328 1.047V0H3.36v-3.031q0-.527-.187-.797-.19-.265-.625-.266a1.1 1.1 0 0 0-.625.188.98.98 0 0 0-.406.515c-.086.22-.125.543-.125.97V0Zm0 0"/><path id="s" d="M.734 0v-6.437h4.344v.75H1.594v2h3.015v.765H1.594V0Zm0 0"/><path id="t" d="M.578 0v-6.437h.781V0Zm0 0"/><path id="u" d="m.406-2.062.797-.079q.06.487.266.797c.144.211.363.375.656.5q.434.188.984.188c.32 0 .61-.047.86-.14q.375-.141.562-.391a.95.95 0 0 0 .188-.563.78.78 0 0 0-.188-.516q-.174-.233-.578-.39-.251-.106-1.14-.313-.892-.217-1.25-.406a1.7 1.7 0 0 1-.688-.594 1.5 1.5 0 0 1-.219-.812c0-.32.086-.625.266-.907q.28-.419.812-.64.53-.218 1.188-.219.714 0 1.265.234.547.223.829.672.292.455.328 1.016l-.828.063c-.043-.407-.188-.711-.438-.922q-.375-.312-1.125-.313-.768 0-1.125.281-.361.283-.36.688 0 .346.25.562.25.235 1.282.47 1.044.234 1.438.405c.375.168.648.387.828.657q.264.393.265.922-.002.501-.297.968-.299.458-.843.703a3 3 0 0 1-1.235.25Q2.278.107 1.687-.14A2.14 2.14 0 0 1 .75-.906a2.2 2.2 0 0 1-.344-1.156m0 0"/><path id="v" d="M.844 0v-6.437h.844V0Zm0 0"/><path id="w" d="M3.625 0v-.594Q3.168.11 2.313.11a1.8 1.8 0 0 1-1.016-.312 2.1 2.1 0 0 1-.734-.86q-.251-.545-.25-1.265 0-.703.234-1.266.232-.575.687-.875c.313-.195.66-.297 1.047-.297q.422.001.75.172.328.176.531.469v-2.312h.797V0Zm-2.5-2.328q0 .892.375 1.344.375.438.89.437c.344 0 .633-.14.876-.422.25-.281.375-.71.375-1.297q0-.948-.375-1.406c-.25-.3-.555-.453-.907-.453q-.533.002-.89.438-.344.439-.344 1.359m0 0"/><path id="x" d="m.563 1.797-.094-.734q.265.06.453.062a.8.8 0 0 0 .422-.094.8.8 0 0 0 .265-.234c.04-.086.118-.281.235-.594q.03-.064.078-.187L.14-4.672H1l.969 2.703q.187.516.343 1.078.125-.528.313-1.062l1-2.719h.797L2.64.078a11 11 0 0 1-.438 1.063q-.221.386-.484.562a1.12 1.12 0 0 1-.657.188c-.148 0-.312-.032-.5-.094m0 0"/><path id="y" d="M2.328 0v-5.687H.218v-.75h5.095v.75H3.188V0Zm0 0"/><path id="A" d="M.656 0v-6.437h2.422q.732.002 1.172.203.45.189.703.593.265.41.266.844a1.4 1.4 0 0 1-.235.781c-.148.243-.37.438-.671.594q.574.175.89.578c.219.274.328.594.328.969q-.002.457-.203.844a1.65 1.65 0 0 1-.469.61 2 2 0 0 1-.703.312C3.875-.035 3.523 0 3.11 0Zm.86-3.734h1.39q.562.002.813-.079.327-.091.484-.312a.93.93 0 0 0 .172-.562c0-.22-.055-.407-.156-.563a.8.8 0 0 0-.438-.344q-.28-.093-.984-.093H1.516Zm0 2.968h1.593c.282 0 .477-.007.594-.03.188-.032.348-.087.485-.173a.95.95 0 0 0 .328-.36q.124-.231.125-.546 0-.356-.188-.625a.93.93 0 0 0-.516-.36c-.218-.07-.53-.109-.937-.109H1.516Zm0 0"/><clipPath id="a"><path d="M0 0h467v617.668H0Zm0 0"/></clipPath><clipPath id="z"><path d="M371 371h96v40h-96Zm0 0"/></clipPath><clipPath id="B"><path d="M86 581h100v35.918H86Zm0 0"/></clipPath></defs><g clip-path="url(#a)"><path fill="#fff" d="M0 0h467v617.668H0Zm0 0"/></g><path fill="none" stroke="#000" stroke-miterlimit="10" stroke-width=".75" d="M46.102 31.11v29.984h25.207"/><path stroke="#000" stroke-miterlimit="10" stroke-width=".75" d="m75.246 61.094-5.25 2.62 1.313-2.62-1.313-2.625Zm0 0"/><path fill="none" stroke="#000" stroke-miterlimit="10" stroke-width=".75" d="M46.102 31.11v554.703h25.207"/><path stroke="#000" stroke-miterlimit="10" stroke-width=".75" d="m75.246 585.813-5.25 2.62 1.313-2.62-1.313-2.625Zm0 0"/><path fill="#DAE8FC" stroke="#6C8EBF" stroke-width=".75" d="M5.621 1.125h80.957q.445-.001.88.086.433.089.843.254a4.51 4.51 0 0 1 2.433 2.437q.172.405.254.844.09.435.09.875V26.61q0 .445-.09.88-.082.433-.254.843a4.5 4.5 0 0 1-.418.777 4.45 4.45 0 0 1-2.015 1.657q-.41.17-.844.257a4.7 4.7 0 0 1-.879.086H5.621q-.44-.001-.875-.086a4.4 4.4 0 0 1-.844-.257 4.4 4.4 0 0 1-.777-.414 4.7 4.7 0 0 1-.684-.559 4.7 4.7 0 0 1-.558-.684 4.5 4.5 0 0 1-.418-.777 5 5 0 0 1-.254-.844 4.4 4.4 0 0 1-.086-.879V5.621q-.001-.44.086-.875.089-.44.254-.844c.113-.273.254-.535.418-.777a4.7 4.7 0 0 1 .558-.684 4.7 4.7 0 0 1 .684-.558 4.4 4.4 0 0 1 1.621-.672q.435-.087.875-.086Zm0 0"/><use x="20.216" y="18.74" xlink:href="#b"/><use x="27.212" y="18.74" xlink:href="#c"/><use x="30.208" y="18.74" xlink:href="#d"/><use x="35.211" y="18.74" xlink:href="#e"/><use x="40.213" y="18.74" xlink:href="#f"/><use x="45.216" y="18.74" xlink:href="#g"/><use x="47.214" y="18.74" xlink:href="#h"/><use x="51.712" y="18.74" xlink:href="#e"/><use x="56.715" y="18.74" xlink:href="#i"/><use x="59.214" y="18.74" xlink:href="#g"/><use x="61.212" y="18.74" xlink:href="#j"/><use x="66.215" y="18.74" xlink:href="#f"/><path fill="none" stroke="#000" stroke-miterlimit="10" stroke-width=".75" d="M121.059 76.086V196.02h25.21"/><path stroke="#000" stroke-miterlimit="10" stroke-width=".75" d="m150.203 196.02-5.246 2.625 1.313-2.625-1.313-2.625Zm0 0"/><path fill="none" stroke="#000" stroke-miterlimit="10" stroke-width=".75" d="M121.059 76.086v359.805h25.21"/><path stroke="#000" stroke-miterlimit="10" stroke-width=".75" d="m150.203 435.89-5.246 2.626 1.313-2.625-1.313-2.621Zm0 0"/><path fill="none" stroke="#000" stroke-miterlimit="10" stroke-width=".75" d="M121.059 76.086v434.766h25.21"/><path stroke="#000" stroke-miterlimit="10" stroke-width=".75" d="m150.203 510.852-5.246 2.625 1.313-2.625-1.313-2.625Zm0 0"/><path fill="none" stroke="#000" stroke-miterlimit="10" stroke-width=".75" d="M121.059 76.086v44.973h25.21"/><path stroke="#000" stroke-miterlimit="10" stroke-width=".75" d="m150.203 121.059-5.246 2.625 1.313-2.625-1.313-2.621Zm0 0"/><path fill="#D5E8D4" stroke="#82B366" stroke-width=".75" d="M80.582 46.102h80.957q.44-.001.875.086a4.4 4.4 0 0 1 1.625.671c.242.164.473.348.68.559.207.207.394.437.558.68q.247.37.418.777a4.6 4.6 0 0 1 .34 1.723v20.988q.001.445-.086.879-.085.433-.254.844a4.5 4.5 0 0 1-.976 1.457c-.207.21-.438.398-.68.562a4.5 4.5 0 0 1-1.625.668q-.434.09-.875.09H80.582q-.445 0-.879-.09-.433-.083-.844-.254a4.5 4.5 0 0 1-.777-.414 4.3 4.3 0 0 1-.68-.562 4.513 4.513 0 0 1-.977-1.457 4.3 4.3 0 0 1-.253-.844 4.4 4.4 0 0 1-.086-.879V50.598c0-.297.027-.586.086-.88q.083-.433.254-.843.17-.407.418-.777c.164-.243.347-.473.558-.68a4.513 4.513 0 0 1 1.457-.977 4.6 4.6 0 0 1 1.723-.34Zm0 0"/><use x="102.437" y="63.716" xlink:href="#k"/><use x="108.437" y="63.716" xlink:href="#c"/><use x="111.433" y="63.716" xlink:href="#j"/><use x="116.435" y="63.716" xlink:href="#l"/><use x="118.434" y="63.716" xlink:href="#m"/><use x="123.436" y="63.716" xlink:href="#n"/><use x="127.934" y="63.716" xlink:href="#i"/><use x="130.433" y="63.716" xlink:href="#glyph-0-14"/><use x="132.932" y="63.716" xlink:href="#o"/><path fill="none" stroke="#000" stroke-miterlimit="10" stroke-width=".75" d="M240.996 196.02h25.207"/><path stroke="#000" stroke-miterlimit="10" stroke-width=".75" d="m270.14 196.02-5.245 2.625 1.308-2.625-1.308-2.625Zm0 0"/><path fill="none" stroke="#000" stroke-miterlimit="10" stroke-width=".75" d="M196.02 211.012v104.945h70.183"/><path stroke="#000" stroke-miterlimit="10" stroke-width=".75" d="m270.14 315.957-5.245 2.621 1.308-2.62-1.308-2.626Zm0 0"/><path fill="none" stroke="#000" stroke-miterlimit="10" stroke-width=".75" d="M196.02 211.012v44.976h70.183"/><path stroke="#000" stroke-miterlimit="10" stroke-width=".75" d="m270.14 255.988-5.245 2.625 1.308-2.625-1.308-2.625Zm0 0"/><path fill="#FFF2CC" stroke="#D6B656" stroke-width=".75" d="M155.543 181.027H236.5c.293 0 .586.032.875.086a4.57 4.57 0 0 1 2.305 1.23q.311.316.558.684.245.369.414.778.171.41.258.844t.086.878v20.989a4.4 4.4 0 0 1-.344 1.718c-.113.274-.25.536-.414.778a4.7 4.7 0 0 1-.558.683 4.7 4.7 0 0 1-.684.559 4.573 4.573 0 0 1-1.621.672q-.434.086-.875.086h-80.957a4.4 4.4 0 0 1-1.723-.344 4.46 4.46 0 0 1-1.457-.973 4.47 4.47 0 0 1-1.234-2.304 4.7 4.7 0 0 1-.086-.875v-20.989q.002-.445.086-.878a4.6 4.6 0 0 1 .672-1.622q.246-.368.562-.683a4.5 4.5 0 0 1 1.457-.973q.41-.17.844-.258a4.7 4.7 0 0 1 .879-.086Zm0 0"/><use x="166.142" y="198.644" xlink:href="#p"/><use x="172.141" y="198.644" xlink:href="#f"/><use x="177.144" y="198.644" xlink:href="#q"/><use x="181.642" y="198.644" xlink:href="#g"/><use x="183.64" y="198.644" xlink:href="#c"/><use x="186.635" y="198.644" xlink:href="#j"/><use x="191.638" y="198.644" xlink:href="#f"/><use x="196.641" y="198.644" xlink:href="#r"/><use x="204.134" y="198.644" xlink:href="#m"/><use x="209.137" y="198.644" xlink:href="#f"/><use x="214.139" y="198.644" xlink:href="#i"/><use x="216.638" y="198.644" xlink:href="#glyph-0-14"/><use x="219.138" y="198.644" xlink:href="#o"/><path fill="#FFF2CC" stroke="#D6B656" stroke-width=".75" d="M155.543 420.899H236.5q.44.001.875.086a4.6 4.6 0 0 1 1.621.671q.368.246.684.563a4.5 4.5 0 0 1 .972 1.457q.171.41.258.844.087.433.086.879v20.988a4.4 4.4 0 0 1-.344 1.719 4.49 4.49 0 0 1-.973 1.46 4.7 4.7 0 0 1-.683.56 4.5 4.5 0 0 1-.777.417q-.41.165-.844.254-.434.087-.875.086h-80.957q-.446.001-.879-.086a5 5 0 0 1-.844-.254 4.5 4.5 0 0 1-1.457-.976 4.3 4.3 0 0 1-.562-.684 4.4 4.4 0 0 1-.414-.777 4.4 4.4 0 0 1-.344-1.72V425.4q.002-.445.086-.88a4.6 4.6 0 0 1 .672-1.62q.246-.37.562-.68.31-.317.68-.563.368-.245.777-.414.41-.17.844-.257a4.7 4.7 0 0 1 .879-.086Zm0 0"/><use x="170.393" y="438.515" xlink:href="#p"/><use x="176.393" y="438.515" xlink:href="#f"/><use x="181.396" y="438.515" xlink:href="#q"/><use x="185.893" y="438.515" xlink:href="#g"/><use x="187.892" y="438.515" xlink:href="#c"/><use x="190.887" y="438.515" xlink:href="#j"/><use x="195.89" y="438.515" xlink:href="#f"/><use x="200.892" y="438.515" xlink:href="#r"/><use x="208.386" y="438.515" xlink:href="#m"/><use x="213.388" y="438.515" xlink:href="#f"/><use x="218.391" y="438.515" xlink:href="#i"/><path fill="#D5E8D4" stroke="#82B366" stroke-width=".75" d="M80.582 570.82h80.957q.44 0 .875.086a4.4 4.4 0 0 1 1.625.672c.242.164.473.352.68.559s.394.437.558.68q.247.37.418.78c.114.27.196.552.254.845q.087.434.086.875v20.988q.001.446-.086.879-.085.433-.254.844a4.5 4.5 0 0 1-.976 1.457c-.207.21-.438.398-.68.562a4.5 4.5 0 0 1-.781.414 4.4 4.4 0 0 1-1.719.344H80.582a4.7 4.7 0 0 1-.879-.086 4.6 4.6 0 0 1-1.62-.672 4.3 4.3 0 0 1-.68-.562 4.513 4.513 0 0 1-.977-1.457 4.3 4.3 0 0 1-.254-.844 4.4 4.4 0 0 1-.086-.88v-20.987q-.001-.44.086-.875.083-.44.254-.844a4.6 4.6 0 0 1 .976-1.461 4.513 4.513 0 0 1 1.457-.977 4.6 4.6 0 0 1 1.723-.34Zm0 0"/><use x="106.677" y="588.435" xlink:href="#k"/><use x="112.677" y="588.435" xlink:href="#c"/><use x="115.672" y="588.435" xlink:href="#j"/><use x="120.675" y="588.435" xlink:href="#l"/><use x="122.674" y="588.435" xlink:href="#m"/><use x="127.676" y="588.435" xlink:href="#n"/><use x="132.174" y="588.435" xlink:href="#i"/><path fill="#E1D5E7" stroke="#9673A6" stroke-width=".75" d="M275.477 181.027h80.957c.297 0 .59.032.879.086a4.6 4.6 0 0 1 1.62.672 4.5 4.5 0 0 1 1.239 1.242q.247.369.418.778t.254.844q.088.434.09.878v20.989q-.001.44-.09.875-.083.433-.254.843a4.4 4.4 0 0 1-.418.778 4.45 4.45 0 0 1-2.016 1.656q-.41.17-.843.258-.434.086-.88.086h-80.956a4.4 4.4 0 0 1-1.72-.344 4 4 0 0 1-.776-.414 4.7 4.7 0 0 1-.684-.559 4.7 4.7 0 0 1-.559-.683 4.573 4.573 0 0 1-.672-1.621 4.4 4.4 0 0 1-.085-.875v-20.989a4.4 4.4 0 0 1 .343-1.722q.166-.41.414-.778a4.7 4.7 0 0 1 .559-.683 4.7 4.7 0 0 1 .684-.559q.364-.245.777-.414a4.4 4.4 0 0 1 1.719-.344Zm0 0"/><use x="306.832" y="198.644" xlink:href="#s"/><use x="312.326" y="198.644" xlink:href="#t"/><use x="314.325" y="198.644" xlink:href="#e"/><use x="319.328" y="198.644" xlink:href="#d"/><path fill="#E1D5E7" stroke="#9673A6" stroke-width=".75" d="M282.973 188.524h80.957q.446.001.879.085a4.6 4.6 0 0 1 1.62.672 4.5 4.5 0 0 1 1.24 1.243q.246.368.417.777t.254.844c.059.289.086.582.09.879v20.988a4.7 4.7 0 0 1-.09.875q-.083.433-.254.844a4.5 4.5 0 0 1-.418.777 4.45 4.45 0 0 1-2.016 1.656q-.41.17-.843.258-.434.087-.88.086h-80.956a4.4 4.4 0 0 1-1.719-.344 4.4 4.4 0 0 1-.777-.414 4.7 4.7 0 0 1-.684-.559 4.7 4.7 0 0 1-.559-.683 4.5 4.5 0 0 1-.417-.777 5 5 0 0 1-.254-.844 4.4 4.4 0 0 1-.086-.875v-20.988q-.001-.445.086-.88.088-.433.254-.843.17-.41.417-.777a4.7 4.7 0 0 1 .56-.684 4.7 4.7 0 0 1 .683-.559c.242-.164.504-.3.777-.414a4.4 4.4 0 0 1 1.719-.343Zm0 0"/><use x="314.328" y="206.14" xlink:href="#s"/><use x="319.822" y="206.14" xlink:href="#t"/><use x="321.821" y="206.14" xlink:href="#e"/><use x="326.824" y="206.14" xlink:href="#d"/><path fill="#E1D5E7" stroke="#9673A6" stroke-width=".75" d="M290.469 196.02h80.957q.446.001.879.086a4.6 4.6 0 0 1 1.62.671 4.5 4.5 0 0 1 1.24 1.243q.246.368.417.777t.254.844q.087.433.086.879v20.988q.001.44-.086.875-.083.433-.254.844a4.5 4.5 0 0 1-.418.777 4.45 4.45 0 0 1-2.015 1.656q-.41.171-.844.258t-.88.086H290.47a4.4 4.4 0 0 1-1.719-.344 4.49 4.49 0 0 1-1.46-.973 4.7 4.7 0 0 1-.56-.683 4.5 4.5 0 0 1-.417-.777 5 5 0 0 1-.254-.844 4.4 4.4 0 0 1-.086-.875V200.52q-.001-.445.086-.88.088-.433.254-.843.17-.409.418-.777a4.7 4.7 0 0 1 .558-.684 4.5 4.5 0 0 1 1.461-.973 4.4 4.4 0 0 1 1.719-.343Zm0 0"/><use x="310.064" y="213.636" xlink:href="#s"/><use x="315.559" y="213.636" xlink:href="#t"/><use x="317.558" y="213.636" xlink:href="#e"/><use x="322.56" y="213.636" xlink:href="#d"/><use x="327.563" y="213.636" xlink:href="#glyph-0-14"/><use x="330.062" y="213.636" xlink:href="#u"/><use x="336.062" y="213.636" xlink:href="#i"/><use x="338.561" y="213.636" xlink:href="#e"/><use x="343.564" y="213.636" xlink:href="#i"/><use x="346.063" y="213.636" xlink:href="#m"/><path fill="#FFE6CC" stroke="#D79B00" stroke-width=".75" d="M155.543 495.86H236.5a4.4 4.4 0 0 1 1.719.343 4.5 4.5 0 0 1 2.02 1.657q.244.368.413.777.171.41.258.844.087.435.086.875v20.992a4.4 4.4 0 0 1-.344 1.719 4.5 4.5 0 0 1-1.656 2.02q-.368.244-.777.413-.41.17-.844.258-.434.087-.875.086h-80.957a4.4 4.4 0 0 1-1.723-.344 4.5 4.5 0 0 1-2.02-1.656 4.573 4.573 0 0 1-.672-1.621 4.7 4.7 0 0 1-.085-.875v-20.992q.002-.44.086-.875a4.6 4.6 0 0 1 .672-1.621q.246-.369.562-.684a4.5 4.5 0 0 1 1.457-.973q.41-.17.844-.257c.29-.06.582-.086.879-.086Zm0 0"/><use x="177.643" y="513.475" xlink:href="#u"/><use x="183.643" y="513.475" xlink:href="#m"/><use x="188.646" y="513.475" xlink:href="#d"/><use x="193.648" y="513.475" xlink:href="#r"/><use x="201.141" y="513.475" xlink:href="#m"/><use x="206.144" y="513.475" xlink:href="#f"/><use x="211.147" y="513.475" xlink:href="#i"/><path fill="#FFE6CC" stroke="#D79B00" stroke-width=".75" d="M163.04 503.356h80.956a4.4 4.4 0 0 1 1.719.343 4.5 4.5 0 0 1 2.02 1.657q.244.368.414.777t.257.844.086.875v20.992a4.4 4.4 0 0 1-.343 1.719 4.5 4.5 0 0 1-1.657 2.02q-.368.244-.777.413-.41.171-.844.258t-.875.086H163.04a4.4 4.4 0 0 1-1.723-.344 4.5 4.5 0 0 1-2.02-1.656 4.573 4.573 0 0 1-.672-1.621 4.7 4.7 0 0 1-.085-.875v-20.992q.002-.44.086-.875a4.6 4.6 0 0 1 .672-1.621q.246-.368.562-.684a4.5 4.5 0 0 1 1.457-.973q.41-.17.844-.257t.88-.086Zm0 0"/><use x="185.139" y="520.971" xlink:href="#u"/><use x="191.139" y="520.971" xlink:href="#m"/><use x="196.142" y="520.971" xlink:href="#d"/><use x="201.144" y="520.971" xlink:href="#r"/><use x="208.637" y="520.971" xlink:href="#m"/><use x="213.64" y="520.971" xlink:href="#f"/><use x="218.643" y="520.971" xlink:href="#i"/><path fill="#FFE6CC" stroke="#D79B00" stroke-width=".75" d="M170.535 510.852h80.957a4.4 4.4 0 0 1 1.719.344 4.5 4.5 0 0 1 2.02 1.656q.245.368.414.777.17.41.257.844t.086.875v20.988a4.4 4.4 0 0 1-.343 1.723 4.5 4.5 0 0 1-1.657 2.02q-.368.244-.777.413-.41.171-.844.258-.434.084-.875.086h-80.957a4.7 4.7 0 0 1-.879-.086 4.57 4.57 0 0 1-2.304-1.23 4.494 4.494 0 0 1-.973-1.46 4.6 4.6 0 0 1-.258-.845 4.7 4.7 0 0 1-.086-.879v-20.988q.002-.44.086-.875a4.57 4.57 0 0 1 1.23-2.305 4.494 4.494 0 0 1 1.46-.973q.412-.17.845-.257.434-.087.88-.086Zm0 0"/><use x="192.635" y="528.467" xlink:href="#u"/><use x="198.635" y="528.467" xlink:href="#m"/><use x="203.638" y="528.467" xlink:href="#d"/><use x="208.64" y="528.467" xlink:href="#r"/><use x="216.133" y="528.467" xlink:href="#m"/><use x="221.136" y="528.467" xlink:href="#f"/><use x="226.139" y="528.467" xlink:href="#i"/><path fill="#B1DDF0" stroke="#10739E" stroke-width=".75" d="M275.477 300.965h80.957q.446-.001.879.086c.289.058.57.14.843.254a4.51 4.51 0 0 1 2.434 2.437q.171.405.254.844.088.435.09.875v20.988q-.001.445-.09.88-.083.433-.254.843a4.5 4.5 0 0 1-.977 1.457q-.31.316-.68.563-.367.245-.777.414-.41.17-.843.257a4.7 4.7 0 0 1-.88.086h-80.956q-.44-.001-.875-.086a4.4 4.4 0 0 1-.844-.257 4.474 4.474 0 0 1-1.46-.977 4.5 4.5 0 0 1-.974-1.457 4.411 4.411 0 0 1-.344-1.723v-20.988a4.4 4.4 0 0 1 .344-1.719q.166-.411.414-.78c.164-.243.352-.474.559-.68a4.7 4.7 0 0 1 .684-.56 4.4 4.4 0 0 1 1.62-.671q.436-.087.876-.086Zm0 0"/><use x="306.832" y="318.579" xlink:href="#s"/><use x="312.326" y="318.579" xlink:href="#t"/><use x="314.325" y="318.579" xlink:href="#e"/><use x="319.328" y="318.579" xlink:href="#d"/><path fill="#B1DDF0" stroke="#10739E" stroke-width=".75" d="M282.973 308.461h80.957q.446-.001.879.086c.289.059.57.14.843.254a4.5 4.5 0 0 1 2.016 1.656c.164.246.305.508.418.778q.171.41.254.843c.059.293.086.586.09.88v20.987c-.004.297-.031.59-.09.88q-.083.433-.254.843a4.5 4.5 0 0 1-.976 1.457q-.312.317-.68.563a4.5 4.5 0 0 1-1.621.668q-.434.089-.88.09h-80.956q-.44-.002-.875-.09a4 4 0 0 1-.844-.254 4.474 4.474 0 0 1-1.46-.977 4.513 4.513 0 0 1-.977-1.457 5 5 0 0 1-.254-.844 4.4 4.4 0 0 1-.086-.879v-20.988q-.001-.44.086-.879.088-.434.254-.843c.113-.27.253-.532.417-.778a4.448 4.448 0 0 1 1.242-1.238 4.4 4.4 0 0 1 1.622-.672q.435-.087.875-.086Zm0 0"/><use x="314.328" y="326.075" xlink:href="#s"/><use x="319.822" y="326.075" xlink:href="#t"/><use x="321.821" y="326.075" xlink:href="#e"/><use x="326.824" y="326.075" xlink:href="#d"/><path fill="none" stroke="#000" stroke-miterlimit="10" stroke-width=".75" d="M330.95 345.942v29.98h25.206"/><path stroke="#000" stroke-miterlimit="10" stroke-width=".75" d="m360.094 375.922-5.25 2.625 1.312-2.625-1.312-2.621Zm0 0"/><path fill="#B1DDF0" stroke="#10739E" stroke-width=".75" d="M290.469 315.957h80.957q.446 0 .879.086c.289.059.57.14.844.254a4.5 4.5 0 0 1 2.015 1.656c.164.246.305.508.418.778q.171.41.254.843c.059.293.086.582.086.88v20.988q.001.445-.086.878-.083.434-.254.844a4.5 4.5 0 0 1-.976 1.457q-.31.317-.68.563a4.5 4.5 0 0 1-1.621.668q-.434.088-.88.09H290.47q-.44-.001-.875-.09a4 4 0 0 1-.844-.254 4.4 4.4 0 0 1-.777-.414 4.3 4.3 0 0 1-.684-.563 4.513 4.513 0 0 1-.977-1.457 5 5 0 0 1-.253-.844 4.4 4.4 0 0 1-.086-.878v-20.989c0-.297.027-.586.086-.879q.088-.433.254-.843c.113-.27.254-.532.418-.778.164-.242.351-.472.558-.68a4.3 4.3 0 0 1 .684-.558 4.4 4.4 0 0 1 1.62-.672q.436-.087.876-.086Zm0 0"/><use x="316.061" y="333.571" xlink:href="#v"/><use x="318.56" y="333.571" xlink:href="#w"/><use x="323.563" y="333.571" xlink:href="#m"/><use x="328.566" y="333.571" xlink:href="#f"/><use x="333.568" y="333.571" xlink:href="#i"/><use x="336.068" y="333.571" xlink:href="#g"/><use x="338.066" y="333.571" xlink:href="#i"/><use x="340.565" y="333.571" xlink:href="#x"/><path fill="#DAE8FC" stroke="#6C8EBF" stroke-width=".75" d="M365.43 360.934h80.957q.44-.001.875.086.44.082.844.254c.273.113.535.253.777.418a4.46 4.46 0 0 1 1.242 1.238q.247.368.418.777.165.41.254.844.087.433.086.879v20.988c0 .297-.027.586-.086.879q-.089.434-.254.844-.17.407-.418.777a4.5 4.5 0 0 1-1.242 1.238 4.4 4.4 0 0 1-1.621.672q-.435.087-.875.086H365.43q-.445.001-.88-.086-.433-.082-.843-.254a4.5 4.5 0 0 1-1.457-.976 4.2 4.2 0 0 1-.558-.68 4.7 4.7 0 0 1-.418-.777 4.3 4.3 0 0 1-.254-.844 4.4 4.4 0 0 1-.086-.879V365.43q-.001-.445.086-.88.082-.433.254-.843a4.5 4.5 0 0 1 .976-1.457 4.513 4.513 0 0 1 1.457-.977q.41-.17.844-.253.433-.087.879-.086Zm0 0"/><use x="396.702" y="378.547" xlink:href="#y"/><use x="401.862" y="378.547" xlink:href="#c"/><use x="404.858" y="378.547" xlink:href="#e"/><use x="409.861" y="378.547" xlink:href="#g"/><use x="411.859" y="378.547" xlink:href="#i"/><path fill="#DAE8FC" stroke="#6C8EBF" stroke-width=".75" d="M372.926 368.43h80.957q.44-.001.875.086.44.082.844.254c.273.113.535.254.777.418a4.45 4.45 0 0 1 1.242 1.238q.247.368.418.777.166.41.254.844.087.434.086.879v20.988c0 .297-.027.586-.086.88a5 5 0 0 1-.254.843q-.17.406-.418.777a4.5 4.5 0 0 1-1.242 1.239 4.4 4.4 0 0 1-1.621.671q-.435.087-.875.086h-80.957q-.446.001-.879-.086-.433-.082-.844-.254a4.5 4.5 0 0 1-1.457-.976 4.2 4.2 0 0 1-.558-.68 4.7 4.7 0 0 1-.418-.777 4.3 4.3 0 0 1-.254-.844 4 4 0 0 1-.086-.879v-20.988a4 4 0 0 1 .086-.879q.082-.433.254-.844a4.5 4.5 0 0 1 .976-1.457 4.513 4.513 0 0 1 1.457-.977q.41-.17.844-.253.434-.087.879-.086Zm0 0"/><use x="404.198" y="386.043" xlink:href="#y"/><use x="409.358" y="386.043" xlink:href="#c"/><use x="412.354" y="386.043" xlink:href="#e"/><use x="417.357" y="386.043" xlink:href="#g"/><use x="419.355" y="386.043" xlink:href="#i"/><path fill="#DAE8FC" d="M380.422 375.922h80.957q.44 0 .875.09.44.082.844.254c.273.113.535.254.777.418a4.45 4.45 0 0 1 1.656 2.015q.171.41.258.844.087.433.086.879v20.988a4.4 4.4 0 0 1-.344 1.723q-.166.406-.414.777a4.5 4.5 0 0 1-1.242 1.238 4.4 4.4 0 0 1-1.621.672q-.435.087-.875.086h-80.957q-.446.001-.879-.086-.434-.085-.844-.254a4.5 4.5 0 0 1-1.457-.976 4.2 4.2 0 0 1-.558-.68 4.7 4.7 0 0 1-.418-.777 4.3 4.3 0 0 1-.254-.844 4.4 4.4 0 0 1-.09-.879v-20.988q0-.446.09-.879.082-.434.254-.844a4.5 4.5 0 0 1 .976-1.457 4.513 4.513 0 0 1 1.457-.977q.41-.17.844-.253.433-.09.879-.09m0 0"/><g clip-path="url(#z)"><path fill="none" stroke="#6c8ebf" stroke-width=".75" d="M380.422 375.922h80.957q.44 0 .875.09.44.083.844.254c.273.113.535.254.777.418a4.45 4.45 0 0 1 1.656 2.015q.171.41.258.844t.086.879v20.988a4.4 4.4 0 0 1-.344 1.723 4.459 4.459 0 0 1-1.656 2.016 4.4 4.4 0 0 1-1.62.671 4.4 4.4 0 0 1-.876.086h-80.957q-.445.001-.879-.086-.433-.085-.844-.253a4.5 4.5 0 0 1-1.457-.977 4.2 4.2 0 0 1-.558-.68 4.7 4.7 0 0 1-.418-.777 4.3 4.3 0 0 1-.254-.844 4.4 4.4 0 0 1-.09-.879v-20.988q0-.445.09-.879.083-.433.254-.844a4.5 4.5 0 0 1 .976-1.457 4.513 4.513 0 0 1 1.457-.977q.41-.17.844-.253.434-.09.879-.09zm0 0"/></g><use x="411.694" y="393.539" xlink:href="#y"/><use x="416.854" y="393.539" xlink:href="#c"/><use x="419.85" y="393.539" xlink:href="#e"/><use x="424.853" y="393.539" xlink:href="#g"/><use x="426.851" y="393.539" xlink:href="#i"/><path fill="#E1D5E7" stroke="#9673A6" stroke-width=".75" d="M155.543 106.066H236.5q.44.001.875.09.434.083.844.254.409.168.777.418a4.45 4.45 0 0 1 1.656 2.016q.171.41.258.844t.086.878v20.989a4.4 4.4 0 0 1-.344 1.722 4.46 4.46 0 0 1-1.656 2.016 4.5 4.5 0 0 1-.777.418 4.6 4.6 0 0 1-1.719.34h-80.957q-.446 0-.879-.086c-.289-.059-.57-.14-.844-.254a4.5 4.5 0 0 1-1.457-.977 4.3 4.3 0 0 1-.562-.68 4.6 4.6 0 0 1-.672-1.62 4.8 4.8 0 0 1-.086-.88v-20.988q.002-.445.086-.878a4.6 4.6 0 0 1 .672-1.622q.246-.368.562-.68a4.2 4.2 0 0 1 .68-.558 4.3 4.3 0 0 1 .777-.418q.41-.17.844-.254.434-.089.879-.09Zm0 0"/><use x="186.896" y="123.684" xlink:href="#s"/><use x="192.391" y="123.684" xlink:href="#t"/><use x="194.389" y="123.684" xlink:href="#e"/><use x="199.392" y="123.684" xlink:href="#d"/><path fill="#E1D5E7" stroke="#9673A6" stroke-width=".75" d="M163.04 113.563h80.956q.44 0 .875.09.434.082.844.253a4.5 4.5 0 0 1 2.02 1.657q.244.367.414.777t.257.844.086.879v20.988a4.4 4.4 0 0 1-.343 1.722c-.114.27-.25.532-.415.778a4.448 4.448 0 0 1-1.242 1.238 4.5 4.5 0 0 1-.777.418 4.6 4.6 0 0 1-1.719.34H163.04q-.445.001-.879-.086c-.289-.059-.57-.14-.844-.254a4.5 4.5 0 0 1-1.457-.976 4.4 4.4 0 0 1-.562-.68 4.6 4.6 0 0 1-.672-1.621 4.8 4.8 0 0 1-.086-.88v-20.987q.002-.445.086-.88a4.6 4.6 0 0 1 .672-1.62q.246-.37.562-.68.31-.317.68-.563a4.5 4.5 0 0 1 1.621-.668q.434-.089.88-.09Zm0 0"/><use x="194.392" y="131.18" xlink:href="#s"/><use x="199.887" y="131.18" xlink:href="#t"/><use x="201.885" y="131.18" xlink:href="#e"/><use x="206.888" y="131.18" xlink:href="#d"/><path fill="#E1D5E7" stroke="#9673A6" stroke-width=".75" d="M170.535 121.059h80.957q.44 0 .875.09.434.082.844.253a4.5 4.5 0 0 1 2.02 1.657q.245.368.414.777.17.41.257.844.087.433.086.879v20.988a4.4 4.4 0 0 1-.343 1.723q-.17.406-.414.777a4.448 4.448 0 0 1-1.242 1.238 4.5 4.5 0 0 1-.778.418 4.6 4.6 0 0 1-1.719.34h-80.957q-.446.001-.879-.086c-.289-.059-.57-.14-.843-.254a4.5 4.5 0 0 1-.778-.418 4.45 4.45 0 0 1-1.656-2.015 4.6 4.6 0 0 1-.258-.844 4.8 4.8 0 0 1-.086-.88V125.56q.002-.445.086-.88a4.6 4.6 0 0 1 .672-1.62 4.5 4.5 0 0 1 .559-.68 4.47 4.47 0 0 1 2.304-1.23q.434-.09.88-.09Zm0 0"/><use x="201.888" y="138.676" xlink:href="#s"/><use x="207.383" y="138.676" xlink:href="#t"/><use x="209.381" y="138.676" xlink:href="#e"/><use x="214.384" y="138.676" xlink:href="#d"/><path fill="#FFF2CC" stroke="#D6B656" stroke-width=".75" d="M163.04 428.395h80.956q.44.002.875.086a4.6 4.6 0 0 1 1.621.672q.368.246.684.562a4.5 4.5 0 0 1 .973 1.457q.17.41.257.844.087.433.086.879v20.988a4.4 4.4 0 0 1-.343 1.719c-.114.273-.25.535-.415.777a4.7 4.7 0 0 1-.558.684 4.7 4.7 0 0 1-.684.558 4.5 4.5 0 0 1-.777.418 5 5 0 0 1-.844.254q-.434.087-.875.086H163.04q-.445.001-.879-.086a5 5 0 0 1-.844-.254 4.5 4.5 0 0 1-1.457-.976 4.47 4.47 0 0 1-1.234-2.305 4.7 4.7 0 0 1-.086-.875v-20.988q.002-.445.086-.88a4.6 4.6 0 0 1 .672-1.62q.246-.37.562-.68.31-.316.68-.562.368-.246.777-.415.41-.17.844-.257a4.7 4.7 0 0 1 .88-.086Zm0 0"/><use x="177.889" y="446.011" xlink:href="#p"/><use x="183.889" y="446.011" xlink:href="#f"/><use x="188.892" y="446.011" xlink:href="#q"/><use x="193.389" y="446.011" xlink:href="#g"/><use x="195.388" y="446.011" xlink:href="#c"/><use x="198.383" y="446.011" xlink:href="#j"/><use x="203.386" y="446.011" xlink:href="#f"/><use x="208.388" y="446.011" xlink:href="#r"/><use x="215.881" y="446.011" xlink:href="#m"/><use x="220.884" y="446.011" xlink:href="#f"/><use x="225.887" y="446.011" xlink:href="#i"/><path fill="#FFF2CC" stroke="#D6B656" stroke-width=".75" d="M170.535 435.89h80.957c.293 0 .586.032.875.087a4.57 4.57 0 0 1 2.305 1.23q.312.316.559.684.245.368.414.777.17.41.257.844.087.433.086.879v20.988a4.4 4.4 0 0 1-.343 1.719c-.114.273-.25.535-.414.777a4.7 4.7 0 0 1-.559.684 4.7 4.7 0 0 1-.684.558 4.573 4.573 0 0 1-1.621.672q-.434.087-.875.086h-80.957a4.4 4.4 0 0 1-1.722-.344 4.2 4.2 0 0 1-.778-.414 4.7 4.7 0 0 1-.683-.558 4.7 4.7 0 0 1-.559-.684 4.4 4.4 0 0 1-.414-.777 4.4 4.4 0 0 1-.344-1.719v-20.988q.002-.445.086-.88a4.57 4.57 0 0 1 1.23-2.304 4.494 4.494 0 0 1 1.46-.973q.412-.17.845-.257a4.7 4.7 0 0 1 .88-.086Zm0 0"/><use x="181.133" y="453.507" xlink:href="#p"/><use x="187.133" y="453.507" xlink:href="#f"/><use x="192.136" y="453.507" xlink:href="#q"/><use x="196.633" y="453.507" xlink:href="#g"/><use x="198.632" y="453.507" xlink:href="#c"/><use x="201.627" y="453.507" xlink:href="#j"/><use x="206.63" y="453.507" xlink:href="#f"/><use x="211.633" y="453.507" xlink:href="#r"/><use x="219.126" y="453.507" xlink:href="#m"/><use x="224.129" y="453.507" xlink:href="#f"/><use x="229.131" y="453.507" xlink:href="#i"/><use x="231.63" y="453.507" xlink:href="#glyph-0-14"/><use x="234.13" y="453.507" xlink:href="#A"/><path fill="#D5E8D4" stroke="#82B366" stroke-width=".75" d="M88.078 578.317h80.957q.44-.001.875.086a4.4 4.4 0 0 1 1.625.671c.242.165.473.348.68.56.207.206.394.437.559.679.164.246.304.508.417.777q.166.41.254.844.087.44.086.879V603.8q.001.446-.086.879a5 5 0 0 1-.254.844 4.5 4.5 0 0 1-.976 1.457c-.207.21-.438.398-.68.562a4.5 4.5 0 0 1-1.625.668q-.434.09-.875.09H88.078q-.445 0-.879-.09-.434-.082-.843-.254a4.5 4.5 0 0 1-.778-.414 4.3 4.3 0 0 1-.68-.562 4.513 4.513 0 0 1-.977-1.457 4.3 4.3 0 0 1-.253-.844 4.4 4.4 0 0 1-.086-.879v-20.988q-.001-.44.086-.88.083-.433.254-.843.17-.406.418-.777c.164-.242.348-.473.558-.68a4.513 4.513 0 0 1 1.457-.977 4.6 4.6 0 0 1 1.723-.34Zm0 0"/><use x="114.173" y="595.931" xlink:href="#k"/><use x="120.173" y="595.931" xlink:href="#c"/><use x="123.168" y="595.931" xlink:href="#j"/><use x="128.171" y="595.931" xlink:href="#l"/><use x="130.17" y="595.931" xlink:href="#m"/><use x="135.172" y="595.931" xlink:href="#n"/><use x="139.67" y="595.931" xlink:href="#i"/><path fill="#D5E8D4" d="M95.574 585.813h80.957q.44-.001.875.085a4.4 4.4 0 0 1 1.621.672 4.45 4.45 0 0 1 1.243 1.239q.247.37.417.777.166.41.254.844c.059.293.086.582.086.879v20.988q.001.446-.086.879a5 5 0 0 1-.254.844 4.5 4.5 0 0 1-.976 1.457 4.47 4.47 0 0 1-2.305 1.23q-.434.09-.875.09H95.574q-.446 0-.879-.09-.433-.083-.843-.254a4.5 4.5 0 0 1-.778-.414 4.3 4.3 0 0 1-.68-.562 4.513 4.513 0 0 1-.977-1.457 4.3 4.3 0 0 1-.253-.844 4.4 4.4 0 0 1-.086-.88V590.31c0-.297.027-.586.086-.88q.083-.433.254-.843.17-.407.418-.777c.164-.243.348-.473.559-.68a4.513 4.513 0 0 1 1.457-.977 4.6 4.6 0 0 1 1.722-.34m0 0"/><g clip-path="url(#B)"><path fill="none" stroke="#82b366" stroke-width=".75" d="M95.574 585.813h80.957q.44-.001.875.086a4.4 4.4 0 0 1 1.621.672 4.45 4.45 0 0 1 1.243 1.238c.164.246.304.508.418.777q.165.41.253.844c.06.293.086.582.086.879v20.988q.001.446-.086.879-.088.434-.253.844a4.5 4.5 0 0 1-.977 1.457 4.47 4.47 0 0 1-2.305 1.23q-.434.09-.875.09H95.574q-.445 0-.879-.09-.433-.082-.843-.254a4.5 4.5 0 0 1-.778-.414 4.3 4.3 0 0 1-.68-.562 4.513 4.513 0 0 1-.977-1.457 4.3 4.3 0 0 1-.253-.844 4.4 4.4 0 0 1-.086-.879V590.31c0-.297.028-.586.086-.88q.083-.433.254-.843.17-.406.418-.777c.164-.242.348-.473.559-.68a4.512 4.512 0 0 1 1.457-.977 4.6 4.6 0 0 1 1.722-.34zm0 0"/></g><use x="117.429" y="603.427" xlink:href="#k"/><use x="123.429" y="603.427" xlink:href="#c"/><use x="126.425" y="603.427" xlink:href="#j"/><use x="131.427" y="603.427" xlink:href="#l"/><use x="133.426" y="603.427" xlink:href="#m"/><use x="138.428" y="603.427" xlink:href="#n"/><use x="142.926" y="603.427" xlink:href="#i"/><use x="145.425" y="603.427" xlink:href="#glyph-0-14"/><use x="147.924" y="603.427" xlink:href="#A"/><path fill="#FFE6CC" stroke="#D79B00" stroke-width=".75" d="M275.477 240.996h80.957a4.4 4.4 0 0 1 1.722.344 4.5 4.5 0 0 1 1.457.973q.315.314.559.683.247.368.418.778t.254.843q.088.435.09.875v20.989q-.001.445-.09.878-.083.434-.254.844a4.5 4.5 0 0 1-.418.778 4.45 4.45 0 0 1-2.016 1.656q-.41.17-.843.258a4.7 4.7 0 0 1-.88.086h-80.956a4.397 4.397 0 0 1-1.719-.344 4.4 4.4 0 0 1-.777-.414 4.7 4.7 0 0 1-.684-.559 4.7 4.7 0 0 1-.559-.683 4.573 4.573 0 0 1-.672-1.621 4.4 4.4 0 0 1-.085-.88v-20.988a4.4 4.4 0 0 1 .343-1.718q.166-.41.414-.778a4.7 4.7 0 0 1 .559-.683 4.7 4.7 0 0 1 .684-.559q.364-.244.777-.414a4.4 4.4 0 0 1 1.719-.344Zm0 0"/><use x="279.073" y="258.612" xlink:href="#u"/><use x="285.073" y="258.612" xlink:href="#m"/><use x="290.076" y="258.612" xlink:href="#d"/><use x="295.078" y="258.612" xlink:href="#r"/><use x="302.571" y="258.612" xlink:href="#m"/><use x="307.574" y="258.612" xlink:href="#f"/><use x="312.577" y="258.612" xlink:href="#i"/><use x="315.076" y="258.612" xlink:href="#glyph-0-14"/><use x="317.575" y="258.612" xlink:href="#b"/><use x="324.572" y="258.612" xlink:href="#q"/><use x="329.069" y="258.612" xlink:href="#m"/><use x="334.072" y="258.612" xlink:href="#c"/><use x="337.068" y="258.612" xlink:href="#c"/><use x="340.063" y="258.612" xlink:href="#g"/><use x="342.061" y="258.612" xlink:href="#w"/><use x="347.064" y="258.612" xlink:href="#m"/><path fill="#FFE6CC" stroke="#D79B00" stroke-width=".75" d="M282.973 248.492h80.957a4.4 4.4 0 0 1 1.722.344 4.5 4.5 0 0 1 1.458.973q.313.315.558.683.247.368.418.778t.254.843c.059.29.086.582.09.875v20.989c-.004.297-.031.59-.09.879q-.083.433-.254.843a4.5 4.5 0 0 1-.418.778 4.45 4.45 0 0 1-2.016 1.656q-.41.17-.843.258a4.7 4.7 0 0 1-.88.086h-80.956a4.398 4.398 0 0 1-1.719-.344 4.4 4.4 0 0 1-.777-.414 4.7 4.7 0 0 1-.684-.559 4.7 4.7 0 0 1-.559-.683 4.5 4.5 0 0 1-.417-.778 5 5 0 0 1-.254-.843 4.4 4.4 0 0 1-.086-.88v-20.988q-.001-.44.086-.875.088-.434.254-.843.17-.41.417-.778a4.7 4.7 0 0 1 .56-.683 4.7 4.7 0 0 1 .683-.559c.242-.164.504-.3.777-.414a4.4 4.4 0 0 1 1.719-.344Zm0 0"/><use x="286.569" y="266.108" xlink:href="#u"/><use x="292.569" y="266.108" xlink:href="#m"/><use x="297.572" y="266.108" xlink:href="#d"/><use x="302.574" y="266.108" xlink:href="#r"/><use x="310.067" y="266.108" xlink:href="#m"/><use x="315.07" y="266.108" xlink:href="#f"/><use x="320.073" y="266.108" xlink:href="#i"/><use x="322.572" y="266.108" xlink:href="#glyph-0-14"/><use x="325.071" y="266.108" xlink:href="#b"/><use x="332.068" y="266.108" xlink:href="#q"/><use x="336.565" y="266.108" xlink:href="#m"/><use x="341.568" y="266.108" xlink:href="#c"/><use x="344.564" y="266.108" xlink:href="#c"/><use x="347.559" y="266.108" xlink:href="#g"/><use x="349.558" y="266.108" xlink:href="#w"/><use x="354.56" y="266.108" xlink:href="#m"/><path fill="#FFE6CC" stroke="#D79B00" stroke-width=".75" d="M290.469 255.988h80.957a4.4 4.4 0 0 1 1.723.344q.408.167.777.414a4.5 4.5 0 0 1 1.238 1.242 4.4 4.4 0 0 1 .672 1.621q.087.436.086.875v20.989q.001.445-.086.879-.083.433-.254.843a4.5 4.5 0 0 1-.418.778 4.45 4.45 0 0 1-2.015 1.656q-.41.17-.844.258a4.7 4.7 0 0 1-.88.086H290.47q-.44-.002-.875-.086a4.4 4.4 0 0 1-.844-.258 4.49 4.49 0 0 1-1.46-.973 4.7 4.7 0 0 1-.56-.683 4.5 4.5 0 0 1-.417-.778 5 5 0 0 1-.254-.843 4.4 4.4 0 0 1-.086-.88v-20.988q-.001-.439.086-.875.088-.433.254-.843.17-.412.418-.778a4.7 4.7 0 0 1 .558-.683 4.5 4.5 0 0 1 1.461-.973 4.4 4.4 0 0 1 1.719-.344Zm0 0"/><use x="294.065" y="273.604" xlink:href="#u"/><use x="300.065" y="273.604" xlink:href="#m"/><use x="305.068" y="273.604" xlink:href="#d"/><use x="310.07" y="273.604" xlink:href="#r"/><use x="317.563" y="273.604" xlink:href="#m"/><use x="322.566" y="273.604" xlink:href="#f"/><use x="327.569" y="273.604" xlink:href="#i"/><use x="330.068" y="273.604" xlink:href="#glyph-0-14"/><use x="332.567" y="273.604" xlink:href="#b"/><use x="339.564" y="273.604" xlink:href="#q"/><use x="344.061" y="273.604" xlink:href="#m"/><use x="349.064" y="273.604" xlink:href="#c"/><use x="352.06" y="273.604" xlink:href="#c"/><use x="355.055" y="273.604" xlink:href="#g"/><use x="357.053" y="273.604" xlink:href="#w"/><use x="362.056" y="273.604" xlink:href="#m"/></svg>