<svg xmlns="http://www.w3.org/2000/svg" viewBox="125 20 825 448"><defs><marker id="arrowhead" markerHeight="7" markerWidth="10" orient="auto" refX="9" refY="3.5"><polygon fill="#64748b" points="0 0 10 3.5 0 7"/></marker><filter id="shadow" width="140%" height="140%" x="-20%" y="-20%"><feDropShadow dx="2" dy="2" flood-opacity=".15" stdDeviation="2"/></filter></defs><style>.box{fill:#fff;stroke:#e2e8f0}.box,.box-env,.box-flag,.box-primary{stroke-width:2;rx:8}.box-primary{fill:#f8fafc;stroke:#3b82f6}.box-env{fill:#f0fdf4;stroke:#22c55e}.box-flag{fill:#fefce8;stroke:#eab308}.box-identity,.box-segment{stroke-width:2;rx:8}.box-segment{fill:#fff7ed;stroke:#f97316}.box-identity{fill:#eff6ff;stroke:#3b82f6}.box-state,.box-trait{stroke-width:2;rx:8}.box-trait{fill:#fdf2f8;stroke:#ec4899}.box-state{fill:#faf5ff;stroke:#a855f7}.box-id-override,.box-seg-override{stroke-width:2;rx:8}.box-seg-override{fill:#fff7ed;stroke:#ea580c}.box-id-override{fill:#eff6ff;stroke:#2563eb}.label,.label-bold{font-family:-apple-system,BlinkMacSystemFont,&apos;Segoe UI&apos;,Roboto,sans-serif;font-size:14px;fill:#334155}.label-bold{fill:#1e293b;font-weight:600}.arrow{stroke:#64748b;stroke-width:1.5;fill:none;marker-end:url(#arrowhead)}</style><g filter="url(#shadow)"><rect width="150" height="44" x="585" y="30" class="box-primary"/><text x="660" y="57" class="label-bold" text-anchor="middle">Organisation</text></g><line x1="660" x2="460" y1="74" y2="110" class="arrow"/><line x1="660" x2="860" y1="74" y2="110" class="arrow"/><g filter="url(#shadow)"><rect width="140" height="40" x="390" y="115" class="box"/><text x="460" y="140" class="label-bold" text-anchor="middle">Project A</text></g><g filter="url(#shadow)"><rect width="140" height="40" x="790" y="115" class="box"/><text x="860" y="140" class="label-bold" text-anchor="middle">Project B</text></g><line x1="460" x2="205" y1="155" y2="195" class="arrow"/><line x1="460" x2="375" y1="155" y2="195" class="arrow"/><line x1="460" x2="545" y1="155" y2="195" class="arrow"/><line x1="460" x2="715" y1="155" y2="195" class="arrow"/><g filter="url(#shadow)"><rect width="120" height="40" x="153" y="208" class="box-flag" opacity=".6"/><rect width="120" height="40" x="149" y="204" class="box-flag" opacity=".8"/><rect width="120" height="40" x="145" y="200" class="box-flag"/><text x="205" y="225" class="label" text-anchor="middle">Features</text></g><g filter="url(#shadow)"><rect width="120" height="40" x="323" y="208" class="box-segment" opacity=".6"/><rect width="120" height="40" x="319" y="204" class="box-segment" opacity=".8"/><rect width="120" height="40" x="315" y="200" class="box-segment"/><text x="375" y="225" class="label" text-anchor="middle">Segments</text></g><g filter="url(#shadow)"><rect width="140" height="40" x="475" y="200" class="box-env"/><text x="545" y="225" class="label" text-anchor="middle">Environment X</text></g><g filter="url(#shadow)"><rect width="140" height="40" x="645" y="200" class="box-env"/><text x="715" y="225" class="label" text-anchor="middle">Environment Y</text></g><line x1="545" x2="375" y1="240" y2="295" class="arrow"/><line x1="545" x2="545" y1="240" y2="295" class="arrow"/><line x1="545" x2="715" y1="240" y2="295" class="arrow"/><g filter="url(#shadow)"><rect width="162" height="40" x="302" y="308" class="box-seg-override" opacity=".6"/><rect width="162" height="40" x="298" y="304" class="box-seg-override" opacity=".8"/><rect width="162" height="40" x="294" y="300" class="box-seg-override"/><text x="375" y="325" class="label" text-anchor="middle">Segment Overrides</text></g><g filter="url(#shadow)"><rect width="130" height="40" x="488" y="308" class="box-state" opacity=".6"/><rect width="130" height="40" x="484" y="304" class="box-state" opacity=".8"/><rect width="130" height="40" x="480" y="300" class="box-state"/><text x="545" y="325" class="label" text-anchor="middle">Flag States</text></g><g filter="url(#shadow)"><rect width="120" height="40" x="663" y="308" class="box-identity" opacity=".6"/><rect width="120" height="40" x="659" y="304" class="box-identity" opacity=".8"/><rect width="120" height="40" x="655" y="300" class="box-identity"/><text x="715" y="325" class="label" text-anchor="middle">Identities</text></g><line x1="715" x2="630" y1="348" y2="405" class="arrow"/><line x1="715" x2="800" y1="348" y2="405" class="arrow"/><g filter="url(#shadow)"><rect width="158" height="40" x="559" y="418" class="box-id-override" opacity=".6"/><rect width="158" height="40" x="555" y="414" class="box-id-override" opacity=".8"/><rect width="158" height="40" x="551" y="410" class="box-id-override"/><text x="630" y="435" class="label" text-anchor="middle">Identity Overrides</text></g><g filter="url(#shadow)"><rect width="120" height="40" x="748" y="418" class="box-trait" opacity=".6"/><rect width="120" height="40" x="744" y="414" class="box-trait" opacity=".8"/><rect width="120" height="40" x="740" y="410" class="box-trait"/><text x="800" y="435" class="label" text-anchor="middle">Traits</text></g></svg>