<svg width="460" height="97" viewBox="0 0 460 97" fill="none" xmlns="http://www.w3.org/2000/svg">
<g clip-path="url(#clip0_5_958)">
<path d="M354.687 75.3695V25.3173H339.019V75.3695H354.687Z" fill="#7B51FB"/>
<path d="M340.615 14.9866C342.322 16.7011 344.404 17.5573 346.852 17.5573C349.368 17.5573 351.479 16.7011 353.189 14.9866C354.897 13.2734 355.75 11.2199 355.75 8.82732C355.75 6.43543 354.861 4.36468 353.092 2.61906C351.317 0.872803 349.235 0 346.852 0C344.466 0 342.403 0.872803 340.663 2.61906C338.924 4.36468 338.051 6.43543 338.051 8.82732C338.051 11.2199 338.908 13.2734 340.615 14.9866Z" fill="#7B51FB"/>
<path d="M197.245 70.2291L204.111 59.7524C207.656 61.6294 210.623 62.9385 213.008 63.6812C215.393 64.4255 217.779 64.7964 220.165 64.7964C222.356 64.7964 224.098 64.4255 225.387 63.6812C226.677 62.9385 227.323 61.952 227.323 60.7227C227.323 59.7524 226.949 58.9767 226.209 58.3947C225.469 57.8127 224.291 57.393 222.679 57.1337L213.105 55.3874C208.27 54.4827 204.61 52.802 202.129 50.3437C199.646 47.887 198.405 44.7174 198.405 40.8377C198.405 35.7297 200.258 31.7195 203.966 28.8095C207.673 25.8997 212.782 24.4442 219.294 24.4442C222.778 24.4442 226.224 24.9296 229.643 25.8997C233.059 26.8692 236.38 28.2929 239.605 30.1677L232.448 40.1587C229.933 38.737 227.499 37.67 225.146 36.9577C222.791 36.2467 220.455 35.8907 218.135 35.8907C216.263 35.8907 214.798 36.1982 213.734 36.8119C212.671 37.4275 212.138 38.2837 212.138 39.3827C212.138 40.4174 212.509 41.1937 213.251 41.7107C213.991 42.229 215.329 42.6487 217.264 42.9714L226.644 44.7174C231.543 45.6237 235.284 47.3215 237.863 49.8102C240.442 52.3002 241.699 55.421 241.635 59.1707C241.635 61.6294 241.104 63.9082 240.04 66.0092C238.975 68.1112 237.476 69.9225 235.543 71.4412C233.608 72.9612 231.319 74.1572 228.676 75.0302C226.031 75.9039 223.195 76.3401 220.165 76.3401C215.651 76.3401 211.428 75.8218 207.496 74.7877C203.563 73.754 200.146 72.2344 197.245 70.2291Z" fill="#7B51FB"/>
<path fill-rule="evenodd" clip-rule="evenodd" d="M88.3252 71.9259C91.5478 74.7389 95.6749 76.1454 100.704 76.1454C103.347 76.1454 105.765 75.7402 107.957 74.9329C110.148 74.1252 112.341 72.8153 114.533 71.004V75.3694H130.007V43.359C130.007 37.4103 128.088 32.786 124.253 29.4879C120.416 26.19 115.049 24.5413 108.15 24.5413C104.476 24.5413 100.752 24.9941 96.9802 25.8993C93.2091 26.8053 89.2919 28.1634 85.2302 29.9733L90.6461 40.9344C93.547 39.7067 96.1418 38.8168 98.4316 38.2665C100.719 37.7178 102.798 37.442 104.669 37.442C107.957 37.442 110.423 38.0577 112.068 39.2854C113.711 40.5143 114.533 42.3257 114.533 44.717V48.7914C112.341 47.9513 110.31 47.3532 108.441 46.9965C106.57 46.6418 104.732 46.4634 102.929 46.4634C96.802 46.4634 92.0319 47.7412 88.6149 50.2945C85.1969 52.8502 83.4891 56.4223 83.4891 61.013C83.4891 65.4754 85.1002 69.1129 88.3252 71.9259ZM99.9303 64.4569C98.5761 63.5839 97.8994 62.3397 97.8994 60.7224C97.8994 59.1067 98.5913 57.8773 99.9784 57.0364C101.364 56.1967 103.347 55.7754 105.926 55.7754C107.343 55.7754 108.78 55.8724 110.23 56.066C111.681 56.2604 113.114 56.5193 114.533 56.8424V63.244C113.18 64.085 111.744 64.7155 110.23 65.1359C108.714 65.5572 107.15 65.7664 105.539 65.7664C103.154 65.7664 101.284 65.3299 99.9303 64.4569Z" fill="#7B51FB"/>
<path fill-rule="evenodd" clip-rule="evenodd" d="M151.3 73.2835C154.008 74.6098 156.876 75.2724 159.907 75.2724C162.808 75.2724 165.549 74.6755 168.127 73.4775C170.705 72.2815 172.801 70.6817 174.413 68.6764V75.8544C174.413 78.893 173.447 81.1887 171.512 82.7414C169.579 84.2937 166.774 85.069 163.099 85.069C160.713 85.069 158.263 84.7454 155.748 84.0997C153.234 83.4517 150.59 82.4824 147.818 81.1887L142.983 92.5384C145.948 93.9597 149.204 95.0604 152.75 95.8364C156.296 96.6124 159.939 97 163.679 97C172.125 97 178.62 95.1897 183.166 91.5687C187.711 87.9464 189.985 82.773 189.985 76.0484V25.3172H174.607V31.3311C172.93 29.3276 170.916 27.7753 168.563 26.6755C166.209 25.5769 163.71 25.026 161.068 25.026C157.843 25.026 154.814 25.6735 151.977 26.9663C149.139 28.2608 146.673 30.0383 144.578 32.3011C142.483 34.5657 140.838 37.2163 139.647 40.2554C138.453 43.2957 137.857 46.5604 137.857 50.0524C137.857 53.544 138.438 56.8272 139.598 59.8979C140.759 62.9702 142.321 65.637 144.288 67.9004C146.254 70.165 148.592 71.9588 151.3 73.2835ZM156.668 58.9279C154.378 56.5678 153.234 53.641 153.234 50.1494C153.234 46.6574 154.361 43.747 156.619 41.4194C158.875 39.091 161.712 37.927 165.13 37.927C166.934 37.927 168.626 38.2665 170.207 38.9455C171.786 39.6245 173.189 40.5797 174.413 41.8074V58.4914C173.189 59.7857 171.803 60.7709 170.255 61.4499C168.709 62.1289 166.999 62.468 165.13 62.468C161.777 62.468 158.955 61.2888 156.668 58.9279Z" fill="#7B51FB"/>
<path d="M373.45 59.9464V37.442H363.779V25.3174H373.45V13.4333L389.791 10.1918L389.115 25.3174H402.462V37.442H389.115V56.8424C389.115 59.0414 389.616 60.5937 390.615 61.4984C391.614 62.4047 393.305 62.8564 395.695 62.8564C396.594 62.8564 397.496 62.7927 398.401 62.6624C399.303 62.5337 400.529 62.2427 402.074 61.7894V74.497C400.655 74.9497 398.915 75.3209 396.852 75.6119C394.79 75.9035 392.953 76.0484 391.34 76.0484C385.474 76.0484 381.022 74.6904 377.992 71.9744C374.963 69.258 373.45 65.2494 373.45 59.9464Z" fill="#7B51FB"/>
<path d="M411.164 5.35187V75.3693H426.833V44.491C426.619 41.6379 427.483 39.908 430.069 38.1779C431.353 37.3201 433.471 36.86 435.149 36.86C437.664 36.86 439.679 37.7174 441.195 39.4301C442.708 41.1445 443.468 43.3926 443.468 46.172V75.3693H459.134V41.613C459.134 36.634 457.585 32.5435 454.491 29.3425C451.396 26.1415 447.429 24.541 442.595 24.541C439.372 24.541 436.423 25.3018 433.746 26.8203C431.072 28.3408 428.766 30.5544 426.833 33.465V1.60242L411.164 5.35187Z" fill="#7B51FB"/>
<path d="M249.651 75.7089H266.202C266.562 63.1551 267.142 43.0884 267.665 41.0045C268.578 37.3518 271.201 35.8739 274.791 36.1882C278.014 36.4701 279.914 38.3584 280.479 42.0741C280.743 43.8182 280.798 45.6007 280.852 47.3694L280.854 47.435C280.89 48.6401 280.577 62.6472 280.321 74.1042L280.321 74.1155L280.285 75.7089H296.526C296.742 63.5431 297.034 49.3928 297.188 47.4602C297.388 44.957 297.82 42.3499 298.791 40.063C300.017 37.1711 302.957 36.0488 306.059 36.5855C308.703 37.0431 310.232 38.6064 310.775 41.9031C311.133 44.0814 311.217 46.3227 311.239 48.5372C311.269 51.5953 311.052 63.7009 310.832 75.7089H326.877C327.142 59.7381 327.397 42.6332 327.213 36.4753C327.058 31.3694 324.132 27.5189 319.288 25.411C310.795 21.7139 301.395 24.0965 295.687 31.3854C295.596 31.503 295.45 31.578 295.283 31.6647C295.198 31.7085 295.107 31.7554 295.015 31.8122C291.996 26.7236 287.405 24.337 281.7 23.9064C275.995 23.4754 271.122 25.4911 266.847 29.6366C266.748 27.7036 266.676 26.2818 266.595 24.6655C265.18 24.6655 263.783 24.6683 262.399 24.6712C258.908 24.6784 255.499 24.6854 252.091 24.6456C250.43 24.6265 250.432 25.6363 250.435 26.7866V26.8447C250.444 31.885 250.059 63.5868 249.651 75.7089Z" fill="#7B51FB"/>
<path d="M59.9779 75.694V28.9004C69.567 26.1595 73.3714 18.1778 75.645 11.7848V75.694H59.9779Z" fill="#7B51FB"/>
<path d="M1.71566 33.3872C-1.71731 21.8967 -0.00250065 10.9059 14.5759 6.74652C18.273 5.69162 23.9085 4.92939 27.734 4.8698C41.6983 4.65194 70.6156 4.82411 71.2765 4.87643C71.6396 4.90553 70.2418 10.4231 67.7932 14.0719C63.7877 20.0398 58.0816 22.8404 50.8725 23.2046C41.9957 23.6534 33.0937 23.737 24.2024 23.741C15.3996 23.7456 7.84662 26.3864 2.04449 33.2743C2.00016 33.3273 1.9132 33.3445 1.82665 33.3613C1.78836 33.369 1.75007 33.3765 1.71566 33.3872Z" fill="#7B51FB"/>
<path d="M22.0783 30.6448L45.6274 30.6878V46.4963H22.0783V75.3231C9.86686 75.2167 0.000213623 65.2568 0.000213623 52.984C0.000213623 40.7109 9.86686 30.7515 22.0783 30.6448Z" fill="#7B51FB"/>
</g>
<defs>
<clipPath id="clip0_5_958">
<rect width="459.133" height="97" fill="white"/>
</clipPath>
</defs>
</svg>
