<svg fill="none" height="256" viewBox="0 0 256 256" width="256" xmlns="http://www.w3.org/2000/svg" xmlns:xlink="http://www.w3.org/1999/xlink"><clipPath id="a"><path d="m28.9087 29.6055h198.182v196.789h-198.182z"/></clipPath><rect fill="#63f" height="256" rx="30" width="256"/><g clip-path="url(#a)" fill="#fff"><path d="m33.6758 109.436c-9.5373-32.0449-4.7738-62.6985 35.729-74.2997 10.2716-2.9421 25.9284-5.0677 36.5562-5.2339 38.798-.6079 119.138-.1264 120.973.0186 1.009.0811-2.873 15.4705-9.678 25.6471-11.129 16.6423-26.981 24.454-47.009 25.4702-24.663 1.2516-49.395 1.4844-74.0963 1.4964-24.4574.0119-45.4418 7.3767-61.5615 26.5873-.178.213-.6017.218-.9134.314z"/><path d="m155.673 101.908-65.4267-.12c-33.9255.296-61.3376 28.075-61.3376 62.303 0 34.229 27.4121 62.007 61.3376 62.304v-80.397h65.4267z"/></g></svg>