<svg viewBox="0 0 810 310" xmlns="http://www.w3.org/2000/svg">
  <defs>
    <marker id="arrowhead" markerWidth="10" markerHeight="7" refX="9" refY="3.5" orient="auto">
      <polygon points="0 0, 10 3.5, 0 7" fill="#64748b"/>
    </marker>
    <filter id="shadow" x="-20%" y="-20%" width="140%" height="140%">
      <feDropShadow dx="2" dy="2" stdDeviation="2" flood-opacity="0.15"/>
    </filter>
  </defs>

  <style>
    .box { fill: #e0f2fe; stroke: #0284c7; stroke-width: 2; rx: 8; }
    .label-bold { font-family: -apple-system, BlinkMacSystemFont, 'Segoe UI', Roboto, sans-serif; font-size: 14px; fill: #1e293b; font-weight: 600; }
    .label-arrow { font-family: -apple-system, BlinkMacSystemFont, 'Segoe UI', Roboto, sans-serif; font-size: 11px; fill: #475569; font-weight: 600; }
    .arrow { stroke: #64748b; stroke-width: 2; fill: none; marker-end: url(#arrowhead); }
    .arrow-no-head { stroke: #64748b; stroke-width: 2; fill: none; }
  </style>

  <!-- Permissions box (left) -->
  <g filter="url(#shadow)">
    <rect x="10" y="105" width="120" height="50" class="box"/>
    <text x="70" y="135" text-anchor="middle" class="label-bold">Permissions</text>
  </g>

  <!-- Built-in roles box (top middle) -->
  <g filter="url(#shadow)">
    <rect x="260" y="10" width="130" height="50" class="box"/>
    <text x="325" y="40" text-anchor="middle" class="label-bold">Built-in roles</text>
  </g>

  <!-- Custom roles box (bottom middle) -->
  <g filter="url(#shadow)">
    <rect x="260" y="180" width="130" height="50" class="box"/>
    <text x="325" y="210" text-anchor="middle" class="label-bold">Custom roles</text>
  </g>

  <!-- Users box (top right) -->
  <g filter="url(#shadow)">
    <rect x="680" y="10" width="120" height="50" class="box"/>
    <text x="740" y="40" text-anchor="middle" class="label-bold">Users</text>
  </g>

  <!-- Groups box (middle right) -->
  <g filter="url(#shadow)">
    <rect x="530" y="125" width="130" height="50" class="box"/>
    <text x="595" y="155" text-anchor="middle" class="label-bold">Groups</text>
  </g>

  <!-- Admin API Keys box (bottom right, aligned with Groups) -->
  <g filter="url(#shadow)">
    <rect x="530" y="250" width="130" height="50" class="box"/>
    <text x="595" y="280" text-anchor="middle" class="label-bold">Admin API Keys</text>
  </g>

  <!-- Permissions merged outbound: longer horizontal trunk, then split up/down -->
  <path d="M 130 130 L 220 130" class="arrow-no-head"/>
  <path d="M 220 130 L 220 35 L 255 35" class="arrow"/>
  <path d="M 220 130 L 220 205 L 255 205" class="arrow"/>
  <text x="175" y="122" text-anchor="middle" class="label-arrow">Assigned to</text>

  <!-- Built-in roles → Users (straight right) -->
  <line x1="390" y1="35" x2="675" y2="35" class="arrow"/>
  <text x="445" y="27" text-anchor="middle" class="label-arrow">Assigned to</text>

  <!-- Custom roles merged outbound: longer horizontal trunk, then splits vertically -->
  <path d="M 390 205 L 490 205" class="arrow-no-head"/>
  <!-- Branch up to Users -->
  <path d="M 490 205 L 490 95 L 730 95 L 730 65" class="arrow"/>
  <!-- Branch up to Groups -->
  <path d="M 490 205 L 490 150 L 525 150" class="arrow"/>
  <!-- Branch down to Admin API Keys -->
  <path d="M 490 205 L 490 275 L 525 275" class="arrow"/>
  <text x="440" y="197" text-anchor="middle" class="label-arrow">Assigned to</text>

  <!-- Arrow: Groups → Users -->
  <path d="M 660 150 L 770 150 L 770 65" class="arrow"/>
  <text x="715" y="142" text-anchor="middle" class="label-arrow">Contains many</text>

</svg>
