<svg xmlns="http://www.w3.org/2000/svg" viewBox="0 0 810 310"><defs><marker id="arrowhead" markerHeight="7" markerWidth="10" orient="auto" refX="9" refY="3.5"><polygon fill="#64748b" points="0 0 10 3.5 0 7"/></marker><filter id="shadow" width="140%" height="140%" x="-20%" y="-20%"><feDropShadow dx="2" dy="2" flood-opacity=".15" stdDeviation="2"/></filter></defs><style>.box{fill:#e0f2fe;stroke:#0284c7;stroke-width:2;rx:8}.label-arrow,.label-bold{font-family:-apple-system,BlinkMacSystemFont,&apos;Segoe UI&apos;,Roboto,sans-serif;font-weight:600}.label-bold{font-size:14px;fill:#1e293b}.label-arrow{font-size:11px;fill:#475569}.arrow{marker-end:url(#arrowhead)}.arrow,.arrow-no-head{stroke:#64748b;stroke-width:2;fill:none}</style><g filter="url(#shadow)"><rect width="120" height="50" x="10" y="105" class="box"/><text x="70" y="135" class="label-bold" text-anchor="middle">Permissions</text></g><g filter="url(#shadow)"><rect width="130" height="50" x="260" y="10" class="box"/><text x="325" y="40" class="label-bold" text-anchor="middle">Built-in roles</text></g><g filter="url(#shadow)"><rect width="130" height="50" x="260" y="180" class="box"/><text x="325" y="210" class="label-bold" text-anchor="middle">Custom roles</text></g><g filter="url(#shadow)"><rect width="120" height="50" x="680" y="10" class="box"/><text x="740" y="40" class="label-bold" text-anchor="middle">Users</text></g><g filter="url(#shadow)"><rect width="130" height="50" x="530" y="125" class="box"/><text x="595" y="155" class="label-bold" text-anchor="middle">Groups</text></g><g filter="url(#shadow)"><rect width="130" height="50" x="530" y="250" class="box"/><text x="595" y="280" class="label-bold" text-anchor="middle">Admin API Keys</text></g><path d="M 130 130 L 220 130" class="arrow-no-head"/><path d="M 220 130 L 220 35 L 255 35" class="arrow"/><path d="M 220 130 L 220 205 L 255 205" class="arrow"/><text x="175" y="122" class="label-arrow" text-anchor="middle">Assigned to</text><line x1="390" x2="675" y1="35" y2="35" class="arrow"/><text x="445" y="27" class="label-arrow" text-anchor="middle">Assigned to</text><path d="M 390 205 L 490 205" class="arrow-no-head"/><path d="M 490 205 L 490 95 L 730 95 L 730 65" class="arrow"/><path d="M 490 205 L 490 150 L 525 150" class="arrow"/><path d="M 490 205 L 490 275 L 525 275" class="arrow"/><text x="440" y="197" class="label-arrow" text-anchor="middle">Assigned to</text><path d="M 660 150 L 770 150 L 770 65" class="arrow"/><text x="715" y="142" class="label-arrow" text-anchor="middle">Contains many</text></svg>