<svg xmlns="http://www.w3.org/2000/svg" xmlns:xlink="http://www.w3.org/1999/xlink" width="441" height="428" style="background-color:#fff" viewBox="-0.5 -0.5 441 428"><style>.B{pointer-events:all}.C{stroke-miterlimit:10}.D{fill:none}.E{font-family:Helvetica}.F{font-size:12px}.G{text-anchor:middle}.H{fill:#000}.I{stroke:#000}.J{pointer-events:stroke}</style><rect width="440" height="60" y="227" fill="#d5e8d4" stroke="#82b366" class="B" rx="9"/><text x="219.5" y="260.5" class="E F G H">REST API (Django Rest Framework/Python)</text><g class="C I"><path d="M80 183.37V202l-.27 18.57" class="D J"/><path d="m80 178.12 3.5 7-3.5-1.75-3.5 1.75zm-.34 47.7-3.4-7.05 3.47 1.8 3.53-1.7z" class="B"/></g><rect width="160" height="60" y="117" fill="#e1d5e7" stroke="#9673a6" class="B" rx="9"/><text x="79.5" y="150.5" class="E F G H">Flagsmith Dashboard...</text><g class="C I"><path d="M310 340.63V317l-.19-23.03" class="D J"/><path d="m310 345.88-3.5-7 3.5 1.75 3.5-1.75zm-.23-57.16 3.56 6.97-3.52-1.72-3.48 1.78z" class="B"/></g><g stroke="#6c8ebf" class="B C"><use xlink:href="#B" fill="#dae8fc"/><path d="M360 362c0 8.28-22.39 15-50 15s-50-6.72-50-15" class="D"/></g><text x="309.5" y="402.5" class="E F G H">PostgreSQL</text><g class="C I"><path d="M385.3 80.22v70.18l-.28 70.35" class="D J"/><path d="m385.3 74.97 3.5 7-3.5-1.75-3.5 1.75zM385 226l-3.47-7.01 3.49 1.76 3.51-1.73z" class="B"/></g><path fill="#232f3e" d="M379.66 23.37c.22 0 .4.17.4.39a.4.4 0 0 1-.4.39c-.21 0-.39-.18-.39-.39a.39.39 0 0 1 .39-.39m0 2.69a2.3 2.3 0 0 0 0-4.6 2.3 2.3 0 0 0 0 4.6m4.34-1.05h6.81v-2.54H384zm11.64 46.3h-20.79c-1.27 0-2.31-1.01-2.31-2.26v-1.79h25.41v1.79c0 1.25-1.04 2.26-2.31 2.26m-23.1-41.98h25.41v35.39h-25.41V52.39zm3.37-8.64h18.67c1.86 0 3.37 1.48 3.37 3.3v2.8h-25.41v-2.8c0-1.82 1.51-3.3 3.37-3.3m18.69-2.54h-18.69c-3.26 0-5.91 2.62-5.91 5.84v45.06c0 2.65 2.17 4.8 4.85 4.8h20.79c2.68 0 4.85-2.15 4.85-4.8V23.99c0-3.22-2.64-5.83-5.89-5.84" class="B"/><text x="384.5" y="13.5" fill="#232f3e" class="E F G">SDK C...</text><g class="C I"><path d="M130 340.63V317l-.16-23.51" class="D J"/><path d="m130 345.88-3.5-7 3.5 1.75 3.5-1.75zm-.19-57.64 3.54 6.97-3.51-1.72-3.49 1.77z" class="B"/></g><g stroke="#6c8ebf" class="B C"><use xlink:href="#B" x="-180" fill="#dae8fc"/><path d="M180 362c0 8.28-22.39 15-50 15s-50-6.72-50-15" class="D"/></g><text x="129.5" y="402.5" class="E F G H">InfluxDB...</text><g class="C I"><path d="M80 69.37v41.26" class="D J"/><path d="m80 64.12 3.5 7-3.5-1.75-3.5 1.75zm0 51.76-3.5-7 3.5 1.75 3.5-1.75z" class="B"/></g><path fill="#505050" d="M84.53 60.86c.56 0 .95-.22.84-.38l-1.11-1.62c-.14-.25-.34-.29-.67-.29h-7.18c-.35 0-.53.05-.7.3l-1.03 1.6c-.2.25.4.39.83.39zm16.79-5.25V31.96H58.65v23.65zM54 63c-1.13-.01-2.15-.38-2.58-.97-.42-.57-.25-1.14.11-1.53l4.13-4.15V31.83c0-1.23 1.12-2.83 2.97-2.83h42.7c1.44 0 2.98 1.14 2.98 2.99v24.36l4.17 4.19c.35.39.52.91.1 1.47-.55.71-1.59.94-2.56.99z" class="B"/><text x="79.5" y="25.5" class="E F G H">Developer</text><g class="C I"><path d="M275 75.37V148l.81 71.67" class="D J"/><path d="m275 70.12 3.5 7-3.5-1.75-3.5 1.75zm.87 154.8-3.58-6.96 3.52 1.71 3.48-1.79z" class="B"/></g><path fill="#505050" d="M280.47 66.11c.67 0 1.14-.3 1.01-.52l-1.34-2.19c-.17-.33-.41-.4-.8-.4h-8.68c-.42 0-.63.08-.84.41l-1.24 2.16c-.24.35.48.54 1 .54zM300.73 59V27h-51.49v32zm-57.1 10c-1.38-.01-2.61-.52-3.12-1.31-.51-.77-.31-1.54.13-2.08l4.98-5.61V26.83c0-1.67 1.35-3.83 3.59-3.83h51.53c1.74 0 3.6 1.55 3.6 4.04V60l5.03 5.67c.43.53.63 1.24.12 2-.66.96-1.91 1.26-3.09 1.33z" class="B"/><text x="274.5" y="19.5" class="E F G H">SDK Client</text><defs><path id="B" d="M260 362c0-8.28 22.39-15 50-15 13.26 0 25.98 1.58 35.36 4.39 9.37 2.82 14.64 6.63 14.64 10.61v50c0 8.28-22.39 15-50 15s-50-6.72-50-15z"/></defs></svg>