<svg height="663" viewBox="0 0 1129 663" width="1129" xmlns="http://www.w3.org/2000/svg"><circle cx="321" cy="321" fill="#f2f2f2" r="321"/><ellipse cx="559" cy="635.49998" fill="#3f3d56" rx="514" ry="27.50002"/><ellipse cx="558" cy="627" opacity=".2" rx="460" ry="22"/><path d="m131 152.5h840v50h-840z" fill="#3f3d56"/><path d="m166.5 727.3299a21.67009 21.67009 0 0 0 21.6701 21.6701h796.6598a21.67009 21.67009 0 0 0 21.6701-21.6701v-431.3299h-840z" fill="#3f3d56" transform="translate(-35.5 -118.5)"/><path d="m984.8299 236h-796.6598a21.67009 21.67009 0 0 0 -21.6701 21.6701v38.3299h840v-38.3299a21.67009 21.67009 0 0 0 -21.6701-21.6701z" fill="#3f3d56" transform="translate(-35.5 -118.5)"/><path d="m984.8299 236h-796.6598a21.67009 21.67009 0 0 0 -21.6701 21.6701v38.3299h840v-38.3299a21.67009 21.67009 0 0 0 -21.6701-21.6701z" opacity=".2" transform="translate(-35.5 -118.5)"/><circle cx="181" cy="147.5" fill="#3f3d56" r="13"/><circle cx="217" cy="147.5" fill="#3f3d56" r="13"/><circle cx="253" cy="147.5" fill="#3f3d56" r="13"/><rect fill="#606060" height="386" rx="5.33505" width="337" x="168" y="213.5"/><rect fill="#2e8555" height="22" rx="5.47638" width="284" x="603" y="272.5"/><rect fill="#2e8555" height="15" rx="5.47638" width="416" x="537" y="352.5"/><rect fill="#2e8555" height="15" rx="5.47638" width="416" x="537" y="396.5"/><rect fill="#2e8555" height="15" rx="5.47638" width="416" x="537" y="440.5"/><rect fill="#2e8555" height="15" rx="5.47638" width="416" x="537" y="484.5"/><rect fill="#3ecc5f" height="26" rx="7.02756" width="88" x="865" y="552.5"/><path d="m1088.60287 624.61594a30.11371 30.11371 0 0 0 3.98291-15.266c0-13.79652-8.54358-24.98081-19.08256-24.98081s-19.08256 11.18429-19.08256 24.98081a30.11411 30.11411 0 0 0 3.98291 15.266 31.248 31.248 0 0 0 0 30.53213 31.248 31.248 0 0 0 0 30.53208 31.248 31.248 0 0 0 0 30.53208 30.11408 30.11408 0 0 0 -3.98291 15.266c0 13.79652 8.54353 24.98081 19.08256 24.98081s19.08256-11.18429 19.08256-24.98081a30.11368 30.11368 0 0 0 -3.98291-15.266 31.248 31.248 0 0 0 0-30.53208 31.248 31.248 0 0 0 0-30.53208 31.248 31.248 0 0 0 0-30.53213z" fill="#3f3d56" transform="translate(-35.5 -118.5)"/><ellipse cx="1038.00321" cy="460.31783" fill="#3f3d56" rx="19.08256" ry="24.9808"/><ellipse cx="1038.00321" cy="429.78574" fill="#3f3d56" rx="19.08256" ry="24.9808"/><g transform="translate(-35.5 -118.5)"><path d="m1144.93871 339.34489a91.61081 91.61081 0 0 0 7.10658-10.46092l-50.141-8.23491 54.22885.4033a91.566 91.566 0 0 0 1.74556-72.42605l-72.75449 37.74139 67.09658-49.32086a91.41255 91.41255 0 1 0 -150.971 102.29805 91.45842 91.45842 0 0 0 -10.42451 16.66946l65.0866 33.81447-69.40046-23.292a91.46011 91.46011 0 0 0 14.73837 85.83669 91.40575 91.40575 0 1 0 143.68892 0 91.41808 91.41808 0 0 0 0-113.02862z" fill="#3ecc5f" fill-rule="evenodd"/><path d="m981.6885 395.8592a91.01343 91.01343 0 0 0 19.56129 56.51431 91.40575 91.40575 0 1 0 143.68892 0c12.25111-15.55284-163.25021-66.77343-163.25021-56.51431z" opacity=".1"/><path d="m365.62 461.43628h111.474v45.12043h-111.474z" fill="#fff" fill-rule="evenodd"/><path d="m264.76252 608.74122a26.50931 26.50931 0 0 1 -22.96231-13.27072 26.50976 26.50976 0 0 0 22.96231 39.81215h26.54148v-26.54143z" fill="#3ecc5f" fill-rule="evenodd"/><path d="m384.17242 468.57061 92.92155-5.80726v-13.27072a26.54091 26.54091 0 0 0 -26.54143-26.54143h-119.43644l-3.31768-5.74622a3.83043 3.83043 0 0 0 -6.63536 0l-3.31768 5.74622-3.31767-5.74622a3.83043 3.83043 0 0 0 -6.63536 0l-3.31768 5.74622-3.31767-5.7462a3.83043 3.83043 0 0 0 -6.63536 0l-3.31764 5.7462c-.02919 0-.05573.004-.08625.004l-5.49674-5.49541a3.8293 3.8293 0 0 0 -6.4071 1.71723l-1.81676 6.77338-6.89015-1.8473a3.82993 3.82993 0 0 0 -4.6912 4.69253l1.84463 6.89148-6.77072 1.81411a3.8315 3.8315 0 0 0 -1.71988 6.40975l5.49673 5.49673c0 .02787-.004.05574-.004.08493l-5.74622 3.31768a3.83043 3.83043 0 0 0 0 6.63536l5.74621 3.31768-5.74625 3.31765a3.83043 3.83043 0 0 0 0 6.63536l5.74622 3.31768-5.74622 3.31767a3.83043 3.83043 0 0 0 0 6.63536l5.74622 3.31768-5.74622 3.31768a3.83043 3.83043 0 0 0 0 6.63536l5.74622 3.31768-5.74622 3.31767a3.83043 3.83043 0 0 0 0 6.63536l5.74622 3.31768-5.74622 3.31768a3.83043 3.83043 0 0 0 0 6.63536l5.74622 3.31768-5.74622 3.31768a3.83042 3.83042 0 0 0 0 6.63535l5.74622 3.31768-5.74622 3.31768a3.83043 3.83043 0 0 0 0 6.63536l5.74622 3.31768-5.74622 3.31767a3.83042 3.83042 0 0 0 0 6.63535l5.74622 3.31768-5.74622 3.31768a3.83043 3.83043 0 0 0 0 6.63536l5.74622 3.31768-5.74622 3.31768a3.83042 3.83042 0 0 0 0 6.63535l5.74622 3.31768-5.74622 3.31768a3.83043 3.83043 0 0 0 0 6.63536l5.74622 3.31768a26.54091 26.54091 0 0 0 26.54148 26.54147h159.24854a26.5409 26.5409 0 0 0 26.54146-26.54143v-106.16572l-92.92155-5.80727a14.12639 14.12639 0 0 1 0-28.19762" fill="#3ecc5f" fill-rule="evenodd"/><path d="m424.01111 635.28265h39.81214v-53.08286h-39.81214z" fill="#3ecc5f" fill-rule="evenodd"/><path d="m490.36468 602.10586a6.60242 6.60242 0 0 0 -.848.08493c-.05042-.19906-.09821-.39945-.15393-.59852a6.62668 6.62668 0 1 0 -6.55707-11.38227q-.2203-.22491-.44457-.44589a6.62391 6.62391 0 1 0 -11.39689-6.56369c-.1964-.05575-.39414-.10218-.59056-.15262a6.63957 6.63957 0 1 0 -13.10086 0c-.1964.05042-.39414.09687-.59056.15262a6.62767 6.62767 0 1 0 -11.39688 6.56369 26.52754 26.52754 0 1 0 44.23127 25.52756 6.6211 6.6211 0 1 0 .848-13.18579" fill="#44d860" fill-rule="evenodd"/><path d="m437.28182 555.65836h39.81218v-26.54143h-39.81218z" fill="#3ecc5f" fill-rule="evenodd"/><path d="m490.36468 545.70532a3.31768 3.31768 0 0 0 0-6.63536 3.41133 3.41133 0 0 0 -.42333.04247c-.02655-.09953-.04911-.19907-.077-.29859a3.319 3.319 0 0 0 -1.278-6.37923 3.28174 3.28174 0 0 0 -2.00122.68742q-.10947-.11346-.22294-.22295a3.282 3.282 0 0 0 .67149-1.98265 3.31768 3.31768 0 0 0 -6.37-1.2992 13.27078 13.27078 0 1 0 0 25.54082 3.31768 3.31768 0 0 0 6.37-1.2992 3.282 3.282 0 0 0 -.67149-1.98265q.11347-.10947.22294-.22294a3.28174 3.28174 0 0 0 2.00122.68742 3.31768 3.31768 0 0 0 1.278-6.37923c.02786-.0982.05042-.19907.077-.29859a3.41325 3.41325 0 0 0 .42333.04246" fill="#44d860" fill-rule="evenodd"/><path d="m317.84538 466.081a3.31768 3.31768 0 0 1 -3.31767-3.31768 9.953 9.953 0 1 0 -19.90608 0 3.31768 3.31768 0 1 1 -6.63535 0 16.58839 16.58839 0 1 1 33.17678 0 3.31768 3.31768 0 0 1 -3.31768 3.31768" fill-rule="evenodd"/><path d="m370.92825 635.28265h79.62429a26.5409 26.5409 0 0 0 26.54146-26.54143v-92.895h-79.62432a26.54091 26.54091 0 0 0 -26.54143 26.54143z" fill="#ffff50" fill-rule="evenodd"/><path d="m457.21444 556.98543h-66.40666a1.32707 1.32707 0 0 1 0-2.65414h66.40666a1.32707 1.32707 0 0 1 0 2.65414m0 26.54143h-66.40666a1.32707 1.32707 0 1 1 0-2.65414h66.40666a1.32707 1.32707 0 0 1 0 2.65414m0 26.54143h-66.40666a1.32707 1.32707 0 1 1 0-2.65414h66.40666a1.32707 1.32707 0 0 1 0 2.65414m0-66.10674h-66.40666a1.32707 1.32707 0 0 1 0-2.65414h66.40666a1.32707 1.32707 0 0 1 0 2.65414m0 26.29459h-66.40666a1.32707 1.32707 0 0 1 0-2.65414h66.40666a1.32707 1.32707 0 0 1 0 2.65414m0 26.54143h-66.40666a1.32707 1.32707 0 0 1 0-2.65414h66.40666a1.32707 1.32707 0 0 1 0 2.65414m19.87956-122.60681c-.01592 0-.0292-.008-.04512-.00663-4.10064.13934-6.04083 4.24132-7.75274 7.86024-1.78623 3.78215-3.16771 6.24122-5.43171 6.16691-2.50685-.09024-3.94007-2.92222-5.45825-5.91874-1.74377-3.44243-3.73438-7.34667-7.91333-7.20069-4.04227.138-5.98907 3.70784-7.70631 6.857-1.82738 3.35484-3.07084 5.39455-5.46887 5.30033-2.55727-.09289-3.91619-2.39536-5.48877-5.06013-1.75306-2.96733-3.77951-6.30359-7.8775-6.18946-3.97326.13669-5.92537 3.16507-7.64791 5.83912-1.82207 2.82666-3.09872 4.5492-5.52725 4.447-2.61832-.09289-3.9706-2.00388-5.53522-4.21611-1.757-2.4856-3.737-5.299-7.82308-5.16231-3.88567.13271-5.83779 2.61434-7.559 4.80135-1.635 2.07555-2.9116 3.71846-5.61218 3.615a1.32793 1.32793 0 1 0 -.09555 2.65414c4.00377.134 6.03154-2.38873 7.79257-4.6275 1.562-1.9853 2.91027-3.69855 5.56441-3.78879 2.55594-.10882 3.75429 1.47968 5.56707 4.04093 1.7212 2.43385 3.67465 5.19416 7.60545 5.33616 4.11789.138 6.09921-2.93946 7.8536-5.66261 1.56861-2.43385 2.92221-4.53461 5.50734-4.62352 2.37944-.08892 3.67466 1.79154 5.50072 4.885 1.72121 2.91557 3.67069 6.21865 7.67977 6.36463 4.14709.14332 6.14965-3.47693 7.89475-6.68181 1.51155-2.77092 2.93814-5.38791 5.46621-5.4755 2.37944-.05573 3.62025 2.11668 5.45558 5.74622 1.71459 3.388 3.65875 7.22591 7.73019 7.37321l.22429.004c4.06614 0 5.99571-4.08074 7.70364-7.68905 1.51154-3.19825 2.94211-6.21069 5.3972-6.33411z" fill-rule="evenodd"/><path d="m344.38682 635.28265h53.08286v-53.08286h-53.08286z" fill="#3ecc5f" fill-rule="evenodd"/><path d="m424.01111 602.10586a6.60242 6.60242 0 0 0 -.848.08493c-.05042-.19906-.09821-.39945-.15394-.59852a6.62667 6.62667 0 1 0 -6.55706-11.38227q-.2203-.22491-.44458-.44589a6.62391 6.62391 0 1 0 -11.39689-6.56369c-.1964-.05575-.39413-.10218-.59054-.15262a6.63957 6.63957 0 1 0 -13.10084 0c-.19641.05042-.39414.09687-.59055.15262a6.62767 6.62767 0 1 0 -11.39689 6.56369 26.52755 26.52755 0 1 0 44.2313 25.52756 6.6211 6.6211 0 1 0 .848-13.18579" fill="#44d860" fill-rule="evenodd"/><path d="m344.38682 555.65836h53.08286v-26.54143h-53.08286z" fill="#3ecc5f" fill-rule="evenodd"/><path d="m410.74039 545.70532a3.31768 3.31768 0 1 0 0-6.63536 3.41133 3.41133 0 0 0 -.42333.04247c-.02655-.09953-.04911-.19907-.077-.29859a3.319 3.319 0 0 0 -1.278-6.37923 3.28174 3.28174 0 0 0 -2.00122.68742q-.10947-.11346-.22294-.22295a3.282 3.282 0 0 0 .67149-1.98265 3.31768 3.31768 0 0 0 -6.37-1.2992 13.27078 13.27078 0 1 0 0 25.54082 3.31768 3.31768 0 0 0 6.37-1.2992 3.282 3.282 0 0 0 -.67149-1.98265q.11347-.10947.22294-.22294a3.28174 3.28174 0 0 0 2.00122.68742 3.31768 3.31768 0 0 0 1.278-6.37923c.02786-.0982.05042-.19907.077-.29859a3.41325 3.41325 0 0 0 .42333.04246" fill="#44d860" fill-rule="evenodd"/><path d="m424.01111 447.8338a3.60349 3.60349 0 0 1 -.65028-.06636 3.34415 3.34415 0 0 1 -.62372-.18579 3.44679 3.44679 0 0 1 -.572-.30522 5.02708 5.02708 0 0 1 -.50429-.4114 3.88726 3.88726 0 0 1 -.41007-.50428 3.27532 3.27532 0 0 1 -.55737-1.84463 3.60248 3.60248 0 0 1 .06636-.65027 3.82638 3.82638 0 0 1 .18447-.62373 3.48858 3.48858 0 0 1 .30656-.57064 3.197 3.197 0 0 1 .91436-.91568 3.44685 3.44685 0 0 1 .572-.30523 3.344 3.344 0 0 1 .62372-.18578 3.06907 3.06907 0 0 1 1.30053 0 3.22332 3.22332 0 0 1 1.19436.491 5.02835 5.02835 0 0 1 .50429.41139 4.8801 4.8801 0 0 1 .41139.50429 3.38246 3.38246 0 0 1 .30522.57064 3.47806 3.47806 0 0 1 .25215 1.274 3.36394 3.36394 0 0 1 -.96879 2.34889 5.02708 5.02708 0 0 1 -.50429.4114 3.3057 3.3057 0 0 1 -1.84463.55737m26.54143-1.65884a3.38754 3.38754 0 0 1 -2.35024-.96877 5.04185 5.04185 0 0 1 -.41007-.50428 3.27532 3.27532 0 0 1 -.55737-1.84463 3.38659 3.38659 0 0 1 .96744-2.34892 5.02559 5.02559 0 0 1 .50429-.41139 3.44685 3.44685 0 0 1 .572-.30523 3.3432 3.3432 0 0 1 .62373-.18579 3.06952 3.06952 0 0 1 1.30052 0 3.22356 3.22356 0 0 1 1.19436.491 5.02559 5.02559 0 0 1 .50429.41139 3.38792 3.38792 0 0 1 .96876 2.34892 3.72635 3.72635 0 0 1 -.06636.65026 3.37387 3.37387 0 0 1 -.18579.62373 4.71469 4.71469 0 0 1 -.30522.57064 4.8801 4.8801 0 0 1 -.41139.50429 5.02559 5.02559 0 0 1 -.50429.41139 3.30547 3.30547 0 0 1 -1.84463.55737" fill-rule="evenodd"/></g></svg>