<svg height="687.962" viewBox="0 0 1088 687.962" width="1088" xmlns="http://www.w3.org/2000/svg"><g><path d="m1017.81 560.461c-5.27 45.15-16.22 81.4-31.25 110.31-20 38.52-54.21 54.04-84.77 70.28a193.275 193.275 0 0 1 -27.46 11.94c-55.61 19.3-117.85 14.18-166.74 3.99a657.282 657.282 0 0 0 -104.09-13.16q-14.97-.675-29.97-.67c-15.42.02-293.07 5.29-360.67-131.57-16.69-33.76-28.13-75-32.24-125.27-11.63-142.12 52.29-235.46 134.74-296.47 155.97-115.41 369.76-110.57 523.43 7.88 102.36 78.9 198.2 198.31 179.02 362.74z" fill="#3f3d56" transform="translate(-56 -106.019)"/><path d="m986.56 670.771c-20 38.52-47.21 64.04-77.77 80.28a193.272 193.272 0 0 1 -27.46 11.94c-55.61 19.3-117.85 14.18-166.74 3.99a657.3 657.3 0 0 0 -104.09-13.16q-14.97-.675-29.97-.67-23.13.03-46.25 1.72c-100.17 7.36-253.82-6.43-321.42-143.29l169.14-327.6 62.95 161.619 20.09 51.59 55.37-75.98 28.59-39.229 130.2 149.27 36.8-81.27 254.78 207.919 14.21 11.59z" fill="#f2f2f2" transform="translate(-56 -106.019)"/><path d="m302 282.962 26-57 36 83-31-60z" opacity=".1"/><path d="m610.5 753.821q-14.97-.675-29.97-.67l-115.49-255.96z" opacity=".1" transform="translate(-56 -106.019)"/><path d="m464.411 315.191 28.589-22.229 130 150-132-128z" opacity=".1"/><path d="m908.79 751.051a193.265 193.265 0 0 1 -27.46 11.94l-202.13-231.74z" opacity=".1" transform="translate(-56 -106.019)"/><circle cx="482" cy="101.962" fill="#f2f2f2" r="3"/><circle cx="399" cy="204.962" fill="#f2f2f2" r="3"/><circle cx="602" cy="222.962" fill="#f2f2f2" r="2"/><circle cx="182" cy="267.962" fill="#f2f2f2" r="2"/><circle cx="614" cy="98.962" fill="#f2f2f2" r="2"/><circle cx="738" cy="194.962" fill="#f2f2f2" r="2"/><circle cx="860" cy="346.962" fill="#f2f2f2" r="2"/><path d="m306 121.222h-2.76v-2.76h-1.48v2.76h-2.76v1.478h2.76v2.759h1.48v-2.759h2.76z" fill="#f2f2f2"/><path d="m848 424.222h-2.76v-2.76h-1.48v2.76h-2.76v1.478h2.76v2.759h1.48v-2.759h2.76z" fill="#f2f2f2"/><path d="m1144 719.981c0 16.569-243.557 74-544 74s-544-57.431-544-74 243.557 14 544 14 544-30.568 544-14z" fill="#3f3d56" transform="translate(-56 -106.019)"/><path d="m1144 719.981c0 16.569-243.557 74-544 74s-544-57.431-544-74 243.557 14 544 14 544-30.568 544-14z" opacity=".1" transform="translate(-56 -106.019)"/><ellipse cx="544" cy="613.962" fill="#3f3d56" rx="544" ry="30"/><path d="m624 677.981c0 33.137-14.775 24-33 24s-33 9.137-33-24 33-96 33-96 33 62.863 33 96z" fill="#ff6584" transform="translate(-56 -106.019)"/><path d="m606 690.66c0 15.062-6.716 10.909-15 10.909s-15 4.153-15-10.909 15-43.636 15-43.636 15 28.576 15 43.636z" opacity=".1" transform="translate(-56 -106.019)"/><rect fill="#2f2e41" height="18" rx="9" width="92" x="489" y="604.962"/><rect fill="#2f2e41" height="18" rx="9" width="92" x="489" y="586.962"/><g transform="translate(-56 -106.019)"><path d="m193 596.547c0 55.343 34.719 100.126 77.626 100.126" fill="#3f3d56"/><path d="m270.626 696.673c0-55.965 38.745-101.251 86.626-101.251" fill="#6c63ff"/><path d="m221.125 601.564c0 52.57 22.14 95.109 49.5 95.109" fill="#6c63ff"/><path d="m270.626 696.673c0-71.511 44.783-129.377 100.126-129.377" fill="#3f3d56"/><path d="m254.3 697.379s11.009-.339 14.326-2.7 16.934-5.183 17.757-1.395 16.544 18.844 4.115 18.945-28.879-1.936-32.19-3.953-4.008-10.897-4.008-10.897z" fill="#a8a8a8"/><path d="m290.716 710.909c-12.429.1-28.879-1.936-32.19-3.953-2.522-1.536-3.527-7.048-3.863-9.591l-.368.014s.7 8.879 4.009 10.9 19.761 4.053 32.19 3.953c3.588-.029 4.827-1.305 4.759-3.2-.498 1.142-1.867 1.855-4.537 1.877z" opacity=".2"/><path d="m777.429 633.081c0 38.029 23.857 68.8 53.341 68.8" fill="#3f3d56"/><path d="m830.769 701.882c0-38.456 26.623-69.575 59.525-69.575" fill="#6c63ff"/><path d="m796.755 636.528c0 36.124 15.213 65.354 34.014 65.354" fill="#6c63ff"/><path d="m830.769 701.882c0-49.139 30.773-88.9 68.8-88.9" fill="#3f3d56"/><path d="m819.548 702.367s7.565-.233 9.844-1.856 11.636-3.562 12.2-.958 11.368 12.949 2.828 13.018-19.844-1.33-22.119-2.716-2.753-7.488-2.753-7.488z" fill="#a8a8a8"/><path d="m844.574 711.664c-8.54.069-19.844-1.33-22.119-2.716-1.733-1.056-2.423-4.843-2.654-6.59l-.253.01s.479 6.1 2.755 7.487 13.579 2.785 22.119 2.716c2.465-.02 3.317-.9 3.27-2.2-.343.788-1.283 1.278-3.118 1.293z" opacity=".2"/><path d="m949.813 724.718s11.36-1.729 14.5-4.591 16.89-7.488 18.217-3.667 19.494 17.447 6.633 19.107-30.153 1.609-33.835-.065-5.515-10.784-5.515-10.784z" fill="#a8a8a8"/><path d="m989.228 734.173c-12.86 1.659-30.153 1.609-33.835-.065-2.8-1.275-4.535-6.858-5.2-9.45l-.379.061s1.833 9.109 5.516 10.783 20.975 1.725 33.835.065c3.712-.479 4.836-1.956 4.529-3.906-.375 1.246-1.703 2.156-4.466 2.512z" opacity=".2"/><path d="m670.26 723.9s9.587-1.459 12.237-3.875 14.255-6.32 15.374-3.095 16.452 14.725 5.6 16.125-25.448 1.358-28.555-.055-4.656-9.1-4.656-9.1z" fill="#a8a8a8"/><path d="m703.524 731.875c-10.853 1.4-25.448 1.358-28.555-.055-2.367-1.076-3.827-5.788-4.39-7.976l-.32.051s1.547 7.687 4.655 9.1 17.7 1.456 28.555.055c3.133-.4 4.081-1.651 3.822-3.3-.314 1.057-1.435 1.825-3.767 2.125z" opacity=".2"/><path d="m178.389 719.109s7.463-1.136 9.527-3.016 11.1-4.92 11.969-2.409 12.808 11.463 4.358 12.553-19.811 1.057-22.23-.043-3.624-7.085-3.624-7.085z" fill="#a8a8a8"/><path d="m204.285 725.321c-8.449 1.09-19.811 1.057-22.23-.043-1.842-.838-2.979-4.506-3.417-6.209l-.249.04s1.2 5.984 3.624 7.085 13.781 1.133 22.23.043c2.439-.315 3.177-1.285 2.976-2.566-.246.818-1.119 1.416-2.934 1.65z" opacity=".2"/><path d="m439.7 707.337c0 30.22-42.124 20.873-93.7 20.873s-93.074 9.347-93.074-20.873 42.118-36.793 93.694-36.793 93.08 6.573 93.08 36.793z" opacity=".1"/><path d="m439.7 699.9c0 30.22-42.124 20.873-93.7 20.873s-93.074 9.347-93.074-20.873 42.114-36.8 93.69-36.8 93.084 6.576 93.084 36.8z" fill="#3f3d56"/></g></g><g fill-rule="evenodd"><path d="m99 52h91.791v37.153h-91.791z" fill="#fff" transform="translate(261.175 423.732)"/><path d="m24.855 163.927a21.828 21.828 0 0 1 -18.908-10.927 21.829 21.829 0 0 0 18.908 32.782h21.855v-21.855z" fill="#3ecc5f" transform="translate(252.271 433.099)"/><path d="m121.861 61.1 76.514-4.782v-10.928a21.854 21.854 0 0 0 -21.855-21.855h-98.347l-2.732-4.735a3.154 3.154 0 0 0 -5.464 0l-2.732 4.732-2.732-4.732a3.154 3.154 0 0 0 -5.464 0l-2.732 4.732-2.731-4.732a3.154 3.154 0 0 0 -5.464 0l-2.732 4.735c-.024 0-.046 0-.071 0l-4.526-4.525a3.153 3.153 0 0 0 -5.276 1.414l-1.5 5.577-5.674-1.521a3.154 3.154 0 0 0 -3.863 3.864l1.52 5.679-5.575 1.494a3.155 3.155 0 0 0 -1.416 5.278l4.526 4.526v.07l-4.735 2.731a3.154 3.154 0 0 0 0 5.464l4.732 2.732-4.732 2.732a3.154 3.154 0 0 0 0 5.464l4.732 2.732-4.732 2.731a3.154 3.154 0 0 0 0 5.464l4.732 2.732-4.732 2.727a3.154 3.154 0 0 0 0 5.464l4.735 2.736-4.735 2.732a3.154 3.154 0 0 0 0 5.464l4.732 2.732-4.732 2.732a3.154 3.154 0 0 0 0 5.464l4.732 2.732-4.732 2.731a3.154 3.154 0 0 0 0 5.464l4.732 2.732-4.732 2.732a3.154 3.154 0 0 0 0 5.464l4.732 2.732-4.732 2.731a3.154 3.154 0 0 0 0 5.464l4.732 2.732-4.732 2.731a3.154 3.154 0 0 0 0 5.464l4.732 2.732-4.732 2.735a3.154 3.154 0 0 0 0 5.464l4.732 2.732-4.732 2.728a3.154 3.154 0 0 0 0 5.464l4.732 2.732a21.854 21.854 0 0 0 21.858 21.855h131.13a21.854 21.854 0 0 0 21.855-21.855v-87.42l-76.514-4.782a11.632 11.632 0 0 1 0-23.219" fill="#3ecc5f" transform="translate(253.59 420.507)"/><path d="m143 186.71h32.782v-43.71h-32.782z" fill="#3ecc5f" transform="translate(265.255 432.172)"/><path d="m196.71 159.855a5.438 5.438 0 0 0 -.7.07c-.042-.164-.081-.329-.127-.493a5.457 5.457 0 1 0 -5.4-9.372q-.181-.185-.366-.367a5.454 5.454 0 1 0 -9.384-5.4c-.162-.046-.325-.084-.486-.126a5.467 5.467 0 1 0 -10.788 0c-.162.042-.325.08-.486.126a5.457 5.457 0 1 0 -9.384 5.4 21.843 21.843 0 1 0 36.421 21.02 5.452 5.452 0 1 0 .7-10.858" fill="#44d860" transform="translate(266.183 431.708)"/><path d="m153 124.855h32.782v-21.855h-32.782z" fill="#3ecc5f" transform="translate(266.183 428.462)"/><path d="m194.855 116.765a2.732 2.732 0 1 0 0-5.464 2.811 2.811 0 0 0 -.349.035c-.022-.082-.04-.164-.063-.246a2.733 2.733 0 0 0 -1.052-5.253 2.7 2.7 0 0 0 -1.648.566q-.09-.093-.184-.184a2.7 2.7 0 0 0 .553-1.633 2.732 2.732 0 0 0 -5.245-1.07 10.928 10.928 0 1 0 0 21.031 2.732 2.732 0 0 0 5.245-1.07 2.7 2.7 0 0 0 -.553-1.633q.093-.09.184-.184a2.7 2.7 0 0 0 1.648.566 2.732 2.732 0 0 0 1.052-5.253c.023-.081.042-.164.063-.246a2.814 2.814 0 0 0 .349.035" fill="#44d860" transform="translate(268.038 428.356)"/><path d="m65.087 56.891a2.732 2.732 0 0 1 -2.732-2.732 8.2 8.2 0 0 0 -16.391 0 2.732 2.732 0 0 1 -5.464 0 13.659 13.659 0 0 1 27.319 0 2.732 2.732 0 0 1 -2.732 2.732" transform="translate(255.749 422.665)"/><path d="m103 191.347h65.565a21.854 21.854 0 0 0 21.855-21.855v-76.492h-65.565a21.854 21.854 0 0 0 -21.855 21.855z" fill="#ffff50" transform="translate(261.546 427.534)"/><path d="m173.216 129.787h-54.681a1.093 1.093 0 1 1 0-2.185h54.681a1.093 1.093 0 0 1 0 2.185m0 21.855h-54.681a1.093 1.093 0 1 1 0-2.186h54.681a1.093 1.093 0 0 1 0 2.186m0 21.855h-54.681a1.093 1.093 0 1 1 0-2.185h54.681a1.093 1.093 0 0 1 0 2.185m0-54.434h-54.681a1.093 1.093 0 1 1 0-2.185h54.681a1.093 1.093 0 0 1 0 2.185m0 21.652h-54.681a1.093 1.093 0 1 1 0-2.186h54.681a1.093 1.093 0 0 1 0 2.186m0 21.855h-54.681a1.093 1.093 0 1 1 0-2.186h54.681a1.093 1.093 0 0 1 0 2.186m16.369-100.959c-.013 0-.024-.007-.037-.005-3.377.115-4.974 3.492-6.384 6.472-1.471 3.114-2.608 5.139-4.473 5.078-2.064-.074-3.244-2.406-4.494-4.874-1.436-2.835-3.075-6.049-6.516-5.929-3.329.114-4.932 3.053-6.346 5.646-1.5 2.762-2.529 4.442-4.5 4.364-2.106-.076-3.225-1.972-4.52-4.167-1.444-2.443-3.112-5.191-6.487-5.1-3.272.113-4.879 2.606-6.3 4.808-1.5 2.328-2.552 3.746-4.551 3.662-2.156-.076-3.27-1.65-4.558-3.472-1.447-2.047-3.077-4.363-6.442-4.251-3.2.109-4.807 2.153-6.224 3.954-1.346 1.709-2.4 3.062-4.621 2.977a1.093 1.093 0 0 0 -.079 2.186c3.3.11 4.967-1.967 6.417-3.81 1.286-1.635 2.4-3.045 4.582-3.12 2.1-.09 3.091 1.218 4.584 3.327 1.417 2 3.026 4.277 6.263 4.394 3.391.114 5.022-2.42 6.467-4.663 1.292-2 2.406-3.734 4.535-3.807 1.959-.073 3.026 1.475 4.529 4.022 1.417 2.4 3.023 5.121 6.324 5.241 3.415.118 5.064-2.863 6.5-5.5 1.245-2.282 2.419-4.437 4.5-4.509 1.959-.046 2.981 1.743 4.492 4.732 1.412 2.79 3.013 5.95 6.365 6.071h.185c3.348 0 4.937-3.36 6.343-6.331 1.245-2.634 2.423-5.114 4.444-5.216z" transform="translate(262.38 424.623)"/><path d="m83 186.71h43.71v-43.71h-43.71z" fill="#3ecc5f" transform="translate(259.691 432.172)"/></g><g transform="matrix(.966 -.259 .259 .966 364.598 528.818)"><rect fill="#d8d8d8" height="36.462" rx="2" width="92.361"/><g fill="#4a4a4a" transform="translate(1.531 23.03)"><rect height="5.336" rx="1" width="5.336" x="16.797"/><rect height="5.336" rx="1" width="5.336" x="23.12"/><rect height="5.336" rx="1" width="5.336" x="29.444"/><rect height="5.336" rx="1" width="5.336" x="35.768"/><rect height="5.336" rx="1" width="5.336" x="42.091"/><rect height="5.336" rx="1" width="5.336" x="48.415"/><rect height="5.336" rx="1" width="5.336" x="54.739"/><rect height="5.336" rx="1" width="5.336" x="61.063"/><rect height="5.336" rx="1" width="5.336" x="67.386"/><path d="m1.093 0h13.425a1.093 1.093 0 0 1 1.093 1.093v3.15a1.093 1.093 0 0 1 -1.093 1.093h-13.425a1.093 1.093 0 0 1 -1.093-1.093v-3.15a1.093 1.093 0 0 1 1.093-1.093zm73.907 0h13.426a1.093 1.093 0 0 1 1.093 1.093v3.15a1.093 1.093 0 0 1 -1.093 1.093h-13.426a1.093 1.093 0 0 1 -1.093-1.093v-3.15a1.093 1.093 0 0 1 1.093-1.093z" fill-rule="evenodd"/></g><g fill="#4a4a4a" transform="translate(1.531 10.261)"><path d="m1.093 0h5.125a1.093 1.093 0 0 1 1.092 1.093v3.149a1.093 1.093 0 0 1 -1.092 1.093h-5.125a1.093 1.093 0 0 1 -1.093-1.093v-3.149a1.093 1.093 0 0 1 1.093-1.093z" fill-rule="evenodd"/><rect height="5.336" rx="1" width="5.336" x="8.299"/><rect height="5.336" rx="1" width="5.336" x="14.623"/><rect height="5.336" rx="1" width="5.336" x="20.947"/><rect height="5.336" rx="1" width="5.336" x="27.271"/><rect height="5.336" rx="1" width="5.336" x="33.594"/><rect height="5.336" rx="1" width="5.336" x="39.918"/><rect height="5.336" rx="1" width="5.336" x="46.242"/><rect height="5.336" rx="1" width="5.336" x="52.565"/><rect height="5.336" rx="1" width="5.336" x="58.888"/><rect height="5.336" rx="1" width="5.336" x="65.212"/><rect height="5.336" rx="1" width="5.336" x="71.536"/><rect height="5.336" rx="1" width="5.336" x="77.859"/><rect height="5.336" rx="1" width="5.336" x="84.183"/></g><g fill="#4a4a4a" transform="matrix(-1 0 0 -1 91.05 9.546)"><path d="m1.093 0h5.126a1.093 1.093 0 0 1 1.093 1.093v3.15a1.093 1.093 0 0 1 -1.093 1.093h-5.126a1.093 1.093 0 0 1 -1.093-1.093v-3.15a1.093 1.093 0 0 1 1.093-1.093z" fill-rule="evenodd"/><rect height="5.336" rx="1" width="5.336" x="8.299"/><rect height="5.336" rx="1" width="5.336" x="14.623"/><rect height="5.336" rx="1" width="5.336" x="20.947"/><rect height="5.336" rx="1" width="5.336" x="27.271"/><rect height="5.336" rx="1" width="5.336" x="33.594"/><rect height="5.336" rx="1" width="5.336" x="39.918"/><rect height="5.336" rx="1" width="5.336" x="46.242"/><rect height="5.336" rx="1" width="5.336" x="52.565"/><rect height="5.336" rx="1" width="5.336" x="58.889"/><rect height="5.336" rx="1" width="5.336" x="65.213"/><rect height="5.336" rx="1" width="5.336" x="71.537"/><rect height="5.336" rx="1" width="5.336" x="77.86"/><rect height="5.336" rx="1" width="5.336" x="84.183"/><rect height="5.336" rx="1" width="5.336" x="8.299"/><rect height="5.336" rx="1" width="5.336" x="14.623"/><rect height="5.336" rx="1" width="5.336" x="20.947"/><rect height="5.336" rx="1" width="5.336" x="27.271"/><rect height="5.336" rx="1" width="5.336" x="33.594"/><rect height="5.336" rx="1" width="5.336" x="39.918"/><rect height="5.336" rx="1" width="5.336" x="46.242"/><rect height="5.336" rx="1" width="5.336" x="52.565"/><rect height="5.336" rx="1" width="5.336" x="58.889"/><rect height="5.336" rx="1" width="5.336" x="65.213"/><rect height="5.336" rx="1" width="5.336" x="71.537"/><rect height="5.336" rx="1" width="5.336" x="77.86"/><rect height="5.336" rx="1" width="5.336" x="84.183"/></g><g fill="#4a4a4a" transform="translate(1.531 16.584)"><path d="m1.093 0h7.3a1.093 1.093 0 0 1 1.092 1.093v3.15a1.093 1.093 0 0 1 -1.093 1.093h-7.3a1.093 1.093 0 0 1 -1.092-1.093v-3.149a1.093 1.093 0 0 1 1.093-1.094z" fill-rule="evenodd"/><rect height="5.336" rx="1" width="5.336" x="10.671"/><rect height="5.336" rx="1" width="5.336" x="16.995"/><rect height="5.336" rx="1" width="5.336" x="23.318"/><rect height="5.336" rx="1" width="5.336" x="29.642"/><rect height="5.336" rx="1" width="5.336" x="35.966"/><rect height="5.336" rx="1" width="5.336" x="42.29"/><rect height="5.336" rx="1" width="5.336" x="48.613"/><rect height="5.336" rx="1" width="5.336" x="54.936"/><rect height="5.336" rx="1" width="5.336" x="61.26"/><rect height="5.336" rx="1" width="5.336" x="67.583"/><rect height="5.336" rx="1" width="5.336" x="73.907"/><path d="m1.094 0h6.906a1.093 1.093 0 0 1 1.091 1.093v3.15a1.093 1.093 0 0 1 -1.091 1.093h-6.907a1.093 1.093 0 0 1 -1.093-1.093v-3.149a1.093 1.093 0 0 1 1.093-1.094z" fill-rule="evenodd" transform="translate(80.428)"/></g><g fill="#4a4a4a" transform="translate(1.531 29.627)"><rect height="5.336" rx="1" width="5.336"/><rect height="5.336" rx="1" width="5.336" x="6.324"/><rect height="5.336" rx="1" width="5.336" x="12.647"/><rect height="5.336" rx="1" width="5.336" x="18.971"/><path d="m1.093 0h30.422a1.093 1.093 0 0 1 1.093 1.093v3.151a1.093 1.093 0 0 1 -1.093 1.093h-30.422a1.093 1.093 0 0 1 -1.093-1.093v-3.151a1.093 1.093 0 0 1 1.093-1.093zm33.594 0h3.942a1.093 1.093 0 0 1 1.093 1.093v3.151a1.093 1.093 0 0 1 -1.093 1.093h-3.942a1.093 1.093 0 0 1 -1.093-1.093v-3.151a1.093 1.093 0 0 1 1.093-1.093z" fill-rule="evenodd" transform="translate(25.294)"/><rect height="5.336" rx="1" width="5.336" x="66.003"/><rect height="5.336" rx="1" width="5.336" x="72.327"/><rect height="5.336" rx="1" width="5.336" x="84.183"/><path d="m5.336 0v1.18a1.093 1.093 0 0 1 -1.093 1.093h-3.15a1.093 1.093 0 0 1 -1.093-1.093v-1.18z" transform="matrix(-1 0 0 -1 83.59 2.273)"/><path d="m5.336 0v1.18a1.093 1.093 0 0 1 -1.093 1.093h-3.15a1.093 1.093 0 0 1 -1.093-1.093v-1.18z" transform="translate(78.255 3.063)"/></g><rect fill="#4a4a4a" height="2.371" rx="1.085" width="88.927" x="1.925" y="1.17"/><g fill="#d8d8d8"><rect height="1.581" opacity=".136" rx=".723" width="4.986" x="4.1" y="1.566"/><rect height="1.581" opacity=".136" rx=".723" width="4.986" x="10.923" y="1.566"/><rect height="1.581" opacity=".136" rx=".723" width="4.986" x="16.173" y="1.566"/><rect height="1.581" opacity=".136" rx=".723" width="4.986" x="21.421" y="1.566"/><rect height="1.581" opacity=".136" rx=".723" width="4.986" x="26.671" y="1.566"/><rect height="1.581" opacity=".136" rx=".723" width="4.986" x="33.232" y="1.566"/><rect height="1.581" opacity=".136" rx=".723" width="4.986" x="38.48" y="1.566"/><rect height="1.581" opacity=".136" rx=".723" width="4.986" x="43.73" y="1.566"/><rect height="1.581" opacity=".136" rx=".723" width="4.986" x="48.978" y="1.566"/><rect height="1.581" opacity=".136" rx=".723" width="4.986" x="55.54" y="1.566"/><rect height="1.581" opacity=".136" rx=".723" width="4.986" x="60.788" y="1.566"/><rect height="1.581" opacity=".136" rx=".723" width="4.986" x="66.038" y="1.566"/><rect height="1.581" opacity=".136" rx=".723" width="4.986" x="72.599" y="1.566"/><rect height="1.581" opacity=".136" rx=".723" width="4.986" x="77.847" y="1.566"/><rect height="1.581" opacity=".136" rx=".723" width="4.986" x="83.097" y="1.566"/></g></g><path d="m146.71 159.855a5.439 5.439 0 0 0 -.7.07c-.042-.164-.081-.329-.127-.493a5.457 5.457 0 1 0 -5.4-9.372q-.181-.185-.366-.367a5.454 5.454 0 1 0 -9.384-5.4c-.162-.046-.325-.084-.486-.126a5.467 5.467 0 1 0 -10.788 0c-.162.042-.325.08-.486.126a5.457 5.457 0 1 0 -9.384 5.4 21.843 21.843 0 1 0 36.421 21.02 5.452 5.452 0 1 0 .7-10.858" fill="#44d860" fill-rule="evenodd" transform="translate(261.546 431.708)"/><path d="m83 124.855h43.71v-21.855h-43.71z" fill="#3ecc5f" fill-rule="evenodd" transform="translate(259.691 428.462)"/><path d="m134.855 116.765a2.732 2.732 0 1 0 0-5.464 2.811 2.811 0 0 0 -.349.035c-.022-.082-.04-.164-.063-.246a2.733 2.733 0 0 0 -1.052-5.253 2.7 2.7 0 0 0 -1.648.566q-.09-.093-.184-.184a2.7 2.7 0 0 0 .553-1.633 2.732 2.732 0 0 0 -5.245-1.07 10.928 10.928 0 1 0 0 21.031 2.732 2.732 0 0 0 5.245-1.07 2.7 2.7 0 0 0 -.553-1.633q.093-.09.184-.184a2.7 2.7 0 0 0 1.648.566 2.732 2.732 0 0 0 1.052-5.253c.023-.081.042-.164.063-.246a2.811 2.811 0 0 0 .349.035" fill="#44d860" fill-rule="evenodd" transform="translate(262.473 428.356)"/><path d="m143.232 42.33a2.967 2.967 0 0 1 -.535-.055 2.754 2.754 0 0 1 -.514-.153 2.838 2.838 0 0 1 -.471-.251 4.139 4.139 0 0 1 -.415-.339 3.2 3.2 0 0 1 -.338-.415 2.7 2.7 0 0 1 -.459-1.517 2.968 2.968 0 0 1 .055-.535 3.152 3.152 0 0 1 .152-.514 2.874 2.874 0 0 1 .252-.47 2.633 2.633 0 0 1 .753-.754 2.837 2.837 0 0 1 .471-.251 2.753 2.753 0 0 1 .514-.153 2.527 2.527 0 0 1 1.071 0 2.654 2.654 0 0 1 .983.4 4.139 4.139 0 0 1 .415.339 4.019 4.019 0 0 1 .339.415 2.786 2.786 0 0 1 .251.47 2.864 2.864 0 0 1 .208 1.049 2.77 2.77 0 0 1 -.8 1.934 4.139 4.139 0 0 1 -.415.339 2.722 2.722 0 0 1 -1.519.459m21.855-1.366a2.789 2.789 0 0 1 -1.935-.8 4.162 4.162 0 0 1 -.338-.415 2.7 2.7 0 0 1 -.459-1.519 2.789 2.789 0 0 1 .8-1.934 4.139 4.139 0 0 1 .415-.339 2.838 2.838 0 0 1 .471-.251 2.752 2.752 0 0 1 .514-.153 2.527 2.527 0 0 1 1.071 0 2.654 2.654 0 0 1 .983.4 4.139 4.139 0 0 1 .415.339 2.79 2.79 0 0 1 .8 1.934 3.069 3.069 0 0 1 -.055.535 2.779 2.779 0 0 1 -.153.514 3.885 3.885 0 0 1 -.251.47 4.02 4.02 0 0 1 -.339.415 4.138 4.138 0 0 1 -.415.339 2.722 2.722 0 0 1 -1.519.459" fill-rule="evenodd" transform="translate(265.024 422.201)"/></svg>