<svg height="554.141" viewBox="0 0 1041.277 554.141" width="1041.277" xmlns="http://www.w3.org/2000/svg"><g transform="translate(-.011 -.035)"><path d="m1040.82 611.12q-1.74 3.75-3.47 7.4-2.7 5.67-5.33 11.12c-.78 1.61-1.56 3.19-2.32 4.77-8.6 17.57-16.63 33.11-23.45 45.89a73.21 73.21 0 0 1 -63.81 38.7l-151.65 1.65h-1.6l-13 .14-11.12.12-34.1.37h-1.38l-17.36.19h-.53l-107 1.16-95.51 1-11.11.12-69 .75h-.08l-44.75.48h-.48l-141.5 1.53-42.33.46a87.991 87.991 0 0 1 -10.79-.54c-1.22-.14-2.44-.3-3.65-.49a87.38 87.38 0 0 1 -51.29-27.54c-18.21-20.03-31.46-43.4-40.36-68.76q-1.93-5.49-3.6-11.12c-30.81-104.15 6.75-238.52 74.35-328.44q4.25-5.64 8.64-11l.07-.08c20.79-25.52 44.1-46.84 68.93-62 44-26.91 92.75-34.49 140.7-11.9 40.57 19.12 78.45 28.11 115.17 30.55 3.71.24 7.42.42 11.11.53 84.23 2.65 163.17-27.7 255.87-47.29 3.69-.78 7.39-1.55 11.12-2.28 66.13-13.16 139.49-20.1 226.73-5.51a189.089 189.089 0 0 1 26.76 6.4q5.77 1.86 11.12 4c41.64 16.94 64.35 48.24 74 87.46q1.37 5.46 2.37 11.11c17.11 94.34-33 228.16-76.37 321.05z" fill="#f2f2f2" transform="translate(-79.34 -172.91)"/><path d="m576.36 618.52a95.21 95.21 0 0 1 -1.87 11.12h93.7v-11.12zm-78.25 62.81 11.11-.09v-27.47c-3.81-.17-7.52-.34-11.11-.52zm-232.92-62.81v11.12h198.5v-11.12zm849.68-339.52h-74v-87.49q-5.35-2.17-11.12-4v91.49h-253.54v-92.42c-3.73.73-7.43 1.5-11.12 2.28v90.14h-255.87v-42.85c-3.69-.11-7.4-.29-11.11-.53v43.38h-255.87v-62c-24.83 15.16-48.14 36.48-68.93 62h-.07v.08q-4.4 5.4-8.64 11h8.64v328.44h-83q1.66 5.63 3.6 11.12h79.39v93.62a87 87 0 0 0 12.2 2.79c1.21.19 2.43.35 3.65.49a87.991 87.991 0 0 0 10.79.54l42.33-.46v-97h255.91v94.21l11.11-.12v-94.07h255.87v91.36l11.12-.12v-91.24h253.49v4.77c.76-1.58 1.54-3.16 2.32-4.77q2.63-5.45 5.33-11.12 1.73-3.64 3.47-7.4v-321h76.42q-1.01-5.69-2.37-11.12zm-872.63 339.52v-328.44h255.87v328.44zm267 0v-328.44h255.85v328.44zm520.48 0h-253.51v-328.44h253.49z" opacity=".1" transform="translate(-79.34 -172.91)"/><path d="m863.09 533.65v13l-151.92 1.4-1.62.03-57.74.53-1.38.02-17.55.15h-.52l-106.98.99-175.61 1.63h-.15l-44.65.42-.48.01-198.4 1.82v-15l46.65-28 93.6-.78 2-.01.66-.01 2-.03 44.94-.37 2.01-.01.64-.01 2-.01 14.41-.12.38-.01 35.55-.3h.29l277.4-2.34 6.79-.05h.68l5.18-.05 37.65-.31 2-.03 1.85-.02h.96l11.71-.09 2.32-.03 3.11-.02 9.75-.09 15.47-.13 2-.02 3.48-.02h.65l74.71-.64z" fill="#65617d"/><path d="m863.09 533.65v13l-151.92 1.4-1.62.03-57.74.53-1.38.02-17.55.15h-.52l-106.98.99-175.61 1.63h-.15l-44.65.42-.48.01-198.4 1.82v-15l46.65-28 93.6-.78 2-.01.66-.01 2-.03 44.94-.37 2.01-.01.64-.01 2-.01 14.41-.12.38-.01 35.55-.3h.29l277.4-2.34 6.79-.05h.68l5.18-.05 37.65-.31 2-.03 1.85-.02h.96l11.71-.09 2.32-.03 3.11-.02 9.75-.09 15.47-.13 2-.02 3.48-.02h.65l74.71-.64z" opacity=".2"/><path d="m375.44 656.57v24.49a6.13 6.13 0 0 1 -3.5 5.54 6 6 0 0 1 -2.5.6l-34.9.74a6 6 0 0 1 -2.7-.57 6.12 6.12 0 0 1 -3.57-5.57v-25.23z" fill="#3f3d56" transform="translate(-79.34 -172.91)"/><path d="m375.44 656.57v24.49a6.13 6.13 0 0 1 -3.5 5.54 6 6 0 0 1 -2.5.6l-34.9.74a6 6 0 0 1 -2.7-.57 6.12 6.12 0 0 1 -3.57-5.57v-25.23z" opacity=".1" transform="translate(-79.34 -172.91)"/><path d="m377.44 656.57v24.49a6.13 6.13 0 0 1 -3.5 5.54 6 6 0 0 1 -2.5.6l-34.9.74a6 6 0 0 1 -2.7-.57 6.12 6.12 0 0 1 -3.57-5.57v-25.23z" fill="#3f3d56" transform="translate(-79.34 -172.91)"/><path d="m680.92 483.65h47.17v31.5h-47.17z" fill="#3f3d56"/><path d="m680.92 483.65h47.17v31.5h-47.17z" opacity=".1"/><path d="m678.92 483.65h47.17v31.5h-47.17z" fill="#3f3d56"/><path d="m298.09 483.65v4.97l-47.17 1.26v-6.23z" opacity=".1"/><path d="m460.69 485.27v168.2a4 4 0 0 1 -3.85 3.95l-191.65 5.1h-.05a4 4 0 0 1 -3.95-3.95v-173.3a4 4 0 0 1 3.95-3.95h191.6a4 4 0 0 1 3.95 3.95z" fill="#65617d" transform="translate(-79.34 -172.91)"/><path d="m265.19 481.32v181.2h-.05a4 4 0 0 1 -3.95-3.95v-173.3a4 4 0 0 1 3.95-3.95z" opacity=".1" transform="translate(-79.34 -172.91)"/><path d="m194.59 319.15h177.5v148.25l-177.5 4z" fill="#39374d"/><path d="m726.09 483.65v6.41l-47.17-1.26v-5.15z" opacity=".1"/><path d="m867.69 485.27v173.3a4 4 0 0 1 -4 3.95l-191.69-5.1a4 4 0 0 1 -3.85-3.95v-168.2a4 4 0 0 1 3.95-3.95h191.6a4 4 0 0 1 3.99 3.95z" fill="#65617d" transform="translate(-79.34 -172.91)"/><path d="m867.69 485.27v173.3a4 4 0 0 1 -4 3.95v-181.2a4 4 0 0 1 4 3.95z" opacity=".1" transform="translate(-79.34 -172.91)"/><path d="m775.59 319.15h-177.5v148.25l177.5 4z" fill="#39374d"/><path d="m663.19 485.27v168.2a4 4 0 0 1 -3.85 3.95l-191.65 5.1a4 4 0 0 1 -4-3.95v-173.3a4 4 0 0 1 3.95-3.95h191.6a4 4 0 0 1 3.95 3.95z" fill="#65617d" transform="translate(-79.34 -172.91)"/><path d="m397.09 319.15h177.5v148.25l-177.5 4z" fill="#4267b2"/><path d="m863.09 533.65v13l-151.92 1.4-1.62.03-57.74.53-1.38.02-17.55.15h-.52l-106.98.99-175.61 1.63h-.15l-44.65.42-.48.01-198.4 1.82v-15l202.51-1.33h.48l40.99-.28h.19l283.08-1.87h.29l.17-.01h.47l4.79-.03h1.46l74.49-.5 4.4-.02.98-.01z" opacity=".1"/><circle cx="487.26" cy="298.15" fill="#fbbebe" r="51.33"/><g transform="translate(-79.34 -172.91)"><path d="m617.94 550.07s-99.5 12-90 0c3.44-4.34 4.39-17.2 4.2-31.85-.06-4.45-.22-9.06-.45-13.65-1.1-22-3.75-43.5-3.75-43.5s87-41 77-8.5c-4 13.13-2.69 31.57.35 48.88.89 5.05 1.92 10 3 14.7a344.66 344.66 0 0 0 9.65 33.92z" fill="#fbbebe"/><path d="m585.47 546c11.51-2.13 23.7-6 34.53-1.54 2.85 1.17 5.47 2.88 8.39 3.86s6.12 1.22 9.16 1.91c10.68 2.42 19.34 10.55 24.9 20s8.44 20.14 11.26 30.72l6.9 25.83c6 22.45 12 45.09 13.39 68.3a2437.506 2437.506 0 0 1 -250.84 1.43c5.44-10.34 11-21.31 10.54-33s-7.19-23.22-4.76-34.74c1.55-7.34 6.57-13.39 9.64-20.22 8.75-19.52 1.94-45.79 17.32-60.65 6.92-6.68 17-9.21 26.63-8.89 12.28.41 24.85 4.24 37 6.11 15.56 2.36 30.26 3.76 45.94.88z" fill="#ff6584"/><path d="m716.37 657.17-.1 1.43v.1l-.17 2.3-1.33 18.51-1.61 22.3-.46 6.28-1 13.44v.17l-107 1-175.59 1.9v.84h-.14v-1.12l.45-14.36.86-28.06.74-23.79.07-2.37a10.53 10.53 0 0 1 11.42-10.17c4.72.4 10.85.89 18.18 1.41l3 .22c42.33 2.94 120.56 6.74 199.5 2 1.66-.09 3.33-.19 5-.31 12.24-.77 24.47-1.76 36.58-3a10.53 10.53 0 0 1 11.6 11.23z" opacity=".1"/><path d="m429.08 725.44v-.84l175.62-1.91 107-1h.3v-.17l1-13.44.43-6 1.64-22.61 1.29-17.9v-.44a10.617 10.617 0 0 0 -.11-2.47.3.3 0 0 0 0-.1 10.391 10.391 0 0 0 -2-4.64 10.54 10.54 0 0 0 -9.42-4c-12.11 1.24-24.34 2.23-36.58 3-1.67.12-3.34.22-5 .31-78.94 4.69-157.17.89-199.5-2l-3-.22c-7.33-.52-13.46-1-18.18-1.41a10.54 10.54 0 0 0 -11.24 8.53 11 11 0 0 0 -.18 1.64l-.68 22.16-.93 28.07-.44 14.36v1.12z" fill="#3f3d56"/><path d="m716.67 664.18-1.23 15.33-1.83 22.85-.46 5.72-1 12.81-.06.64v.17l-.15 1.48.11-1.48h-.29l-107 1-175.65 1.9v-.28l.49-14.36 1-28.06.64-18.65a6.36 6.36 0 0 1 3.06-5.25 6.25 6.25 0 0 1 3.78-.9c2.1.17 4.68.37 7.69.59 4.89.36 10.92.78 17.94 1.22 13 .82 29.31 1.7 48 2.42 52 2 122.2 2.67 188.88-3.17 3-.26 6.1-.55 9.13-.84a6.26 6.26 0 0 1 3.48.66 5.159 5.159 0 0 1 .86.54 6.14 6.14 0 0 1 2 2.46 3.564 3.564 0 0 1 .25.61 6.279 6.279 0 0 1 .36 2.59z" opacity=".1"/><path d="m377.44 677.87v3.19a6.13 6.13 0 0 1 -3.5 5.54l-40.1.77a6.12 6.12 0 0 1 -3.57-5.57v-3z" opacity=".1"/></g><path d="m298.59 515.57-52.25 1v-8.67l52.25-1z" fill="#3f3d56"/><path d="m298.59 515.57-52.25 1v-8.67l52.25-1z" opacity=".1"/><path d="m300.59 515.57-52.25 1v-8.67l52.25-1z" fill="#3f3d56"/><path d="m758.56 679.87v3.19a6.13 6.13 0 0 0 3.5 5.54l40.1.77a6.12 6.12 0 0 0 3.57-5.57v-3z" opacity=".1" transform="translate(-79.34 -172.91)"/><path d="m678.72 517.57 52.25 1v-8.67l-52.25-1z" opacity=".1"/><path d="m676.72 517.57 52.25 1v-8.67l-52.25-1z" fill="#3f3d56"/><path d="m534.13 486.79c.08 7-3.16 13.6-5.91 20.07a163.491 163.491 0 0 0 -12.66 74.71c.73 11 2.58 22 .73 32.9s-8.43 21.77-19 24.9c17.53 10.45 41.26 9.35 57.76-2.66 8.79-6.4 15.34-15.33 21.75-24.11a97.86 97.86 0 0 1 -13.31 44.75 103.43 103.43 0 0 0 73.51-40.82c4.31-5.81 8.06-12.19 9.72-19.23 3.09-13-1.22-26.51-4.51-39.5a266.055 266.055 0 0 1 -6.17-33c-.43-3.56-.78-7.22.1-10.7 1-4.07 3.67-7.51 5.64-11.22 5.6-10.54 5.73-23.3 2.86-34.88s-8.49-22.26-14.06-32.81c-4.46-8.46-9.3-17.31-17.46-22.28-5.1-3.1-11-4.39-16.88-5.64l-25.37-5.43c-5.55-1.19-11.26-2.38-16.87-1.51-9.47 1.48-16.14 8.32-22 15.34-4.59 5.46-15.81 15.71-16.6 22.86-.72 6.59 5.1 17.63 6.09 24.58 1.3 9 2.22 6 7.3 11.52 3.21 3.42 5.28 7.37 5.34 12.16z" fill="#3f3d56" transform="translate(-79.34 -172.91)"/></g><g fill-rule="evenodd"><path d="m99 52h43.635v17.662h-43.635z" fill="#fff" transform="translate(181.139 318.832)"/><path d="m13.389 158.195a10.377 10.377 0 0 1 -8.989-5.195 10.377 10.377 0 0 0 8.988 15.584h10.391v-10.389z" fill="#3ecc5f" transform="translate(227.271 270.298)"/><path d="m66.967 38.083 36.373-2.273v-5.195a10.389 10.389 0 0 0 -10.39-10.389h-46.75l-1.3-2.249a1.5 1.5 0 0 0 -2.6 0l-1.3 2.249-1.3-2.249a1.5 1.5 0 0 0 -2.6 0l-1.3 2.249-1.3-2.249a1.5 1.5 0 0 0 -2.6 0l-1.3 2.249h-.034l-2.152-2.151a1.5 1.5 0 0 0 -2.508.672l-.696 2.653-2.7-.723a1.5 1.5 0 0 0 -1.836 1.837l.722 2.7-2.65.71a1.5 1.5 0 0 0 -.673 2.509l2.152 2.152v.033l-2.249 1.3a1.5 1.5 0 0 0 0 2.6l2.249 1.3-2.249 1.3a1.5 1.5 0 0 0 0 2.6l2.25 1.282-2.249 1.3a1.5 1.5 0 0 0 0 2.6l2.249 1.3-2.249 1.3a1.5 1.5 0 0 0 0 2.6l2.249 1.3-2.249 1.3a1.5 1.5 0 0 0 0 2.6l2.249 1.3-2.249 1.3a1.5 1.5 0 0 0 0 2.6l2.249 1.3-2.249 1.3a1.5 1.5 0 0 0 0 2.6l2.249 1.3-2.249 1.3a1.5 1.5 0 0 0 0 2.6l2.249 1.3-2.249 1.3a1.5 1.5 0 0 0 0 2.6l2.249 1.3-2.249 1.3a1.5 1.5 0 0 0 0 2.6l2.249 1.3-2.249 1.3a1.5 1.5 0 0 0 0 2.6l2.249 1.3-2.249 1.3a1.5 1.5 0 0 0 0 2.6l2.249 1.3a10.389 10.389 0 0 0 10.389 10.34h62.335a10.389 10.389 0 0 0 10.39-10.39v-41.557l-36.373-2.273a5.53 5.53 0 0 1 0-11.038" fill="#3ecc5f" transform="translate(220.435 335.542)"/><path d="m143 163.779h15.584v-20.779h-15.584z" fill="#3ecc5f" transform="translate(159.996 275.103)"/><path d="m173.779 148.389a2.582 2.582 0 0 0 -.332.033c-.02-.078-.038-.156-.06-.234a2.594 2.594 0 1 0 -2.567-4.455q-.086-.088-.174-.175a2.593 2.593 0 1 0 -4.461-2.569c-.077-.022-.154-.04-.231-.06a2.6 2.6 0 1 0 -5.128 0c-.077.02-.154.038-.231.06a2.594 2.594 0 1 0 -4.461 2.569 10.384 10.384 0 1 0 17.314 9.992 2.592 2.592 0 1 0 .332-5.161" fill="#44d860" transform="translate(155.191 277.506)"/><path d="m153 113.389h15.584v-10.389h-15.584z" fill="#3ecc5f" transform="translate(155.191 294.324)"/><path d="m183.389 108.944a1.3 1.3 0 1 0 0-2.6 1.336 1.336 0 0 0 -.166.017c-.01-.039-.019-.078-.03-.117a1.3 1.3 0 0 0 -.5-2.5 1.285 1.285 0 0 0 -.783.269q-.043-.044-.087-.087a1.285 1.285 0 0 0 .263-.776 1.3 1.3 0 0 0 -2.493-.509 5.195 5.195 0 1 0 0 10 1.3 1.3 0 0 0 2.493-.509 1.285 1.285 0 0 0 -.263-.776q.044-.043.087-.087a1.285 1.285 0 0 0 .783.269 1.3 1.3 0 0 0 .5-2.5c.011-.038.02-.078.03-.117a1.337 1.337 0 0 0 .166.017" fill="#44d860" transform="translate(145.58 294.874)"/><path d="m52.188 48.292a1.3 1.3 0 0 1 -1.3-1.3 3.9 3.9 0 0 0 -7.792 0 1.3 1.3 0 1 1 -2.6 0 6.493 6.493 0 0 1 12.987 0 1.3 1.3 0 0 1 -1.3 1.3" transform="translate(209.251 324.358)"/><path d="m103 139.752h31.168a10.389 10.389 0 0 0 10.389-10.389v-36.363h-31.168a10.389 10.389 0 0 0 -10.389 10.389z" fill="#ffff50" transform="translate(179.217 299.13)"/><path d="m141.1 94.017h-25.994a.519.519 0 1 1 0-1.039h25.994a.519.519 0 0 1 0 1.039m0 10.389h-25.994a.519.519 0 1 1 0-1.039h25.994a.519.519 0 0 1 0 1.039m0 10.389h-25.994a.519.519 0 1 1 0-1.039h25.994a.519.519 0 0 1 0 1.039m0-25.877h-25.994a.519.519 0 1 1 0-1.039h25.994a.519.519 0 0 1 0 1.039m0 10.293h-25.994a.519.519 0 1 1 0-1.039h25.994a.519.519 0 0 1 0 1.039m0 10.389h-25.994a.519.519 0 1 1 0-1.039h25.994a.519.519 0 0 1 0 1.039m7.782-47.993c-.006 0-.011 0-.018 0-1.605.055-2.365 1.66-3.035 3.077-.7 1.48-1.24 2.443-2.126 2.414-.981-.035-1.542-1.144-2.137-2.317-.683-1.347-1.462-2.876-3.1-2.819-1.582.054-2.344 1.451-3.017 2.684-.715 1.313-1.2 2.112-2.141 2.075-1-.036-1.533-.938-2.149-1.981-.686-1.162-1.479-2.467-3.084-2.423-1.555.053-2.319 1.239-2.994 2.286-.713 1.106-1.213 1.781-2.164 1.741-1.025-.036-1.554-.784-2.167-1.65-.688-.973-1.463-2.074-3.062-2.021a3.815 3.815 0 0 0 -2.959 1.879c-.64.812-1.14 1.456-2.2 1.415a.52.52 0 0 0 -.037 1.039 3.588 3.588 0 0 0 3.05-1.811c.611-.777 1.139-1.448 2.178-1.483 1-.043 1.47.579 2.179 1.582.674.953 1.438 2.033 2.977 2.089 1.612.054 2.387-1.151 3.074-2.217.614-.953 1.144-1.775 2.156-1.81.931-.035 1.438.7 2.153 1.912.674 1.141 1.437 2.434 3.006 2.491 1.623.056 2.407-1.361 3.09-2.616.592-1.085 1.15-2.109 2.14-2.143.931-.022 1.417.829 2.135 2.249.671 1.326 1.432 2.828 3.026 2.886h.088c1.592 0 2.347-1.6 3.015-3.01.592-1.252 1.152-2.431 2.113-2.479z" transform="translate(174.893 314.216)"/><path d="m83 163.779h20.779v-20.779h-20.779z" fill="#3ecc5f" transform="translate(188.828 275.103)"/></g><g transform="matrix(.966 -.259 .259 .966 282.242 396.068)"><rect fill="#d8d8d8" height="17.333" rx="2" width="43.906"/><g fill="#4a4a4a" transform="translate(.728 10.948)"><rect height="2.537" rx="1" width="2.537" x="7.985"/><rect height="2.537" rx="1" width="2.537" x="10.991"/><rect height="2.537" rx="1" width="2.537" x="13.997"/><rect height="2.537" rx="1" width="2.537" x="17.003"/><rect height="2.537" rx="1" width="2.537" x="20.009"/><rect height="2.537" rx="1" width="2.537" x="23.015"/><rect height="2.537" rx="1" width="2.537" x="26.021"/><rect height="2.537" rx="1" width="2.537" x="29.028"/><rect height="2.537" rx="1" width="2.537" x="32.034"/><path d="m.519 0h6.381a.519.519 0 0 1 .521.52v1.5a.519.519 0 0 1 -.519.519h-6.383a.519.519 0 0 1 -.519-.522v-1.498a.519.519 0 0 1 .519-.519zm35.134 0h6.383a.519.519 0 0 1 .519.519v1.5a.519.519 0 0 1 -.519.519h-6.384a.519.519 0 0 1 -.519-.519v-1.5a.519.519 0 0 1 .519-.519z" fill-rule="evenodd"/></g><g fill="#4a4a4a" transform="translate(.728 4.878)"><path d="m.519 0h2.437a.519.519 0 0 1 .519.519v1.5a.519.519 0 0 1 -.519.519h-2.437a.519.519 0 0 1 -.519-.521v-1.498a.519.519 0 0 1 .519-.519z" fill-rule="evenodd"/><rect height="2.537" rx="1" width="2.537" x="3.945"/><rect height="2.537" rx="1" width="2.537" x="6.951"/><rect height="2.537" rx="1" width="2.537" x="9.958"/><rect height="2.537" rx="1" width="2.537" x="12.964"/><rect height="2.537" rx="1" width="2.537" x="15.97"/><rect height="2.537" rx="1" width="2.537" x="18.976"/><rect height="2.537" rx="1" width="2.537" x="21.982"/><rect height="2.537" rx="1" width="2.537" x="24.988"/><rect height="2.537" rx="1" width="2.537" x="27.994"/><rect height="2.537" rx="1" width="2.537" x="31"/><rect height="2.537" rx="1" width="2.537" x="34.006"/><rect height="2.537" rx="1" width="2.537" x="37.012"/><rect height="2.537" rx="1" width="2.537" x="40.018"/></g><g fill="#4a4a4a" transform="matrix(-1 0 0 -1 43.283 4.538)"><path d="m.519 0h2.437a.519.519 0 0 1 .519.519v1.5a.519.519 0 0 1 -.519.519h-2.437a.519.519 0 0 1 -.519-.521v-1.498a.519.519 0 0 1 .519-.519z" fill-rule="evenodd"/><rect height="2.537" rx="1" width="2.537" x="3.945"/><rect height="2.537" rx="1" width="2.537" x="6.951"/><rect height="2.537" rx="1" width="2.537" x="9.958"/><rect height="2.537" rx="1" width="2.537" x="12.964"/><rect height="2.537" rx="1" width="2.537" x="15.97"/><rect height="2.537" rx="1" width="2.537" x="18.976"/><rect height="2.537" rx="1" width="2.537" x="21.982"/><rect height="2.537" rx="1" width="2.537" x="24.988"/><rect height="2.537" rx="1" width="2.537" x="27.994"/><rect height="2.537" rx="1" width="2.537" x="31.001"/><rect height="2.537" rx="1" width="2.537" x="34.007"/><rect height="2.537" rx="1" width="2.537" x="37.013"/><rect height="2.537" rx="1" width="2.537" x="40.018"/><rect height="2.537" rx="1" width="2.537" x="3.945"/><rect height="2.537" rx="1" width="2.537" x="6.951"/><rect height="2.537" rx="1" width="2.537" x="9.958"/><rect height="2.537" rx="1" width="2.537" x="12.964"/><rect height="2.537" rx="1" width="2.537" x="15.97"/><rect height="2.537" rx="1" width="2.537" x="18.976"/><rect height="2.537" rx="1" width="2.537" x="21.982"/><rect height="2.537" rx="1" width="2.537" x="24.988"/><rect height="2.537" rx="1" width="2.537" x="27.994"/><rect height="2.537" rx="1" width="2.537" x="31.001"/><rect height="2.537" rx="1" width="2.537" x="34.007"/><rect height="2.537" rx="1" width="2.537" x="37.013"/><rect height="2.537" rx="1" width="2.537" x="40.018"/></g><g fill="#4a4a4a" transform="translate(.728 7.883)"><path d="m.519 0h3.47a.519.519 0 0 1 .519.519v1.5a.519.519 0 0 1 -.519.519h-3.47a.519.519 0 0 1 -.519-.521v-1.497a.519.519 0 0 1 .519-.52z" fill-rule="evenodd"/><rect height="2.537" rx="1" width="2.537" x="5.073"/><rect height="2.537" rx="1" width="2.537" x="8.079"/><rect height="2.537" rx="1" width="2.537" x="11.085"/><rect height="2.537" rx="1" width="2.537" x="14.091"/><rect height="2.537" rx="1" width="2.537" x="17.098"/><rect height="2.537" rx="1" width="2.537" x="20.104"/><rect height="2.537" rx="1" width="2.537" x="23.11"/><rect height="2.537" rx="1" width="2.537" x="26.115"/><rect height="2.537" rx="1" width="2.537" x="29.122"/><rect height="2.537" rx="1" width="2.537" x="32.128"/><rect height="2.537" rx="1" width="2.537" x="35.134"/><path d="m.52 0h3.28a.519.519 0 0 1 .519.519v1.5a.519.519 0 0 1 -.519.519h-3.281a.519.519 0 0 1 -.519-.521v-1.497a.519.519 0 0 1 .519-.52z" fill-rule="evenodd" transform="translate(38.234)"/></g><g fill="#4a4a4a" transform="translate(.728 14.084)"><rect height="2.537" rx="1" width="2.537"/><rect height="2.537" rx="1" width="2.537" x="3.006"/><rect height="2.537" rx="1" width="2.537" x="6.012"/><rect height="2.537" rx="1" width="2.537" x="9.018"/><path d="m.519 0h14.462a.519.519 0 0 1 .519.519v1.5a.519.519 0 0 1 -.519.519h-14.462a.519.519 0 0 1 -.519-.52v-1.499a.519.519 0 0 1 .519-.519zm15.97 0h1.874a.519.519 0 0 1 .519.519v1.5a.519.519 0 0 1 -.519.519h-1.874a.519.519 0 0 1 -.519-.519v-1.5a.519.519 0 0 1 .519-.519z" fill-rule="evenodd" transform="translate(12.024)"/><rect height="2.537" rx="1" width="2.537" x="31.376"/><rect height="2.537" rx="1" width="2.537" x="34.382"/><rect height="2.537" rx="1" width="2.537" x="40.018"/><path d="m2.537 0v.561a.519.519 0 0 1 -.519.519h-1.499a.519.519 0 0 1 -.519-.519v-.561z" transform="matrix(-1 0 0 -1 39.736 1.08)"/><path d="m2.537 0v.561a.519.519 0 0 1 -.519.519h-1.499a.519.519 0 0 1 -.519-.519v-.561z" transform="translate(37.2 1.456)"/></g><rect fill="#4a4a4a" height="1.127" rx=".564" width="42.273" x=".915" y=".556"/><g fill="#d8d8d8"><rect height=".752" opacity=".136" rx=".376" width="2.37" x="1.949" y=".744"/><rect height=".752" opacity=".136" rx=".376" width="2.37" x="5.193" y=".744"/><rect height=".752" opacity=".136" rx=".376" width="2.37" x="7.688" y=".744"/><rect height=".752" opacity=".136" rx=".376" width="2.37" x="10.183" y=".744"/><rect height=".752" opacity=".136" rx=".376" width="2.37" x="12.679" y=".744"/><rect height=".752" opacity=".136" rx=".376" width="2.37" x="15.797" y=".744"/><rect height=".752" opacity=".136" rx=".376" width="2.37" x="18.292" y=".744"/><rect height=".752" opacity=".136" rx=".376" width="2.37" x="20.788" y=".744"/><rect height=".752" opacity=".136" rx=".376" width="2.37" x="23.283" y=".744"/><rect height=".752" opacity=".136" rx=".376" width="2.37" x="26.402" y=".744"/><rect height=".752" opacity=".136" rx=".376" width="2.37" x="28.897" y=".744"/><rect height=".752" opacity=".136" rx=".376" width="2.37" x="31.393" y=".744"/><rect height=".752" opacity=".136" rx=".376" width="2.37" x="34.512" y=".744"/><rect height=".752" opacity=".136" rx=".376" width="2.37" x="37.007" y=".744"/><rect height=".752" opacity=".136" rx=".376" width="2.37" x="39.502" y=".744"/></g></g><path d="m123.779 148.389a2.583 2.583 0 0 0 -.332.033c-.02-.078-.038-.156-.06-.234a2.594 2.594 0 1 0 -2.567-4.455q-.086-.088-.174-.175a2.593 2.593 0 1 0 -4.461-2.569c-.077-.022-.154-.04-.231-.06a2.6 2.6 0 1 0 -5.128 0c-.077.02-.154.038-.231.06a2.594 2.594 0 1 0 -4.461 2.569 10.384 10.384 0 1 0 17.314 9.992 2.592 2.592 0 1 0 .332-5.161" fill="#44d860" fill-rule="evenodd" transform="translate(179.217 277.506)"/><path d="m83 113.389h20.779v-10.389h-20.779z" fill="#3ecc5f" fill-rule="evenodd" transform="translate(188.828 294.324)"/><path d="m123.389 108.944a1.3 1.3 0 1 0 0-2.6 1.338 1.338 0 0 0 -.166.017c-.01-.039-.019-.078-.03-.117a1.3 1.3 0 0 0 -.5-2.5 1.285 1.285 0 0 0 -.783.269q-.043-.044-.087-.087a1.285 1.285 0 0 0 .263-.776 1.3 1.3 0 0 0 -2.493-.509 5.195 5.195 0 1 0 0 10 1.3 1.3 0 0 0 2.493-.509 1.285 1.285 0 0 0 -.263-.776q.044-.043.087-.087a1.285 1.285 0 0 0 .783.269 1.3 1.3 0 0 0 .5-2.5c.011-.038.02-.078.03-.117a1.335 1.335 0 0 0 .166.017" fill="#44d860" fill-rule="evenodd" transform="translate(174.412 294.874)"/><path d="m141.8 38.745a1.41 1.41 0 0 1 -.255-.026 1.309 1.309 0 0 1 -.244-.073 1.349 1.349 0 0 1 -.224-.119 1.967 1.967 0 0 1 -.2-.161 1.52 1.52 0 0 1 -.161-.2 1.282 1.282 0 0 1 -.218-.722 1.41 1.41 0 0 1 .026-.255 1.5 1.5 0 0 1 .072-.244 1.364 1.364 0 0 1 .12-.223 1.252 1.252 0 0 1 .358-.358 1.349 1.349 0 0 1 .224-.119 1.309 1.309 0 0 1 .244-.073 1.2 1.2 0 0 1 .509 0 1.262 1.262 0 0 1 .468.192 1.968 1.968 0 0 1 .2.161 1.908 1.908 0 0 1 .161.2 1.322 1.322 0 0 1 .12.223 1.361 1.361 0 0 1 .1.5 1.317 1.317 0 0 1 -.379.919 1.968 1.968 0 0 1 -.2.161 1.346 1.346 0 0 1 -.223.119 1.332 1.332 0 0 1 -.5.1m10.389-.649a1.326 1.326 0 0 1 -.92-.379 1.979 1.979 0 0 1 -.161-.2 1.282 1.282 0 0 1 -.218-.722 1.326 1.326 0 0 1 .379-.919 1.967 1.967 0 0 1 .2-.161 1.351 1.351 0 0 1 .224-.119 1.308 1.308 0 0 1 .244-.073 1.2 1.2 0 0 1 .509 0 1.262 1.262 0 0 1 .468.192 1.967 1.967 0 0 1 .2.161 1.326 1.326 0 0 1 .379.919 1.461 1.461 0 0 1 -.026.255 1.323 1.323 0 0 1 -.073.244 1.847 1.847 0 0 1 -.119.223 1.911 1.911 0 0 1 -.161.2 1.967 1.967 0 0 1 -.2.161 1.294 1.294 0 0 1 -.722.218" fill-rule="evenodd" transform="translate(161.197 326.762)"/><g fill="#61dafb" transform="translate(466.3 278.56)"><path d="m263.668 117.179c0-5.827-7.3-11.35-18.487-14.775 2.582-11.4 1.434-20.477-3.622-23.382a7.861 7.861 0 0 0 -4.016-1v4a4.152 4.152 0 0 1 2.044.466c2.439 1.4 3.5 6.724 2.672 13.574-.2 1.685-.52 3.461-.914 5.272a86.9 86.9 0 0 0 -11.386-1.954 87.469 87.469 0 0 0 -7.459-8.965c5.845-5.433 11.332-8.41 15.062-8.41v-4.005c-4.931 0-11.386 3.514-17.913 9.611-6.527-6.061-12.982-9.539-17.913-9.539v4c3.712 0 9.216 2.959 15.062 8.356a84.687 84.687 0 0 0 -7.405 8.947 83.732 83.732 0 0 0 -11.4 1.972c-.412-1.793-.717-3.532-.932-5.2-.843-6.85.2-12.175 2.618-13.592a3.991 3.991 0 0 1 2.062-.466v-4a8 8 0 0 0 -4.052 1c-5.039 2.9-6.168 11.96-3.568 23.328-11.153 3.443-18.415 8.947-18.415 14.757 0 5.828 7.3 11.35 18.487 14.775-2.582 11.4-1.434 20.477 3.622 23.382a7.882 7.882 0 0 0 4.034 1c4.931 0 11.386-3.514 17.913-9.611 6.527 6.061 12.982 9.539 17.913 9.539a8 8 0 0 0 4.052-1c5.039-2.9 6.168-11.96 3.568-23.328 11.111-3.42 18.373-8.943 18.373-14.752zm-23.346-11.96c-.663 2.313-1.488 4.7-2.421 7.083-.735-1.434-1.506-2.869-2.349-4.3-.825-1.434-1.7-2.833-2.582-4.2 2.547.377 5.004.843 7.353 1.417zm-8.212 19.1c-1.4 2.421-2.833 4.716-4.321 6.85-2.672.233-5.379.359-8.1.359-2.708 0-5.415-.126-8.069-.341q-2.232-3.2-4.339-6.814-2.044-3.523-3.73-7.136c1.112-2.4 2.367-4.805 3.712-7.154 1.4-2.421 2.833-4.716 4.321-6.85 2.672-.233 5.379-.359 8.1-.359 2.708 0 5.415.126 8.069.341q2.232 3.2 4.339 6.814 2.044 3.523 3.73 7.136c-1.13 2.399-2.367 4.801-3.712 7.15zm5.792-2.331c.968 2.4 1.793 4.805 2.474 7.136-2.349.574-4.823 1.058-7.387 1.434.879-1.381 1.757-2.8 2.582-4.25.829-1.437 1.596-2.889 2.329-4.324zm-18.182 19.128a73.921 73.921 0 0 1 -4.985-5.738c1.614.072 3.263.126 4.931.126 1.685 0 3.353-.036 4.985-.126a69.993 69.993 0 0 1 -4.931 5.738zm-13.34-10.561c-2.546-.377-5-.843-7.352-1.417.663-2.313 1.488-4.7 2.421-7.083.735 1.434 1.506 2.869 2.349 4.3s1.702 2.837 2.582 4.2zm13.25-37.314a73.924 73.924 0 0 1 4.985 5.738c-1.614-.072-3.263-.126-4.931-.126-1.686 0-3.353.036-4.985.126a69.993 69.993 0 0 1 4.931-5.738zm-13.268 10.559c-.879 1.381-1.757 2.8-2.582 4.25-.825 1.434-1.6 2.869-2.331 4.3-.968-2.4-1.793-4.805-2.474-7.136 2.348-.551 4.825-1.035 7.387-1.414zm-16.227 22.449c-6.348-2.708-10.454-6.258-10.454-9.073s4.106-6.383 10.454-9.073c1.542-.663 3.228-1.255 4.967-1.811a86.122 86.122 0 0 0 4.034 10.92 84.9 84.9 0 0 0 -3.981 10.866c-1.775-.553-3.461-1.163-5.021-1.826zm9.647 25.623c-2.439-1.4-3.5-6.724-2.672-13.574.2-1.686.52-3.461.914-5.272a86.9 86.9 0 0 0 11.386 1.954 87.465 87.465 0 0 0 7.459 8.965c-5.845 5.433-11.332 8.41-15.062 8.41a4.279 4.279 0 0 1 -2.026-.48zm42.532-13.663c.843 6.85-.2 12.175-2.618 13.592a3.99 3.99 0 0 1 -2.062.466c-3.712 0-9.216-2.959-15.062-8.356a84.689 84.689 0 0 0 7.405-8.947 83.731 83.731 0 0 0 11.4-1.972 50.194 50.194 0 0 1 .936 5.22zm6.9-11.96c-1.542.663-3.228 1.255-4.967 1.811a86.12 86.12 0 0 0 -4.034-10.92 84.9 84.9 0 0 0 3.981-10.866c1.775.556 3.461 1.165 5.039 1.829 6.348 2.708 10.454 6.258 10.454 9.073-.017 2.818-4.123 6.386-10.471 9.076z"/><circle cx="219.666" cy="117.178" r="8.194"/></g></svg>