<svg xmlns="http://www.w3.org/2000/svg" width="1041.277" height="554.141"><g transform="translate(-.011 -.035)"><path fill="#f2f2f2" d="M961.48 438.21q-1.74 3.75-3.47 7.4-2.7 5.67-5.33 11.12c-.78 1.61-1.56 3.19-2.32 4.77-8.6 17.57-16.63 33.11-23.45 45.89a73.21 73.21 0 0 1-63.81 38.7l-151.65 1.65h-1.6l-13 .14-11.12.12-34.1.37h-1.38l-17.36.19h-.53l-107 1.16-95.51 1-11.11.12-69 .75h-.08l-44.75.48h-.48l-141.5 1.53-42.33.46a88 88 0 0 1-10.79-.54c-1.22-.14-2.44-.3-3.65-.49a87.38 87.38 0 0 1-51.29-27.54c-18.21-20.03-31.46-43.4-40.36-68.76q-1.93-5.49-3.6-11.12c-30.81-104.15 6.75-238.52 74.35-328.44q4.25-5.64 8.64-11l.07-.08c20.79-25.52 44.1-46.84 68.93-62 44-26.91 92.75-34.49 140.7-11.9 40.57 19.12 78.45 28.11 115.17 30.55 3.71.24 7.42.42 11.11.53 84.23 2.65 163.17-27.7 255.87-47.29 3.69-.78 7.39-1.55 11.12-2.28C763 .54 836.36-6.4 923.6 8.19a189 189 0 0 1 26.76 6.4q5.77 1.86 11.12 4c41.64 16.94 64.35 48.24 74 87.46q1.37 5.46 2.37 11.11c17.11 94.34-33 228.16-76.37 321.05"/><path d="M497.02 445.61a95 95 0 0 1-1.87 11.12h93.7v-11.12zm-78.25 62.81 11.11-.09v-27.47c-3.81-.17-7.52-.34-11.11-.52zm-232.92-62.81v11.12h198.5v-11.12zm849.68-339.52h-74V18.6q-5.35-2.17-11.12-4v91.49H696.87V13.67c-3.73.73-7.43 1.5-11.12 2.28v90.14H429.88V63.24c-3.69-.11-7.4-.29-11.11-.53v43.38H162.9v-62c-24.83 15.16-48.14 36.48-68.93 62h-.07v.08q-4.4 5.4-8.64 11h8.64v328.44h-83q1.66 5.63 3.6 11.12h79.39v93.62a87 87 0 0 0 12.2 2.79c1.21.19 2.43.35 3.65.49a88 88 0 0 0 10.79.54l42.33-.46v-97h255.91v94.21l11.11-.12v-94.07h255.87v91.36l11.12-.12v-91.24h253.49v4.77c.76-1.58 1.54-3.16 2.32-4.77q2.63-5.45 5.33-11.12 1.73-3.64 3.47-7.4v-321h76.42q-1.01-5.69-2.37-11.12M162.9 445.61V117.17h255.87v328.44zm267 0V117.17h255.85v328.44zm520.48 0H696.87V117.17h253.49z" opacity=".1"/><path fill="#65617d" d="M863.09 533.65v13l-151.92 1.4-1.62.03-57.74.53-1.38.02-17.55.15h-.52l-106.98.99-175.61 1.63h-.15l-44.65.42-.48.01-198.4 1.82v-15l46.65-28 93.6-.78 2-.01.66-.01 2-.03 44.94-.37 2.01-.01.64-.01 2-.01 14.41-.12.38-.01 35.55-.3h.29l277.4-2.34 6.79-.05h.68l5.18-.05 37.65-.31 2-.03 1.85-.02h.96l11.71-.09 2.32-.03 3.11-.02 9.75-.09 15.47-.13 2-.02 3.48-.02h.65l74.71-.64z"/><path d="M863.09 533.65v13l-151.92 1.4-1.62.03-57.74.53-1.38.02-17.55.15h-.52l-106.98.99-175.61 1.63h-.15l-44.65.42-.48.01-198.4 1.82v-15l46.65-28 93.6-.78 2-.01.66-.01 2-.03 44.94-.37 2.01-.01.64-.01 2-.01 14.41-.12.38-.01 35.55-.3h.29l277.4-2.34 6.79-.05h.68l5.18-.05 37.65-.31 2-.03 1.85-.02h.96l11.71-.09 2.32-.03 3.11-.02 9.75-.09 15.47-.13 2-.02 3.48-.02h.65l74.71-.64z" opacity=".2"/><path fill="#3f3d56" d="M296.1 483.66v24.49a6.13 6.13 0 0 1-3.5 5.54 6 6 0 0 1-2.5.6l-34.9.74a6 6 0 0 1-2.7-.57 6.12 6.12 0 0 1-3.57-5.57v-25.23z"/><path d="M296.1 483.66v24.49a6.13 6.13 0 0 1-3.5 5.54 6 6 0 0 1-2.5.6l-34.9.74a6 6 0 0 1-2.7-.57 6.12 6.12 0 0 1-3.57-5.57v-25.23z" opacity=".1"/><path fill="#3f3d56" d="M298.1 483.66v24.49a6.13 6.13 0 0 1-3.5 5.54 6 6 0 0 1-2.5.6l-34.9.74a6 6 0 0 1-2.7-.57 6.12 6.12 0 0 1-3.57-5.57v-25.23zM680.92 483.65h47.17v31.5h-47.17z"/><path d="M680.92 483.65h47.17v31.5h-47.17z" opacity=".1"/><path fill="#3f3d56" d="M678.92 483.65h47.17v31.5h-47.17z"/><path d="M298.09 483.65v4.97l-47.17 1.26v-6.23z" opacity=".1"/><path fill="#65617d" d="M381.35 312.36v168.2a4 4 0 0 1-3.85 3.95l-191.65 5.1h-.05a4 4 0 0 1-3.95-3.95v-173.3a4 4 0 0 1 3.95-3.95h191.6a4 4 0 0 1 3.95 3.95"/><path d="M185.85 308.41v181.2h-.05a4 4 0 0 1-3.95-3.95v-173.3a4 4 0 0 1 3.95-3.95z" opacity=".1"/><path fill="#39374d" d="M194.59 319.15h177.5V467.4l-177.5 4z"/><path d="M726.09 483.65v6.41l-47.17-1.26v-5.15z" opacity=".1"/><path fill="#65617d" d="M788.35 312.36v173.3a4 4 0 0 1-4 3.95l-191.69-5.1a4 4 0 0 1-3.85-3.95v-168.2a4 4 0 0 1 3.95-3.95h191.6a4 4 0 0 1 3.99 3.95"/><path d="M788.35 312.36v173.3a4 4 0 0 1-4 3.95v-181.2a4 4 0 0 1 4 3.95" opacity=".1"/><path fill="#39374d" d="M775.59 319.15h-177.5V467.4l177.5 4z"/><path fill="#65617d" d="M583.85 312.36v168.2a4 4 0 0 1-3.85 3.95l-191.65 5.1a4 4 0 0 1-4-3.95v-173.3a4 4 0 0 1 3.95-3.95h191.6a4 4 0 0 1 3.95 3.95"/><path fill="#4267b2" d="M397.09 319.15h177.5V467.4l-177.5 4z"/><path d="M863.09 533.65v13l-151.92 1.4-1.62.03-57.74.53-1.38.02-17.55.15h-.52l-106.98.99-175.61 1.63h-.15l-44.65.42-.48.01-198.4 1.82v-15l202.51-1.33h.48l40.99-.28h.19l283.08-1.87h.29l.17-.01h.47l4.79-.03h1.46l74.49-.5 4.4-.02.98-.01z" opacity=".1"/><circle cx="487.26" cy="298.15" r="51.33" fill="#fbbebe"/><path fill="#fbbebe" d="M538.6 377.16s-99.5 12-90 0c3.44-4.34 4.39-17.2 4.2-31.85-.06-4.45-.22-9.06-.45-13.65-1.1-22-3.75-43.5-3.75-43.5s87-41 77-8.5c-4 13.13-2.69 31.57.35 48.88.89 5.05 1.92 10 3 14.7a345 345 0 0 0 9.65 33.92"/><path fill="#ff6584" d="M506.13 373.09c11.51-2.13 23.7-6 34.53-1.54 2.85 1.17 5.47 2.88 8.39 3.86s6.12 1.22 9.16 1.91c10.68 2.42 19.34 10.55 24.9 20s8.44 20.14 11.26 30.72l6.9 25.83c6 22.45 12 45.09 13.39 68.3a2438 2438 0 0 1-250.84 1.43c5.44-10.34 11-21.31 10.54-33s-7.19-23.22-4.76-34.74c1.55-7.34 6.57-13.39 9.64-20.22 8.75-19.52 1.94-45.79 17.32-60.65 6.92-6.68 17-9.21 26.63-8.89 12.28.41 24.85 4.24 37 6.11 15.56 2.36 30.26 3.76 45.94.88"/><path d="m637.03 484.26-.1 1.43v.1l-.17 2.3-1.33 18.51-1.61 22.3-.46 6.28-1 13.44v.17l-107 1-175.59 1.9v.84h-.14v-1.12l.45-14.36.86-28.06.74-23.79.07-2.37a10.53 10.53 0 0 1 11.42-10.17c4.72.4 10.85.89 18.18 1.41l3 .22c42.33 2.94 120.56 6.74 199.5 2 1.66-.09 3.33-.19 5-.31 12.24-.77 24.47-1.76 36.58-3a10.53 10.53 0 0 1 11.6 11.23z" opacity=".1"/><path fill="#3f3d56" d="M349.74 552.53v-.84l175.62-1.91 107-1h.3v-.17l1-13.44.43-6 1.64-22.61 1.29-17.9v-.44a10.6 10.6 0 0 0-.11-2.47.3.3 0 0 0 0-.1 10.4 10.4 0 0 0-2-4.64 10.54 10.54 0 0 0-9.42-4 937 937 0 0 1-36.58 3c-1.67.12-3.34.22-5 .31-78.94 4.69-157.17.89-199.5-2l-3-.22c-7.33-.52-13.46-1-18.18-1.41a10.54 10.54 0 0 0-11.24 8.53 11 11 0 0 0-.18 1.64l-.68 22.16-.93 28.07-.44 14.36v1.12z"/><path d="m637.33 491.27-1.23 15.33-1.83 22.85-.46 5.72-1 12.81-.06.64v.17l-.15 1.48.11-1.48h-.29l-107 1-175.65 1.9v-.28l.49-14.36 1-28.06.64-18.65a6.36 6.36 0 0 1 3.06-5.25 6.25 6.25 0 0 1 3.78-.9c2.1.17 4.68.37 7.69.59 4.89.36 10.92.78 17.94 1.22 13 .82 29.31 1.7 48 2.42 52 2 122.2 2.67 188.88-3.17 3-.26 6.1-.55 9.13-.84a6.26 6.26 0 0 1 3.48.66 5 5 0 0 1 .86.54 6.14 6.14 0 0 1 2 2.46 3.6 3.6 0 0 1 .25.61 6.3 6.3 0 0 1 .36 2.59M298.1 504.96v3.19a6.13 6.13 0 0 1-3.5 5.54l-40.1.77a6.12 6.12 0 0 1-3.57-5.57v-3z" opacity=".1"/><path fill="#3f3d56" d="m298.59 515.57-52.25 1v-8.67l52.25-1z"/><path d="m298.59 515.57-52.25 1v-8.67l52.25-1z" opacity=".1"/><path fill="#3f3d56" d="m300.59 515.57-52.25 1v-8.67l52.25-1z"/><path d="M679.22 506.96v3.19a6.13 6.13 0 0 0 3.5 5.54l40.1.77a6.12 6.12 0 0 0 3.57-5.57v-3z" opacity=".1"/><path d="m678.72 517.57 52.25 1v-8.67l-52.25-1z" opacity=".1"/><path fill="#3f3d56" d="m676.72 517.57 52.25 1v-8.67l-52.25-1zM454.79 313.88c.08 7-3.16 13.6-5.91 20.07a163.5 163.5 0 0 0-12.66 74.71c.73 11 2.58 22 .73 32.9s-8.43 21.77-19 24.9c17.53 10.45 41.26 9.35 57.76-2.66 8.79-6.4 15.34-15.33 21.75-24.11a97.86 97.86 0 0 1-13.31 44.75 103.43 103.43 0 0 0 73.51-40.82c4.31-5.81 8.06-12.19 9.72-19.23 3.09-13-1.22-26.51-4.51-39.5a266 266 0 0 1-6.17-33c-.43-3.56-.78-7.22.1-10.7 1-4.07 3.67-7.51 5.64-11.22 5.6-10.54 5.73-23.3 2.86-34.88s-8.49-22.26-14.06-32.81c-4.46-8.46-9.3-17.31-17.46-22.28-5.1-3.1-11-4.39-16.88-5.64l-25.37-5.43c-5.55-1.19-11.26-2.38-16.87-1.51-9.47 1.48-16.14 8.32-22 15.34-4.59 5.46-15.81 15.71-16.6 22.86-.72 6.59 5.1 17.63 6.09 24.58 1.3 9 2.22 6 7.3 11.52 3.21 3.42 5.28 7.37 5.34 12.16"/></g><g fill-rule="evenodd"><path fill="#fff" d="M280.139 370.832h43.635v17.662h-43.635z"/><path fill="#3ecc5f" d="M240.66 428.493a10.38 10.38 0 0 1-8.989-5.195 10.377 10.377 0 0 0 8.988 15.584h10.391v-10.389z"/><path fill="#3ecc5f" d="m287.402 373.625 36.373-2.273v-5.195a10.39 10.39 0 0 0-10.39-10.389h-46.75l-1.3-2.249a1.5 1.5 0 0 0-2.6 0l-1.3 2.249-1.3-2.249a1.5 1.5 0 0 0-2.6 0l-1.3 2.249-1.3-2.249a1.5 1.5 0 0 0-2.6 0l-1.3 2.249h-.034l-2.152-2.151a1.5 1.5 0 0 0-2.508.672l-.696 2.653-2.7-.723a1.5 1.5 0 0 0-1.836 1.837l.722 2.7-2.65.71a1.5 1.5 0 0 0-.673 2.509l2.152 2.152v.033l-2.249 1.3a1.5 1.5 0 0 0 0 2.6l2.249 1.3-2.249 1.3a1.5 1.5 0 0 0 0 2.6l2.25 1.282-2.249 1.3a1.5 1.5 0 0 0 0 2.6l2.249 1.3-2.249 1.3a1.5 1.5 0 0 0 0 2.6l2.249 1.3-2.249 1.3a1.5 1.5 0 0 0 0 2.6l2.249 1.3-2.249 1.3a1.5 1.5 0 0 0 0 2.6l2.249 1.3-2.249 1.3a1.5 1.5 0 0 0 0 2.6l2.249 1.3-2.249 1.3a1.5 1.5 0 0 0 0 2.6l2.249 1.3-2.249 1.3a1.5 1.5 0 0 0 0 2.6l2.249 1.3-2.249 1.3a1.5 1.5 0 0 0 0 2.6l2.249 1.3-2.249 1.3a1.5 1.5 0 0 0 0 2.6l2.249 1.3-2.249 1.3a1.5 1.5 0 0 0 0 2.6l2.249 1.3a10.39 10.39 0 0 0 10.389 10.34h62.335a10.39 10.39 0 0 0 10.39-10.39v-41.557l-36.373-2.273a5.53 5.53 0 0 1 0-11.038"/><path fill="#3ecc5f" d="M302.996 438.882h15.584v-20.779h-15.584z"/><path fill="#44d860" d="M328.97 425.895a3 3 0 0 0-.332.033q-.029-.117-.06-.234a2.594 2.594 0 1 0-2.567-4.455q-.086-.088-.174-.175a2.593 2.593 0 1 0-4.461-2.569q-.115-.031-.231-.06a2.6 2.6 0 1 0-5.128 0q-.115.029-.231.06a2.594 2.594 0 1 0-4.461 2.569 10.384 10.384 0 1 0 17.314 9.992 2.592 2.592 0 1 0 .332-5.161"/><path fill="#3ecc5f" d="M308.191 407.713h15.584v-10.389h-15.584z"/><path fill="#44d860" d="M328.969 403.818a1.3 1.3 0 1 0 0-2.6 1 1 0 0 0-.166.017l-.03-.117a1.3 1.3 0 0 0-.5-2.5 1.3 1.3 0 0 0-.783.269l-.087-.087a1.3 1.3 0 0 0 .263-.776 1.3 1.3 0 0 0-2.493-.509 5.195 5.195 0 1 0 0 10 1.3 1.3 0 0 0 2.493-.509 1.3 1.3 0 0 0-.263-.776l.087-.087a1.3 1.3 0 0 0 .783.269 1.3 1.3 0 0 0 .5-2.5q.016-.058.03-.117a1 1 0 0 0 .166.017"/><path d="M261.439 372.65a1.3 1.3 0 0 1-1.3-1.3 3.9 3.9 0 0 0-7.792 0 1.3 1.3 0 1 1-2.6 0 6.494 6.494 0 0 1 12.987 0 1.3 1.3 0 0 1-1.3 1.3"/><path fill="#ffff50" d="M282.217 438.882h31.168a10.39 10.39 0 0 0 10.389-10.389V392.13h-31.168a10.39 10.39 0 0 0-10.389 10.389z"/><path d="M315.993 408.233h-25.994a.52.52 0 1 1 0-1.039h25.994a.52.52 0 0 1 0 1.039m0 10.389h-25.994a.52.52 0 1 1 0-1.039h25.994a.52.52 0 0 1 0 1.039m0 10.389h-25.994a.52.52 0 1 1 0-1.039h25.994a.52.52 0 0 1 0 1.039m0-25.877h-25.994a.52.52 0 1 1 0-1.039h25.994a.52.52 0 0 1 0 1.039m0 10.293h-25.994a.52.52 0 1 1 0-1.039h25.994a.52.52 0 0 1 0 1.039m0 10.389h-25.994a.52.52 0 1 1 0-1.039h25.994a.52.52 0 0 1 0 1.039m7.782-47.993h-.018c-1.605.055-2.365 1.66-3.035 3.077-.7 1.48-1.24 2.443-2.126 2.414-.981-.035-1.542-1.144-2.137-2.317-.683-1.347-1.462-2.876-3.1-2.819-1.582.054-2.344 1.451-3.017 2.684-.715 1.313-1.2 2.112-2.141 2.075-1-.036-1.533-.938-2.149-1.981-.686-1.162-1.479-2.467-3.084-2.423-1.555.053-2.319 1.239-2.994 2.286-.713 1.106-1.213 1.781-2.164 1.741-1.025-.036-1.554-.784-2.167-1.65-.688-.973-1.463-2.074-3.062-2.021a3.82 3.82 0 0 0-2.959 1.879c-.64.812-1.14 1.456-2.2 1.415a.52.52 0 0 0-.037 1.039 3.59 3.59 0 0 0 3.05-1.811c.611-.777 1.139-1.448 2.178-1.483 1-.043 1.47.579 2.179 1.582.674.953 1.438 2.033 2.977 2.089 1.612.054 2.387-1.151 3.074-2.217.614-.953 1.144-1.775 2.156-1.81.931-.035 1.438.7 2.153 1.912.674 1.141 1.437 2.434 3.006 2.491 1.623.056 2.407-1.361 3.09-2.616.592-1.085 1.15-2.109 2.14-2.143.931-.022 1.417.829 2.135 2.249.671 1.326 1.432 2.828 3.026 2.886h.088c1.592 0 2.347-1.6 3.015-3.01.592-1.252 1.152-2.431 2.113-2.479z"/><path fill="#3ecc5f" d="M271.828 438.882h20.779v-20.779h-20.779z"/></g><g transform="rotate(-14.98 1643.944 -873.93)"><rect width="43.906" height="17.333" fill="#d8d8d8" rx="2"/><g fill="#4a4a4a" transform="translate(.728 10.948)"><rect width="2.537" height="2.537" x="7.985" rx="1"/><rect width="2.537" height="2.537" x="10.991" rx="1"/><rect width="2.537" height="2.537" x="13.997" rx="1"/><rect width="2.537" height="2.537" x="17.003" rx="1"/><rect width="2.537" height="2.537" x="20.009" rx="1"/><rect width="2.537" height="2.537" x="23.015" rx="1"/><rect width="2.537" height="2.537" x="26.021" rx="1"/><rect width="2.537" height="2.537" x="29.028" rx="1"/><rect width="2.537" height="2.537" x="32.034" rx="1"/><path fill-rule="evenodd" d="M.519 0H6.9a.52.52 0 0 1 .521.52v1.5a.52.52 0 0 1-.519.519H.519A.52.52 0 0 1 0 2.017V.519A.52.52 0 0 1 .519 0m35.134 0h6.383a.52.52 0 0 1 .519.519v1.5a.52.52 0 0 1-.519.519h-6.384a.52.52 0 0 1-.519-.519v-1.5A.52.52 0 0 1 35.652 0z"/></g><g fill="#4a4a4a" transform="translate(.728 4.878)"><path fill-rule="evenodd" d="M.519 0h2.437a.52.52 0 0 1 .519.519v1.5a.52.52 0 0 1-.519.519H.519A.52.52 0 0 1 0 2.017V.519A.52.52 0 0 1 .519 0"/><rect width="2.537" height="2.537" x="3.945" rx="1"/><rect width="2.537" height="2.537" x="6.951" rx="1"/><rect width="2.537" height="2.537" x="9.958" rx="1"/><rect width="2.537" height="2.537" x="12.964" rx="1"/><rect width="2.537" height="2.537" x="15.97" rx="1"/><rect width="2.537" height="2.537" x="18.976" rx="1"/><rect width="2.537" height="2.537" x="21.982" rx="1"/><rect width="2.537" height="2.537" x="24.988" rx="1"/><rect width="2.537" height="2.537" x="27.994" rx="1"/><rect width="2.537" height="2.537" x="31" rx="1"/><rect width="2.537" height="2.537" x="34.006" rx="1"/><rect width="2.537" height="2.537" x="37.012" rx="1"/><rect width="2.537" height="2.537" x="40.018" rx="1"/></g><g fill="#4a4a4a" transform="rotate(180 21.642 2.269)"><path fill-rule="evenodd" d="M.519 0h2.437a.52.52 0 0 1 .519.519v1.5a.52.52 0 0 1-.519.519H.519A.52.52 0 0 1 0 2.017V.519A.52.52 0 0 1 .519 0"/><rect width="2.537" height="2.537" x="3.945" rx="1"/><rect width="2.537" height="2.537" x="6.951" rx="1"/><rect width="2.537" height="2.537" x="9.958" rx="1"/><rect width="2.537" height="2.537" x="12.964" rx="1"/><rect width="2.537" height="2.537" x="15.97" rx="1"/><rect width="2.537" height="2.537" x="18.976" rx="1"/><rect width="2.537" height="2.537" x="21.982" rx="1"/><rect width="2.537" height="2.537" x="24.988" rx="1"/><rect width="2.537" height="2.537" x="27.994" rx="1"/><rect width="2.537" height="2.537" x="31.001" rx="1"/><rect width="2.537" height="2.537" x="34.007" rx="1"/><rect width="2.537" height="2.537" x="37.013" rx="1"/><rect width="2.537" height="2.537" x="40.018" rx="1"/><rect width="2.537" height="2.537" x="3.945" rx="1"/><rect width="2.537" height="2.537" x="6.951" rx="1"/><rect width="2.537" height="2.537" x="9.958" rx="1"/><rect width="2.537" height="2.537" x="12.964" rx="1"/><rect width="2.537" height="2.537" x="15.97" rx="1"/><rect width="2.537" height="2.537" x="18.976" rx="1"/><rect width="2.537" height="2.537" x="21.982" rx="1"/><rect width="2.537" height="2.537" x="24.988" rx="1"/><rect width="2.537" height="2.537" x="27.994" rx="1"/><rect width="2.537" height="2.537" x="31.001" rx="1"/><rect width="2.537" height="2.537" x="34.007" rx="1"/><rect width="2.537" height="2.537" x="37.013" rx="1"/><rect width="2.537" height="2.537" x="40.018" rx="1"/></g><g fill="#4a4a4a" transform="translate(.728 7.883)"><path fill-rule="evenodd" d="M.519 0h3.47a.52.52 0 0 1 .519.519v1.5a.52.52 0 0 1-.519.519H.519A.52.52 0 0 1 0 2.017V.52A.52.52 0 0 1 .519 0"/><rect width="2.537" height="2.537" x="5.073" rx="1"/><rect width="2.537" height="2.537" x="8.079" rx="1"/><rect width="2.537" height="2.537" x="11.085" rx="1"/><rect width="2.537" height="2.537" x="14.091" rx="1"/><rect width="2.537" height="2.537" x="17.098" rx="1"/><rect width="2.537" height="2.537" x="20.104" rx="1"/><rect width="2.537" height="2.537" x="23.11" rx="1"/><rect width="2.537" height="2.537" x="26.115" rx="1"/><rect width="2.537" height="2.537" x="29.122" rx="1"/><rect width="2.537" height="2.537" x="32.128" rx="1"/><rect width="2.537" height="2.537" x="35.134" rx="1"/><path fill-rule="evenodd" d="M38.754 0h3.28a.52.52 0 0 1 .519.519v1.5a.52.52 0 0 1-.519.519h-3.281a.52.52 0 0 1-.519-.521V.52a.52.52 0 0 1 .519-.52z"/></g><g fill="#4a4a4a" transform="translate(.728 14.084)"><rect width="2.537" height="2.537" rx="1"/><rect width="2.537" height="2.537" x="3.006" rx="1"/><rect width="2.537" height="2.537" x="6.012" rx="1"/><rect width="2.537" height="2.537" x="9.018" rx="1"/><path fill-rule="evenodd" d="M12.543 0h14.462a.52.52 0 0 1 .519.519v1.5a.52.52 0 0 1-.519.519H12.543a.52.52 0 0 1-.519-.52V.519A.52.52 0 0 1 12.543 0m15.97 0h1.874a.52.52 0 0 1 .519.519v1.5a.52.52 0 0 1-.519.519h-1.874a.52.52 0 0 1-.519-.519v-1.5A.52.52 0 0 1 28.513 0"/><rect width="2.537" height="2.537" x="31.376" rx="1"/><rect width="2.537" height="2.537" x="34.382" rx="1"/><rect width="2.537" height="2.537" x="40.018" rx="1"/><path d="M37.199 1.08V.519A.52.52 0 0 1 37.718 0h1.499a.52.52 0 0 1 .519.519v.561zM39.737 1.456v.561a.52.52 0 0 1-.519.519h-1.499a.52.52 0 0 1-.519-.519v-.561z"/></g><rect width="42.273" height="1.127" x=".915" y=".556" fill="#4a4a4a" rx=".564"/><g fill="#d8d8d8"><rect width="2.37" height=".752" x="1.949" y=".744" opacity=".136" rx=".376"/><rect width="2.37" height=".752" x="5.193" y=".744" opacity=".136" rx=".376"/><rect width="2.37" height=".752" x="7.688" y=".744" opacity=".136" rx=".376"/><rect width="2.37" height=".752" x="10.183" y=".744" opacity=".136" rx=".376"/><rect width="2.37" height=".752" x="12.679" y=".744" opacity=".136" rx=".376"/><rect width="2.37" height=".752" x="15.797" y=".744" opacity=".136" rx=".376"/><rect width="2.37" height=".752" x="18.292" y=".744" opacity=".136" rx=".376"/><rect width="2.37" height=".752" x="20.788" y=".744" opacity=".136" rx=".376"/><rect width="2.37" height=".752" x="23.283" y=".744" opacity=".136" rx=".376"/><rect width="2.37" height=".752" x="26.402" y=".744" opacity=".136" rx=".376"/><rect width="2.37" height=".752" x="28.897" y=".744" opacity=".136" rx=".376"/><rect width="2.37" height=".752" x="31.393" y=".744" opacity=".136" rx=".376"/><rect width="2.37" height=".752" x="34.512" y=".744" opacity=".136" rx=".376"/><rect width="2.37" height=".752" x="37.007" y=".744" opacity=".136" rx=".376"/><rect width="2.37" height=".752" x="39.502" y=".744" opacity=".136" rx=".376"/></g></g><path fill="#44d860" fill-rule="evenodd" d="M302.996 425.895a3 3 0 0 0-.332.033q-.029-.117-.06-.234a2.594 2.594 0 1 0-2.567-4.455q-.086-.088-.174-.175a2.593 2.593 0 1 0-4.461-2.569q-.116-.031-.231-.06a2.6 2.6 0 1 0-5.128 0q-.115.029-.231.06a2.594 2.594 0 1 0-4.461 2.569 10.384 10.384 0 1 0 17.314 9.992 2.592 2.592 0 1 0 .332-5.161"/><path fill="#3ecc5f" fill-rule="evenodd" d="M271.828 407.713h20.779v-10.389h-20.779z"/><path fill="#44d860" fill-rule="evenodd" d="M297.801 403.818a1.3 1.3 0 1 0 0-2.6 1 1 0 0 0-.166.017l-.03-.117a1.3 1.3 0 0 0-.5-2.5 1.3 1.3 0 0 0-.783.269l-.087-.087a1.3 1.3 0 0 0 .263-.776 1.3 1.3 0 0 0-2.493-.509 5.195 5.195 0 1 0 0 10 1.3 1.3 0 0 0 2.493-.509 1.3 1.3 0 0 0-.263-.776l.087-.087a1.3 1.3 0 0 0 .783.269 1.3 1.3 0 0 0 .5-2.5q.016-.058.03-.117a1 1 0 0 0 .166.017"/><path fill-rule="evenodd" d="M302.997 365.507a1.4 1.4 0 0 1-.255-.026 1.3 1.3 0 0 1-.244-.073 1.4 1.4 0 0 1-.224-.119 2 2 0 0 1-.2-.161 1.5 1.5 0 0 1-.161-.2 1.3 1.3 0 0 1-.218-.722 1.4 1.4 0 0 1 .026-.255 1.5 1.5 0 0 1 .072-.244 1.4 1.4 0 0 1 .12-.223 1.3 1.3 0 0 1 .358-.358 1.4 1.4 0 0 1 .224-.119 1.3 1.3 0 0 1 .244-.073 1.2 1.2 0 0 1 .509 0 1.3 1.3 0 0 1 .468.192 2 2 0 0 1 .2.161 2 2 0 0 1 .161.2 1.3 1.3 0 0 1 .12.223 1.4 1.4 0 0 1 .1.5 1.32 1.32 0 0 1-.379.919 2 2 0 0 1-.2.161 1.4 1.4 0 0 1-.223.119 1.3 1.3 0 0 1-.5.1m10.389-.649a1.33 1.33 0 0 1-.92-.379 2 2 0 0 1-.161-.2 1.3 1.3 0 0 1-.218-.722 1.33 1.33 0 0 1 .379-.919 2 2 0 0 1 .2-.161 1.4 1.4 0 0 1 .224-.119 1.3 1.3 0 0 1 .244-.073 1.2 1.2 0 0 1 .509 0 1.3 1.3 0 0 1 .468.192 2 2 0 0 1 .2.161 1.33 1.33 0 0 1 .379.919 1.5 1.5 0 0 1-.026.255 1.3 1.3 0 0 1-.073.244 2 2 0 0 1-.119.223 2 2 0 0 1-.161.2 2 2 0 0 1-.2.161 1.3 1.3 0 0 1-.722.218"/><g fill="#61dafb" transform="translate(466.3 278.56)"><path d="M263.668 117.179c0-5.827-7.3-11.35-18.487-14.775 2.582-11.4 1.434-20.477-3.622-23.382a7.86 7.86 0 0 0-4.016-1v4a4.15 4.15 0 0 1 2.044.466c2.439 1.4 3.5 6.724 2.672 13.574-.2 1.685-.52 3.461-.914 5.272a87 87 0 0 0-11.386-1.954 87.5 87.5 0 0 0-7.459-8.965c5.845-5.433 11.332-8.41 15.062-8.41V78c-4.931 0-11.386 3.514-17.913 9.611-6.527-6.061-12.982-9.539-17.913-9.539v4c3.712 0 9.216 2.959 15.062 8.356a85 85 0 0 0-7.405 8.947 84 84 0 0 0-11.4 1.972 54 54 0 0 1-.932-5.2c-.843-6.85.2-12.175 2.618-13.592a4 4 0 0 1 2.062-.466v-4a8 8 0 0 0-4.052 1c-5.039 2.9-6.168 11.96-3.568 23.328-11.153 3.443-18.415 8.947-18.415 14.757 0 5.828 7.3 11.35 18.487 14.775-2.582 11.4-1.434 20.477 3.622 23.382a7.9 7.9 0 0 0 4.034 1c4.931 0 11.386-3.514 17.913-9.611 6.527 6.061 12.982 9.539 17.913 9.539a8 8 0 0 0 4.052-1c5.039-2.9 6.168-11.96 3.568-23.328 11.111-3.42 18.373-8.943 18.373-14.752m-23.346-11.96a80 80 0 0 1-2.421 7.083 83 83 0 0 0-2.349-4.3 97 97 0 0 0-2.582-4.2c2.547.377 5.004.843 7.353 1.417zm-8.212 19.1c-1.4 2.421-2.833 4.716-4.321 6.85a93 93 0 0 1-8.1.359c-2.708 0-5.415-.126-8.069-.341q-2.232-3.2-4.339-6.814-2.044-3.523-3.73-7.136a94 94 0 0 1 3.712-7.154c1.4-2.421 2.833-4.716 4.321-6.85a93 93 0 0 1 8.1-.359c2.708 0 5.415.126 8.069.341q2.232 3.2 4.339 6.814 2.044 3.523 3.73 7.136a101 101 0 0 1-3.712 7.15zm5.792-2.331a77 77 0 0 1 2.474 7.136 80 80 0 0 1-7.387 1.434c.879-1.381 1.757-2.8 2.582-4.25a96 96 0 0 0 2.329-4.324zm-18.182 19.128a74 74 0 0 1-4.985-5.738c1.614.072 3.263.126 4.931.126 1.685 0 3.353-.036 4.985-.126a70 70 0 0 1-4.931 5.738m-13.34-10.561c-2.546-.377-5-.843-7.352-1.417a80 80 0 0 1 2.421-7.083c.735 1.434 1.506 2.869 2.349 4.3s1.702 2.837 2.582 4.2m13.25-37.314a74 74 0 0 1 4.985 5.738 111 111 0 0 0-4.931-.126c-1.686 0-3.353.036-4.985.126a70 70 0 0 1 4.931-5.738M206.362 103.8a101 101 0 0 0-4.913 8.55 77 77 0 0 1-2.474-7.136 90 90 0 0 1 7.387-1.414m-16.227 22.449c-6.348-2.708-10.454-6.258-10.454-9.073s4.106-6.383 10.454-9.073c1.542-.663 3.228-1.255 4.967-1.811a86 86 0 0 0 4.034 10.92 85 85 0 0 0-3.981 10.866 54 54 0 0 1-5.021-1.826zm9.647 25.623c-2.439-1.4-3.5-6.724-2.672-13.574.2-1.686.52-3.461.914-5.272a87 87 0 0 0 11.386 1.954 87.5 87.5 0 0 0 7.459 8.965c-5.845 5.433-11.332 8.41-15.062 8.41a4.3 4.3 0 0 1-2.026-.48zm42.532-13.663c.843 6.85-.2 12.175-2.618 13.592a4 4 0 0 1-2.062.466c-3.712 0-9.216-2.959-15.062-8.356a85 85 0 0 0 7.405-8.947 84 84 0 0 0 11.4-1.972 50 50 0 0 1 .936 5.22zm6.9-11.96c-1.542.663-3.228 1.255-4.967 1.811a86 86 0 0 0-4.034-10.92 85 85 0 0 0 3.981-10.866 57 57 0 0 1 5.039 1.829c6.348 2.708 10.454 6.258 10.454 9.073-.017 2.818-4.123 6.386-10.471 9.076z"/><circle cx="219.666" cy="117.178" r="8.194"/></g></svg>