<svg xmlns="http://www.w3.org/2000/svg" xmlns:xlink="http://www.w3.org/1999/xlink" width="124" height="124"><defs><path id="a" d="M0 .165h123.833v122.819H0z"/><path id="c" d="M0 123.152h123.833V.333H0z"/></defs><g fill="none" fill-rule="evenodd"><g transform="translate(0 .168)"><mask id="b" fill="#fff"><use xlink:href="#a"/></mask><path fill="#EE742B" d="M61.917 122.984c34.195 0 61.916-27.492 61.916-61.41C123.833 27.66 96.112.165 61.917.165 27.72.165 0 27.66 0 61.575c0 33.917 27.721 61.409 61.917 61.409" mask="url(#b)"/></g><path fill="#FFF" d="M30.213 73.523h2.237v9.403h4.65v1.937h-6.887z"/><mask id="d" fill="#fff"><use xlink:href="#c"/></mask><path fill="#FFF" d="M38.969 84.863h2.237V73.524h-2.237zm5.008-11.217c1.083-.159 2.556-.299 3.586-.299 2.592 0 4.35.88 4.35 3.081 0 1.338-.657 2.078-1.616 2.43v.07c1.296.406 1.882 1.251 1.882 2.712 0 2.483-1.722 3.399-4.598 3.399a29 29 0 0 1-3.604-.264zm3.941 4.543c1.119 0 1.722-.37 1.722-1.444 0-1.232-.815-1.462-2.095-1.462-.354 0-.816.019-1.33.071v2.835zm-.302 4.931c1.403 0 2.291-.247 2.291-1.586 0-1.162-.675-1.584-1.9-1.584h-1.793v3.1c.55.052 1.03.07 1.402.07m6.877-9.597h6.959v1.937H56.73v2.641h4.012v1.901H56.73v2.924h4.722v1.937h-6.959zm9.308.159c.888-.14 2.468-.318 3.64-.318 2.556 0 4.42.846 4.42 3.522 0 1.83-.87 2.818-2.113 3.275.676 1.391 1.669 3.117 2.592 4.666l-.017.036h-2.628a79 79 0 0 1-2.255-4.349c-.532 0-1.011-.035-1.402-.089v4.438h-2.237zm3.569 5.106c1.42 0 2.219-.37 2.219-1.76 0-1.374-.799-1.744-2.184-1.744-.426 0-.976.035-1.367.07v3.363c.426.054 1.03.07 1.332.07m9.269-3.327h-3.195v-1.936h8.628v1.936h-3.196v9.403h-2.237zm10.821 5.16c-1.438-2.272-2.77-4.579-3.941-7.097h2.432a56 56 0 0 0 2.627 5.019h.072a56 56 0 0 0 2.626-5.019h2.345c-1.172 2.518-2.486 4.825-3.924 7.096v4.243H87.46zM38.077 92.703c0-2.72 1.067-4.395 4.134-4.395.784 0 1.594.107 2.31.255l-.216 1.433c-.621-.107-1.486-.214-2.094-.214-2.027 0-2.405 1.166-2.405 2.908 0 1.675.378 3.029 2.108 3.029.338 0 .851-.054 1.216-.161v-3.002h1.702v4.007c-.81.389-1.905.643-2.945.643-2.757 0-3.81-1.809-3.81-4.503m8.813-4.26h1.703v7.156h3.54v1.474H46.89zm10.132-.134c2.783 0 3.796 1.595 3.796 4.45 0 2.854-1.013 4.448-3.796 4.448s-3.797-1.594-3.797-4.448 1.013-4.45 3.797-4.45m0 7.424c1.675 0 2.067-1.045 2.067-2.974s-.392-2.976-2.067-2.976-2.067 1.046-2.067 2.976.391 2.974 2.067 2.974m5.673-7.196c.825-.12 1.946-.228 2.73-.228 1.973 0 3.31.67 3.31 2.345 0 1.018-.5 1.582-1.23 1.85v.053c.987.308 1.433.951 1.433 2.064 0 1.89-1.31 2.586-3.5 2.586-.756 0-1.905-.08-2.743-.201zm3 3.457c.851 0 1.31-.281 1.31-1.099 0-.938-.62-1.112-1.594-1.112-.27 0-.621.013-1.013.053v2.158zm-.23 3.753c1.068 0 1.743-.188 1.743-1.206 0-.885-.513-1.207-1.446-1.207h-1.364v2.359c.419.04.783.054 1.067.054m7.182-7.304h2.243c.946 2.573 1.905 5.735 2.662 8.63h-1.743l-.473-1.85h-3.162l-.472 1.85h-1.717c.757-2.895 1.717-6.057 2.662-8.63m2.284 5.333a83 83 0 0 0-1.149-3.792h-.054a102 102 0 0 0-1.162 3.792zm4.128-5.333h1.702v7.156h3.54v1.474h-5.242zM47.76 49.324c-.994-4.865-.253-11.65 2.975-12.83-.145-1.67-.134-3.662-.09-5.312.048-1.774.165-3.09-.433-3.007-.718.097-3.082 4.842-3.592 10.924-.186 2.196-.023 4.394.292 6.394.213 1.29.499 2.57.848 3.83m28.113 0c.349-1.26.635-2.54.847-3.83.316-2 .48-4.198.296-6.394-.513-6.082-2.878-10.827-3.595-10.924-.596-.083-.481 1.233-.434 3.007.045 1.65.055 3.643-.09 5.311 3.228 1.18 3.97 7.966 2.976 12.83m-20.507-9.515c1.878 4.476 3.005 9.329 3.297 10.42.323-.45 1.6-1.609 3.153-1.609 1.555 0 2.805 1.16 3.129 1.609.289-1.091 1.418-5.944 3.297-10.42-.088-.84-.541-3.321-.736-4.222-.367-1.682-2.078-9.308-5.69-9.308-3.61 0-5.35 7.626-5.713 9.308-.196.9-.65 3.382-.737 4.222m-.827-1.44c.615-3.652 1.224-5.825 1.987-7.84-1.44.245-3.091 3.591-3.61 6.152.814.528 1.582 1.626 1.623 1.687M70.7 36.68c-.517-2.563-2.171-5.905-3.608-6.152.762 2.013 1.371 4.188 1.986 7.84.042-.06.81-1.16 1.622-1.688" mask="url(#d)"/><path fill="#FFF" d="M75.03 57.569s-.141.089-.145.03c-.003-.033.172-.175.172-.175 3.934-3.089 5.53-8.955 4.844-9.479-.362-.118-1.01 1.303-1.942 3.028-.712 1.317-1.399 2.174-1.399 2.174s-.065.083-.097.07c-.029-.006.019-.096.019-.096 2.825-5.786 3.143-9.864 3.24-11.737.218-4.22-.547-4.424-.853-3.05a87 87 0 0 0-1.094 5.665c-.86 5.574-3.27 11.126-5.175 14.153-.286.442-.525.41-.585.325-.05-.072-.016-.173.158-.494 5.487-10.054 3.156-20.181-.09-20.295-3.115-.112-6.09 12.058-6.437 13.392 2.1 3.557 2.598 8.486 2.449 9.732a.214.214 0 0 1-.208.186.22.22 0 0 1-.222-.206v-.002c0-2.267-1.737-10.905-5.818-10.905-4.086 0-5.823 8.638-5.823 10.905v.002a.216.216 0 0 1-.221.206.21.21 0 0 1-.206-.186c-.151-1.246.347-6.175 2.448-9.732-.348-1.334-3.322-13.504-6.436-13.392-3.245.114-5.575 10.24-.092 20.295.178.321.21.422.159.494-.06.084-.298.117-.583-.325-1.907-3.027-4.317-8.58-5.175-14.153-.312-2.02-.738-4.071-1.094-5.665-.308-1.374-1.072-1.17-.856 3.05.098 1.873.416 5.951 3.24 11.737 0 0 .047.09.021.097-.035.012-.099-.071-.099-.071s-.687-.857-1.399-2.174c-.932-1.725-1.577-3.146-1.94-3.028-.69.524.91 6.39 4.842 9.48 0 0 .177.14.175.174-.004.059-.149-.03-.149-.03-1.529-.935-3.585-3.032-3.922-2.283-.244.866 2.93 4.553 8.028 6.4 0 0 .352.118.352.186 0 .067-.217.002-.217.002-.732-.223-3.113-1.132-3.727-1.046-.664.09-.282.556.346 1.102.62.54 3.485 2.238 7.433 2.518.03.355 1.402 1.588 4.887 1.588 3.486 0 4.87-1.233 4.9-1.588 3.947-.28 6.812-1.978 7.432-2.518.63-.546 1.013-1.012.348-1.102-.615-.086-2.998.823-3.727 1.046 0 0-.22.065-.22-.002.003-.068.353-.186.353-.186 5.1-1.847 8.273-5.534 8.027-6.4-.336-.749-2.392 1.348-3.921 2.283" mask="url(#d)"/></g></svg>