<?xml version="1.0" encoding="UTF-8"?>
<svg width="26px" height="21px" viewBox="0 0 26 21" version="1.1" xmlns="http://www.w3.org/2000/svg" xmlns:xlink="http://www.w3.org/1999/xlink">
    <title>Shape</title>
    <g id="Symbols" stroke="none" stroke-width="1" fill="none" fill-rule="evenodd">
        <g id="Atoms-/-icons-/illustrated/-Settings" transform="translate(-3.000000, -2.000000)" fill="#FFFFFF" fill-rule="nonzero">
            <g id="Group" transform="translate(3.000000, 2.000000)">
                <path d="M20.524,7.64 L20.196,8.212 C20.076,8.424 19.82,8.512 19.592,8.428 C19.12,8.252 18.688,8 18.308,7.684 C18.124,7.532 18.076,7.264 18.196,7.056 L18.524,6.484 C18.248,6.164 18.032,5.792 17.888,5.388 L17.228,5.388 C16.988,5.388 16.78,5.216 16.74,4.976 C16.66,4.496 16.656,3.992 16.74,3.492 C16.78,3.252 16.988,3.076 17.228,3.076 L17.888,3.076 C18.032,2.672 18.248,2.3 18.524,1.98 L18.196,1.408 C18.076,1.2 18.12,0.932 18.308,0.78 C18.688,0.464 19.124,0.212 19.592,0.036 C19.82,-0.048 20.076,0.04 20.196,0.252 L20.524,0.824 C20.944,0.748 21.372,0.748 21.792,0.824 L22.12,0.252 C22.24,0.04 22.496,-0.048 22.724,0.036 C23.196,0.212 23.628,0.464 24.008,0.78 C24.192,0.932 24.24,1.2 24.12,1.408 L23.792,1.98 C24.068,2.3 24.284,2.672 24.428,3.076 L25.088,3.076 C25.328,3.076 25.536,3.248 25.576,3.488 C25.656,3.968 25.66,4.472 25.576,4.972 C25.536,5.212 25.328,5.388 25.088,5.388 L24.428,5.388 C24.284,5.792 24.068,6.164 23.792,6.484 L24.12,7.056 C24.24,7.264 24.196,7.532 24.008,7.684 C23.628,8 23.192,8.252 22.724,8.428 C22.496,8.512 22.24,8.424 22.12,8.212 L21.792,7.64 C21.376,7.716 20.944,7.716 20.524,7.64 L20.524,7.64 Z M20.104,5.288 C21.644,6.472 23.4,4.716 22.216,3.176 C20.676,1.988 18.92,3.748 20.104,5.288 L20.104,5.288 Z M15.492,11.444 L16.84,12.116 C17.244,12.348 17.42,12.84 17.26,13.28 C16.904,14.248 16.204,15.136 15.556,15.912 C15.26,16.268 14.748,16.356 14.344,16.124 L13.18,15.452 C12.54,16 11.796,16.436 10.984,16.72 L10.984,18.064 C10.984,18.528 10.652,18.928 10.196,19.008 C9.212,19.176 8.18,19.184 7.16,19.008 C6.7,18.928 6.36,18.532 6.36,18.064 L6.36,16.72 C5.548,16.432 4.804,16 4.164,15.452 L3,16.12 C2.6,16.352 2.084,16.264 1.788,15.908 C1.14,15.132 0.456,14.244 0.1,13.28 C-0.06,12.844 0.116,12.352 0.52,12.116 L1.852,11.444 C1.696,10.608 1.696,9.748 1.852,8.908 L0.52,8.232 C0.116,8 -0.064,7.508 0.1,7.072 C0.456,6.104 1.14,5.216 1.788,4.44 C2.084,4.084 2.596,3.996 3,4.228 L4.164,4.9 C4.804,4.352 5.548,3.916 6.36,3.632 L6.36,2.284 C6.36,1.824 6.688,1.424 7.144,1.344 C8.128,1.176 9.164,1.168 10.184,1.34 C10.644,1.42 10.984,1.816 10.984,2.284 L10.984,3.628 C11.796,3.916 12.54,4.348 13.18,4.896 L14.344,4.224 C14.744,3.992 15.26,4.08 15.556,4.436 C16.204,5.212 16.884,6.1 17.24,7.068 C17.4,7.504 17.244,7.996 16.84,8.232 L15.492,8.904 C15.648,9.744 15.648,10.604 15.492,11.444 Z M10.788,12.288 C13.156,9.208 9.64,5.692 6.56,8.06 C4.192,11.14 7.708,14.656 10.788,12.288 Z M20.524,19.596 L20.196,20.168 C20.076,20.38 19.82,20.468 19.592,20.384 C19.12,20.208 18.688,19.956 18.308,19.64 C18.124,19.488 18.076,19.22 18.196,19.012 L18.524,18.44 C18.248,18.12 18.032,17.748 17.888,17.344 L17.228,17.344 C16.988,17.344 16.78,17.172 16.74,16.932 C16.66,16.452 16.656,15.948 16.74,15.448 C16.78,15.208 16.988,15.032 17.228,15.032 L17.888,15.032 C18.032,14.628 18.248,14.256 18.524,13.936 L18.196,13.364 C18.076,13.156 18.12,12.888 18.308,12.736 C18.688,12.42 19.124,12.168 19.592,11.992 C19.82,11.908 20.076,11.996 20.196,12.208 L20.524,12.78 C20.944,12.704 21.372,12.704 21.792,12.78 L22.12,12.208 C22.24,11.996 22.496,11.908 22.724,11.992 C23.196,12.168 23.628,12.42 24.008,12.736 C24.192,12.888 24.24,13.156 24.12,13.364 L23.792,13.936 C24.068,14.256 24.284,14.628 24.428,15.032 L25.088,15.032 C25.328,15.032 25.536,15.204 25.576,15.444 C25.656,15.924 25.66,16.428 25.576,16.928 C25.536,17.168 25.328,17.344 25.088,17.344 L24.428,17.344 C24.284,17.748 24.068,18.12 23.792,18.44 L24.12,19.012 C24.24,19.22 24.196,19.488 24.008,19.64 C23.628,19.956 23.192,20.208 22.724,20.384 C22.496,20.468 22.24,20.38 22.12,20.168 L21.792,19.596 C21.376,19.672 20.944,19.672 20.524,19.596 Z M20.104,17.24 C21.644,18.424 23.4,16.668 22.216,15.128 C20.676,13.944 18.92,15.7 20.104,17.24 L20.104,17.24 Z" id="Shape"></path>
            </g>
        </g>
    </g>
</svg>