<?xml version="1.0" encoding="UTF-8"?>
<svg width="22px" height="21px" viewBox="0 0 22 21" version="1.1" xmlns="http://www.w3.org/2000/svg" xmlns:xlink="http://www.w3.org/1999/xlink">
    <title>Shape</title>
    <g id="Symbols" stroke="none" stroke-width="1" fill="none" fill-rule="evenodd">
        <g id="Atoms-/-icons-/illustrated/-Pie" transform="translate(-5.000000, -2.000000)" fill="#FFFFFF">
            <g id="Group" transform="translate(5.000000, 2.000000)">
                <path d="M21.1116874,11.5198464 L11.6200874,11.5198464 L17.9412874,17.8410464 C18.1828874,18.0826464 18.5804874,18.1022464 18.8288874,17.8682464 C20.3768874,16.4098464 21.4416874,14.4438464 21.7540874,12.2338464 C21.8076874,11.8554464 21.4936874,11.5198464 21.1116874,11.5198464 L21.1116874,11.5198464 Z M20.4784874,8.9278464 C20.1488874,4.1494464 16.3304874,0.331046404 11.5520874,0.00144640429 C11.1872874,-0.0237535957 10.8800874,0.283846404 10.8800874,0.649446404 L10.8800874,9.5998464 L19.8308874,9.5998464 C20.1964874,9.5998464 20.5036874,9.2926464 20.4784874,8.9278464 Z M8.96008742,11.5198464 L8.96008742,2.0282464 C8.96008742,1.6462464 8.62448742,1.3322464 8.24648742,1.3858464 C3.47968742,2.0594464 -0.163912577,6.2238464 0.00568742316,11.2146464 C0.180087423,16.3402464 4.59328742,20.5434464 9.72128742,20.4790464 C11.7372874,20.4538464 13.6000874,19.8042464 15.1316874,18.7178464 C15.4476874,18.4938464 15.4684874,18.0286464 15.1944874,17.7546464 L8.96008742,11.5198464 Z" id="Shape"></path>
            </g>
        </g>
    </g>
</svg>