<svg xmlns="http://www.w3.org/2000/svg" width="498" height="127" fill="none" viewBox="0 0 498 127"><path fill="#000" d="M159.5 99.5L165.7 85.1C172.4 90.1 181.3 92.7 190.1 92.7C196.6 92.7 200.7 90.2 200.7 86.4C200.6 75.8 161.8 84.1 161.5 57.5C161.4 44 173.4 33.6 190.4 33.6C200.5 33.6 210.6 36.1 217.8 41.8L212 56.5C205.4 52.3 197.2 49.3 189.4 49.3C184.1 49.3 180.6 51.8 180.6 55C180.7 65.4 219.8 59.7 220.2 85.1C220.2 98.9 208.5 108.6 191.7 108.6C179.4 108.6 168.1 105.7 159.5 99.5Z"/><path fill="#000" d="M397.4 79.9C394.3 85.3 388.5 89 381.8 89C371.9 89 363.9 81 363.9 71.1C363.9 61.2 371.9 53.2 381.8 53.2C388.5 53.2 394.3 56.9 397.4 62.3L414.5 52.8C408.1 41.4 395.8 33.6 381.8 33.6C361.1 33.6 344.3 50.4 344.3 71.1C344.3 91.8 361.1 108.6 381.8 108.6C395.9 108.6 408.1 100.9 414.5 89.4L397.4 79.9Z"/><path fill="#000" d="M228.8 2.5H250.2V107.2H228.8V2.5Z"/><path fill="#000" d="M422.9 2.5V107.2H444.3V75.8L469.7 107.2H497.1L464.8 69.9L494.7 35.1H468.5L444.3 64V2.5H422.9Z"/><path fill="#000" d="M313.8 80.1C310.7 85.2 304.3 89 297.1 89C287.2 89 279.2 81 279.2 71.1C279.2 61.2 287.2 53.2 297.1 53.2C304.3 53.2 310.7 57.2 313.8 62.4V80.1ZM313.8 35.1V43.6C310.3 37.7 301.6 33.6 292.5 33.6C273.7 33.6 258.9 50.2 258.9 71C258.9 91.8 273.7 108.6 292.5 108.6C301.6 108.6 310.3 104.5 313.8 98.6V107.1H335.2V35.1H313.8Z"/><path fill="#E01E5A" d="M27.2 80C27.2 87.3 21.3 93.2 14 93.2C6.7 93.2 0.800003 87.3 0.800003 80C0.800003 72.7 6.7 66.8 14 66.8H27.2V80Z"/><path fill="#E01E5A" d="M33.8 80C33.8 72.7 39.7 66.8 47 66.8C54.3 66.8 60.2 72.7 60.2 80V113C60.2 120.3 54.3 126.2 47 126.2C39.7 126.2 33.8 120.3 33.8 113V80Z"/><path fill="#36C5F0" d="M47 27C39.7 27 33.8 21.1 33.8 13.8C33.8 6.49998 39.7 0.599976 47 0.599976C54.3 0.599976 60.2 6.49998 60.2 13.8V27H47Z"/><path fill="#36C5F0" d="M47 33.7C54.3 33.7 60.2 39.6 60.2 46.9C60.2 54.2 54.3 60.1 47 60.1H13.9C6.6 60.1 0.699997 54.2 0.699997 46.9C0.699997 39.6 6.6 33.7 13.9 33.7H47Z"/><path fill="#2EB67D" d="M99.9 46.9C99.9 39.6 105.8 33.7 113.1 33.7C120.4 33.7 126.3 39.6 126.3 46.9C126.3 54.2 120.4 60.1 113.1 60.1H99.9V46.9Z"/><path fill="#2EB67D" d="M93.3 46.9C93.3 54.2 87.4 60.1 80.1 60.1C72.8 60.1 66.9 54.2 66.9 46.9V13.8C66.9 6.49998 72.8 0.599976 80.1 0.599976C87.4 0.599976 93.3 6.49998 93.3 13.8V46.9Z"/><path fill="#ECB22E" d="M80.1 99.8C87.4 99.8 93.3 105.7 93.3 113C93.3 120.3 87.4 126.2 80.1 126.2C72.8 126.2 66.9 120.3 66.9 113V99.8H80.1Z"/><path fill="#ECB22E" d="M80.1 93.2C72.8 93.2 66.9 87.3 66.9 80C66.9 72.7 72.8 66.8 80.1 66.8H113.2C120.5 66.8 126.4 72.7 126.4 80C126.4 87.3 120.5 93.2 113.2 93.2H80.1Z"/></svg>