<svg enable-background="new 0 0 622.3 254.4" viewBox="0 0 622.3 254.4" xmlns="http://www.w3.org/2000/svg"><path d="m221.5 161.5 6.2-14.4c6.7 5 15.6 7.6 24.4 7.6 6.5 0 10.6-2.5 10.6-6.3-.1-10.6-38.9-2.3-39.2-28.9-.1-13.5 11.9-23.9 28.9-23.9 10.1 0 20.2 2.5 27.4 8.2l-5.8 14.7c-6.6-4.2-14.8-7.2-22.6-7.2-5.3 0-8.8 2.5-8.8 5.7.1 10.4 39.2 4.7 39.6 30.1 0 13.8-11.7 23.5-28.5 23.5-12.3 0-23.6-2.9-32.2-9.1"/><path d="m459.4 141.9c-3.1 5.4-8.9 9.1-15.6 9.1-9.9 0-17.9-8-17.9-17.9s8-17.9 17.9-17.9c6.7 0 12.5 3.7 15.6 9.1l17.1-9.5c-6.4-11.4-18.7-19.2-32.7-19.2-20.7 0-37.5 16.8-37.5 37.5s16.8 37.5 37.5 37.5c14.1 0 26.3-7.7 32.7-19.2z"/><path d="m290.8 64.5h21.4v104.7h-21.4z"/><path d="m484.9 64.5v104.7h21.4v-31.4l25.4 31.4h27.4l-32.3-37.3 29.9-34.8h-26.2l-24.2 28.9v-61.5z"/><path d="m375.8 142.1c-3.1 5.1-9.5 8.9-16.7 8.9-9.9 0-17.9-8-17.9-17.9s8-17.9 17.9-17.9c7.2 0 13.6 4 16.7 9.2zm0-45v8.5c-3.5-5.9-12.2-10-21.3-10-18.8 0-33.6 16.6-33.6 37.4s14.8 37.6 33.6 37.6c9.1 0 17.8-4.1 21.3-10v8.5h21.4v-72z"/><path d="m89.2 142c0 7.3-5.9 13.2-13.2 13.2s-13.2-5.9-13.2-13.2 5.9-13.2 13.2-13.2h13.2z" fill="#e01e5a"/><path d="m95.8 142c0-7.3 5.9-13.2 13.2-13.2s13.2 5.9 13.2 13.2v33c0 7.3-5.9 13.2-13.2 13.2s-13.2-5.9-13.2-13.2z" fill="#e01e5a"/><path d="m109 89c-7.3 0-13.2-5.9-13.2-13.2s5.9-13.2 13.2-13.2 13.2 5.9 13.2 13.2v13.2z" fill="#36c5f0"/><path d="m109 95.7c7.3 0 13.2 5.9 13.2 13.2s-5.9 13.2-13.2 13.2h-33.1c-7.3 0-13.2-5.9-13.2-13.2s5.9-13.2 13.2-13.2z" fill="#36c5f0"/><path d="m161.9 108.9c0-7.3 5.9-13.2 13.2-13.2s13.2 5.9 13.2 13.2-5.9 13.2-13.2 13.2h-13.2z" fill="#2eb67d"/><path d="m155.3 108.9c0 7.3-5.9 13.2-13.2 13.2s-13.2-5.9-13.2-13.2v-33.1c0-7.3 5.9-13.2 13.2-13.2s13.2 5.9 13.2 13.2z" fill="#2eb67d"/><g fill="#ecb22e"><path d="m142.1 161.8c7.3 0 13.2 5.9 13.2 13.2s-5.9 13.2-13.2 13.2-13.2-5.9-13.2-13.2v-13.2z"/><path d="m142.1 155.2c-7.3 0-13.2-5.9-13.2-13.2s5.9-13.2 13.2-13.2h33.1c7.3 0 13.2 5.9 13.2 13.2s-5.9 13.2-13.2 13.2z"/></g></svg>