<svg height="211" viewBox="0 0 607 211" width="607" xmlns="http://www.w3.org/2000/svg"><g fill="none"><g fill="#2d124e" transform="translate(228 44)"><path d="m244.52 31.7c-14.09 0-28.65 8.08-34.36 18.22l8.73 5.05 6.33 3.65c2.64-5.61 11.12-9.91 18.94-9.91h.36c11.12.18 16.61 7.09 16.61 16v7.21c-3.6-2.61-12.61-5.41-20.62-5.41-19.61 0-34.63 11.81-34.63 28.62 0 18.21 15 29 33.23 29 9.088027-.025133 17.654675-4.247557 23.21-11.44l1.78 9.84h16.05v-58.21c-.04-20.2-13.23-32.6-35.63-32.62zm-1.15 76.3h-.59c-9 0-18.32-3.83-18.32-12.81 0-8.77 9.34-12.57 18.32-12.6h.59c9 0 18.32 3.83 18.32 12.6 0 8.93-9.34 12.73-18.32 12.81z"/><path d="m181 96.91c-4.79 7.3-12.79 10.84-22.39 10.84-12.81 0-21.82-9.41-22.42-25h60.65v-7.2c0-26-13.61-43.83-38.63-43.83-24.22 0-41.64 20-41.64 46.63 0 27.42 17.22 46.23 42 46.23 17.48 0 31-7.24 36.78-19.33zm-22.59-48.4c12.21 0 18.42 8.81 18.62 19.61h-40.27c2.4-12.81 10.61-19.61 21.62-19.61z"/><path d="m315.18 155.61h-20v-121.91h16.82l1.63 11.1c3.7-5.07 10.87-13.1 24.89-13.1 26 0 40.48 21.61 40.48 46.43s-15.22 46.43-41.24 46.43c-9.8 0-18.61-4.6-22.61-9.6zm21.16-106c-14.2 0-22.68 12.15-22.68 28.48s8.48 28.48 22.68 28.48 22.66-12.11 22.66-28.44-8.47-28.48-22.66-28.48z"/><path d="m103.64.61v122h-20.82v-51.82h-61.82v51.77h-20.85v-121.95h20.85v51.77h61.85v-51.77z"/></g><path d="m180.57 50.65-84.75-48.93c-2.1435953-1.23999165-4.7864047-1.23999165-6.93 0l-84.75 48.93c-2.14174372 1.2389171-3.46047607 3.5257362-3.46 6v97.86c.00157994 2.473713 1.31976265 4.759579 3.46 6l84.75 48.93c2.1435953 1.239992 4.7864047 1.239992 6.93 0l84.75-48.93c2.140237-1.240421 3.45842-3.526287 3.46-6v-97.86c.000476-2.4742638-1.318256-4.7610829-3.46-6zm-17.91 95.52-70.31 40.6-70.35-40.6v-81.17l70.31-40.59v75.19c.0028468 1.237253.6642599 2.379395 1.7359539 2.99768s2.3915249.619169 3.4640461.00232l65.15-37.6z" fill="#ed485f"/></g></svg>