<svg width="150" height="150" xmlns="http://www.w3.org/2000/svg" version="1.1" xml:space="preserve">
 <g>
  <title>Layer 1</title>
	 <g id="logosandtypes_com"/>
	 <g id="Layer_3" stroke="null">
   <path class="st0" d="m1,0l150,0l0,150l-150,0l0,-150z" fill="none" id="svg_1" stroke="null"/>
  </g>
	 <g id="Layer_2"/>
	 <g id="dermira"/>
	 <g id="delifrance"/>
	 <g id="Layer_1"/>
	 <g id="fundacion_comillas"/>
	 <g id="replay_app"/>
	 <g id="alitalia"/>
	 <g id="arfadia"/>
	 <g id="actively_learn"/>
	 <g id="Alemite"/>
	 <g stroke="null" id="Amplitude">
   <path stroke="null" class="st1" d="m75,0c-41.47727,0 -75,33.63636 -75,75s33.63636,75 75,75s75,-33.63636 75,-75s-33.63636,-75 -75,-75zm51.59091,76.36364c-0.56818,0 -1.02273,0.11364 -1.59091,0.11364c-11.36364,0 -22.72727,0.11364 -34.09091,0.11364c-0.34091,0 -0.68182,0 -1.13636,0c0.11364,0 0.11364,0.79545 0.22727,1.13636c1.47727,6.02273 2.95455,12.04545 4.54545,17.95455c1.02273,3.75 2.27273,7.27273 3.86364,10.79545c0.56818,1.25 1.36364,2.38636 2.15909,3.63636c0.22727,0.45455 0.68182,0.79545 0.90909,1.13636c1.70455,1.81818 3.97727,1.59091 5.56818,0.56818c0.90909,-0.56818 1.59091,-1.36364 2.15909,-2.15909c1.13636,-1.59091 2.04545,-3.40909 2.72727,-5.22727c1.81818,-4.88636 3.63636,-9.77273 5.45455,-14.65909c0.56818,-1.47727 1.02273,-2.95455 1.59091,-4.43182c0.34091,-1.02273 0.79545,-1.25 1.47727,-1.13636c0.68182,0.22727 0.79545,0.68182 0.56818,1.70455c-1.13636,4.43182 -2.15909,8.86364 -3.40909,13.18182c-1.13636,4.20455 -2.38636,8.29545 -4.31818,12.27273c-1.25,2.5 -2.61364,4.88636 -4.65909,6.81818c-1.13636,1.02273 -2.27273,1.93182 -3.75,2.38636c-2.95455,1.13636 -5.68182,0.56818 -8.06818,-1.59091c-1.70455,-1.47727 -2.95455,-3.29545 -3.97727,-5.22727c-1.59091,-2.84091 -2.84091,-5.90909 -3.97727,-8.97727c-2.84091,-7.61364 -5,-15.22727 -7.04545,-23.06818c-0.45455,-1.70455 -0.90909,-3.75 -1.36364,-5.11364c-11.25,0 -22.5,0 -33.75,0c-0.11364,0 -0.22727,0.56818 -0.34091,0.79545c-2.15909,6.70455 -4.20455,13.40909 -6.25,20.11364c-0.45455,1.36364 -1.47727,2.15909 -2.72727,2.15909c-1.13636,0 -2.27273,-0.79545 -2.61364,-1.93182c-0.11364,-0.34091 -0.11364,-0.79545 -0.11364,-1.25c1.02273,-5.68182 2.15909,-11.59091 3.18182,-17.27273c0.22727,-1.02273 0.45455,-1.93182 0.68182,-3.29545c-0.45455,0 -0.79545,0 -1.13636,0c-4.31818,0 -8.52273,0.22727 -12.84091,0.22727c-1.81818,0 -4.09091,-1.13636 -4.54545,-3.63636c-0.45455,-2.5 1.36364,-4.88636 3.86364,-5.11364c0.56818,0 1.02273,0 1.59091,0c4.31818,0.11364 8.75,0.11364 13.06818,0.22727c0.56818,0 1.25,0 1.93182,0c0.34091,-1.25 0.68182,-2.61364 1.02273,-3.86364c1.81818,-6.81818 3.75,-13.52273 6.36364,-20.11364c1.70455,-4.31818 3.63636,-8.52273 6.25,-12.38636c1.36364,-2.04545 2.84091,-3.86364 4.77273,-5.34091c1.59091,-1.25 3.29545,-2.15909 5.34091,-2.27273c1.59091,-0.11364 3.06818,0.34091 4.43182,1.25c1.36364,0.90909 2.38636,2.04545 3.40909,3.29545c2.15909,2.84091 3.75,5.90909 5.22727,9.09091c2.95455,6.47727 5.11364,13.18182 7.04545,19.88636c1.02273,3.52273 2.04545,7.04545 2.95455,10.56818c0,0.22727 0.11364,0.34091 0.11364,0.56818c0.22727,0 0.34091,0.11364 0.45455,0.11364c2.61364,0.11364 5.11364,0.11364 7.72727,0.22727c6.02273,0.22727 12.04545,0.34091 18.18182,0.56818c4.09091,0.22727 8.18182,0.45455 12.27273,0.68182c1.81818,0.11364 2.95455,1.02273 3.29545,2.61364c0.45455,1.81818 -0.79545,3.75 -2.72727,3.86364z" fill="#377FC1" id="svg_2"/>
		 <path stroke="null" class="st1" d="m70.90909,45.56818c-0.90909,-2.61364 -1.93182,-5.11364 -3.29545,-7.5c-0.22727,-0.45455 -0.56818,-0.79545 -0.79545,-1.13636c-0.56818,-0.68182 -1.36364,-0.79545 -2.15909,-0.45455c-0.34091,0.11364 -0.79545,0.45455 -1.02273,0.68182c-0.79545,1.02273 -1.70455,2.04545 -2.38636,3.06818c-1.47727,2.38636 -2.61364,4.88636 -3.63636,7.5c-2.61364,6.59091 -4.65909,13.29545 -6.36364,20.11364c0,0.22727 -0.11364,0.45455 -0.11364,0.68182c8.97727,0.11364 17.84091,0.22727 26.81818,0.34091c-0.22727,-0.79545 -0.34091,-1.36364 -0.56818,-2.04545c-1.93182,-7.15909 -3.97727,-14.31818 -6.47727,-21.25z" fill="#377FC1" id="svg_3"/>
  </g>
	 <g id="Aceleradora_Aranda_Emprende"/>
	 <g id="Armstrong_Downes_Commercial"/>
 </g>

</svg>
