<?xml version="1.0" encoding="utf-8"?>

<svg version="1.1" id="Layer_1" xmlns="http://www.w3.org/2000/svg" xmlns:xlink="http://www.w3.org/1999/xlink" x="0px" y="0px"
	 viewBox="0 0 69 73" style="enable-background:new 0 0 69 73;" xml:space="preserve">
<style type="text/css">
	.st0{fill:#232736;}
</style>
<g id="A">
	<path class="st0" d="M30.1,64.9c-1.3,0.2-2.5,0.3-3.9,0.3c-13.7,0-24.9-11.1-24.9-24.9C1.4,33,4.5,26.6,9.5,22L30.1,64.9 M15.6,3
		c3.4-1,7-1.5,10.7-1.5c21.4,0,38.8,17.4,38.7,38.8c0,13.1-6.5,24.7-16.5,31.7l-6.1-12.8c5.6-4.7,8.7-11.6,8.7-18.9
		c0-13.7-11.1-24.9-24.9-24.9c-1.5,0-3,0.1-4.6,0.4L15.6,3z"/>
</g>
</svg>
