<?xml version="1.0" encoding="UTF-8"?>
<svg version="1.1" width="48px" height="48px" viewBox="0 0 48.0 48.0" xmlns="http://www.w3.org/2000/svg"
     xmlns:xlink="http://www.w3.org/1999/xlink">
    <defs>
        <clipPath id="i0">
            <path d="M13,40 C14.734,40 15.662,40.656 16.409,41.183 C17.08,41.657 17.566,42 18.664,42 C19.764,42 20.249,41.657 20.922,41.183 C21.668,40.656 22.598,40 24.332,40 C26.067,40 26.996,40.656 27.742,41.183 C28.415,41.657 28.901,42 30,42 L30,44 C28.266,44 27.336,43.344 26.59,42.817 C25.917,42.343 25.432,42 24.332,42 C23.233,42 22.747,42.343 22.074,42.817 C21.328,43.344 20.399,44 18.664,44 C16.931,44 16.002,43.344 15.255,42.817 C14.584,42.343 14.099,42 13,42 L7,42 L7,40 Z M5,40 L5,42 L0,42 L0,40 L5,40 Z M13,36 C14.734,36 15.662,36.656 16.409,37.183 C17.08,37.657 17.566,38 18.664,38 C19.764,38 20.249,37.657 20.922,37.183 C21.668,36.656 22.598,36 24.332,36 C26.067,36 26.996,36.656 27.742,37.183 C28.415,37.657 28.901,38 30,38 L30,40 C28.266,40 27.336,39.344 26.59,38.817 C25.917,38.343 25.432,38 24.332,38 C23.233,38 22.747,38.343 22.074,38.817 C21.328,39.344 20.399,40 18.664,40 C16.931,40 16.002,39.344 15.255,38.817 C14.584,38.343 14.099,38 13,38 L10,38 L10,36 Z M21.814,13.472 C23.465,14.017 25.023,14.992 26.319,16.292 C27.269,17.245 28.061,18.384 28.682,19.693 C29.91,18.804 31.456,18.506 32.935,18.938 C35.06,19.559 36.498,21.468 36.865,24.107 C40.063,24.91 43.213,27.326 43.213,31.965 C43.213,37.843 38.384,39.789 35.831,39.997 L32,40 L32,38 L35.75,38 C35.893,37.984 41.213,37.452 41.213,31.965 C41.213,27.351 37.398,26.197 35.757,25.915 C35.233,25.825 34.872,25.342 34.933,24.817 C34.766,22.755 33.814,21.279 32.373,20.858 C31.19,20.51 29.913,20.974 29.128,22.038 C28.908,22.335 28.539,22.486 28.176,22.433 C27.81,22.378 27.504,22.126 27.381,21.777 C26.804,20.144 25.97,18.774 24.903,17.704 C23.826,16.625 22.542,15.819 21.187,15.371 L21.814,13.472 Z M8,36 L8,38 L4,38 L4,36 L8,36 Z M2,36 L2,38 L0,38 L0,36 L2,36 Z M13,32 C14.734,32 15.662,32.656 16.409,33.183 C17.08,33.657 17.566,34 18.664,34 C19.764,34 20.249,33.657 20.922,33.183 C21.668,32.656 22.598,32 24.332,32 C26.067,32 26.996,32.656 27.742,33.183 C28.415,33.657 28.901,34 30,34 L30,36 C28.266,36 27.336,35.344 26.59,34.817 C25.917,34.343 25.432,34 24.332,34 C23.233,34 22.747,34.343 22.074,34.817 C21.328,35.344 20.399,36 18.664,36 C16.931,36 16.002,35.344 15.255,34.817 C14.584,34.343 14.099,34 13,34 L8,34 L8,32 Z M6,32 L6,34 L4.4408921e-16,34 L4.4408921e-16,32 L6,32 Z M8.161,19.612 L10.005,20.388 C9.629,21.281 9.43,22.196 9.43,23.035 C9.43,23.352 9.45,23.674 9.491,23.992 C9.499,24.043 9.503,24.094 9.503,24.146 C9.503,24.634 9.153,25.045 8.684,25.131 C6.863,25.569 4.031,27.254 3.567,30.158 L1.592,29.842 C2.119,26.547 4.846,24.3 7.438,23.413 C7.433,23.287 7.43,23.161 7.43,23.035 C7.43,21.932 7.683,20.748 8.161,19.612 Z M22,7 C22.361,7 22.694,7.194 22.87,7.508 C23.048,7.822 23.043,8.207 22.857,8.516 L18,16.586 L18,20 C18,20.552 17.553,21 17,21 L13,21 C12.447,21 12,20.552 12,20 L12,16.586 L7.144,8.516 C6.957,8.207 6.952,7.822 7.13,7.508 C7.307,7.194 7.64,7 8,7 L22,7 Z M20.232,9 L9.769,9 L13.857,15.792 C13.95,15.948 14,16.126 14,16.308 L14,19 L16,19 L16,16.308 C16,16.126 16.05,15.948 16.144,15.792 L20.232,9 Z M17,3 L17,5 L15,5 L15,3 L17,3 Z M12,2 L12,4 L10,4 L10,2 L12,2 Z M21,0 L21,2 L19,2 L19,0 L21,0 Z"></path>
        </clipPath>
    </defs>
    <g transform="translate(2.0 2.0)">
        <g clip-path="url(#i0)">
            <polygon points="0,0 43.213,0 43.213,44 0,44 0,0" stroke="none" fill="#B0084D"></polygon>
        </g>
    </g>
</svg>
