<svg xmlns="http://www.w3.org/2000/svg" viewBox="0 0 337.46 428.5"><defs><style>.cls-1{fill:#121212}</style></defs><path d="M303.03,166.05a80.38,80.38,0,0,0,13.45-10.37c.79-.76,1.55-1.53,2.3-2.3a82.05,82.05,0,0,0,7.93-9.38,63.42,63.42,0,0,0,6.27-10.77,48.62,48.62,0,0,0,4.36-16.4c1.48-19.39-9.97-38.67-35.62-54.23L198.56,0,78.3,115.23,0,190.25l108.6,65.91a111.61,111.61,0,0,0,57.76,16.42c24.92,0,48.8-8.8,66.42-25.69,19.16-18.36,25.52-42.13,13.7-61.87a49.01,49.01,0,0,0-6.8-8.87,89.33,89.33,0,0,0,19.29,2.14h.15a85.01,85.01,0,0,0,30.97-5.79A80.54,80.54,0,0,0,303.03,166.05ZM202.45,225.86c-19.32,18.51-50.4,21.24-75.7,5.9L51.61,186.15l67.44-64.64,76.42,46.39C223.01,184.58,221.49,207.61,202.45,225.86Zm8.93-82.22L140.73,100.75l64.41-61.77,74.37,42.11c25.94,15.72,29.31,37.04,10.55,55.02A60.71,60.71,0,0,1,211.38,143.64Zm29.87,190.04c-19.58,18.76-46.17,29.09-74.88,29.09a123.82,123.82,0,0,1-64.11-18.19L0,282.52v24.68l108.6,65.91a111.61,111.61,0,0,0,57.76,16.42c24.92,0,48.8-8.8,66.42-25.69,12.88-12.34,19.99-27.13,19.68-41.49v-1.79A87.09,87.09,0,0,1,241.24,333.68Zm0-38.98c-19.58,18.76-46.17,29.09-74.88,29.09a123.82,123.82,0,0,1-64.11-18.19L0,243.53v24.68l108.6,65.91a111.61,111.61,0,0,0,57.76,16.42c24.92,0,48.8-8.8,66.42-25.69,12.88-12.34,19.99-27.13,19.68-41.5v-1.79A86.98,86.98,0,0,1,241.24,294.7Zm0-38.98c-19.58,18.76-46.17,29.09-74.88,29.09a123.82,123.82,0,0,1-64.11-18.19L0,204.55v24.68l108.6,65.91a111.61,111.61,0,0,0,57.76,16.42c24.92,0,48.8-8.8,66.42-25.69,12.88-12.34,19.99-27.13,19.68-41.49v-1.82A86.47,86.47,0,0,1,241.24,255.71Zm83.69,25.74a94.14,94.14,0,0,1-60.19,25.86v26.67a81.65,81.65,0,0,0,51.73-22.37c13.97-13.38,21.14-28.11,20.99-42.64v-2.2A95.16,95.16,0,0,1,324.94,281.45ZM241.24,372.66c-19.58,18.76-46.17,29.09-74.88,29.09a123.82,123.82,0,0,1-64.11-18.19L0,321.5v24.68l108.6,65.91a111.61,111.61,0,0,0,57.76,16.42c24.92,0,48.8-8.8,66.42-25.69,12.88-12.34,19.99-27.13,19.68-41.49v-1.79A86.98,86.98,0,0,1,241.24,372.66Zm85.74-210.21c-.68.69-1.35,1.37-2.05,2.05a99.3,99.3,0,0,1-22.24,15.69,94.68,94.68,0,0,1-26.25,8.71,98.09,98.09,0,0,1-14.16,1.57c.51,1.61.9,3.25,1.25,4.9a53.16,53.16,0,0,1,1.14,12v9.65h.05A84.27,84.27,0,0,0,290.09,211.48a80.95,80.95,0,0,0,26.39-16.82c.8-.77,1.5-1.56,2.26-2.34a82.05,82.05,0,0,0,7.93-9.38,63.33,63.33,0,0,0,6.28-10.78,48.44,48.44,0,0,0,4.32-16.44c.09-1.24.21-2.47.19-3.71v-2.05c-.72,1.04-1.48,2.06-2.26,3.09A97.67,97.67,0,0,1,326.99,162.45Zm-.03,77.92c-.69.69-1.31,1.41-2.02,2.09a94.13,94.13,0,0,1-60.19,25.86v26.67a81.65,81.65,0,0,0,51.73-22.37,73.55,73.55,0,0,0,16.47-22.49,48.45,48.45,0,0,0,4.32-16.44c.09-1.24.21-2.47.19-3.71v-2.19c-.74,1.07-1.46,2.15-2.27,3.22A97.1,97.1,0,0,1,326.96,240.37Zm0-38.98c-.69.69-1.3,1.41-2.02,2.09a97.19,97.19,0,0,1-22.25,15.68,95.67,95.67,0,0,1-37.94,10.18h-.05v26.67h.03a81.65,81.65,0,0,0,51.73-22.37c.8-.77,1.5-1.56,2.26-2.34a82.05,82.05,0,0,0,7.93-9.38,63.33,63.33,0,0,0,6.28-10.78,48.44,48.44,0,0,0,4.32-16.44c.09-1.24.21-2.47.19-3.71v-2.19c-.74,1.07-1.46,2.15-2.27,3.22A97.34,97.34,0,0,1,326.96,201.39Z" class="cls-1"/></svg>