<svg width="334" height="334" xmlns="http://www.w3.org/2000/svg" role="img" aria-label="Bitbucket">
 <defs>
  <linearGradient y2="0.53998" y1="0.00878" x1="0.82425" x2="0.12287" id="a">
   <stop stop-color="#0052cc" offset="0"/>
   <stop stop-color="#2684ff" offset="1"/>
  </linearGradient>
 </defs>
 <g>
  <title>Layer 1</title>
  <path id="svg_2" d="m332,27a10,10 0 0 0 -9.9,-11.7l-311.6,0a10,10 0 0 0 -10,11.7l45.5,279a10,10 0 0 0 9.9,8.4l221,0c5,0 9.2,-3.5 10,-8.4l45.1,-279zm-131,186.8l-69.3,0l-18.7,-98l104.8,0l-16.8,98z" fill="#2684ff"/>
  <path id="svg_3" transform="translate(89.8 85) scale(5.3285 5.3285)" d="m42.74169,5.86998l-18.692,0l-3.1,18.3l-13,0l0,18.9l27.16,0c1,0 1.7,-0.7 1.8,-1.6l5.8,-35.6l0.032,0z" fill="url(#a)"/>
 </g>
</svg>