<svg width="14" height="14" xmlns="http://www.w3.org/2000/svg" fill="none">

    <g>
        <title>Layer 1</title>
        <path id="svg_1" clip-rule="evenodd" d="m10.886,9.938l-1.157,-0.767l-0.965,1.622l-1.122,-0.33l-0.988,1.517l0.05,0.478l5.374,-0.996l-0.313,-3.378l-0.879,1.854zm-5.01,-1.456l0.861,-0.12c0.14,0.064 0.237,0.088 0.404,0.13c0.26,0.069 0.562,0.134 1.009,-0.092c0.104,-0.052 0.32,-0.251 0.408,-0.365l3.532,-0.644l0.36,4.388l-6.05,1.097l-0.524,-4.394zm6.56,-1.581l-0.348,0.067l-0.67,-6.964l-11.414,1.332l1.407,11.481l1.335,-0.195a3.03,3.03 0 0 0 -0.556,-0.576c-0.393,-0.33 -0.254,-0.888 -0.022,-1.24c0.307,-0.596 1.889,-1.354 1.8,-2.307c-0.033,-0.346 -0.088,-0.797 -0.407,-1.106c-0.012,0.128 0.01,0.252 0.01,0.252s-0.132,-0.169 -0.197,-0.398c-0.065,-0.088 -0.116,-0.117 -0.185,-0.234c-0.05,0.136 -0.043,0.294 -0.043,0.294s-0.107,-0.255 -0.125,-0.47a0.752,0.752 0 0 0 -0.08,0.279s-0.139,-0.403 -0.107,-0.62c-0.064,-0.188 -0.252,-0.562 -0.199,-1.412c0.348,0.245 1.115,0.187 1.414,-0.256c0.1,-0.147 0.167,-0.548 -0.05,-1.337c-0.139,-0.506 -0.483,-1.26 -0.618,-1.546l-0.016,0.012c0.071,0.23 0.217,0.713 0.273,0.947c0.17,0.71 0.215,0.958 0.136,1.285c-0.068,0.285 -0.23,0.471 -0.642,0.68c-0.412,0.208 -0.958,-0.3 -0.993,-0.328c-0.4,-0.32 -0.709,-0.844 -0.744,-1.098c-0.035,-0.278 0.16,-0.445 0.258,-0.672c-0.14,0.04 -0.298,0.112 -0.298,0.112s0.188,-0.195 0.419,-0.364c0.095,-0.063 0.152,-0.104 0.252,-0.188c-0.146,-0.003 -0.264,0.002 -0.264,0.002s0.243,-0.133 0.496,-0.23c-0.185,-0.007 -0.362,0 -0.362,0s0.544,-0.245 0.973,-0.424c0.295,-0.122 0.583,-0.086 0.745,0.15c0.212,0.308 0.436,0.476 0.909,0.58c0.29,-0.13 0.379,-0.197 0.744,-0.297c0.321,-0.355 0.573,-0.401 0.573,-0.401s-0.125,0.115 -0.158,0.297c0.182,-0.145 0.382,-0.265 0.382,-0.265s-0.078,0.096 -0.15,0.249l0.017,0.025c0.213,-0.129 0.463,-0.23 0.463,-0.23s-0.072,0.091 -0.156,0.209c0.16,-0.002 0.486,0.006 0.612,0.02c0.745,0.017 0.9,-0.8 1.185,-0.902c0.358,-0.129 0.518,-0.206 1.128,0.396c0.523,0.518 0.932,1.444 0.73,1.652c-0.171,0.172 -0.507,-0.068 -0.879,-0.534a2.026,2.026 0 0 1 -0.415,-0.911c-0.059,-0.313 -0.288,-0.495 -0.288,-0.495s0.133,0.297 0.133,0.56c0,0.142 0.018,0.678 0.246,0.979c-0.022,0.044 -0.033,0.217 -0.058,0.25c-0.265,-0.323 -0.836,-0.554 -0.929,-0.622c0.315,0.26 1.039,0.856 1.317,1.428c0.263,0.54 0.108,1.035 0.24,1.164c0.039,0.037 0.566,0.698 0.668,1.03c0.177,0.58 0.01,1.188 -0.222,1.566l-0.647,0.101c-0.094,-0.026 -0.158,-0.04 -0.243,-0.09c0.047,-0.082 0.14,-0.29 0.14,-0.333l-0.036,-0.065a2.737,2.737 0 0 1 -0.819,0.726c-0.367,0.21 -0.79,0.177 -1.065,0.092c-0.781,-0.243 -1.52,-0.774 -1.698,-0.914c0,0 -0.005,0.112 0.028,0.137c0.197,0.223 0.648,0.628 1.085,0.91l-0.93,0.102l0.44,3.444c-0.196,0.029 -0.226,0.042 -0.44,0.073c-0.187,-0.669 -0.547,-1.105 -0.94,-1.36c-0.347,-0.223 -0.825,-0.274 -1.283,-0.183l-0.03,0.034c0.319,-0.033 0.695,0.014 1.08,0.26c0.38,0.24 0.685,0.863 0.797,1.238c0.144,0.479 0.244,0.991 -0.144,1.534c-0.275,0.386 -1.08,0.6 -1.73,0.138c0.174,0.281 0.409,0.51 0.725,0.554c0.469,0.064 0.914,-0.018 1.22,-0.334c0.262,-0.27 0.4,-0.836 0.364,-1.432l0.414,-0.06l0.15,1.069l6.852,-0.83l-0.56,-5.487zm-4.168,-2.905c-0.02,0.044 -0.05,0.073 -0.005,0.216l0.003,0.008l0.007,0.019l0.02,0.042c0.08,0.168 0.17,0.326 0.32,0.406c0.038,-0.006 0.078,-0.01 0.12,-0.013a0.546,0.546 0 0 1 0.284,0.047a0.607,0.607 0 0 0 0.003,-0.13c-0.01,-0.212 0.042,-0.573 -0.363,-0.762c-0.153,-0.072 -0.367,-0.05 -0.439,0.04a0.175,0.175 0 0 1 0.034,0.007c0.108,0.038 0.035,0.075 0.015,0.12l0.001,0zm1.134,1.978c-0.053,-0.03 -0.301,-0.018 -0.475,0.003c-0.333,0.04 -0.691,0.155 -0.77,0.217c-0.143,0.111 -0.078,0.305 0.027,0.384c0.297,0.223 0.556,0.372 0.83,0.336c0.168,-0.022 0.317,-0.29 0.422,-0.534c0.072,-0.167 0.072,-0.348 -0.034,-0.406zm-2.941,-1.715c0.093,-0.09 -0.467,-0.207 -0.902,0.09c-0.32,0.221 -0.33,0.693 -0.024,0.96c0.03,0.027 0.056,0.046 0.08,0.06a2.75,2.75 0 0 1 0.809,-0.24c0.065,-0.072 0.14,-0.2 0.121,-0.434c-0.025,-0.315 -0.263,-0.265 -0.084,-0.436z" fill-rule="evenodd" fill="#632CA6"/>
    </g>
</svg>
