<svg id="Layer_1" xmlns="http://www.w3.org/2000/svg" viewBox="0 0 146 26"><style>.st0{fill:#353535}.st1{fill:#1496ff}.st2{fill:#1284ea}.st3{fill:#b4dc00}.st4{fill:#6f2da8}.st5{fill:#591f91}.st6{fill:#73be28}</style><g id="Variants"><path class="st0" d="M105.6 6.8h-3.4c-.9 0-1.6.2-2 .6-.4.4-.6 1.1-.6 2V21h-2V9.2c0-.9.2-1.9.6-2.6.9-1.3 2.6-1.6 3.8-1.6h3.6v1.8zM92.6 19.2c-.9 0-1.6-.2-2-.6-.4-.4-.6-1-.6-1.9V6.8h4.2V5H90V.2h-2v16.5c0 .9.2 1.9.6 2.6.9 1.4 2.5 1.6 3.7 1.6H96v-1.8c0 .1-3.4.1-3.4.1zM40 .2V5h-4.2c-2.6 0-4.1.8-5.1 1.7-1.5 1.4-1.5 3.5-1.5 3.7v5.1c0 .2 0 2.3 1.5 3.7.9.9 2.5 1.7 5.1 1.7h1.9c1.2 0 2.9-.3 3.7-1.6.5-.7.6-1.7.6-2.6V.2h-2zm-.6 18.4c-.4.4-1.1.6-2 .6h-1.8c-1.7 0-2.7-.5-3.3-1.1-.7-.7-1-1.7-1-2.4v-5.3c0-.7.3-1.7 1-2.4.6-.6 1.7-1.1 3.3-1.1H40v9.8c0 .9-.2 1.5-.6 1.9zM123.8 7.9c.6-.6 1.7-1.1 3.3-1.1h4.8V5h-4.6c-2.6 0-4.1.8-5.1 1.7-1.5 1.4-1.5 3.5-1.5 3.7v5.1c0 .2 0 2.3 1.5 3.7.9.9 2.5 1.7 5.1 1.7h4.6v-1.8h-4.8c-1.7 0-2.7-.5-3.3-1.1-.7-.7-1-1.7-1-2.4v-5.3c0-.7.2-1.7 1-2.4zM85.9 10.4c0-.2 0-2.3-1.5-3.7-.9-.9-2.4-1.7-5-1.7h-4.5v1.8h4.7c1.7 0 2.7.5 3.3 1.1.7.7 1 1.7 1 2.4v1.6h-6.4c-1.2 0-2.9.3-3.7 1.6-.5.7-.6 1.7-.6 2.6v.6c0 .9.2 1.9.6 2.6.9 1.4 2.5 1.6 3.7 1.6h4.1c1.2 0 2.9-.3 3.7-1.6.5-.7.6-1.7.6-2.6v-6.3zm-2.6 8.2c-.4.4-1.1.6-2 .6h-3.5c-.9 0-1.6-.2-2-.6-.4-.4-.6-1-.6-1.9v-.4c0-.9.2-1.6.6-1.9s1.1-.6 2-.6h6.1v3c0 .8-.2 1.4-.6 1.8zM119.2 10.4c0-.2 0-2.3-1.5-3.7-.9-.9-2.5-1.7-5.1-1.7h-4.5v1.8h4.7c1.7 0 2.7.5 3.3 1.1.7.7 1 1.7 1 2.4v1.6h-6.4c-1.2 0-2.9.3-3.7 1.6-.5.7-.6 1.7-.6 2.6v.6c0 .9.2 1.9.6 2.6.9 1.4 2.5 1.6 3.7 1.6h4.1c1.2 0 2.9-.3 3.7-1.6.5-.7.6-1.7.6-2.6.1.1.1-5.2.1-6.3zm-2.7 8.2c-.4.4-1.1.6-2 .6H111c-.9 0-1.6-.2-2-.6-.4-.4-.6-1-.6-1.9v-.4c0-.9.2-1.6.6-1.9.4-.4 1.1-.6 2-.6h6.1v3c0 .8-.2 1.4-.6 1.8zM58 5h-2.1l-5.1 13.3L45.7 5h-2.1l6.2 16-1.9 4.8H50zM71.6 10.4c0-.2 0-2.3-1.5-3.7-.9-.9-2.4-1.7-4.8-1.7h-.2c-2.4 0-3.9.8-4.8 1.7-1.5 1.4-1.5 3.5-1.5 3.7V21h2V10.4c0-.7.2-1.7 1-2.4.6-.6 1.8-1.1 3.4-1.1 1.6 0 2.8.5 3.4 1.1.7.7 1 1.7 1 2.4V21h2V10.4zM144.4 6.7c-.9-.9-2.4-1.7-4.8-1.7h-.2c-2.4 0-3.9.8-4.8 1.7-1.5 1.4-1.5 3.5-1.5 3.7v5.1c0 .2 0 2.3 1.5 3.7.9.9 2.4 1.7 4.8 1.7h4.7v-1.8h-4.6c-1.6 0-2.8-.5-3.4-1.1-.7-.7-1-1.7-1-2.4v-1.9h10.8v-3.3c-.1-.2-.1-2.3-1.5-3.7zm-9.3 5.2v-1.6c0-.7.2-1.7 1-2.4.6-.6 1.8-1.1 3.4-1.1 1.6 0 2.8.5 3.4 1.1.7.7 1 1.7 1 2.4v1.6h-8.8z"/><g><path class="st1" d="M8.7 2.4c-.3 1.7-.7 4.3-.9 6.9-.4 4.6-.2 7.7-.2 7.7l-6.5 6.2s-.5-3.4-.7-7.3c-.1-2.4-.2-4.5-.2-5.8v-.2c0-.1.1-.9.9-1.8 1-1 7.7-6.3 7.6-5.7z"/><path class="st2" d="M8.7 2.4c-.3 1.7-.7 4.3-.9 6.9 0 0-7.2-.9-7.6.9 0-.1.1-1.1 1-2 .9-.9 7.6-6.4 7.5-5.8z"/><path class="st3" d="M.2 9.7v.4c.1-.3.2-.5.5-.9.5-.6 1.3-.8 1.7-.8 1.8-.2 4.3-.5 7-.6 4.5-.2 7.6.2 7.6.2l6.5-6.2s-3.4-.6-7.3-1.1c-2.5-.3-4.8-.5-6-.5-.1 0-1-.1-1.8.7C7.4 1.8 2.8 6.2.9 8 .1 8.8.2 9.7.2 9.7z"/><path class="st4" d="M23.2 17.6c-1.8.2-4.3.5-7 .6-4.5.2-7.6-.2-7.6-.2l-6.5 6.2s3.4.7 7.3 1.1c2.4.3 4.5.4 5.7.5.1 0 .2-.1.3-.1.1 0 1-.2 1.8-1 1-.9 6.5-7.2 6-7.1z"/><path class="st5" d="M23.2 17.6c-1.8.2-4.3.5-7 .6 0 0 .5 7.2-1.2 7.5.1 0 1.3-.1 2.1-.9 1-.8 6.6-7.3 6.1-7.2z"/><path class="st6" d="M15.4 25.8H15c.3-.1.5-.2.9-.4.7-.5.9-1.4 1-1.7.3-1.7.7-4.3.9-6.9.4-4.6.1-7.7.1-7.7l6.5-6.2s.5 3.4.7 7.3c.2 2.5.2 4.8.2 6 0 .1.1 1-.8 1.8-.9.9-5.5 5.3-7.4 7.1-.7.8-1.6.7-1.7.7z"/></g></g></svg>