<svg width="250" height="250" xmlns="http://www.w3.org/2000/svg" fill="none">

    <g>
        <title>Layer 1</title>
        <path id="svg_1" fill="white" d="m260.69601,131.8644c0,-22.679 -14.062,-42.5065 -35.223,-50.2212c0.931,-4.78 1.416,-9.5613 1.416,-14.54c0,-42.1573 -34.299,-76.45731 -76.464,-76.45731c-24.628,0 -47.54,11.81201 -61.9359,31.71471c-7.0787,-5.492 -15.772,-8.5014 -24.8413,-8.5014c-22.3774,0 -40.584,18.2053 -40.584,40.584c0,4.9453 0.8826,9.6773 2.5373,14.144c-21.0373,7.592 -35.50266,27.8842 -35.50266,50.4202c0,22.794 14.12936,42.71 35.38666,50.37c-0.9027,4.727 -1.396,9.603 -1.396,14.534c0,42.062 34.2173,76.28 76.2799,76.28c24.689,0 47.587,-11.86 61.903,-31.844c7.125,5.594 15.84,8.665 24.874,8.665c22.378,0 40.584,-18.2 40.584,-40.577c0,-4.946 -0.882,-9.686 -2.537,-14.151c21.037,-7.585 35.503,-27.884 35.503,-50.42z"/>
        <path id="svg_2" fill="#FDD10B" d="m96.48501,106.7324l59.21,26.994l59.74,-52.3442c0.864,-4.3187 1.287,-8.6227 1.287,-13.128c0,-36.8294 -29.957,-66.7934 -66.787,-66.7934c-22.032,0 -42.582,10.848 -55.073,29.0387l-9.9361,51.5533l11.5591,24.6796z"/>
        <path id="svg_3" fill="#24BBB1" d="m35.19451,169.4344c-0.8653,4.317 -1.308,8.797 -1.308,13.329c0,36.924 30.0453,66.968 66.9745,66.968c22.213,0 42.864,-10.949 55.335,-29.327l9.862,-51.38l-13.161,-25.149l-59.444,-27.095l-58.2585,52.654z"/>
        <path id="svg_4" fill="#EF5098" d="m34.81971,66.9666l40.5773,9.5813l8.8907,-46.136c-5.544,-4.2373 -12.3907,-6.5573 -19.4307,-6.5573c-17.6333,0 -31.9747,14.348 -31.9747,31.9813c0,3.896 0.6507,7.6307 1.9374,11.1307z"/>
        <path id="svg_5" fill="#18A8E0" d="m31.29701,76.631c-18.1293,6.008 -30.7347,23.3864 -30.7347,42.5014c0,18.613 11.512,35.235 28.7907,41.812l56.9307,-51.46l-10.4534,-22.3334l-44.5333,-10.52z"/>
        <path id="svg_6" fill="#92C83E" d="m166.60501,220.4024c5.565,4.278 12.377,6.611 19.33,6.611c17.634,0 31.975,-14.341 31.975,-31.975c0,-3.889 -0.651,-7.624 -1.937,-11.124l-40.544,-9.486l-8.824,45.974z"/>
        <path id="svg_7" fill="#0479A1" d="m174.85401,163.8004l44.635,10.44c18.136,-5.995 30.741,-23.38 30.741,-42.503c0,-18.579 -11.54,-35.18 -28.852,-41.7374l-58.378,51.1444l11.854,22.656z"/>
    </g>
</svg>
