<svg width="272" height="270" viewBox="0 0 272 270" fill="none" xmlns="http://www.w3.org/2000/svg">
<path d="M271.264 141.486C271.264 118.807 257.202 98.9795 236.041 91.2648C236.972 86.4848 237.457 81.7035 237.457 76.7248C237.457 34.5675 203.158 0.267492 160.993 0.267492C136.365 0.267492 113.453 12.0795 99.0571 31.9822C91.9784 26.4902 83.2851 23.4808 74.2158 23.4808C51.8384 23.4808 33.6318 41.6861 33.6318 64.0648C33.6318 69.0101 34.5144 73.7421 36.1691 78.2088C15.1318 85.8008 0.666443 106.093 0.666443 128.629C0.666443 151.423 14.7958 171.339 36.0531 178.999C35.1504 183.726 34.6571 188.602 34.6571 193.533C34.6571 235.595 68.8744 269.813 110.937 269.813C135.626 269.813 158.524 257.953 172.84 237.969C179.965 243.563 188.68 246.634 197.714 246.634C220.092 246.634 238.298 228.434 238.298 206.057C238.298 201.111 237.416 196.371 235.761 191.906C256.798 184.321 271.264 164.022 271.264 141.486Z" fill="white"/>
<path d="M107.053 116.354L166.263 143.348L226.003 91.0038C226.867 86.6851 227.29 82.3811 227.29 77.8758C227.29 41.0464 197.333 11.0824 160.503 11.0824C138.471 11.0824 117.921 21.9304 105.43 40.1211L95.4939 91.6744L107.053 116.354Z" fill="#FDD10B"/>
<path d="M45.7625 179.056C44.8972 183.373 44.4545 187.853 44.4545 192.385C44.4545 229.309 74.4998 259.353 111.429 259.353C133.642 259.353 154.293 248.404 166.764 230.026L176.626 178.646L163.465 153.497L104.021 126.402L45.7625 179.056Z" fill="#24BBB1"/>
<path d="M45.3877 76.5882L85.965 86.1695L94.8557 40.0335C89.3117 35.7962 82.465 33.4762 75.425 33.4762C57.7917 33.4762 43.4503 47.8242 43.4503 65.4575C43.4503 69.3535 44.101 73.0882 45.3877 76.5882Z" fill="#EF5098"/>
<path d="M41.865 86.2526C23.7357 92.2606 11.1303 109.639 11.1303 128.754C11.1303 147.367 22.6423 163.989 39.921 170.566L96.8517 119.106L86.3983 96.7726L41.865 86.2526Z" fill="#18A8E0"/>
<path d="M177.173 230.024C182.738 234.302 189.55 236.635 196.503 236.635C214.137 236.635 228.478 222.294 228.478 204.66C228.478 200.771 227.827 197.036 226.541 193.536L185.997 184.05L177.173 230.024Z" fill="#92C83E"/>
<path d="M185.422 173.422L230.057 183.862C248.193 177.867 260.798 160.482 260.798 141.359C260.798 122.78 249.258 106.179 231.946 99.6216L173.568 150.766L185.422 173.422Z" fill="#0479A1"/>
</svg>
