<svg width="15" height="15" xmlns="http://www.w3.org/2000/svg" fill="none">
    <defs>
        <linearGradient y2="0.31114" y1="1.22443" x2="0.50045" x1="0.50045" id="grafana-color-16__paint0_linear_2372_364">
            <stop stop-color="#FFF200"/>
            <stop stop-color="#F15A29" offset="1"/>
        </linearGradient>
    </defs>
    <g>
        <title>Layer 1</title>
        <path stroke="null" id="svg_1" d="m13.75217,6.53983a4.66843,4.66843 0 0 0 -0.14615,-0.84938a5.33248,5.33248 0 0 0 -1.11627,-2.11604a3.13488,3.13488 0 0 0 -0.38762,-0.41622c0.2097,-0.8335 -0.25947,-1.55473 -0.25947,-1.55473c-0.80914,-0.04872 -1.31008,0.24041 -1.5039,0.38445c-0.03283,-0.01589 -0.06566,-0.03177 -0.09744,-0.03177c-0.12921,-0.04872 -0.27536,-0.11226 -0.42046,-0.14509c-0.14615,-0.04766 -0.29125,-0.07943 -0.4374,-0.12709c-0.14509,-0.03283 -0.30713,-0.0646 -0.46917,-0.09744c-0.03177,0 -0.04872,0 -0.08049,-0.01589c-0.35585,-1.10462 -1.3588,-1.57062 -1.3588,-1.57062c-1.11627,0.70535 -1.34292,1.69877 -1.34292,1.69877s0,0.01589 -0.01695,0.06354l-0.19381,0.04872c-0.08049,0.03177 -0.17793,0.06354 -0.25842,0.08049c-0.08155,0.03177 -0.17793,0.06354 -0.25947,0.09532c-0.16204,0.08049 -0.33891,0.16098 -0.50095,0.24147c-0.16204,0.09532 -0.32408,0.19169 -0.46917,0.28807c-0.01695,-0.01589 -0.03177,-0.01589 -0.03177,-0.01589c-1.55367,-0.5772 -2.92942,0.14404 -2.92942,0.14404c-0.12921,1.63522 0.61427,2.67736 0.77631,2.87011c-0.03177,0.09532 -0.06354,0.20758 -0.09638,0.30396a8.5828,8.5828 0 0 0 -0.25947,1.1544c0,0.06354 -0.01589,0.11226 -0.01589,0.17581c-1.45624,0.67358 -1.87669,2.11604 -1.87669,2.11604c1.19676,1.36304 2.60534,1.45836 2.60534,1.45836c0.17687,0.3209 0.38762,0.60897 0.61427,0.8981c0.09744,0.11226 0.19381,0.22453 0.30713,0.33679a3.19207,3.19207 0 0 0 0.0646,2.27597c1.34292,0.04766 2.21666,-0.5772 2.39458,-0.72123c0.12921,0.04766 0.27536,0.08049 0.40457,0.11226c0.40457,0.11226 0.82608,0.15992 1.24548,0.19169l0.51895,0c0.63015,0.8981 1.73054,1.01036 1.73054,1.01036c0.79219,-0.81761 0.82502,-1.63522 0.82502,-1.81103l0,-0.01589l0,-0.03177l0,-0.03177c0.16204,-0.11332 0.32302,-0.24147 0.46917,-0.37068a5.68727,5.68727 0 0 0 0.82502,-0.9447c0.01589,-0.03177 0.04872,-0.06354 0.0646,-0.09532c0.88963,0.04766 1.52084,-0.54543 1.52084,-0.54543c-0.14615,-0.91399 -0.67993,-1.36304 -0.79325,-1.45941l-0.01589,-0.01589l-0.01589,0s-0.01589,0 -0.01589,-0.01589c0,-0.04766 0.01589,-0.11226 0.01589,-0.15992c0,-0.09638 0.01589,-0.19275 0.01589,-0.30502l0,-0.12815l0,-0.17581l0,-0.08049l0,-0.16098l-0.01589,-0.07943c-0.01589,-0.09638 -0.03177,-0.20864 -0.0646,-0.30502a3.71314,3.71314 0 0 0 -0.45329,-1.10568a4.08382,4.08382 0 0 0 -0.76042,-0.8981a4.00756,4.00756 0 0 0 -0.95423,-0.60897a3.54475,3.54475 0 0 0 -1.05167,-0.28807c-0.17793,-0.01589 -0.35585,-0.03177 -0.53378,-0.03177l-0.08261,0l-0.17581,0c-0.09744,0.01589 -0.17898,0.01589 -0.27536,0.03177c-0.35585,0.06354 -0.67993,0.19169 -0.98706,0.36856c-0.29125,0.17581 -0.55072,0.38445 -0.76042,0.64074a2.73137,2.73137 0 0 0 -0.48612,0.80172a2.78538,2.78538 0 0 0 -0.19381,0.86527l0,0.41622c0.01589,0.14509 0.04872,0.28913 0.08155,0.41728c0.08049,0.27324 0.19381,0.51365 0.35585,0.70535c0.14509,0.20864 0.33891,0.36856 0.53378,0.51365c0.19381,0.12709 0.40457,0.22453 0.61427,0.28807c0.21076,0.06354 0.40457,0.08049 0.59838,0.08049l0.25842,0c0.03283,0 0.04978,0 0.06566,-0.01589c0.01589,0 0.04872,-0.01589 0.0646,-0.01589c0.04872,-0.01695 0.08049,-0.01695 0.12921,-0.03177l0.24359,-0.09744a0.92034,0.92034 0 0 0 0.2097,-0.12709c0.01589,-0.01695 0.03177,-0.03177 0.04872,-0.03177a0.13662,0.13662 0 0 0 0.01589,-0.2097c-0.04872,-0.06354 -0.12921,-0.07943 -0.19381,-0.03177c-0.01589,0.01589 -0.03177,0.01589 -0.04872,0.03177c-0.04872,0.03177 -0.11332,0.04872 -0.17793,0.06354l-0.19381,0.04872c-0.03177,0 -0.0646,0.01589 -0.09744,0.01589l-0.30713,0a1.60874,1.60874 0 0 1 -0.87374,-0.40033a1.53779,1.53779 0 0 1 -0.32408,-0.40033a1.75278,1.75278 0 0 1 -0.17793,-0.51365c-0.01589,-0.09532 -0.01589,-0.17581 -0.01589,-0.27218l0,-0.11226l0,-0.03177c0,-0.04872 0.01589,-0.09638 0.01589,-0.14404c0.0646,-0.38551 0.27536,-0.76995 0.58249,-1.05908c0.08155,-0.07943 0.16204,-0.14404 0.24359,-0.19169c0.08049,-0.06354 0.17687,-0.11226 0.2743,-0.15992c0.09744,-0.04872 0.19381,-0.08049 0.30713,-0.11226a1.05167,1.05167 0 0 1 0.32408,-0.04872l0.33997,0c0.11332,0.01589 0.24253,0.03177 0.35585,0.04872c0.22664,0.04766 0.45223,0.12709 0.66299,0.2563c0.42046,0.22453 0.77631,0.59309 1.00295,1.02625c0.11332,0.22347 0.19381,0.44799 0.22664,0.6884c0.01589,0.06354 0.01589,0.12815 0.01589,0.17687l0,0.38445c0,0.06354 -0.01589,0.12921 -0.01589,0.19275c0,0.06354 -0.01589,0.12709 -0.03177,0.19169l-0.04872,0.19275c-0.03177,0.12815 -0.08155,0.2563 -0.13027,0.38445a3.37106,3.37106 0 0 1 -0.38762,0.70535a3.17936,3.17936 0 0 1 -2.02285,1.24972c-0.12921,0.01695 -0.27536,0.03177 -0.40457,0.04872l-0.2097,0c-0.0646,0 -0.14615,0 -0.21076,-0.01589a3.85188,3.85188 0 0 1 -0.85786,-0.15992a4.30834,4.30834 0 0 1 -0.79219,-0.3209a4.34012,4.34012 0 0 1 -1.7962,-1.79514a4.65784,4.65784 0 0 1 -0.30713,-0.78584c-0.08049,-0.27218 -0.11332,-0.54437 -0.14509,-0.81761l0,-0.31984l0,-0.09638c0,-0.14404 0.01589,-0.27324 0.03177,-0.41728s0.04872,-0.28807 0.0646,-0.41622c0.03177,-0.14509 0.0646,-0.27324 0.09744,-0.41728a5.6449,5.6449 0 0 1 0.29125,-0.78478c0.22664,-0.49777 0.53378,-0.94576 0.90551,-1.29843c0.09744,-0.09638 0.19487,-0.17687 0.29125,-0.25736c0.09744,-0.07943 0.19487,-0.14404 0.30713,-0.22347a5.70845,5.70845 0 0 1 0.32408,-0.19275c0.04872,-0.03177 0.11332,-0.04766 0.16204,-0.08049a0.27536,0.27536 0 0 1 0.08049,-0.03177a0.27536,0.27536 0 0 1 0.08155,-0.03177c0.11332,-0.04872 0.24253,-0.09638 0.35585,-0.12815c0.03177,-0.01589 0.06354,-0.01589 0.09638,-0.03177c0.03177,-0.01695 0.0646,-0.01695 0.09744,-0.03177c0.0646,-0.01695 0.12921,-0.03283 0.17793,-0.04872c0.03177,-0.01589 0.0646,-0.01589 0.09744,-0.01589c0.03177,0 0.06354,-0.01695 0.09638,-0.01695c0.03177,0 0.0646,-0.01589 0.09744,-0.01589l0.04872,-0.01589l0.04872,0c0.03177,0 0.06354,-0.01589 0.09638,-0.01589c0.03177,0 0.0646,-0.01589 0.11332,-0.01589c0.03177,0 0.08155,-0.01589 0.11332,-0.01589l0.80914,0c0.24359,0.01589 0.46917,0.03177 0.69582,0.07943c0.45329,0.08049 0.88963,0.22453 1.27831,0.41728c0.38762,0.19275 0.74348,0.41622 1.03472,0.67358l0.04872,0.04766l0.04872,0.04766c0.03177,0.03177 0.0646,0.0646 0.11332,0.09638l0.09744,0.09638l0.09638,0.09532c0.13027,0.12921 0.24359,0.27324 0.35585,0.41728c0.21076,0.27324 0.38868,0.54543 0.51895,0.81761c0.01483,0.01589 0.01483,0.03177 0.03177,0.04872c0.01589,0.01589 0.01589,0.03177 0.01589,0.04766l0.04872,0.09532l0.04872,0.09744l0.04766,0.09532c0.04872,0.12921 0.09744,0.24147 0.13027,0.35267c0.06354,0.17687 0.11332,0.33679 0.14509,0.48188c0.01589,0.04766 0.0646,0.09532 0.12921,0.07943a0.11014,0.11014 0 0 0 0.11332,-0.11226c0.09744,-0.24041 0.09744,-0.41622 0.08155,-0.60897z" fill="url(#grafana-color-16__paint0_linear_2372_364)"/>
    </g>
</svg>
