<svg xmlns="http://www.w3.org/2000/svg" xmlns:xlink="http://www.w3.org/1999/xlink" width="607" height="211" viewBox="0 0 607 211"><title>Heap-RGB_Logo-Horizontal-Lockup-Color</title><desc>Created with Sketch.</desc><g id="Page-1" fill="none" fill-rule="evenodd" stroke="none" stroke-width="1"><g id="Heap-RGB_Logo-Horizontal-Lockup-Color" fill-rule="nonzero"><g id="Group" fill="#2D124E" transform="translate(228.000000, 44.000000)"><path id="Shape" d="M244.52,31.7 C230.43,31.7 215.87,39.78 210.16,49.92 L218.89,54.97 L225.22,58.62 C227.86,53.01 236.34,48.71 244.16,48.71 L244.52,48.71 C255.64,48.89 261.13,55.8 261.13,64.71 L261.13,71.92 C257.53,69.31 248.52,66.51 240.51,66.51 C220.9,66.51 205.88,78.32 205.88,95.13 C205.88,113.34 220.88,124.13 239.11,124.13 C248.198027,124.104867 256.764675,119.882443 262.32,112.69 L264.1,122.53 L280.15,122.53 L280.15,64.32 C280.11,44.12 266.92,31.72 244.52,31.7 L244.52,31.7 Z M243.37,108 L242.78,108 C233.78,108 224.46,104.17 224.46,95.19 C224.46,86.42 233.8,82.62 242.78,82.59 L243.37,82.59 C252.37,82.59 261.69,86.42 261.69,95.19 C261.69,104.12 252.35,107.92 243.37,108 Z"/><path id="Shape" d="M181,96.91 C176.21,104.21 168.21,107.75 158.61,107.75 C145.8,107.75 136.79,98.34 136.19,82.75 L196.84,82.75 L196.84,75.55 C196.84,49.55 183.23,31.72 158.21,31.72 C133.99,31.72 116.57,51.72 116.57,78.35 C116.57,105.77 133.79,124.58 158.57,124.58 C176.05,124.58 189.57,117.34 195.35,105.25 L181,96.91 Z M158.41,48.51 C170.62,48.51 176.83,57.32 177.03,68.12 L136.76,68.12 C139.16,55.31 147.37,48.51 158.38,48.51 L158.41,48.51 Z"/><path id="Shape" d="M315.18,155.61 L295.18,155.61 L295.18,33.7 L312,33.7 L313.63,44.8 C317.33,39.73 324.5,31.7 338.52,31.7 C364.52,31.7 379,53.31 379,78.13 C379,102.95 363.78,124.56 337.76,124.56 C327.96,124.56 319.15,119.96 315.15,114.96 L315.18,155.61 Z M336.34,49.61 C322.14,49.61 313.66,61.76 313.66,78.09 C313.66,94.42 322.14,106.57 336.34,106.57 C350.54,106.57 359,94.46 359,78.13 C359,61.8 350.53,49.65 336.34,49.65 L336.34,49.61 Z"/><polygon id="Path" points="103.64 .61 103.64 122.61 82.82 122.61 82.82 70.79 21 70.79 21 122.56 .15 122.56 .15 .61 21 .61 21 52.38 82.85 52.38 82.85 .61"/></g><path id="Shape" fill="#ED485F" d="M180.57,50.65 L95.82,1.72 C93.6764047,0.480008347 91.0335953,0.480008347 88.89,1.72 L4.14,50.65 C1.99825628,51.8889171 0.679523925,54.1757362 0.68,56.65 L0.68,154.51 C0.681579939,156.983713 1.99976265,159.269579 4.14,160.51 L88.89,209.44 C91.0335953,210.679992 93.6764047,210.679992 95.82,209.44 L180.57,160.51 C182.710237,159.269579 184.02842,156.983713 184.03,154.51 L184.03,56.65 C184.030476,54.1757362 182.711744,51.8889171 180.57,50.65 L180.57,50.65 Z M162.66,146.17 L92.35,186.77 L22,146.17 L22,65 L92.31,24.41 L92.31,99.6 C92.3128468,100.837253 92.9742599,101.979395 94.0459539,102.59768 C95.1176479,103.215965 96.4374788,103.216849 97.51,102.6 L162.66,65 L162.66,146.17 Z"/></g></g></svg>