<svg xmlns="http://www.w3.org/2000/svg" xmlns:xlink="http://www.w3.org/1999/xlink" width="800" height="800" preserveAspectRatio="xMidYMid" version="1.1" viewBox="-20 0 296 296"><defs><linearGradient id="linearGradient-1" x1="49.9%" x2="49.9%" y1="100.003%" y2=".003%"><stop offset="0%" stop-color="#F37C27"/><stop offset="100%" stop-color="#ED3774"/></linearGradient></defs><g><path fill="url(#linearGradient-1)" d="M24.8165779,207.36323 L24.8165779,88.229422 L127.997263,28.6488313 L127.997263,147.788114 L231.183422,88.229422 L231.183422,207.36323 L127.997263,266.943821 L24.8165779,207.36323 L24.8165779,207.36323 Z M115.591711,7.14441522 L12.4110263,66.7195312 L0,73.8967943 L0,88.2348966 L0,207.368705 L0,221.717756 L12.4110263,228.88407 L115.597186,288.464661 L127.997263,295.630975 L140.413764,288.453711 L243.594448,228.873121 L256,221.706807 L256,207.357755 L256,88.229422 L256,73.8913197 L243.594448,66.7140566 L140.413764,7.14441522 L127.997263,0 L115.591711,7.14441522 L115.591711,7.14441522 Z"/></g></svg>