<svg id="Layer_1" data-name="Layer 1" xmlns="http://www.w3.org/2000/svg" viewBox="0 0 740.94 159.36"><defs><style>.cls-1,.cls-2{fill:#52bd94;}.cls-2{fill-rule:evenodd;}</style></defs><rect class="cls-1" x="55.6" y="52.81" width="88.52" height="15.36" rx="2.86"/><rect class="cls-1" x="0.83" y="91.19" width="88.52" height="15.36" rx="2.86"/><path class="cls-2" d="M11.45,63.32a2.87,2.87,0,0,0,3.48-2A60.42,60.42,0,0,1,85.52,20.71a2.84,2.84,0,0,0,3.32-2.06l2.5-9.33a2.87,2.87,0,0,0-2.17-3.53,75.76,75.76,0,0,0-89,51.48,2.86,2.86,0,0,0,2,3.56Z"/><path class="cls-2" d="M133.52,96A2.88,2.88,0,0,0,130,98a60.42,60.42,0,0,1-70.59,40.66,2.83,2.83,0,0,0-3.32,2.06L53.64,150a2.87,2.87,0,0,0,2.17,3.54,75.8,75.8,0,0,0,89-51.49,2.84,2.84,0,0,0-2-3.55Z"/><circle class="cls-1" cx="116.24" cy="27.53" r="8.42"/><circle class="cls-1" cx="28.73" cy="131.82" r="8.42"/><path class="cls-2" d="M350.33,64.41A32.21,32.21,0,0,1,374.6,53.89c8.86,0,15.76,2.74,20.12,8V57.53a2.44,2.44,0,0,1,2.3-2.32H408.7A2.45,2.45,0,0,1,411,57.53v64.85a39.51,39.51,0,0,1-8,25.44c-6.3,7.66-15.86,11.54-28.42,11.54-17.46,0-31.24-11.05-33.51-26.83a2.45,2.45,0,0,1,1.76-2.59l11.41-2.68a1.13,1.13,0,0,1,.18,0,2.28,2.28,0,0,1,2.6,1.93A17.26,17.26,0,0,0,374.6,144.4c13.64,0,20-7,20-21.63v-5.68a25.66,25.66,0,0,1-20,8.56c-19.41,0-33.49-15.07-33.49-35.81A37.76,37.76,0,0,1,350.33,64.41ZM576.82,53h.61c20.87.28,33.8,14.81,33.8,38.06a35.09,35.09,0,0,1-.2,3.69,2.27,2.27,0,0,1-2.24,2H559.18a19.08,19.08,0,0,0,19.35,18.51,17.39,17.39,0,0,0,17.75-12.39,2.29,2.29,0,0,1,2.85-1.37L609,105a2.13,2.13,0,0,1,1.29,1.17,2.22,2.22,0,0,1,.12,1.73,32.66,32.66,0,0,1-31.92,22.2,35.26,35.26,0,0,1-25.17-10.22,39.36,39.36,0,0,1-10.81-28.56c0-24,17.44-38.37,34.29-38.37ZM296.14,53c21.24,0,34.44,14.59,34.44,38.07a35.09,35.09,0,0,1-.2,3.69,2.24,2.24,0,0,1-2.24,2H278.53A19.08,19.08,0,0,0,298,115.31a17.37,17.37,0,0,0,17.75-12.39,2.26,2.26,0,0,1,2.85-1.37l9.91,3.49a2.11,2.11,0,0,1,1.29,1.17,2.26,2.26,0,0,1,0,1.73,32.66,32.66,0,0,1-31.9,22.2,35.29,35.29,0,0,1-25.22-10.22,39.5,39.5,0,0,1-10.81-28.56c0-24,17.44-38.37,34.3-38.37ZM221,53c9.53,0,17.24,2.31,22.95,6.88a25,25,0,0,1,8.22,11.92v0A1.55,1.55,0,0,1,251,73.67l-11.83,3.91a2.29,2.29,0,0,1-1.63,0,1.72,1.72,0,0,1-.93-1.08c-1-3.83-4.44-10.26-15.63-10.26-7.81,0-12.49,4.48-12.49,8.82,0,2.88,1.49,6.59,8.53,7.93l13,2.44c14.53,2.93,22.85,10.88,22.85,21.95l0-.19c0,11-10.58,22.75-30.24,22.75-22.8,0-31.76-12.9-33.41-20.51a1.64,1.64,0,0,1,1.21-1.81l12.2-3.8a1.83,1.83,0,0,1,.66,0,2.05,2.05,0,0,1,1,.24,1.68,1.68,0,0,1,.9,1.1c1.54,7.32,8.15,11.68,17.66,11.68,8.85,0,12.88-4.63,12.88-8.83s-3.59-7.29-9.76-8.53l-13.68-2.66c-12.76-2.41-20.71-10.34-20.71-20.66C191.58,63.6,205.07,53,221,53ZM723.55,32.65a2.44,2.44,0,0,1,2.29,2.44v20h12.83a2.45,2.45,0,0,1,2.27,2.44V68.19a2.3,2.3,0,0,1-2.27,2.31H725.84v35.59c0,5.9,2.34,8.34,8.36,8.34a31.2,31.2,0,0,0,4.1-.34,2.28,2.28,0,0,1,1.86.51,2.44,2.44,0,0,1,.78,1.76v10a2.3,2.3,0,0,1-1.64,2.22,31.61,31.61,0,0,1-9,1.17c-12.86,0-20.83-8.27-20.83-21.61V70.65h-11.1a2.44,2.44,0,0,1-2.29-2.32V57.65a2.43,2.43,0,0,1,2.29-2.44h2.88c3.49,0,9.37-1.22,9.37-9.54V35.09a2.43,2.43,0,0,1,2.29-2.44ZM482.75,64.92A26.4,26.4,0,0,1,506,53h0c12.68,0,25.49,8.93,25.49,28.44V126.6a2.45,2.45,0,0,1-2.3,2.32H517.5a2.45,2.45,0,0,1-2.29-2.32V82.89c0-5.53-1.73-14.85-13.44-14.85-8.56,0-14.64,6.73-14.64,16.49V126.6a2.44,2.44,0,0,1-2.29,2.32H473a2.45,2.45,0,0,1-2.3-2.32V82.89C470.72,77.36,469,68,457.28,68c-8.9,0-14.9,6.68-14.9,16.63V126.6a2.45,2.45,0,0,1-2.29,2.32H428.41a2.44,2.44,0,0,1-2.27-2.32V57.38a2.45,2.45,0,0,1,2.27-2.32h11.24a2.45,2.45,0,0,1,2.29,2.32v4.17A26.29,26.29,0,0,1,461.7,53,23.35,23.35,0,0,1,482.75,64.92ZM660.86,53a24.69,24.69,0,0,1,19.81,8.61,32.2,32.2,0,0,1,6.53,20.85V126.6a2.43,2.43,0,0,1-2.26,2.32H673.11a2.46,2.46,0,0,1-2.3-2.32V84.82c0-10.93-5.14-16.49-14.9-16.49a13.55,13.55,0,0,0-11.09,5.17,21.38,21.38,0,0,0-3.81,13V126.6a2.45,2.45,0,0,1-2.29,2.32H626.91a2.45,2.45,0,0,1-2.29-2.32V57.33A2.43,2.43,0,0,1,626.91,55h11.54a2.43,2.43,0,0,1,2.27,2.31v4.88A25.41,25.41,0,0,1,660.86,53ZM376.63,68.48c-11.52,0-18.83,8.19-18.83,21.36s7.22,21.35,18.83,21.35c11.07,0,18.53-8.59,18.53-21.35S387.7,68.48,376.63,68.48Zm-80.37-.66A17.07,17.07,0,0,0,279,83h34.7C312.87,73.63,306.21,67.82,296.26,67.82Zm280.75,0A17.08,17.08,0,0,0,559.77,83h34.71C593.62,73.63,587,67.82,577,67.82Z"/><path class="cls-1" d="M208.79,6.19V29.45H202.2V6.19h-9.11V.55H218V6.19Z"/><path class="cls-1" d="M259.13,29.55h-6.85L246,8.25l-6.39,21.3H232.9l-8.5-29h7l5.39,20.89L242.87.55h7l6,20.89L261.09.55h6.44Z"/><path class="cls-1" d="M276.6,29.45V.55h6.49v28.9Z"/><path class="cls-1" d="M294.77,29.45V.55h6.59V23.76h11.28v5.69Z"/><path class="cls-1" d="M322.46,29.45V.55H329v28.9Z"/><path class="cls-1" d="M353.47,30c-8,0-14.4-5.74-14.4-14.95s6.49-15,14.45-15,14.39,5.74,14.39,15S361.47,30,353.47,30Zm0-24.66c-5,0-7.91,4.12-7.91,9.66s3,9.71,7.91,9.71,7.8-4.22,7.8-9.66S358.35,5.34,353.52,5.34Z"/></svg>