<svg xmlns="http://www.w3.org/2000/svg" viewBox="0 0 85.5739 89.4228" xmlns:xlink="http://www.w3.org/1999/xlink">
 <defs>
  <style>
   .b53154be-f3fc-4f62-a1f7-fe24ef3a9b96,.bd3fb54f-8d44-4644-ac64-7058d6d89eab{fill:#52bd94;}.bd3fb54f-8d44-4644-ac64-7058d6d89eab{fill-rule:evenodd;}
  </style>
 </defs>
 <g id="b2b0aac9-bfe7-47c1-8033-08dd00eeee5c" data-name="Layer 1">
  <rect class="b53154be-f3fc-4f62-a1f7-fe24ef3a9b96" x="32.8171" y="28.8538" width="52.2503" height="9.0638" rx="1.6853">
  </rect>
  <rect class="b53154be-f3fc-4f62-a1f7-fe24ef3a9b96" x="0.4877" y="51.5052" width="52.2503" height="9.0638" rx="1.6853">
  </rect>
  <path class="bd3fb54f-8d44-4644-ac64-7058d6d89eab" d="M6.7614,35.0584a1.6992,1.6992,0,0,0,2.0528-1.1545A35.6595,35.6595,0,0,1,50.482,9.9028,1.6712,1.6712,0,0,0,52.44,8.6873l1.4747-5.5039a1.6954,1.6954,0,0,0-1.2817-2.0879,44.7263,44.7263,0,0,0-52.56,30.39,1.6775,1.6775,0,0,0,1.1849,2.0978Z">
  </path>
  <path class="bd3fb54f-8d44-4644-ac64-7058d6d89eab" d="M78.8125,54.3644A1.699,1.699,0,0,0,76.76,55.5188,35.659,35.659,0,0,1,35.0919,79.52a1.6714,1.6714,0,0,0-1.9576,1.2155L31.66,86.2394a1.6954,1.6954,0,0,0,1.2817,2.0879,44.7263,44.7263,0,0,0,52.56-30.39,1.6774,1.6774,0,0,0-1.1849-2.0978Z">
  </path>
  <circle class="b53154be-f3fc-4f62-a1f7-fe24ef3a9b96" cx="68.613" cy="13.9321" r="4.9695">
  </circle>
  <circle class="b53154be-f3fc-4f62-a1f7-fe24ef3a9b96" cx="16.9592" cy="75.4907" r="4.9695">
  </circle>
 </g>
</svg>