<svg width="130" height="130" xmlns="http://www.w3.org/2000/svg" xml:space="preserve" version="1.1">

 <g>
  <title>Layer 1</title>
  <g id="svg_1">
   <g id="svg_2">
    <path id="svg_3" fill="#E01E5A" d="m29.4,81.2c0,7.1 -5.8,12.9 -12.9,12.9c-7.1,0 -12.9,-5.8 -12.9,-12.9c0,-7.1 5.8,-12.9 12.9,-12.9l12.9,0l0,12.9z" class="st0"/>
    <path id="svg_4" fill="#E01E5A" d="m35.9,81.2c0,-7.1 5.8,-12.9 12.9,-12.9s12.9,5.8 12.9,12.9l0,32.3c0,7.1 -5.8,12.9 -12.9,12.9s-12.9,-5.8 -12.9,-12.9l0,-32.3z" class="st0"/>
   </g>
   <g id="svg_5">
    <path id="svg_6" fill="#36C5F0" d="m48.8,29.4c-7.1,0 -12.9,-5.8 -12.9,-12.9c0,-7.1 5.8,-12.9 12.9,-12.9s12.9,5.8 12.9,12.9l0,12.9l-12.9,0z" class="st1"/>
    <path id="svg_7" fill="#36C5F0" d="m48.8,35.9c7.1,0 12.9,5.8 12.9,12.9s-5.8,12.9 -12.9,12.9l-32.3,0c-7.1,0 -12.9,-5.8 -12.9,-12.9s5.8,-12.9 12.9,-12.9l32.3,0z" class="st1"/>
   </g>
   <g id="svg_8">
    <path id="svg_9" fill="#2EB67D" d="m100.6,48.8c0,-7.1 5.8,-12.9 12.9,-12.9c7.1,0 12.9,5.8 12.9,12.9s-5.8,12.9 -12.9,12.9l-12.9,0l0,-12.9z" class="st2"/>
    <path id="svg_10" fill="#2EB67D" d="m94.1,48.8c0,7.1 -5.8,12.9 -12.9,12.9c-7.1,0 -12.9,-5.8 -12.9,-12.9l0,-32.3c0,-7.1 5.8,-12.9 12.9,-12.9c7.1,0 12.9,5.8 12.9,12.9l0,32.3z" class="st2"/>
   </g>
   <g id="svg_11">
    <path id="svg_12" fill="#ECB22E" d="m81.2,100.6c7.1,0 12.9,5.8 12.9,12.9c0,7.1 -5.8,12.9 -12.9,12.9c-7.1,0 -12.9,-5.8 -12.9,-12.9l0,-12.9l12.9,0z" class="st3"/>
    <path id="svg_13" fill="#ECB22E" d="m81.2,94.1c-7.1,0 -12.9,-5.8 -12.9,-12.9c0,-7.1 5.8,-12.9 12.9,-12.9l32.3,0c7.1,0 12.9,5.8 12.9,12.9c0,7.1 -5.8,12.9 -12.9,12.9l-32.3,0z" class="st3"/>
   </g>
  </g>
 </g>
</svg>
