<svg width="207" height="48" viewBox="0 0 207 48" fill="none" xmlns="http://www.w3.org/2000/svg">
<mask id="mask0_428_31" style="mask-type:luminance" maskUnits="userSpaceOnUse" x="0" y="0" width="207" height="48">
<path d="M207 0.0999756H0.699951V48H207V0.0999756Z" fill="white"/>
</mask>
<g mask="url(#mask0_428_31)">
<path d="M83.6001 25.9C83.3001 34.3 76.7001 40.8 68.5001 40.8C59.8001 40.8 53.4001 33.8 53.4001 25.3C53.4001 16.8 60.4001 9.80005 68.9001 9.80005C72.7001 9.80005 76.5001 11.5 79.7001 14.4L77.2001 17.4C74.8001 15.3 71.8001 13.9 68.9001 13.9C62.7001 13.9 57.6001 19 57.6001 25.3C57.6001 31.7 62.4001 36.6 68.6001 36.6C74.1001 36.6 78.5001 32.6 79.3001 27.4H66.8001V23.7H83.7001L83.6001 25.9Z" fill="#0A0A0A"/>
<path d="M98 23.9H95.7C93.2 23.9 91.1 26 91.1 28.5V40.5H87V20H90.4V21.7C91.5 20.6 93.3 20 95.3 20H99.8L98 23.9Z" fill="#0A0A0A"/>
<path d="M120.4 40.6H116.9V38C114.2 40.6 109.9 41.9 105.6 40C102.4 38.6 100 35.7 99.4 32.2C98.2 25.5 103.3 19.6 109.8 19.6C112.6 19.6 115 20.7 116.8 22.5V20H120.3L120.4 40.6ZM116.2 31.7C117.2 27.5 114 23.7 109.9 23.7C106.3 23.7 103.4 26.6 103.4 30.2C103.4 34.2 106.9 37.3 111 36.6C113.5 36.2 115.6 34.2 116.2 31.7Z" fill="#0A0A0A"/>
<path d="M128.7 18.8V20H135.3V23.6H128.7V40.6H124.6V18.9C124.6 14.4 127.9 11.7 131.9 11.7H136.8L135.1 15.6H132C130.2 15.6 128.7 17 128.7 18.8Z" fill="#0A0A0A"/>
<path d="M157.1 40.6H153.6V38C150.9 40.6 146.6 41.9 142.3 40C139.1 38.6 136.7 35.7 136.1 32.2C134.9 25.5 140 19.6 146.5 19.6C149.3 19.6 151.7 20.7 153.5 22.5V20H157L157.1 40.6ZM152.9 31.7C153.9 27.5 150.7 23.7 146.6 23.7C143 23.7 140.1 26.6 140.1 30.2C140.1 34.2 143.6 37.3 147.7 36.6C150.2 36.2 152.3 34.2 152.9 31.7Z" fill="#0A0A0A"/>
<path d="M179.1 28.4V40.6H175V28.4C175 25.8 172.9 23.8 170.4 23.8C167.8 23.8 165.7 25.9 165.7 28.4V40.6H161.6V20H165V21.8C166.5 20.5 168.5 19.7 170.5 19.7C175.3 19.6 179.1 23.5 179.1 28.4Z" fill="#0A0A0A"/>
<path d="M203.4 40.6H199.9V38C197.2 40.6 192.9 41.9 188.6 40C185.4 38.6 183 35.7 182.4 32.2C181.2 25.5 186.3 19.6 192.8 19.6C195.6 19.6 198 20.7 199.8 22.5V20H203.3L203.4 40.6ZM199.1 31.7C200.1 27.5 196.9 23.7 192.8 23.7C189.2 23.7 186.3 26.6 186.3 30.2C186.3 34.2 189.8 37.3 193.9 36.6C196.5 36.2 198.6 34.2 199.1 31.7Z" fill="#0A0A0A"/>
<path d="M44.8001 21.2C44.7001 20.4 44.6001 19.5 44.3001 18.4C44.0001 17.4 43.6 16.3 43.1 15.1C42.5 13.9 41.8001 12.7 40.8001 11.6C40.4001 11.1 40 10.7 39.5 10.2C40.2 7.5 38.7 5.2 38.7 5.2C36.1 5 34.5001 6 33.9001 6.4C33.8001 6.4 33.7 6.3 33.6 6.3C33.2 6.1 32.7 6 32.2 5.8C31.7 5.7 31.3001 5.5 30.8001 5.4C30.3001 5.3 29.8 5.2 29.3 5.1C29.2 5.1 29.1 5.1 29 5.1C27.9 1.5 24.6 0 24.6 0C21 2.3 20.3 5.5 20.3 5.5C20.3 5.5 20.3 5.6 20.3 5.7C20.1 5.8 19.9001 5.8 19.7001 5.9C19.4001 6 19.2001 6.1 18.9001 6.2C18.6001 6.3 18.4 6.4 18.1 6.5C17.6 6.7 17 7 16.5 7.3C16 7.6 15.5 7.9 15 8.2C14.9 8.2 14.9001 8.1 14.9001 8.1C9.90005 6.2 5.50005 8.5 5.50005 8.5C5.10005 13.8 7.50005 17.1 8.00005 17.8C7.90005 18.1 7.80005 18.5 7.70005 18.8C7.30005 20 7.10005 21.2 6.90005 22.5C6.90005 22.7 6.90005 22.9 6.80005 23.1C2.20005 25.4 0.800049 30 0.800049 30C4.60005 34.4 9.10005 34.7 9.10005 34.7C9.70005 35.7 10.3 36.7 11.1 37.6C11.4 38 11.7 38.3 12.1 38.7C10.7 42.7 12.3 46 12.3 46C16.6 46.2 19.4 44.1 20 43.7C20.4 43.8 20.9 44 21.3 44.1C22.6 44.4 24 44.6 25.3 44.7C25.6 44.7 26 44.7 26.3 44.7H26.5H26.6H26.8H27C29 47.6 32.6 48 32.6 48C35.1 45.3 35.3001 42.7 35.3001 42.1V42V41.9C35.8001 41.5 36.3001 41.1 36.8001 40.7C37.8001 39.8 38.7001 38.7 39.4001 37.6C39.5001 37.5 39.5 37.4 39.6 37.3C42.5 37.5 44.5 35.5 44.5 35.5C44 32.5 42.3 31.1 42 30.8C42 30.8 42.0001 30.8 41.9001 30.8C41.9001 30.6 41.9001 30.4 41.9001 30.3C41.9001 30 41.9001 29.7 41.9001 29.3V29V28.9V28.8C41.9001 28.7 41.9001 28.7 41.9001 28.7V28.5V28.2C41.9001 28.1 41.9001 28 41.9001 27.9C41.9001 27.8 41.9001 27.7 41.9001 27.7V27.5V27.3C41.9001 27 41.8 26.7 41.7 26.3C41.4 25 40.9 23.8 40.2 22.7C39.5 21.6 38.7001 20.6 37.8001 19.8C36.9001 19 35.8 18.3 34.7 17.8C33.6 17.3 32.5001 17 31.3001 16.9C30.7001 16.8 30.2 16.8 29.6 16.8H29.4001H29.3H29.2001H29.1H28.9001C28.8001 16.8 28.7001 16.8 28.7001 16.8C28.4001 16.8 28.1 16.9 27.8 16.9C26.7 17.1 25.6001 17.5 24.7001 18.1C23.8001 18.7 22.9 19.4 22.3 20.2C21.6 21 21.1 21.9 20.8 22.8C20.4 23.7 20.2001 24.7 20.2001 25.6C20.2001 25.8 20.2001 26.1 20.2001 26.3C20.2001 26.4 20.2001 26.4 20.2001 26.5V26.7C20.2001 26.8 20.2001 26.9 20.2001 27C20.2001 27.5 20.3 27.9 20.5 28.3C20.7 29.2 21.1 29.9 21.6 30.6C22.1 31.3 22.7 31.8 23.3 32.2C23.9 32.6 24.6001 32.9 25.2001 33.1C25.9001 33.3 26.5 33.4 27.1 33.4C27.2 33.4 27.3 33.4 27.3 33.4H27.4001H27.5C27.6 33.4 27.6001 33.4 27.7001 33.4C27.7001 33.4 27.7 33.4 27.8 33.4H27.9001H28C28.1 33.4 28.1001 33.4 28.2001 33.4C28.3001 33.4 28.3001 33.4 28.4001 33.4C28.5001 33.4 28.7 33.3 28.8 33.3C29.1 33.2 29.3 33.1 29.6 33C29.8 32.9 30.1001 32.7 30.3001 32.6C30.4001 32.6 30.4 32.5 30.5 32.5C30.7 32.3 30.8 32 30.6 31.8C30.5 31.6 30.2 31.6 30 31.7C29.9 31.7 29.9 31.8 29.8 31.8C29.6 31.9 29.4001 32 29.2001 32C29.0001 32.1 28.8 32.1 28.6 32.2C28.5 32.2 28.4 32.2 28.3 32.2C28.2 32.2 28.2 32.2 28.1 32.2C28 32.2 28.0001 32.2 27.9001 32.2C27.8001 32.2 27.8001 32.2 27.7001 32.2C27.6001 32.2 27.6 32.2 27.5 32.2H27.4001C27.3001 32.2 27.3001 32.2 27.2001 32.2C26.7001 32.1 26.2 32 25.8 31.8C25.3 31.6 24.9 31.3 24.5 30.9C24.1 30.5 23.7 30.1 23.5 29.6C23.2 29.1 23.0001 28.5 22.9001 28C22.9001 27.7 22.8 27.4 22.8 27.1C22.8 27 22.8 26.9 22.8 26.9V26.8V26.7C22.8 26.5 22.8001 26.4 22.9001 26.2C23.1001 24.9 23.8001 23.7 24.7001 22.8C24.9001 22.6 25.2 22.3 25.5 22.2C25.8 22 26.1001 21.8 26.4001 21.7C26.7001 21.6 27.0001 21.4 27.4001 21.3C27.7001 21.2 28.1001 21.2 28.4001 21.1C28.6001 21.1 28.8001 21.1 28.9001 21.1H29H29.1H29.2001H29.3C29.7 21.1 30.1001 21.2 30.4001 21.3C31.1001 21.5 31.9 21.7 32.5 22.1C33.8 22.8 35 24 35.7 25.4C36.1 26.1 36.3001 26.9 36.4001 27.6C36.4001 27.8 36.5 28 36.5 28.2V28.3V28.4C36.5 28.5 36.5 28.5 36.5 28.5C36.5 28.6 36.5 28.6 36.5 28.6V28.7V28.8C36.5 28.9 36.5 29.1 36.5 29.2C36.5 29.4 36.5001 29.6 36.4001 29.8C36.4001 30 36.3001 30.2 36.3001 30.4C36.3001 30.6 36.2 30.8 36.2 31C36.1 31.4 36.0001 31.8 35.8001 32.2C35.5001 33 35.1 33.8 34.6 34.5C33.6 35.9 32.2 37 30.6 37.8C29.8 38.2 29 38.4 28.1 38.6C27.7 38.7 27.2 38.7 26.8 38.7H26.7001H26.6H26.5H26.3H26.2001C26.0001 38.7 25.7 38.7 25.5 38.7C24.6 38.6 23.7 38.5 22.8 38.2C21.9 37.9 21.1001 37.6 20.2001 37.2C18.6001 36.3 17.1 35.1 16 33.7C15.4 33 14.9 32.2 14.5 31.4C14.1 30.6 13.8 29.7 13.5 28.9C13.3 28 13.1 27.1 13.1 26.2V26V25.9V25.8V25.7V25.6V25.4V25.3C13.1 25.2 13.1 25.1 13.1 25C13.1 24.6 13.2001 24.1 13.2001 23.6C13.3001 23.1 13.3001 22.7 13.4001 22.2C13.5001 21.7 13.6001 21.3 13.7001 20.9C14.0001 20 14.3 19.2 14.6 18.4C15.3 16.8 16.3 15.4 17.5 14.2C17.8 13.9 18.1001 13.6 18.4001 13.4C18.7001 13.1 19.0001 12.9 19.4001 12.7C19.7001 12.5 20.1001 12.3 20.4001 12.1C20.6001 12 20.8001 11.9 20.9001 11.8C21.0001 11.8 21.1001 11.7 21.2001 11.7C21.3001 11.7 21.4 11.6 21.5 11.6C21.9 11.4 22.3 11.3 22.6 11.2C22.7 11.2 22.8001 11.1 22.9001 11.1C23.0001 11.1 23.1001 11 23.2001 11C23.4001 10.9 23.6 10.9 23.8 10.9C23.9 10.9 24 10.9 24.1 10.8C24.2 10.7 24.3001 10.8 24.4001 10.7C24.5001 10.7 24.6001 10.7 24.7001 10.6H24.8H24.9001C25.0001 10.6 25.1001 10.6 25.2001 10.6C25.3001 10.6 25.4 10.6 25.5 10.6C25.6 10.6 25.7 10.6 25.8 10.6C25.9 10.6 25.9 10.6 26 10.6H26.1H26.2001H26.3C26.4 10.6 26.5 10.6 26.6 10.6H26.8H26.9001C27.0001 10.6 27.1001 10.6 27.2001 10.6C27.6001 10.6 28.0001 10.6 28.4001 10.6C29.2001 10.6 29.9 10.7 30.7 10.9C32.2 11.2 33.5001 11.6 34.8001 12.3C36.0001 12.9 37.2 13.7 38.1 14.5C38.2 14.6 38.2001 14.6 38.3001 14.7C38.4001 14.8 38.4 14.8 38.5 14.9C38.6 15 38.7001 15.1 38.8001 15.2C38.9001 15.3 39 15.4 39.1 15.5C39.2 15.6 39.3001 15.7 39.4001 15.8C39.8001 16.2 40.2 16.7 40.5 17.1C41.2 18 41.7 18.9 42.2 19.7C42.2 19.8 42.3001 19.8 42.3001 19.9C42.3001 20 42.4001 20 42.4001 20.1C42.5001 20.2 42.5 20.3 42.5 20.4C42.5 20.5 42.6 20.6 42.6 20.7C42.6 20.8 42.7 20.9 42.7 21C42.9 21.4 43 21.8 43.1 22.1C43.3 22.7 43.5 23.2 43.6 23.6C43.6 23.8 43.8 23.9 44 23.9C44.2 23.9 44.3001 23.7 44.3001 23.5C44.8001 22.4 44.8001 21.9 44.8001 21.2Z" fill="url(#paint0_linear_428_31)"/>
</g>
<defs>
<linearGradient id="paint0_linear_428_31" x1="22.7878" y1="58.7793" x2="22.7878" y2="14.9973" gradientUnits="userSpaceOnUse">
<stop stop-color="#FFF100"/>
<stop offset="1" stop-color="#F05A28"/>
</linearGradient>
</defs>
</svg>
